%TF.GenerationSoftware,KiCad,Pcbnew,6.0.9-8da3e8f707~116~ubuntu20.04.1*%
%TF.CreationDate,2023-01-26T21:54:06-05:00*%
%TF.ProjectId,free2breathe_pcb,66726565-3262-4726-9561-7468655f7063,rev?*%
%TF.SameCoordinates,Original*%
%TF.FileFunction,Legend,Bot*%
%TF.FilePolarity,Positive*%
%FSLAX46Y46*%
G04 Gerber Fmt 4.6, Leading zero omitted, Abs format (unit mm)*
G04 Created by KiCad (PCBNEW 6.0.9-8da3e8f707~116~ubuntu20.04.1) date 2023-01-26 21:54:06*
%MOMM*%
%LPD*%
G01*
G04 APERTURE LIST*
G04 Aperture macros list*
%AMRoundRect*
0 Rectangle with rounded corners*
0 $1 Rounding radius*
0 $2 $3 $4 $5 $6 $7 $8 $9 X,Y pos of 4 corners*
0 Add a 4 corners polygon primitive as box body*
4,1,4,$2,$3,$4,$5,$6,$7,$8,$9,$2,$3,0*
0 Add four circle primitives for the rounded corners*
1,1,$1+$1,$2,$3*
1,1,$1+$1,$4,$5*
1,1,$1+$1,$6,$7*
1,1,$1+$1,$8,$9*
0 Add four rect primitives between the rounded corners*
20,1,$1+$1,$2,$3,$4,$5,0*
20,1,$1+$1,$4,$5,$6,$7,0*
20,1,$1+$1,$6,$7,$8,$9,0*
20,1,$1+$1,$8,$9,$2,$3,0*%
%AMRotRect*
0 Rectangle, with rotation*
0 The origin of the aperture is its center*
0 $1 length*
0 $2 width*
0 $3 Rotation angle, in degrees counterclockwise*
0 Add horizontal line*
21,1,$1,$2,0,0,$3*%
G04 Aperture macros list end*
%ADD10C,0.650000*%
%ADD11C,0.800000*%
%ADD12C,6.400000*%
%ADD13C,1.308000*%
%ADD14C,2.250000*%
%ADD15RotRect,1.498600X1.498600X330.000000*%
%ADD16C,1.498600*%
%ADD17R,1.800000X1.800000*%
%ADD18C,1.800000*%
%ADD19RotRect,1.308000X1.308000X210.000000*%
%ADD20RotRect,1.498600X1.498600X210.000000*%
%ADD21RoundRect,0.250000X-0.625000X0.350000X-0.625000X-0.350000X0.625000X-0.350000X0.625000X0.350000X0*%
%ADD22O,1.750000X1.200000*%
%ADD23RotRect,1.308000X1.308000X330.000000*%
%ADD24R,1.600000X1.600000*%
%ADD25O,1.600000X1.600000*%
%ADD26C,1.524000*%
G04 APERTURE END LIST*
%TO.C,G\u002A\u002A\u002A*%
G36*
X132184937Y-87210457D02*
G01*
X131956948Y-87382650D01*
X131741306Y-87541999D01*
X131552560Y-87677258D01*
X131405262Y-87777179D01*
X131354964Y-87808797D01*
X131112570Y-87947448D01*
X130838317Y-88088313D01*
X130582403Y-88205275D01*
X130128935Y-88395143D01*
X130863424Y-88587242D01*
X130995027Y-88622162D01*
X131233401Y-88688246D01*
X131424624Y-88745053D01*
X131551770Y-88787444D01*
X131597913Y-88810280D01*
X131593704Y-88816872D01*
X131520349Y-88858265D01*
X131362509Y-88926688D01*
X131129034Y-89018727D01*
X130828773Y-89130969D01*
X130470578Y-89259997D01*
X130063297Y-89402397D01*
X130045364Y-89408565D01*
X129453397Y-89587932D01*
X128900968Y-89702482D01*
X128355742Y-89757252D01*
X127785388Y-89757279D01*
X127760095Y-89756151D01*
X127176429Y-89707274D01*
X126648407Y-89613721D01*
X126139588Y-89469110D01*
X125986450Y-89419934D01*
X125868063Y-89386804D01*
X125818821Y-89379784D01*
X125817562Y-89382903D01*
X125803325Y-89452086D01*
X125779776Y-89590876D01*
X125751305Y-89773658D01*
X125744866Y-89815443D01*
X125584058Y-90533003D01*
X125334562Y-91235683D01*
X125005502Y-91901695D01*
X124605999Y-92509249D01*
X124274918Y-92947225D01*
X124171690Y-93544437D01*
X124131345Y-93774362D01*
X124091677Y-93993504D01*
X124059870Y-94161952D01*
X124040437Y-94255268D01*
X124025441Y-94328731D01*
X124040918Y-94360811D01*
X124109037Y-94346828D01*
X124249986Y-94290142D01*
X124300620Y-94269623D01*
X124369271Y-94249615D01*
X124442708Y-94247061D01*
X124538718Y-94266000D01*
X124675088Y-94310467D01*
X124869603Y-94384498D01*
X125140052Y-94492130D01*
X125258375Y-94539184D01*
X125495104Y-94631472D01*
X125691633Y-94705602D01*
X125830178Y-94754942D01*
X125892954Y-94772863D01*
X125917285Y-94767131D01*
X126014630Y-94721988D01*
X126144235Y-94646620D01*
X126205524Y-94609579D01*
X126327894Y-94545663D01*
X126403343Y-94520378D01*
X126455830Y-94539210D01*
X126590076Y-94595216D01*
X126794909Y-94683552D01*
X127059493Y-94799348D01*
X127372994Y-94937738D01*
X127724576Y-95093852D01*
X128103405Y-95262822D01*
X128498646Y-95439781D01*
X128899465Y-95619860D01*
X129295025Y-95798192D01*
X129674493Y-95969907D01*
X130027033Y-96130138D01*
X130341811Y-96274016D01*
X130607992Y-96396674D01*
X130814741Y-96493244D01*
X130951223Y-96558856D01*
X131006603Y-96588644D01*
X131006005Y-96590980D01*
X130953974Y-96634869D01*
X130824843Y-96729954D01*
X130624370Y-96872285D01*
X130358318Y-97057912D01*
X130032445Y-97282884D01*
X129652513Y-97543251D01*
X129224282Y-97835064D01*
X128753513Y-98154371D01*
X128245966Y-98497222D01*
X127707402Y-98859667D01*
X127143581Y-99237755D01*
X125962280Y-100028543D01*
X124817581Y-100794872D01*
X123751669Y-101508506D01*
X122761919Y-102171208D01*
X121845708Y-102784739D01*
X121000410Y-103350860D01*
X120223401Y-103871332D01*
X119512057Y-104347918D01*
X118863753Y-104782378D01*
X118275864Y-105176473D01*
X117745767Y-105531966D01*
X117270836Y-105850617D01*
X116848448Y-106134189D01*
X116475977Y-106384442D01*
X116150799Y-106603138D01*
X115870290Y-106792038D01*
X115631825Y-106952903D01*
X115432780Y-107087496D01*
X115270530Y-107197577D01*
X115142451Y-107284909D01*
X115045918Y-107351251D01*
X114978307Y-107398366D01*
X114936993Y-107428016D01*
X114919351Y-107441961D01*
X114887569Y-107466791D01*
X114816301Y-107484161D01*
X114801596Y-107461989D01*
X114746553Y-107357249D01*
X114654973Y-107173282D01*
X114530402Y-106917497D01*
X114376383Y-106597304D01*
X114196460Y-106220115D01*
X113994176Y-105793339D01*
X113773076Y-105324386D01*
X113536702Y-104820668D01*
X113288600Y-104289594D01*
X113153482Y-103999745D01*
X112902763Y-103461955D01*
X112661798Y-102945144D01*
X112434703Y-102458132D01*
X112225590Y-102009739D01*
X112038574Y-101608786D01*
X111877767Y-101264092D01*
X111747285Y-100984477D01*
X111651240Y-100778761D01*
X111593747Y-100655765D01*
X111393807Y-100228761D01*
X111161993Y-99733780D01*
X110967189Y-99317962D01*
X110806090Y-98974264D01*
X110675393Y-98695645D01*
X110571794Y-98475060D01*
X110491989Y-98305470D01*
X110432674Y-98179830D01*
X110390546Y-98091099D01*
X110350844Y-98003801D01*
X110869425Y-98003801D01*
X110881708Y-98053578D01*
X110931756Y-98183275D01*
X111014612Y-98380038D01*
X111124922Y-98631453D01*
X111257329Y-98925106D01*
X111406477Y-99248584D01*
X111490944Y-99429877D01*
X111676775Y-99828740D01*
X111868295Y-100239823D01*
X112053418Y-100637184D01*
X112220058Y-100994883D01*
X112356130Y-101286978D01*
X112357020Y-101288888D01*
X112457732Y-101505029D01*
X112594984Y-101799509D01*
X112762693Y-102159280D01*
X112954777Y-102571298D01*
X113165155Y-103022516D01*
X113387742Y-103499888D01*
X113616458Y-103990370D01*
X113845220Y-104480914D01*
X113918436Y-104637629D01*
X114128545Y-105084192D01*
X114325751Y-105498762D01*
X114505862Y-105872806D01*
X114664682Y-106197791D01*
X114798016Y-106465183D01*
X114901670Y-106666450D01*
X114971449Y-106793059D01*
X115003158Y-106836475D01*
X115024422Y-106829155D01*
X115119876Y-106776837D01*
X115265342Y-106685641D01*
X115438867Y-106569042D01*
X115479033Y-106541504D01*
X115615954Y-106448672D01*
X115827207Y-106306163D01*
X116106493Y-106118205D01*
X116447514Y-105889024D01*
X116843969Y-105622847D01*
X117289560Y-105323901D01*
X117777989Y-104996411D01*
X118302955Y-104644606D01*
X118858162Y-104272711D01*
X119437308Y-103884954D01*
X120034096Y-103485561D01*
X120272444Y-103326081D01*
X121410916Y-102564245D01*
X122468082Y-101856670D01*
X123446188Y-101201845D01*
X124347477Y-100598263D01*
X125174193Y-100044414D01*
X125928580Y-99538791D01*
X126612883Y-99079884D01*
X127229344Y-98666185D01*
X127780208Y-98296184D01*
X128267718Y-97968374D01*
X128694120Y-97681246D01*
X129061657Y-97433291D01*
X129372572Y-97223000D01*
X129629110Y-97048864D01*
X129833515Y-96909375D01*
X129988030Y-96803025D01*
X130094901Y-96728303D01*
X130156369Y-96683703D01*
X130174681Y-96667715D01*
X130166590Y-96663509D01*
X130085776Y-96625743D01*
X129926409Y-96552757D01*
X129698294Y-96448996D01*
X129411236Y-96318907D01*
X129075040Y-96166936D01*
X128699510Y-95997528D01*
X128294453Y-95815129D01*
X126430158Y-94976363D01*
X126180133Y-95120714D01*
X125930107Y-95265066D01*
X125191346Y-94967068D01*
X124452585Y-94669071D01*
X123981044Y-94876431D01*
X123838658Y-94937714D01*
X123664180Y-95008533D01*
X123541021Y-95053144D01*
X123489510Y-95063797D01*
X123488966Y-95044793D01*
X123500813Y-94941338D01*
X123527099Y-94760730D01*
X123565621Y-94517148D01*
X123614177Y-94224774D01*
X123670567Y-93897786D01*
X123871618Y-92751768D01*
X124172896Y-92372641D01*
X124428550Y-92030472D01*
X124741618Y-91526108D01*
X124982618Y-91011303D01*
X125031386Y-90878341D01*
X125128885Y-90559820D01*
X125223384Y-90190337D01*
X125307444Y-89802739D01*
X125373627Y-89429869D01*
X125414492Y-89104572D01*
X125418889Y-89057728D01*
X125440352Y-88882467D01*
X125463480Y-88759565D01*
X125483977Y-88713220D01*
X125488494Y-88713917D01*
X125560521Y-88742061D01*
X125693217Y-88803124D01*
X125861788Y-88885782D01*
X125936079Y-88921948D01*
X126459997Y-89120578D01*
X127039270Y-89255040D01*
X127654012Y-89325015D01*
X128284340Y-89330182D01*
X128910368Y-89270220D01*
X129512213Y-89144808D01*
X130069989Y-88953627D01*
X130233715Y-88884260D01*
X129817504Y-88717002D01*
X129703573Y-88669732D01*
X129484049Y-88571866D01*
X129267018Y-88467863D01*
X129070466Y-88367099D01*
X128912374Y-88278947D01*
X128810729Y-88212785D01*
X128783513Y-88177985D01*
X128793584Y-88173562D01*
X128880169Y-88155299D01*
X129033584Y-88131356D01*
X129229174Y-88105729D01*
X129652071Y-88035244D01*
X130314428Y-87843212D01*
X130945467Y-87557625D01*
X131535663Y-87182296D01*
X131902637Y-86910965D01*
X131207432Y-86877172D01*
X130957356Y-86861797D01*
X130233113Y-86775407D01*
X129590563Y-86630733D01*
X129030030Y-86427861D01*
X128551835Y-86166879D01*
X128519630Y-86145298D01*
X128365242Y-86033084D01*
X128231987Y-85914830D01*
X128109554Y-85776141D01*
X127987627Y-85602621D01*
X127855894Y-85379876D01*
X127704042Y-85093511D01*
X127521758Y-84729131D01*
X127396999Y-84481433D01*
X127229310Y-84162643D01*
X127062631Y-83859348D01*
X126910936Y-83596855D01*
X126788195Y-83400472D01*
X126689980Y-83250195D01*
X126590827Y-83089220D01*
X126527810Y-82975075D01*
X126511518Y-82925924D01*
X126520571Y-82920813D01*
X126604570Y-82892772D01*
X126754231Y-82851462D01*
X126944830Y-82803848D01*
X127497720Y-82630492D01*
X128032986Y-82372784D01*
X128508724Y-82044882D01*
X128912602Y-81653991D01*
X129170713Y-81356050D01*
X128478050Y-81322840D01*
X127775801Y-81272699D01*
X127147150Y-81190223D01*
X126582685Y-81071494D01*
X126065870Y-80912255D01*
X125580168Y-80708246D01*
X125109046Y-80455209D01*
X124935842Y-80350148D01*
X124766112Y-80240353D01*
X124601654Y-80123999D01*
X124426534Y-79988737D01*
X124224818Y-79822220D01*
X123980575Y-79612099D01*
X123677869Y-79346024D01*
X123135974Y-78912457D01*
X122513625Y-78514310D01*
X121873479Y-78203384D01*
X121227751Y-77986456D01*
X121057073Y-77947330D01*
X120683440Y-77887540D01*
X120286156Y-77851318D01*
X119904968Y-77841674D01*
X119579622Y-77861619D01*
X119565540Y-77863333D01*
X119386822Y-77880413D01*
X119132307Y-77899230D01*
X118824643Y-77918364D01*
X118486478Y-77936395D01*
X118140457Y-77951901D01*
X117908195Y-77961816D01*
X117538702Y-77982050D01*
X117241587Y-78007520D01*
X116998165Y-78041989D01*
X116789754Y-78089217D01*
X116597668Y-78152967D01*
X116403223Y-78237001D01*
X116187736Y-78345082D01*
X115823594Y-78572437D01*
X115415419Y-78924384D01*
X115052966Y-79346248D01*
X114747265Y-79822818D01*
X114509344Y-80338885D01*
X114350232Y-80879238D01*
X114323552Y-81030421D01*
X114292306Y-81329209D01*
X114281150Y-81640950D01*
X114290898Y-81928511D01*
X114322359Y-82154756D01*
X114364873Y-82337644D01*
X114018172Y-82505367D01*
X113983067Y-82522497D01*
X113825013Y-82603734D01*
X113714204Y-82667492D01*
X113672800Y-82701207D01*
X113676060Y-82711784D01*
X113713329Y-82792833D01*
X113783298Y-82932209D01*
X113874788Y-83107432D01*
X113909201Y-83172778D01*
X113994132Y-83338979D01*
X114053262Y-83462107D01*
X114075448Y-83519292D01*
X114062960Y-83540247D01*
X113992669Y-83620899D01*
X113874291Y-83743975D01*
X113723712Y-83892617D01*
X113336649Y-84318211D01*
X112951308Y-84862243D01*
X112614685Y-85473778D01*
X112336018Y-86137873D01*
X112329933Y-86154935D01*
X112246993Y-86410977D01*
X112156997Y-86724131D01*
X112067686Y-87063792D01*
X111986801Y-87399358D01*
X111922083Y-87700223D01*
X111881272Y-87935785D01*
X111876096Y-87971608D01*
X111846893Y-88102005D01*
X111793872Y-88212627D01*
X111699657Y-88332255D01*
X111546870Y-88489672D01*
X111247614Y-88785805D01*
X111247614Y-92049433D01*
X111645383Y-92471720D01*
X112043151Y-92894006D01*
X112123789Y-93341089D01*
X112136487Y-93412182D01*
X112178846Y-93654915D01*
X112230046Y-93954046D01*
X112284744Y-94278230D01*
X112337601Y-94596123D01*
X112470776Y-95404075D01*
X112758487Y-95757554D01*
X112801413Y-95810445D01*
X112950786Y-95996521D01*
X113085750Y-96167399D01*
X113181436Y-96291675D01*
X113316674Y-96472317D01*
X112105283Y-97218264D01*
X112057661Y-97247608D01*
X111746618Y-97440220D01*
X111465878Y-97615669D01*
X111226616Y-97766853D01*
X111040004Y-97886672D01*
X110917216Y-97968022D01*
X110869425Y-98003801D01*
X110350844Y-98003801D01*
X110347140Y-97995656D01*
X110303394Y-97883682D01*
X110294321Y-97833556D01*
X110294745Y-97833234D01*
X110345605Y-97800995D01*
X110470679Y-97723355D01*
X110658686Y-97607270D01*
X110898342Y-97459698D01*
X111178366Y-97287594D01*
X111487475Y-97097915D01*
X111506532Y-97086226D01*
X111813261Y-96896859D01*
X112089033Y-96724390D01*
X112322773Y-96575921D01*
X112503405Y-96458552D01*
X112619853Y-96379384D01*
X112661041Y-96345518D01*
X112643455Y-96310001D01*
X112577168Y-96214014D01*
X112478570Y-96085785D01*
X112444390Y-96043204D01*
X112324931Y-95894190D01*
X112231902Y-95771236D01*
X112159753Y-95658662D01*
X112102930Y-95540789D01*
X112055882Y-95401935D01*
X112013054Y-95226422D01*
X111968895Y-94998569D01*
X111917852Y-94702697D01*
X111854373Y-94323126D01*
X111648197Y-93093687D01*
X110844557Y-92222763D01*
X110844098Y-90403290D01*
X110843638Y-88583816D01*
X111142681Y-88287894D01*
X111231793Y-88198560D01*
X111349624Y-88068092D01*
X111421168Y-87956118D01*
X111464706Y-87830291D01*
X111498520Y-87658262D01*
X111614123Y-87082103D01*
X111833106Y-86293747D01*
X112110986Y-85557350D01*
X112443210Y-84883030D01*
X112825223Y-84280909D01*
X113252469Y-83761107D01*
X113568919Y-83425654D01*
X113342461Y-83005612D01*
X113288101Y-82903141D01*
X113199695Y-82728200D01*
X113138728Y-82596120D01*
X113116004Y-82529613D01*
X113119090Y-82520788D01*
X113181747Y-82465029D01*
X113308543Y-82384982D01*
X113477603Y-82294848D01*
X113839203Y-82116039D01*
X113848979Y-81589481D01*
X113856861Y-81397675D01*
X113944520Y-80766563D01*
X114121804Y-80161982D01*
X114382583Y-79593856D01*
X114720726Y-79072107D01*
X115130104Y-78606656D01*
X115604586Y-78207426D01*
X116138043Y-77884340D01*
X116245026Y-77832787D01*
X116527178Y-77719604D01*
X116827117Y-77635582D01*
X117165424Y-77576764D01*
X117562679Y-77539197D01*
X118039463Y-77518924D01*
X118183501Y-77515304D01*
X118576708Y-77505028D01*
X119009361Y-77493282D01*
X119438250Y-77481253D01*
X119820166Y-77470123D01*
X120082091Y-77463803D01*
X120470323Y-77463778D01*
X120796928Y-77480736D01*
X121086463Y-77518335D01*
X121363487Y-77580231D01*
X121652557Y-77670083D01*
X121978231Y-77791549D01*
X122289175Y-77921484D01*
X122659242Y-78102118D01*
X123013358Y-78309626D01*
X123371384Y-78556925D01*
X123753179Y-78856931D01*
X124178606Y-79222561D01*
X124474911Y-79476319D01*
X125019358Y-79890066D01*
X125544590Y-80216412D01*
X126059620Y-80460644D01*
X126573459Y-80628053D01*
X126607055Y-80636449D01*
X127150118Y-80746641D01*
X127767431Y-80829749D01*
X128436778Y-80883371D01*
X129135941Y-80905105D01*
X129395238Y-80908839D01*
X129649794Y-80916798D01*
X129851519Y-80927876D01*
X129984361Y-80941166D01*
X130032263Y-80955761D01*
X130021710Y-80981688D01*
X129956281Y-81076919D01*
X129842140Y-81222323D01*
X129692193Y-81402789D01*
X129519346Y-81603210D01*
X129336505Y-81808474D01*
X129156575Y-82003474D01*
X128992462Y-82173101D01*
X128799110Y-82350471D01*
X128407346Y-82642139D01*
X127982011Y-82887613D01*
X127560265Y-83063786D01*
X127555496Y-83065353D01*
X127388647Y-83121544D01*
X127265054Y-83165695D01*
X127211161Y-83188367D01*
X127216370Y-83217117D01*
X127260351Y-83311854D01*
X127335242Y-83446625D01*
X127383022Y-83531761D01*
X127478707Y-83711592D01*
X127599972Y-83946212D01*
X127736108Y-84214847D01*
X127876408Y-84496719D01*
X127984220Y-84712293D01*
X128119016Y-84973537D01*
X128240478Y-85200143D01*
X128338478Y-85373310D01*
X128402890Y-85474235D01*
X128584675Y-85659262D01*
X128861176Y-85851186D01*
X129203909Y-86027799D01*
X129594854Y-86181077D01*
X130015992Y-86302996D01*
X130449303Y-86385533D01*
X130471600Y-86388464D01*
X130658056Y-86406930D01*
X130919241Y-86426020D01*
X131232672Y-86444394D01*
X131575866Y-86460711D01*
X131926341Y-86473630D01*
X132053827Y-86477799D01*
X132359676Y-86489604D01*
X132622686Y-86502304D01*
X132828325Y-86515044D01*
X132962063Y-86526971D01*
X133009370Y-86537232D01*
X133000800Y-86550507D01*
X132929340Y-86618205D01*
X132797473Y-86729296D01*
X132619750Y-86872533D01*
X132570806Y-86910965D01*
X132410721Y-87036669D01*
X132184937Y-87210457D01*
G37*
G36*
X126360208Y-97275627D02*
G01*
X126601699Y-97356062D01*
X126904254Y-97457603D01*
X127164112Y-97545703D01*
X127367969Y-97615813D01*
X127502521Y-97663385D01*
X127554465Y-97683871D01*
X127559633Y-97690362D01*
X127557334Y-97701010D01*
X127540748Y-97719766D01*
X127503555Y-97751015D01*
X127439433Y-97799140D01*
X127342059Y-97868525D01*
X127205113Y-97963555D01*
X127022272Y-98088612D01*
X126787216Y-98248082D01*
X126493621Y-98446348D01*
X126135167Y-98687794D01*
X125705532Y-98976803D01*
X125198395Y-99317761D01*
X124756823Y-99614692D01*
X124288443Y-99929813D01*
X123825016Y-100241754D01*
X123379691Y-100541659D01*
X122965613Y-100820671D01*
X122595929Y-101069935D01*
X122283786Y-101280594D01*
X122042331Y-101443792D01*
X121987533Y-101480861D01*
X121708770Y-101669145D01*
X121365423Y-101900686D01*
X120973100Y-102164980D01*
X120547404Y-102451520D01*
X120103942Y-102749802D01*
X119658320Y-103049320D01*
X119226143Y-103339569D01*
X119144373Y-103394471D01*
X118702612Y-103691399D01*
X118246414Y-103998514D01*
X117792170Y-104304752D01*
X117356272Y-104599047D01*
X116955110Y-104870334D01*
X116605078Y-105107549D01*
X116322565Y-105299626D01*
X116077065Y-105465881D01*
X115808742Y-105644937D01*
X115576966Y-105796707D01*
X115393381Y-105913674D01*
X115269634Y-105988320D01*
X115217368Y-106013127D01*
X115213646Y-106011069D01*
X115189004Y-105977925D01*
X115145172Y-105900549D01*
X115079614Y-105773651D01*
X114989796Y-105591940D01*
X114873180Y-105350128D01*
X114727234Y-105042922D01*
X114549421Y-104665034D01*
X114337206Y-104211174D01*
X114088054Y-103676050D01*
X113799429Y-103054374D01*
X113747458Y-102942420D01*
X113614177Y-102655916D01*
X113460407Y-102325966D01*
X113301296Y-101985065D01*
X113151994Y-101665706D01*
X113057062Y-101462858D01*
X112903764Y-101135304D01*
X112726804Y-100757196D01*
X112537011Y-100351671D01*
X112345212Y-99941866D01*
X112162238Y-99550918D01*
X112129210Y-99480329D01*
X111974821Y-99149755D01*
X111836442Y-98852492D01*
X111719452Y-98600164D01*
X111629229Y-98404395D01*
X111571151Y-98276809D01*
X111550597Y-98229028D01*
X111551326Y-98227565D01*
X111600941Y-98190642D01*
X111713103Y-98118219D01*
X111866203Y-98024315D01*
X111868629Y-98022857D01*
X112041533Y-97918437D01*
X112192730Y-97826248D01*
X112289737Y-97766095D01*
X112318609Y-97750909D01*
X112352949Y-97748202D01*
X112394413Y-97769923D01*
X112449744Y-97824743D01*
X112525685Y-97921337D01*
X112628978Y-98068378D01*
X112766366Y-98274539D01*
X112944591Y-98548494D01*
X113170396Y-98898915D01*
X113360379Y-99194213D01*
X113586839Y-99546039D01*
X113806094Y-99886506D01*
X114006292Y-100197215D01*
X114175582Y-100459768D01*
X114302110Y-100655765D01*
X114341072Y-100716070D01*
X114514435Y-100984672D01*
X114714753Y-101295367D01*
X114920218Y-101614319D01*
X115109022Y-101907690D01*
X115194536Y-102039486D01*
X115364578Y-102291452D01*
X115491328Y-102461693D01*
X115578517Y-102555000D01*
X115629879Y-102576163D01*
X115657522Y-102562853D01*
X115717067Y-102530393D01*
X115811193Y-102476890D01*
X115943901Y-102399967D01*
X116119193Y-102297244D01*
X116341070Y-102166342D01*
X116613534Y-102004884D01*
X116940586Y-101810490D01*
X117326227Y-101580782D01*
X117774459Y-101313381D01*
X118289283Y-101005909D01*
X118874701Y-100655987D01*
X119534715Y-100261236D01*
X120273325Y-99819277D01*
X121094533Y-99327733D01*
X121493807Y-99088746D01*
X122012725Y-98778248D01*
X122510652Y-98480422D01*
X122979382Y-98200173D01*
X123410707Y-97942401D01*
X123796422Y-97712011D01*
X124128321Y-97513905D01*
X124398196Y-97352985D01*
X124597843Y-97234154D01*
X124719055Y-97162315D01*
X125187513Y-96886244D01*
X126360208Y-97275627D01*
G37*
G36*
X125967495Y-95840882D02*
G01*
X126219980Y-95704808D01*
X126472465Y-95568735D01*
X127758520Y-96150634D01*
X127803265Y-96170902D01*
X128134172Y-96322253D01*
X128431971Y-96460947D01*
X128684838Y-96581291D01*
X128880946Y-96677588D01*
X129008467Y-96744144D01*
X129055576Y-96775263D01*
X129033616Y-96805740D01*
X128942102Y-96881674D01*
X128795334Y-96987522D01*
X128610407Y-97110413D01*
X128154236Y-97402835D01*
X126609875Y-96920725D01*
X125065515Y-96438616D01*
X124733801Y-96634836D01*
X124728070Y-96638226D01*
X124623520Y-96700020D01*
X124440269Y-96808286D01*
X124185842Y-96958581D01*
X123867765Y-97146461D01*
X123493562Y-97367479D01*
X123070758Y-97617193D01*
X122606879Y-97891158D01*
X122109449Y-98184929D01*
X121585993Y-98494061D01*
X121044036Y-98814111D01*
X120548936Y-99106527D01*
X119989378Y-99437106D01*
X119441602Y-99760819D01*
X118915004Y-100072109D01*
X118418986Y-100365415D01*
X117962945Y-100635178D01*
X117556281Y-100875841D01*
X117208393Y-101081843D01*
X116928680Y-101247626D01*
X116726541Y-101367631D01*
X116600429Y-101442366D01*
X116329660Y-101601061D01*
X116092710Y-101737550D01*
X115902762Y-101844372D01*
X115772998Y-101914066D01*
X115716601Y-101939173D01*
X115690562Y-101908220D01*
X115614497Y-101801667D01*
X115495105Y-101628325D01*
X115338685Y-101397727D01*
X115151534Y-101119408D01*
X114939954Y-100802900D01*
X114710241Y-100457738D01*
X114468696Y-100093453D01*
X114221618Y-99719581D01*
X113975305Y-99345654D01*
X113736056Y-98981206D01*
X113510171Y-98635771D01*
X113303948Y-98318880D01*
X113123687Y-98040070D01*
X112975685Y-97808871D01*
X112866244Y-97634819D01*
X112801660Y-97527446D01*
X112798789Y-97512025D01*
X112846007Y-97440339D01*
X112978673Y-97328309D01*
X113199311Y-97173689D01*
X113302676Y-97105587D01*
X113472521Y-96999913D01*
X113584189Y-96943835D01*
X113653464Y-96930321D01*
X113696131Y-96952337D01*
X113741657Y-97006582D01*
X113841739Y-97129396D01*
X113987061Y-97309279D01*
X114168685Y-97535139D01*
X114377673Y-97795883D01*
X114605086Y-98080417D01*
X114607845Y-98083874D01*
X114832068Y-98364742D01*
X115034901Y-98618710D01*
X115208024Y-98835370D01*
X115343117Y-99004311D01*
X115431861Y-99115126D01*
X115465935Y-99157406D01*
X115480563Y-99156203D01*
X115568017Y-99126529D01*
X115715410Y-99067491D01*
X115901476Y-98987391D01*
X115956107Y-98963238D01*
X116181323Y-98864271D01*
X116459645Y-98742611D01*
X116760864Y-98611446D01*
X117054772Y-98483962D01*
X117237540Y-98404581D01*
X117509179Y-98286133D01*
X117848384Y-98137904D01*
X118242353Y-97965498D01*
X118678285Y-97774522D01*
X119143378Y-97570580D01*
X119624831Y-97359278D01*
X120109841Y-97146222D01*
X120567181Y-96945301D01*
X121049188Y-96733698D01*
X121515564Y-96529107D01*
X121953508Y-96337137D01*
X122350217Y-96163397D01*
X122692889Y-96013497D01*
X122968721Y-95893046D01*
X123164911Y-95807653D01*
X123280656Y-95757390D01*
X123557240Y-95636968D01*
X123814847Y-95524405D01*
X124028908Y-95430449D01*
X124174851Y-95365850D01*
X124452585Y-95241738D01*
X125967495Y-95840882D01*
G37*
G36*
X124831046Y-89145590D02*
G01*
X124729080Y-89866530D01*
X124549485Y-90542704D01*
X124295002Y-91166337D01*
X123968374Y-91729653D01*
X123572340Y-92224878D01*
X123362094Y-92449193D01*
X123133453Y-93749895D01*
X123077249Y-94065736D01*
X123016929Y-94395956D01*
X122962568Y-94684540D01*
X122916949Y-94917012D01*
X122882856Y-95078897D01*
X122863074Y-95155721D01*
X122845342Y-95181147D01*
X122766410Y-95242010D01*
X122621179Y-95325122D01*
X122402688Y-95434058D01*
X122103974Y-95572393D01*
X121718074Y-95743702D01*
X121602264Y-95794407D01*
X121309252Y-95922806D01*
X120961212Y-96075438D01*
X120567977Y-96247979D01*
X120139381Y-96436109D01*
X119685258Y-96635507D01*
X119215442Y-96841851D01*
X118739767Y-97050819D01*
X118268066Y-97258091D01*
X117810173Y-97459345D01*
X117375922Y-97650259D01*
X116975148Y-97826512D01*
X116617682Y-97983783D01*
X116313361Y-98117751D01*
X116072016Y-98224093D01*
X115903483Y-98298489D01*
X115817595Y-98336618D01*
X115810362Y-98339852D01*
X115697154Y-98386368D01*
X115630278Y-98406671D01*
X115620718Y-98399256D01*
X115556846Y-98329223D01*
X115439909Y-98192040D01*
X115276699Y-97995957D01*
X115074010Y-97749221D01*
X114838633Y-97460082D01*
X114577363Y-97136788D01*
X114296991Y-96787588D01*
X112999528Y-95166528D01*
X112856083Y-94329486D01*
X114085912Y-94329486D01*
X114201208Y-94589047D01*
X114268480Y-94739552D01*
X114368887Y-94962362D01*
X114466261Y-95176839D01*
X114484484Y-95216868D01*
X114584039Y-95437418D01*
X114698131Y-95692368D01*
X114805518Y-95934294D01*
X114833736Y-95998184D01*
X114937359Y-96232458D01*
X115036549Y-96456263D01*
X115113154Y-96628628D01*
X115165706Y-96742901D01*
X115220209Y-96851702D01*
X115247871Y-96893737D01*
X115250174Y-96893170D01*
X115303670Y-96866951D01*
X115427672Y-96800458D01*
X115625064Y-96692092D01*
X115898734Y-96540251D01*
X116251566Y-96343337D01*
X116686447Y-96099749D01*
X117206263Y-95807887D01*
X117483149Y-95652513D01*
X117796894Y-95476936D01*
X118094271Y-95310973D01*
X118351409Y-95167947D01*
X118544434Y-95061179D01*
X118757448Y-94943250D01*
X119034896Y-94788475D01*
X119329491Y-94623209D01*
X119604871Y-94467799D01*
X119621408Y-94458432D01*
X119877417Y-94313885D01*
X120131125Y-94171376D01*
X120354039Y-94046872D01*
X120517662Y-93956339D01*
X120625853Y-93896779D01*
X120826217Y-93785940D01*
X121076366Y-93647180D01*
X121354761Y-93492450D01*
X121639866Y-93333698D01*
X122455243Y-92879224D01*
X122483201Y-89394930D01*
X123404772Y-88921937D01*
X123490446Y-88877823D01*
X123810123Y-88709637D01*
X124046518Y-88578004D01*
X124206665Y-88478630D01*
X124297595Y-88407224D01*
X124326342Y-88359494D01*
X124324644Y-88327266D01*
X124294544Y-88163909D01*
X124232745Y-87938017D01*
X124146965Y-87672471D01*
X124044920Y-87390153D01*
X123934328Y-87113944D01*
X123822904Y-86866726D01*
X123513906Y-86311280D01*
X123080916Y-85717255D01*
X122578478Y-85190741D01*
X122012629Y-84735347D01*
X121389403Y-84354680D01*
X120714836Y-84052347D01*
X119994963Y-83831955D01*
X119235819Y-83697112D01*
X118443440Y-83651424D01*
X118431888Y-83651432D01*
X117953338Y-83664767D01*
X117538078Y-83706932D01*
X117151985Y-83782922D01*
X116760934Y-83897733D01*
X116521390Y-83982407D01*
X116233634Y-84103267D01*
X115969756Y-84243694D01*
X115685302Y-84425499D01*
X115596334Y-84490886D01*
X115435115Y-84626471D01*
X115264432Y-84785549D01*
X115101577Y-84950352D01*
X114963842Y-85103108D01*
X114868520Y-85226050D01*
X114832903Y-85301408D01*
X114852220Y-85333675D01*
X114939303Y-85405635D01*
X115072764Y-85488253D01*
X115085632Y-85495324D01*
X115250405Y-85586978D01*
X115479046Y-85715602D01*
X115762079Y-85875763D01*
X116090026Y-86062027D01*
X116453410Y-86268961D01*
X116842752Y-86491131D01*
X117248577Y-86723104D01*
X117661407Y-86959446D01*
X118071764Y-87194725D01*
X118470171Y-87423506D01*
X118847150Y-87640356D01*
X119193225Y-87839842D01*
X119498918Y-88016531D01*
X119754752Y-88164989D01*
X119951249Y-88279782D01*
X120078933Y-88355477D01*
X120128325Y-88386641D01*
X120130598Y-88389393D01*
X120100978Y-88389233D01*
X120007785Y-88357169D01*
X119982689Y-88347610D01*
X119858777Y-88302513D01*
X119662010Y-88232340D01*
X119408622Y-88142833D01*
X119114847Y-88039735D01*
X118796919Y-87928791D01*
X118599681Y-87860149D01*
X118015151Y-87656666D01*
X117420360Y-87449531D01*
X116832917Y-87244881D01*
X116270431Y-87048852D01*
X115750510Y-86867581D01*
X115290764Y-86707203D01*
X114908802Y-86573855D01*
X114835214Y-86548479D01*
X114602106Y-86472663D01*
X114408513Y-86416532D01*
X114272864Y-86385133D01*
X114213587Y-86383510D01*
X114173259Y-86455887D01*
X114130662Y-86575897D01*
X114086645Y-86729375D01*
X114699635Y-86935536D01*
X114745532Y-86950980D01*
X114932301Y-87013903D01*
X115201284Y-87104590D01*
X115542620Y-87219715D01*
X115946449Y-87355951D01*
X116402909Y-87509971D01*
X116902140Y-87678448D01*
X117434282Y-87858055D01*
X117898293Y-88014685D01*
X117989475Y-88045464D01*
X118557857Y-88237348D01*
X120740579Y-88974277D01*
X121803089Y-89333001D01*
X121802024Y-89441338D01*
X121782250Y-91452960D01*
X121776243Y-92064049D01*
X121650000Y-92099619D01*
X121604573Y-92112815D01*
X121466241Y-92153403D01*
X121245382Y-92218387D01*
X120950044Y-92305391D01*
X120588277Y-92412044D01*
X120168129Y-92535971D01*
X119697649Y-92674798D01*
X119616090Y-92698872D01*
X119184887Y-92826152D01*
X118637892Y-92987659D01*
X118064712Y-93156945D01*
X117636987Y-93283278D01*
X117075611Y-93449055D01*
X116543420Y-93606178D01*
X116048873Y-93752151D01*
X115600427Y-93884478D01*
X115206543Y-94000664D01*
X114875678Y-94098215D01*
X114616292Y-94174633D01*
X114436843Y-94227424D01*
X114345789Y-94254093D01*
X114085912Y-94329486D01*
X112856083Y-94329486D01*
X112789253Y-93939517D01*
X112578977Y-92712506D01*
X112460452Y-92580463D01*
X113267495Y-92580463D01*
X113494732Y-92803479D01*
X113721968Y-93026495D01*
X113721968Y-90550959D01*
X114529921Y-90550959D01*
X114530156Y-90858168D01*
X114531585Y-91357582D01*
X114534201Y-91819884D01*
X114537878Y-92235946D01*
X114542491Y-92596643D01*
X114547915Y-92892850D01*
X114554024Y-93115440D01*
X114560692Y-93255288D01*
X114567793Y-93303269D01*
X114609795Y-93292708D01*
X114726458Y-93258095D01*
X114883400Y-93208732D01*
X115161133Y-93119376D01*
X115174120Y-90586184D01*
X115994334Y-90586184D01*
X115994538Y-91001172D01*
X115995240Y-91446021D01*
X115996390Y-91849579D01*
X115997934Y-92201897D01*
X115999817Y-92493024D01*
X116001985Y-92713009D01*
X116004383Y-92851901D01*
X116006958Y-92899750D01*
X116054153Y-92884690D01*
X116172501Y-92847618D01*
X116335189Y-92796949D01*
X116650795Y-92698872D01*
X116650795Y-90601456D01*
X117458748Y-90601456D01*
X117459299Y-91051009D01*
X117461402Y-91469345D01*
X117465335Y-91801546D01*
X117471367Y-92055481D01*
X117479767Y-92239020D01*
X117490804Y-92360032D01*
X117504749Y-92426386D01*
X117521869Y-92445951D01*
X117561607Y-92438811D01*
X117682063Y-92406419D01*
X117837475Y-92357582D01*
X118089960Y-92273260D01*
X118103165Y-90636681D01*
X118923161Y-90636681D01*
X118923188Y-90689720D01*
X118924840Y-91050672D01*
X118928813Y-91374315D01*
X118934762Y-91647914D01*
X118942344Y-91858731D01*
X118951216Y-91994030D01*
X118961034Y-92041073D01*
X119002702Y-92031041D01*
X119119421Y-91997844D01*
X119276640Y-91950421D01*
X119554374Y-91864720D01*
X119573637Y-90135533D01*
X120394389Y-90135533D01*
X120395621Y-90394289D01*
X120399058Y-90689788D01*
X120412823Y-91620468D01*
X120690557Y-91536714D01*
X120968290Y-91452960D01*
X120968290Y-89909538D01*
X120694605Y-89816509D01*
X120575938Y-89778476D01*
X120456433Y-89746522D01*
X120403106Y-89741294D01*
X120398266Y-89792835D01*
X120395294Y-89929665D01*
X120394389Y-90135533D01*
X119573637Y-90135533D01*
X119581370Y-89441338D01*
X119252266Y-89334339D01*
X118923161Y-89227339D01*
X118923161Y-90636681D01*
X118103165Y-90636681D01*
X118103269Y-90623769D01*
X118116578Y-88974277D01*
X117850784Y-88886890D01*
X117743280Y-88851348D01*
X117602902Y-88804272D01*
X117521869Y-88776208D01*
X117505149Y-88788947D01*
X117491203Y-88847359D01*
X117480151Y-88959477D01*
X117471719Y-89133180D01*
X117465635Y-89376350D01*
X117461627Y-89696866D01*
X117459422Y-90102608D01*
X117458748Y-90601456D01*
X116650795Y-90601456D01*
X116650795Y-88481327D01*
X116322565Y-88374611D01*
X115994334Y-88267896D01*
X115994334Y-90586184D01*
X115174120Y-90586184D01*
X115174218Y-90567030D01*
X115187303Y-88014685D01*
X114921733Y-87927373D01*
X114814456Y-87891905D01*
X114674089Y-87844833D01*
X114593042Y-87816765D01*
X114581507Y-87824551D01*
X114569063Y-87872381D01*
X114558651Y-87968664D01*
X114556928Y-87999216D01*
X114550119Y-88119966D01*
X114543315Y-88332855D01*
X114538089Y-88613898D01*
X114534288Y-88969663D01*
X114531761Y-89406716D01*
X114530355Y-89931626D01*
X114529921Y-90550959D01*
X113721968Y-90550959D01*
X113721968Y-87999216D01*
X113496388Y-88192103D01*
X113270807Y-88384990D01*
X113269151Y-90482726D01*
X113267980Y-91965526D01*
X113267495Y-92580463D01*
X112460452Y-92580463D01*
X111752585Y-91791860D01*
X111752585Y-91571054D01*
X112308052Y-91571054D01*
X112712028Y-91965526D01*
X112712028Y-90465616D01*
X112711879Y-90337010D01*
X112709734Y-89969685D01*
X112705304Y-89641331D01*
X112698923Y-89364351D01*
X112690928Y-89151151D01*
X112681654Y-89014134D01*
X112671437Y-88965706D01*
X112652341Y-88973095D01*
X112574145Y-89032586D01*
X112469449Y-89132225D01*
X112308052Y-89298744D01*
X112308052Y-91571054D01*
X111752585Y-91571054D01*
X111752585Y-89044168D01*
X112367601Y-88423636D01*
X112463393Y-87874094D01*
X112514643Y-87604289D01*
X112659383Y-86995645D01*
X112836553Y-86412517D01*
X113035345Y-85892353D01*
X113157247Y-85631587D01*
X113405581Y-85188915D01*
X113687899Y-84776076D01*
X113990671Y-84410352D01*
X114300365Y-84109027D01*
X114603450Y-83889384D01*
X114691663Y-83836408D01*
X114793312Y-83770822D01*
X114832903Y-83738343D01*
X114829006Y-83727927D01*
X114790150Y-83649042D01*
X114718512Y-83511477D01*
X114625116Y-83336548D01*
X114585359Y-83261319D01*
X114504891Y-83097135D01*
X114455068Y-82977159D01*
X114445398Y-82923256D01*
X114516451Y-82885818D01*
X114665375Y-82829714D01*
X114871339Y-82761495D01*
X115113786Y-82687439D01*
X115372153Y-82613822D01*
X115625882Y-82546924D01*
X115854411Y-82493023D01*
X116013059Y-82460438D01*
X116188861Y-82430702D01*
X116370364Y-82409186D01*
X116576623Y-82394605D01*
X116826694Y-82385672D01*
X117139632Y-82381100D01*
X117534493Y-82379604D01*
X117887783Y-82380153D01*
X118207785Y-82383653D01*
X118462391Y-82391407D01*
X118670465Y-82404661D01*
X118850874Y-82424661D01*
X119022484Y-82452653D01*
X119204160Y-82489882D01*
X119941750Y-82682635D01*
X120682295Y-82952598D01*
X121351145Y-83285031D01*
X121954218Y-83682500D01*
X122051678Y-83758071D01*
X122401248Y-84058319D01*
X122767053Y-84410842D01*
X123123693Y-84789081D01*
X123445769Y-85166471D01*
X123707881Y-85516452D01*
X123934868Y-85872606D01*
X124172253Y-86291618D01*
X124392818Y-86725694D01*
X124580826Y-87143780D01*
X124720541Y-87514818D01*
X124733034Y-87553320D01*
X124787538Y-87736931D01*
X124823245Y-87902316D01*
X124843888Y-88079261D01*
X124853200Y-88297553D01*
X124853567Y-88359494D01*
X124854915Y-88586978D01*
X124831046Y-89145590D01*
G37*
G36*
X120792312Y-78440526D02*
G01*
X121358328Y-78577788D01*
X121908327Y-78792465D01*
X122452977Y-79089557D01*
X123002941Y-79474064D01*
X123568887Y-79950987D01*
X123949888Y-80279693D01*
X124590787Y-80752404D01*
X125243436Y-81131530D01*
X125917525Y-81421668D01*
X126622746Y-81627414D01*
X127368787Y-81753363D01*
X127505484Y-81770528D01*
X127688731Y-81799619D01*
X127814449Y-81827578D01*
X127861133Y-81850176D01*
X127858824Y-81858691D01*
X127795539Y-81912888D01*
X127661063Y-81986078D01*
X127476129Y-82069415D01*
X127261475Y-82154051D01*
X127037835Y-82231141D01*
X126825945Y-82291838D01*
X126752583Y-82309788D01*
X126363497Y-82391145D01*
X125995186Y-82439106D01*
X125587475Y-82461936D01*
X125257952Y-82471525D01*
X125688469Y-82904029D01*
X125886055Y-83109494D01*
X126080329Y-83332149D01*
X126258306Y-83564604D01*
X126431036Y-83823536D01*
X126609570Y-84125619D01*
X126804956Y-84487530D01*
X127028246Y-84925944D01*
X127173420Y-85211775D01*
X127317541Y-85486735D01*
X127447930Y-85727065D01*
X127554426Y-85914039D01*
X127626868Y-86028936D01*
X127809675Y-86241691D01*
X128126171Y-86505840D01*
X128512635Y-86743255D01*
X128951772Y-86945052D01*
X129426287Y-87102348D01*
X129918887Y-87206260D01*
X129945749Y-87210386D01*
X130117675Y-87242293D01*
X130239026Y-87274250D01*
X130284990Y-87299911D01*
X130280532Y-87306921D01*
X130210036Y-87342781D01*
X130071624Y-87391888D01*
X129888364Y-87445758D01*
X129336267Y-87566678D01*
X128678529Y-87633939D01*
X128050768Y-87611403D01*
X127460771Y-87498899D01*
X127439164Y-87492926D01*
X127265425Y-87446032D01*
X127135403Y-87412873D01*
X127075838Y-87400298D01*
X127072875Y-87412438D01*
X127101135Y-87487572D01*
X127163568Y-87608588D01*
X127297088Y-87800715D01*
X127550563Y-88057792D01*
X127877184Y-88305834D01*
X128261605Y-88531936D01*
X128398776Y-88604148D01*
X128564358Y-88695747D01*
X128677616Y-88764073D01*
X128719583Y-88798103D01*
X128705351Y-88803272D01*
X128610528Y-88809432D01*
X128441421Y-88811100D01*
X128215316Y-88808217D01*
X127949503Y-88800725D01*
X127534662Y-88778352D01*
X127110423Y-88731296D01*
X126744451Y-88657720D01*
X126414323Y-88552923D01*
X126097621Y-88412198D01*
X125810126Y-88248458D01*
X125573085Y-88059964D01*
X125411384Y-87852144D01*
X125311608Y-87611332D01*
X125273089Y-87479776D01*
X125056518Y-86872615D01*
X124777304Y-86250878D01*
X124452257Y-85649317D01*
X124098186Y-85102684D01*
X123754488Y-84651728D01*
X123163859Y-83995149D01*
X122526767Y-83420996D01*
X121847997Y-82932967D01*
X121132333Y-82534765D01*
X120384559Y-82230088D01*
X120342847Y-82215790D01*
X120171468Y-82151224D01*
X120047578Y-82095186D01*
X119995632Y-82058467D01*
X120023313Y-82004975D01*
X120122066Y-81922413D01*
X120270971Y-81825871D01*
X120448630Y-81729180D01*
X120633642Y-81646168D01*
X120759402Y-81603184D01*
X121066156Y-81530952D01*
X121414209Y-81480993D01*
X121764521Y-81458143D01*
X122078050Y-81467237D01*
X122108640Y-81470274D01*
X122337777Y-81499108D01*
X122600559Y-81539941D01*
X122863495Y-81586857D01*
X123093095Y-81633941D01*
X123255867Y-81675277D01*
X123305912Y-81689821D01*
X123345691Y-81695476D01*
X123315181Y-81674896D01*
X123230290Y-81635250D01*
X123106927Y-81583708D01*
X122961000Y-81527439D01*
X122808418Y-81473615D01*
X122427313Y-81359407D01*
X121772337Y-81228142D01*
X121125118Y-81184491D01*
X120951979Y-81186556D01*
X120461997Y-81225027D01*
X120029943Y-81317106D01*
X119631176Y-81469386D01*
X119241051Y-81688459D01*
X118942454Y-81881451D01*
X118591953Y-81834085D01*
X118470945Y-81822503D01*
X118242612Y-81810730D01*
X117957120Y-81803252D01*
X117639237Y-81800661D01*
X117313731Y-81803549D01*
X116386011Y-81820378D01*
X116415571Y-81517395D01*
X116435633Y-81351680D01*
X116556967Y-80806089D01*
X116755120Y-80290826D01*
X117021693Y-79824716D01*
X117348290Y-79426583D01*
X117439729Y-79337209D01*
X117902926Y-78967262D01*
X118414749Y-78685008D01*
X118971986Y-78491626D01*
X119571423Y-78388296D01*
X120209846Y-78376198D01*
X120792312Y-78440526D01*
G37*
G36*
X117440199Y-78477442D02*
G01*
X117439971Y-78483514D01*
X117391247Y-78535540D01*
X117282679Y-78625066D01*
X117132212Y-78736969D01*
X116980438Y-78853754D01*
X116625376Y-79212385D01*
X116340477Y-79641640D01*
X116125317Y-80142422D01*
X115979472Y-80715637D01*
X115902519Y-81362191D01*
X115868092Y-81913944D01*
X115438867Y-82025632D01*
X115354422Y-82047666D01*
X115130843Y-82104381D01*
X114983055Y-82131894D01*
X114893768Y-82125674D01*
X114845693Y-82081194D01*
X114821543Y-81993925D01*
X114804028Y-81859337D01*
X114789248Y-81540144D01*
X114843572Y-81079423D01*
X114976287Y-80612017D01*
X115178116Y-80154920D01*
X115439780Y-79725126D01*
X115752001Y-79339629D01*
X116105501Y-79015422D01*
X116491001Y-78769499D01*
X116656881Y-78694107D01*
X116856487Y-78617094D01*
X117058531Y-78549564D01*
X117239104Y-78498874D01*
X117374296Y-78472382D01*
X117440199Y-78477442D01*
G37*
%TD*%
%LPC*%
D10*
%TO.C,J1*%
X108110000Y-55162500D03*
X113890000Y-55162500D03*
%TD*%
D11*
%TO.C,H5*%
X158302944Y-113302944D03*
X161697056Y-113302944D03*
X160000000Y-117400000D03*
X157600000Y-115000000D03*
D12*
X160000000Y-115000000D03*
D11*
X160000000Y-112600000D03*
X162400000Y-115000000D03*
X161697056Y-116697056D03*
X158302944Y-116697056D03*
%TD*%
D13*
%TO.C,S1*%
X132300000Y-52300000D03*
X130300000Y-52300000D03*
X128300000Y-52300000D03*
D14*
X135150000Y-52300000D03*
X125450000Y-52300000D03*
%TD*%
D11*
%TO.C,H1*%
X103302944Y-161697056D03*
D12*
X105000000Y-160000000D03*
D11*
X106697056Y-161697056D03*
X103302944Y-158302944D03*
X105000000Y-162400000D03*
X102600000Y-160000000D03*
X105000000Y-157600000D03*
X106697056Y-158302944D03*
X107400000Y-160000000D03*
%TD*%
%TO.C,H2*%
X136697056Y-161697056D03*
X136697056Y-158302944D03*
X132600000Y-160000000D03*
X135000000Y-162400000D03*
X135000000Y-157600000D03*
X133302944Y-158302944D03*
X137400000Y-160000000D03*
D12*
X135000000Y-160000000D03*
D11*
X133302944Y-161697056D03*
%TD*%
D15*
%TO.C,U6*%
X138610443Y-126095887D03*
D16*
X137340443Y-128295591D03*
X136070443Y-130495296D03*
X134800443Y-132695000D03*
X133530443Y-134894705D03*
X132260443Y-137094409D03*
X130990443Y-139294114D03*
X137589557Y-143104114D03*
X138859557Y-140904409D03*
X140129557Y-138704705D03*
X141399557Y-136505000D03*
X142669557Y-134305296D03*
X143939557Y-132105591D03*
X145209557Y-129905887D03*
%TD*%
D11*
%TO.C,H3*%
X121697056Y-66697056D03*
X118302944Y-63302944D03*
X122400000Y-65000000D03*
X117600000Y-65000000D03*
X121697056Y-63302944D03*
X118302944Y-66697056D03*
X120000000Y-62600000D03*
D12*
X120000000Y-65000000D03*
D11*
X120000000Y-67400000D03*
%TD*%
D17*
%TO.C,D3*%
X125000000Y-112500000D03*
D18*
X125000000Y-115040000D03*
%TD*%
D15*
%TO.C,U8*%
X151610443Y-103095887D03*
D16*
X150340443Y-105295591D03*
X149070443Y-107495296D03*
X147800443Y-109695000D03*
X146530443Y-111894705D03*
X145260443Y-114094409D03*
X143990443Y-116294114D03*
X150589557Y-120104114D03*
X151859557Y-117904409D03*
X153129557Y-115704705D03*
X154399557Y-113505000D03*
X155669557Y-111305296D03*
X156939557Y-109105591D03*
X158209557Y-106905887D03*
%TD*%
D19*
%TO.C,U4*%
X89221025Y-142101034D03*
D13*
X99998966Y-144988975D03*
X100998966Y-146721025D03*
X98111025Y-157498966D03*
X96378975Y-158498966D03*
X87488975Y-143101034D03*
%TD*%
D20*
%TO.C,U3*%
X96218210Y-116667947D03*
D16*
X94948210Y-114468243D03*
X93678210Y-112268538D03*
X92408210Y-110068834D03*
X91138210Y-107869129D03*
X89868210Y-105669425D03*
X88598210Y-103469720D03*
X81999096Y-107279720D03*
X83269096Y-109479425D03*
X84539096Y-111679129D03*
X85809096Y-113878834D03*
X87079096Y-116078538D03*
X88349096Y-118278243D03*
X89619096Y-120477947D03*
%TD*%
D19*
%TO.C,U5*%
X78521025Y-123401034D03*
D13*
X89298966Y-126288975D03*
X90298966Y-128021025D03*
X87411025Y-138798966D03*
X85678975Y-139798966D03*
X76788975Y-124401034D03*
%TD*%
D21*
%TO.C,J2*%
X142400000Y-96000000D03*
D22*
X142400000Y-98000000D03*
X142400000Y-100000000D03*
%TD*%
D17*
%TO.C,D4*%
X135000000Y-112500000D03*
D18*
X135000000Y-115040000D03*
%TD*%
D17*
%TO.C,D2*%
X115000000Y-112500000D03*
D18*
X115000000Y-115040000D03*
%TD*%
D20*
%TO.C,U2*%
X108019114Y-137688227D03*
D16*
X106749114Y-135488523D03*
X105479114Y-133288818D03*
X104209114Y-131089114D03*
X102939114Y-128889409D03*
X101669114Y-126689705D03*
X100399114Y-124490000D03*
X93800000Y-128300000D03*
X95070000Y-130499705D03*
X96340000Y-132699409D03*
X97610000Y-134899114D03*
X98880000Y-137098818D03*
X100150000Y-139298523D03*
X101420000Y-141498227D03*
%TD*%
D23*
%TO.C,U9*%
X152688975Y-138898966D03*
D13*
X149801034Y-128121025D03*
X150801034Y-126388975D03*
X161578975Y-123501034D03*
X163311025Y-124501034D03*
X154421025Y-139898966D03*
%TD*%
D24*
%TO.C,A1*%
X111790000Y-122050000D03*
D25*
X111790000Y-124590000D03*
X111790000Y-127130000D03*
X111790000Y-129670000D03*
X111790000Y-132210000D03*
X111790000Y-134750000D03*
X111790000Y-137290000D03*
X111790000Y-139830000D03*
X111790000Y-142370000D03*
X111790000Y-144910000D03*
X111790000Y-147450000D03*
X111790000Y-149990000D03*
X111790000Y-152530000D03*
X111790000Y-155070000D03*
X111790000Y-157610000D03*
X127030000Y-157610000D03*
X127030000Y-155070000D03*
X127030000Y-152530000D03*
X127030000Y-149990000D03*
X127030000Y-147450000D03*
X127030000Y-144910000D03*
X127030000Y-142370000D03*
X127030000Y-139830000D03*
X127030000Y-137290000D03*
X127030000Y-134750000D03*
X127030000Y-132210000D03*
X127030000Y-129670000D03*
X127030000Y-127130000D03*
X127030000Y-124590000D03*
X127030000Y-122050000D03*
%TD*%
D26*
%TO.C,J3*%
X106800000Y-103150000D03*
X106800000Y-99150000D03*
%TD*%
D11*
%TO.C,H4*%
X81697056Y-116697056D03*
D12*
X80000000Y-115000000D03*
D11*
X77600000Y-115000000D03*
X78302944Y-116697056D03*
X80000000Y-117400000D03*
X78302944Y-113302944D03*
X80000000Y-112600000D03*
X81697056Y-113302944D03*
X82400000Y-115000000D03*
%TD*%
D23*
%TO.C,U7*%
X141988975Y-157598966D03*
D13*
X139101034Y-146821025D03*
X140101034Y-145088975D03*
X150878975Y-142201034D03*
X152611025Y-143201034D03*
X143721025Y-158598966D03*
%TD*%
D17*
%TO.C,D1*%
X105000000Y-112500000D03*
D18*
X105000000Y-115040000D03*
%TD*%
M02*
