%TF.GenerationSoftware,KiCad,Pcbnew,6.0.9-8da3e8f707~116~ubuntu20.04.1*%
%TF.CreationDate,2023-01-26T21:54:07-05:00*%
%TF.ProjectId,free2breathe_pcb,66726565-3262-4726-9561-7468655f7063,rev?*%
%TF.SameCoordinates,Original*%
%TF.FileFunction,Soldermask,Bot*%
%TF.FilePolarity,Negative*%
%FSLAX46Y46*%
G04 Gerber Fmt 4.6, Leading zero omitted, Abs format (unit mm)*
G04 Created by KiCad (PCBNEW 6.0.9-8da3e8f707~116~ubuntu20.04.1) date 2023-01-26 21:54:07*
%MOMM*%
%LPD*%
G01*
G04 APERTURE LIST*
G04 Aperture macros list*
%AMRoundRect*
0 Rectangle with rounded corners*
0 $1 Rounding radius*
0 $2 $3 $4 $5 $6 $7 $8 $9 X,Y pos of 4 corners*
0 Add a 4 corners polygon primitive as box body*
4,1,4,$2,$3,$4,$5,$6,$7,$8,$9,$2,$3,0*
0 Add four circle primitives for the rounded corners*
1,1,$1+$1,$2,$3*
1,1,$1+$1,$4,$5*
1,1,$1+$1,$6,$7*
1,1,$1+$1,$8,$9*
0 Add four rect primitives between the rounded corners*
20,1,$1+$1,$2,$3,$4,$5,0*
20,1,$1+$1,$4,$5,$6,$7,0*
20,1,$1+$1,$6,$7,$8,$9,0*
20,1,$1+$1,$8,$9,$2,$3,0*%
%AMRotRect*
0 Rectangle, with rotation*
0 The origin of the aperture is its center*
0 $1 length*
0 $2 width*
0 $3 Rotation angle, in degrees counterclockwise*
0 Add horizontal line*
21,1,$1,$2,0,0,$3*%
G04 Aperture macros list end*
%ADD10C,0.650000*%
%ADD11C,0.800000*%
%ADD12C,6.400000*%
%ADD13C,1.308000*%
%ADD14C,2.250000*%
%ADD15RotRect,1.498600X1.498600X330.000000*%
%ADD16C,1.498600*%
%ADD17R,1.800000X1.800000*%
%ADD18C,1.800000*%
%ADD19RotRect,1.308000X1.308000X210.000000*%
%ADD20RotRect,1.498600X1.498600X210.000000*%
%ADD21RoundRect,0.250000X-0.625000X0.350000X-0.625000X-0.350000X0.625000X-0.350000X0.625000X0.350000X0*%
%ADD22O,1.750000X1.200000*%
%ADD23RotRect,1.308000X1.308000X330.000000*%
%ADD24R,1.600000X1.600000*%
%ADD25O,1.600000X1.600000*%
%ADD26C,1.524000*%
G04 APERTURE END LIST*
D10*
%TO.C,J1*%
X108110000Y-55162500D03*
X113890000Y-55162500D03*
%TD*%
D11*
%TO.C,H5*%
X158302944Y-113302944D03*
X161697056Y-113302944D03*
X160000000Y-117400000D03*
X157600000Y-115000000D03*
D12*
X160000000Y-115000000D03*
D11*
X160000000Y-112600000D03*
X162400000Y-115000000D03*
X161697056Y-116697056D03*
X158302944Y-116697056D03*
%TD*%
D13*
%TO.C,S1*%
X132300000Y-52300000D03*
X130300000Y-52300000D03*
X128300000Y-52300000D03*
D14*
X135150000Y-52300000D03*
X125450000Y-52300000D03*
%TD*%
D11*
%TO.C,H1*%
X103302944Y-161697056D03*
D12*
X105000000Y-160000000D03*
D11*
X106697056Y-161697056D03*
X103302944Y-158302944D03*
X105000000Y-162400000D03*
X102600000Y-160000000D03*
X105000000Y-157600000D03*
X106697056Y-158302944D03*
X107400000Y-160000000D03*
%TD*%
%TO.C,H2*%
X136697056Y-161697056D03*
X136697056Y-158302944D03*
X132600000Y-160000000D03*
X135000000Y-162400000D03*
X135000000Y-157600000D03*
X133302944Y-158302944D03*
X137400000Y-160000000D03*
D12*
X135000000Y-160000000D03*
D11*
X133302944Y-161697056D03*
%TD*%
D15*
%TO.C,U6*%
X138610443Y-126095887D03*
D16*
X137340443Y-128295591D03*
X136070443Y-130495296D03*
X134800443Y-132695000D03*
X133530443Y-134894705D03*
X132260443Y-137094409D03*
X130990443Y-139294114D03*
X137589557Y-143104114D03*
X138859557Y-140904409D03*
X140129557Y-138704705D03*
X141399557Y-136505000D03*
X142669557Y-134305296D03*
X143939557Y-132105591D03*
X145209557Y-129905887D03*
%TD*%
D11*
%TO.C,H3*%
X121697056Y-66697056D03*
X118302944Y-63302944D03*
X122400000Y-65000000D03*
X117600000Y-65000000D03*
X121697056Y-63302944D03*
X118302944Y-66697056D03*
X120000000Y-62600000D03*
D12*
X120000000Y-65000000D03*
D11*
X120000000Y-67400000D03*
%TD*%
D17*
%TO.C,D3*%
X125000000Y-112500000D03*
D18*
X125000000Y-115040000D03*
%TD*%
D15*
%TO.C,U8*%
X151610443Y-103095887D03*
D16*
X150340443Y-105295591D03*
X149070443Y-107495296D03*
X147800443Y-109695000D03*
X146530443Y-111894705D03*
X145260443Y-114094409D03*
X143990443Y-116294114D03*
X150589557Y-120104114D03*
X151859557Y-117904409D03*
X153129557Y-115704705D03*
X154399557Y-113505000D03*
X155669557Y-111305296D03*
X156939557Y-109105591D03*
X158209557Y-106905887D03*
%TD*%
D19*
%TO.C,U4*%
X89221025Y-142101034D03*
D13*
X99998966Y-144988975D03*
X100998966Y-146721025D03*
X98111025Y-157498966D03*
X96378975Y-158498966D03*
X87488975Y-143101034D03*
%TD*%
D20*
%TO.C,U3*%
X96218210Y-116667947D03*
D16*
X94948210Y-114468243D03*
X93678210Y-112268538D03*
X92408210Y-110068834D03*
X91138210Y-107869129D03*
X89868210Y-105669425D03*
X88598210Y-103469720D03*
X81999096Y-107279720D03*
X83269096Y-109479425D03*
X84539096Y-111679129D03*
X85809096Y-113878834D03*
X87079096Y-116078538D03*
X88349096Y-118278243D03*
X89619096Y-120477947D03*
%TD*%
D19*
%TO.C,U5*%
X78521025Y-123401034D03*
D13*
X89298966Y-126288975D03*
X90298966Y-128021025D03*
X87411025Y-138798966D03*
X85678975Y-139798966D03*
X76788975Y-124401034D03*
%TD*%
D21*
%TO.C,J2*%
X142400000Y-96000000D03*
D22*
X142400000Y-98000000D03*
X142400000Y-100000000D03*
%TD*%
D17*
%TO.C,D4*%
X135000000Y-112500000D03*
D18*
X135000000Y-115040000D03*
%TD*%
D17*
%TO.C,D2*%
X115000000Y-112500000D03*
D18*
X115000000Y-115040000D03*
%TD*%
D20*
%TO.C,U2*%
X108019114Y-137688227D03*
D16*
X106749114Y-135488523D03*
X105479114Y-133288818D03*
X104209114Y-131089114D03*
X102939114Y-128889409D03*
X101669114Y-126689705D03*
X100399114Y-124490000D03*
X93800000Y-128300000D03*
X95070000Y-130499705D03*
X96340000Y-132699409D03*
X97610000Y-134899114D03*
X98880000Y-137098818D03*
X100150000Y-139298523D03*
X101420000Y-141498227D03*
%TD*%
D23*
%TO.C,U9*%
X152688975Y-138898966D03*
D13*
X149801034Y-128121025D03*
X150801034Y-126388975D03*
X161578975Y-123501034D03*
X163311025Y-124501034D03*
X154421025Y-139898966D03*
%TD*%
D24*
%TO.C,A1*%
X111790000Y-122050000D03*
D25*
X111790000Y-124590000D03*
X111790000Y-127130000D03*
X111790000Y-129670000D03*
X111790000Y-132210000D03*
X111790000Y-134750000D03*
X111790000Y-137290000D03*
X111790000Y-139830000D03*
X111790000Y-142370000D03*
X111790000Y-144910000D03*
X111790000Y-147450000D03*
X111790000Y-149990000D03*
X111790000Y-152530000D03*
X111790000Y-155070000D03*
X111790000Y-157610000D03*
X127030000Y-157610000D03*
X127030000Y-155070000D03*
X127030000Y-152530000D03*
X127030000Y-149990000D03*
X127030000Y-147450000D03*
X127030000Y-144910000D03*
X127030000Y-142370000D03*
X127030000Y-139830000D03*
X127030000Y-137290000D03*
X127030000Y-134750000D03*
X127030000Y-132210000D03*
X127030000Y-129670000D03*
X127030000Y-127130000D03*
X127030000Y-124590000D03*
X127030000Y-122050000D03*
%TD*%
D26*
%TO.C,J3*%
X106800000Y-103150000D03*
X106800000Y-99150000D03*
%TD*%
D11*
%TO.C,H4*%
X81697056Y-116697056D03*
D12*
X80000000Y-115000000D03*
D11*
X77600000Y-115000000D03*
X78302944Y-116697056D03*
X80000000Y-117400000D03*
X78302944Y-113302944D03*
X80000000Y-112600000D03*
X81697056Y-113302944D03*
X82400000Y-115000000D03*
%TD*%
D23*
%TO.C,U7*%
X141988975Y-157598966D03*
D13*
X139101034Y-146821025D03*
X140101034Y-145088975D03*
X150878975Y-142201034D03*
X152611025Y-143201034D03*
X143721025Y-158598966D03*
%TD*%
D17*
%TO.C,D1*%
X105000000Y-112500000D03*
D18*
X105000000Y-115040000D03*
%TD*%
M02*
