M48
; DRILL file {KiCad 6.0.9-8da3e8f707~116~ubuntu20.04.1} date Thu 26 Jan 2023 09:54:15 PM EST
; FORMAT={-:-/ absolute / metric / decimal}
; #@! TF.CreationDate,2023-01-26T21:54:15-05:00
; #@! TF.GenerationSoftware,Kicad,Pcbnew,6.0.9-8da3e8f707~116~ubuntu20.04.1
; #@! TF.FileFunction,MixedPlating,1,2
FMAT,2
METRIC
; #@! TA.AperFunction,Plated,PTH,ViaDrill
T1C0.400
; #@! TA.AperFunction,Plated,PTH,ComponentDrill
T2C0.500
; #@! TA.AperFunction,Plated,PTH,ComponentDrill
T3C0.750
; #@! TA.AperFunction,Plated,PTH,ComponentDrill
T4C0.762
; #@! TA.AperFunction,Plated,PTH,ViaDrill
T5C0.800
; #@! TA.AperFunction,Plated,PTH,ComponentDrill
T6C0.800
; #@! TA.AperFunction,Plated,PTH,ComponentDrill
T7C0.900
; #@! TA.AperFunction,Plated,PTH,ComponentDrill
T8C0.991
; #@! TA.AperFunction,Plated,PTH,ComponentDrill
T9C1.000
; #@! TA.AperFunction,Plated,PTH,ComponentDrill
T10C1.500
; #@! TA.AperFunction,Plated,PTH,ComponentDrill
T11C3.200
; #@! TA.AperFunction,NonPlated,NPTH,ComponentDrill
T12C0.650
%
G90
G05
T1
X74.4Y-122.4
X80.4Y-142.2
X98.8Y-111.0
X99.5Y-131.9
X101.4Y-133.8
X104.3Y-64.2
X104.6Y-66.3
X104.9Y-70.4
X104.9Y-74.6
X105.3Y-67.1
X105.8Y-57.8
X106.1Y-67.9
X106.2Y-63.1
X107.6Y-120.7
X107.671Y-62.201
X108.525Y-60.235
X108.6Y-65.4
X108.92Y-73.288
X109.0Y-128.4
X110.0Y-59.0
X110.0Y-70.35
X110.4Y-64.0
X110.4Y-66.8
X110.75Y-75.45
X111.151Y-58.951
X111.2Y-119.6
X111.9Y-83.1
X112.1Y-65.3
X113.299Y-61.401
X114.049Y-62.151
X114.1Y-63.4
X115.0Y-73.4
X115.2Y-67.5
X116.2Y-57.8
X116.4Y-84.9
X116.5Y-60.9
X117.9Y-121.3
X119.2Y-71.6
X119.4Y-76.6
X119.6Y-106.8
X120.4Y-114.2
X120.4Y-120.4
X121.6Y-60.749
X122.0Y-84.6
X124.9Y-85.3
X125.8Y-109.5
X129.2Y-123.6
X129.8Y-106.8
X129.9Y-142.8
X130.4Y-108.7
X132.8Y-125.4
X133.362Y-140.562
X138.2Y-106.761
X140.4Y-121.4
X143.8Y-106.8
X145.8Y-118.0
X146.4Y-108.6
X148.7Y-112.6
X151.2Y-111.3
T2
X77.6Y-115.0
X78.303Y-113.303
X78.303Y-116.697
X80.0Y-112.6
X80.0Y-117.4
X81.697Y-113.303
X81.697Y-116.697
X82.4Y-115.0
X102.6Y-160.0
X103.303Y-158.303
X103.303Y-161.697
X105.0Y-157.6
X105.0Y-162.4
X106.697Y-158.303
X106.697Y-161.697
X107.4Y-160.0
X117.6Y-65.0
X118.303Y-63.303
X118.303Y-66.697
X120.0Y-62.6
X120.0Y-67.4
X121.697Y-63.303
X121.697Y-66.697
X122.4Y-65.0
X132.6Y-160.0
X133.303Y-158.303
X133.303Y-161.697
X135.0Y-157.6
X135.0Y-162.4
X136.697Y-158.303
X136.697Y-161.697
X137.4Y-160.0
X157.6Y-115.0
X158.303Y-113.303
X158.303Y-116.697
X160.0Y-112.6
X160.0Y-117.4
X161.697Y-113.303
X161.697Y-116.697
X162.4Y-115.0
T3
X142.4Y-96.0
X142.4Y-98.0
X142.4Y-100.0
T4
X106.8Y-99.15
X106.8Y-103.15
T5
X70.0Y-130.0
X77.5Y-120.0
X82.5Y-147.5
X85.0Y-122.5
X87.5Y-100.0
X87.5Y-162.5
X97.5Y-95.0
X97.5Y-100.0
X97.5Y-120.0
X98.2Y-79.0
X101.4Y-73.7
X102.5Y-52.5
X107.0Y-155.0
X107.2Y-124.8
X108.7Y-77.5
X110.0Y-95.0
X110.0Y-100.0
X110.0Y-110.0
X110.6Y-87.9
X110.9Y-52.2
X112.9Y-80.4
X117.5Y-160.0
X119.45Y-80.3
X120.9Y-52.1
X122.5Y-95.0
X122.5Y-100.0
X122.5Y-107.5
X122.5Y-127.5
X122.5Y-140.0
X124.4Y-80.0
X124.6Y-70.0
X124.7Y-61.5
X127.5Y-162.5
X128.0Y-66.7
X130.6Y-105.6
X131.1Y-70.0
X131.2Y-80.0
X132.5Y-66.7
X132.5Y-152.5
X132.6Y-56.9
X135.0Y-95.0
X135.0Y-100.0
X136.9Y-56.9
X136.9Y-66.8
X137.5Y-83.2
X137.5Y-110.0
X140.0Y-117.5
X141.0Y-90.9
X142.5Y-162.5
X144.0Y-123.0
X147.5Y-95.0
X147.5Y-100.0
X160.0Y-145.0
X165.0Y-122.5
X170.0Y-130.0
T6
X76.789Y-124.401
X78.521Y-123.401
X85.679Y-139.799
X87.411Y-138.799
X87.489Y-143.101
X89.221Y-142.101
X89.299Y-126.289
X90.299Y-128.021
X96.379Y-158.499
X98.111Y-157.499
X99.999Y-144.989
X100.999Y-146.721
X128.3Y-52.3
X130.3Y-52.3
X132.3Y-52.3
X139.101Y-146.821
X140.101Y-145.089
X141.989Y-157.599
X143.721Y-158.599
X149.801Y-128.121
X150.801Y-126.389
X150.879Y-142.201
X152.611Y-143.201
X152.689Y-138.899
X154.421Y-139.899
X161.579Y-123.501
X163.311Y-124.501
T7
X105.0Y-112.5
X105.0Y-115.04
X115.0Y-112.5
X115.0Y-115.04
X125.0Y-112.5
X125.0Y-115.04
X135.0Y-112.5
X135.0Y-115.04
T8
X81.999Y-107.28
X83.269Y-109.479
X84.539Y-111.679
X85.809Y-113.879
X87.079Y-116.079
X88.349Y-118.278
X88.598Y-103.47
X89.619Y-120.478
X89.868Y-105.669
X91.138Y-107.869
X92.408Y-110.069
X93.678Y-112.269
X93.8Y-128.3
X94.948Y-114.468
X95.07Y-130.5
X96.218Y-116.668
X96.34Y-132.699
X97.61Y-134.899
X98.88Y-137.099
X100.15Y-139.299
X100.399Y-124.49
X101.42Y-141.498
X101.669Y-126.69
X102.939Y-128.889
X104.209Y-131.089
X105.479Y-133.289
X106.749Y-135.489
X108.019Y-137.688
X130.99Y-139.294
X132.26Y-137.094
X133.53Y-134.895
X134.8Y-132.695
X136.07Y-130.495
X137.34Y-128.296
X137.59Y-143.104
X138.61Y-126.096
X138.86Y-140.904
X140.13Y-138.705
X141.4Y-136.505
X142.67Y-134.305
X143.94Y-132.106
X143.99Y-116.294
X145.21Y-129.906
X145.26Y-114.094
X146.53Y-111.895
X147.8Y-109.695
X149.07Y-107.495
X150.34Y-105.296
X150.59Y-120.104
X151.61Y-103.096
X151.86Y-117.904
X153.13Y-115.705
X154.4Y-113.505
X155.67Y-111.305
X156.94Y-109.106
X158.21Y-106.906
T9
X111.79Y-122.05
X111.79Y-124.59
X111.79Y-127.13
X111.79Y-129.67
X111.79Y-132.21
X111.79Y-134.75
X111.79Y-137.29
X111.79Y-139.83
X111.79Y-142.37
X111.79Y-144.91
X111.79Y-147.45
X111.79Y-149.99
X111.79Y-152.53
X111.79Y-155.07
X111.79Y-157.61
X127.03Y-122.05
X127.03Y-124.59
X127.03Y-127.13
X127.03Y-129.67
X127.03Y-132.21
X127.03Y-134.75
X127.03Y-137.29
X127.03Y-139.83
X127.03Y-142.37
X127.03Y-144.91
X127.03Y-147.45
X127.03Y-149.99
X127.03Y-152.53
X127.03Y-155.07
X127.03Y-157.61
T10
X125.45Y-52.3
X135.15Y-52.3
T11
X80.0Y-115.0
X105.0Y-160.0
X120.0Y-65.0
X135.0Y-160.0
X160.0Y-115.0
T12
X108.11Y-55.162
X113.89Y-55.162
T0
M30
