%TF.GenerationSoftware,KiCad,Pcbnew,6.0.9-8da3e8f707~116~ubuntu20.04.1*%
%TF.CreationDate,2023-02-25T13:57:50-05:00*%
%TF.ProjectId,free2breathe_pcb,66726565-3262-4726-9561-7468655f7063,rev?*%
%TF.SameCoordinates,Original*%
%TF.FileFunction,Paste,Top*%
%TF.FilePolarity,Positive*%
%FSLAX46Y46*%
G04 Gerber Fmt 4.6, Leading zero omitted, Abs format (unit mm)*
G04 Created by KiCad (PCBNEW 6.0.9-8da3e8f707~116~ubuntu20.04.1) date 2023-02-25 13:57:50*
%MOMM*%
%LPD*%
G01*
G04 APERTURE LIST*
G04 Aperture macros list*
%AMRoundRect*
0 Rectangle with rounded corners*
0 $1 Rounding radius*
0 $2 $3 $4 $5 $6 $7 $8 $9 X,Y pos of 4 corners*
0 Add a 4 corners polygon primitive as box body*
4,1,4,$2,$3,$4,$5,$6,$7,$8,$9,$2,$3,0*
0 Add four circle primitives for the rounded corners*
1,1,$1+$1,$2,$3*
1,1,$1+$1,$4,$5*
1,1,$1+$1,$6,$7*
1,1,$1+$1,$8,$9*
0 Add four rect primitives between the rounded corners*
20,1,$1+$1,$2,$3,$4,$5,0*
20,1,$1+$1,$4,$5,$6,$7,0*
20,1,$1+$1,$6,$7,$8,$9,0*
20,1,$1+$1,$8,$9,$2,$3,0*%
G04 Aperture macros list end*
%ADD10C,4.000000*%
%ADD11R,1.800000X2.000000*%
%ADD12R,0.600000X1.150000*%
%ADD13R,0.300000X1.150000*%
%ADD14R,2.180000X2.000000*%
%ADD15RoundRect,0.225000X-0.319856X-0.104006X0.069856X-0.329006X0.319856X0.104006X-0.069856X0.329006X0*%
%ADD16RoundRect,0.200000X-0.138157X0.310705X-0.338157X-0.035705X0.138157X-0.310705X0.338157X0.035705X0*%
%ADD17RoundRect,0.200000X-0.310705X-0.138157X0.035705X-0.338157X0.310705X0.138157X-0.035705X0.338157X0*%
%ADD18RoundRect,0.250000X0.250000X0.475000X-0.250000X0.475000X-0.250000X-0.475000X0.250000X-0.475000X0*%
%ADD19RoundRect,0.200000X-0.035705X-0.338157X0.310705X-0.138157X0.035705X0.338157X-0.310705X0.138157X0*%
%ADD20RoundRect,0.225000X0.069856X0.329006X-0.319856X0.104006X-0.069856X-0.329006X0.319856X-0.104006X0*%
%ADD21RoundRect,0.200000X-0.338157X0.035705X-0.138157X-0.310705X0.338157X-0.035705X0.138157X0.310705X0*%
%ADD22RoundRect,0.200000X-0.200000X-0.275000X0.200000X-0.275000X0.200000X0.275000X-0.200000X0.275000X0*%
%ADD23RoundRect,0.225000X-0.250000X0.225000X-0.250000X-0.225000X0.250000X-0.225000X0.250000X0.225000X0*%
%ADD24RoundRect,0.218750X0.256250X-0.218750X0.256250X0.218750X-0.256250X0.218750X-0.256250X-0.218750X0*%
%ADD25RoundRect,0.225000X0.319856X0.104006X-0.069856X0.329006X-0.319856X-0.104006X0.069856X-0.329006X0*%
%ADD26RoundRect,0.200000X0.200000X0.275000X-0.200000X0.275000X-0.200000X-0.275000X0.200000X-0.275000X0*%
%ADD27RoundRect,0.200000X0.035705X0.338157X-0.310705X0.138157X-0.035705X-0.338157X0.310705X-0.138157X0*%
%ADD28RoundRect,0.225000X0.225000X0.250000X-0.225000X0.250000X-0.225000X-0.250000X0.225000X-0.250000X0*%
%ADD29RoundRect,0.225000X-0.225000X-0.250000X0.225000X-0.250000X0.225000X0.250000X-0.225000X0.250000X0*%
%ADD30RoundRect,0.200000X0.310705X0.138157X-0.035705X0.338157X-0.310705X-0.138157X0.035705X-0.338157X0*%
%ADD31RoundRect,0.250000X0.450000X-0.262500X0.450000X0.262500X-0.450000X0.262500X-0.450000X-0.262500X0*%
%ADD32RoundRect,0.225000X-0.329006X0.069856X-0.104006X-0.319856X0.329006X-0.069856X0.104006X0.319856X0*%
%ADD33RoundRect,0.225000X0.329006X-0.069856X0.104006X0.319856X-0.329006X0.069856X-0.104006X-0.319856X0*%
%ADD34RoundRect,0.225000X0.250000X-0.225000X0.250000X0.225000X-0.250000X0.225000X-0.250000X-0.225000X0*%
%ADD35RoundRect,0.200000X-0.275000X0.200000X-0.275000X-0.200000X0.275000X-0.200000X0.275000X0.200000X0*%
%ADD36RoundRect,0.150000X-0.587500X-0.150000X0.587500X-0.150000X0.587500X0.150000X-0.587500X0.150000X0*%
%ADD37RoundRect,0.225000X-0.069856X-0.329006X0.319856X-0.104006X0.069856X0.329006X-0.319856X0.104006X0*%
%ADD38RoundRect,0.225000X0.335876X0.017678X0.017678X0.335876X-0.335876X-0.017678X-0.017678X-0.335876X0*%
%ADD39RoundRect,0.225000X0.104006X-0.319856X0.329006X0.069856X-0.104006X0.319856X-0.329006X-0.069856X0*%
%ADD40RoundRect,0.200000X0.338157X-0.035705X0.138157X0.310705X-0.338157X0.035705X-0.138157X-0.310705X0*%
%ADD41RoundRect,0.232500X-0.328805X0.000000X0.000000X-0.328805X0.328805X0.000000X0.000000X0.328805X0*%
%ADD42RoundRect,0.062500X-0.291682X0.203293X0.203293X-0.291682X0.291682X-0.203293X-0.203293X0.291682X0*%
%ADD43RoundRect,0.062500X-0.291682X-0.203293X-0.203293X-0.291682X0.291682X0.203293X0.203293X0.291682X0*%
%ADD44RoundRect,0.250000X-0.262500X-0.450000X0.262500X-0.450000X0.262500X0.450000X-0.262500X0.450000X0*%
%ADD45RoundRect,0.200000X0.275000X-0.200000X0.275000X0.200000X-0.275000X0.200000X-0.275000X-0.200000X0*%
%ADD46RoundRect,0.200000X0.138157X-0.310705X0.338157X0.035705X-0.138157X0.310705X-0.338157X-0.035705X0*%
%ADD47RoundRect,0.250000X0.475000X-0.250000X0.475000X0.250000X-0.475000X0.250000X-0.475000X-0.250000X0*%
G04 APERTURE END LIST*
D10*
%TO.C,REF\u002A\u002A*%
X140000000Y-171000000D03*
%TD*%
D11*
%TO.C,L1*%
X101000000Y-76900000D03*
X101000000Y-81400000D03*
%TD*%
D12*
%TO.C,J1*%
X114200000Y-56237500D03*
X113400000Y-56237500D03*
D13*
X112250000Y-56237500D03*
X111250000Y-56237500D03*
X110750000Y-56237500D03*
X109750000Y-56237500D03*
D12*
X107800000Y-56237500D03*
X108600000Y-56237500D03*
D13*
X109250000Y-56237500D03*
X110250000Y-56237500D03*
X111750000Y-56237500D03*
X112750000Y-56237500D03*
D14*
X116110000Y-55662500D03*
X105890000Y-55662500D03*
X116110000Y-51732500D03*
X105890000Y-51732500D03*
%TD*%
D10*
%TO.C,REF\u002A\u002A*%
X135000000Y-44500000D03*
%TD*%
D15*
%TO.C,C25*%
X151128830Y-97512500D03*
X152471170Y-98287500D03*
%TD*%
D16*
%TO.C,R16*%
X133912500Y-126485529D03*
X133087500Y-127914471D03*
%TD*%
D17*
%TO.C,R21*%
X141885529Y-121987500D03*
X143314471Y-122812500D03*
%TD*%
D18*
%TO.C,C10*%
X102875002Y-64700000D03*
X100975002Y-64700000D03*
%TD*%
D19*
%TO.C,R22*%
X92285529Y-123312500D03*
X93714471Y-122487500D03*
%TD*%
D20*
%TO.C,C18*%
X109171170Y-144712500D03*
X107828830Y-145487500D03*
%TD*%
D21*
%TO.C,R26*%
X103187500Y-122835529D03*
X104012500Y-124264471D03*
%TD*%
D22*
%TO.C,R6*%
X124075000Y-117100000D03*
X125725000Y-117100000D03*
%TD*%
D16*
%TO.C,R30*%
X144712500Y-107285529D03*
X143887500Y-108714471D03*
%TD*%
D23*
%TO.C,C17*%
X105100000Y-87200000D03*
X105100000Y-88750000D03*
%TD*%
D15*
%TO.C,C27*%
X164128830Y-117112500D03*
X165471170Y-117887500D03*
%TD*%
D24*
%TO.C,D7*%
X124000000Y-87562500D03*
X124000000Y-85987500D03*
%TD*%
D25*
%TO.C,C33*%
X160471170Y-108587500D03*
X159128830Y-107812500D03*
%TD*%
D26*
%TO.C,R41*%
X102900000Y-106100000D03*
X101250000Y-106100000D03*
%TD*%
D23*
%TO.C,C4*%
X105100000Y-83500000D03*
X105100000Y-85050000D03*
%TD*%
D27*
%TO.C,R24*%
X74314471Y-119487500D03*
X72885529Y-120312500D03*
%TD*%
D24*
%TO.C,D8*%
X132000000Y-87562500D03*
X132000000Y-85987500D03*
%TD*%
D20*
%TO.C,C22*%
X97171170Y-120512500D03*
X95828830Y-121287500D03*
%TD*%
D28*
%TO.C,C11*%
X102675000Y-58000000D03*
X101125000Y-58000000D03*
%TD*%
D16*
%TO.C,R25*%
X133900000Y-148300000D03*
X133075000Y-149728942D03*
%TD*%
D29*
%TO.C,C6*%
X114300000Y-71100000D03*
X115850000Y-71100000D03*
%TD*%
D30*
%TO.C,R40*%
X164014471Y-120562500D03*
X162585529Y-119737500D03*
%TD*%
D21*
%TO.C,R32*%
X103587500Y-143185529D03*
X104412500Y-144614471D03*
%TD*%
D15*
%TO.C,C24*%
X145428830Y-124012500D03*
X146771170Y-124787500D03*
%TD*%
D30*
%TO.C,R33*%
X159414471Y-110512500D03*
X157985529Y-109687500D03*
%TD*%
D23*
%TO.C,C1*%
X121637500Y-78075000D03*
X121637500Y-79625000D03*
%TD*%
D30*
%TO.C,R35*%
X151100000Y-100600000D03*
X149671058Y-99775000D03*
%TD*%
D31*
%TO.C,TH1*%
X105200000Y-61412500D03*
X105200000Y-59587500D03*
%TD*%
D32*
%TO.C,C30*%
X106012500Y-141828830D03*
X106787500Y-143171170D03*
%TD*%
D33*
%TO.C,C19*%
X99087500Y-109971170D03*
X98312500Y-108628830D03*
%TD*%
D26*
%TO.C,R42*%
X107050000Y-108650000D03*
X105400000Y-108650000D03*
%TD*%
D24*
%TO.C,D6*%
X116000000Y-87562500D03*
X116000000Y-85987500D03*
%TD*%
D10*
%TO.C,REF\u002A\u002A*%
X105000000Y-44500000D03*
%TD*%
D15*
%TO.C,C29*%
X167128830Y-123012500D03*
X168471170Y-123787500D03*
%TD*%
D18*
%TO.C,C8*%
X102850000Y-62400000D03*
X100950000Y-62400000D03*
%TD*%
D16*
%TO.C,R14*%
X138112500Y-119285529D03*
X137287500Y-120714471D03*
%TD*%
D34*
%TO.C,C14*%
X102900000Y-85050000D03*
X102900000Y-83500000D03*
%TD*%
D35*
%TO.C,R3*%
X108900000Y-74400000D03*
X108900000Y-76050000D03*
%TD*%
D16*
%TO.C,R31*%
X142612500Y-110885529D03*
X141787500Y-112314471D03*
%TD*%
D20*
%TO.C,C31*%
X85271170Y-116412500D03*
X83928830Y-117187500D03*
%TD*%
D23*
%TO.C,C16*%
X102900000Y-87200000D03*
X102900000Y-88750000D03*
%TD*%
D36*
%TO.C,Q1*%
X119400000Y-73300000D03*
X119400000Y-75200000D03*
X121275000Y-74250000D03*
%TD*%
D34*
%TO.C,C26*%
X108900000Y-149475000D03*
X108900000Y-147925000D03*
%TD*%
D37*
%TO.C,C20*%
X74228830Y-122687500D03*
X75571170Y-121912500D03*
%TD*%
D38*
%TO.C,C12*%
X107748008Y-69948008D03*
X106651992Y-68851992D03*
%TD*%
D39*
%TO.C,C21*%
X130600000Y-148185641D03*
X131375000Y-146843301D03*
%TD*%
D18*
%TO.C,C9*%
X102875000Y-66900000D03*
X100975000Y-66900000D03*
%TD*%
D21*
%TO.C,R28*%
X107587500Y-130085529D03*
X108412500Y-131514471D03*
%TD*%
D26*
%TO.C,R9*%
X128975000Y-86900000D03*
X127325000Y-86900000D03*
%TD*%
D40*
%TO.C,R20*%
X97912500Y-112714471D03*
X97087500Y-111285529D03*
%TD*%
D10*
%TO.C,REF\u002A\u002A*%
X100000000Y-171000000D03*
%TD*%
D18*
%TO.C,C7*%
X102850000Y-60100000D03*
X100950000Y-60100000D03*
%TD*%
D16*
%TO.C,R38*%
X140612500Y-115385529D03*
X139787500Y-116814471D03*
%TD*%
D41*
%TO.C,U1*%
X108020964Y-65300000D03*
X110460482Y-67739518D03*
X111273655Y-65300000D03*
X112900000Y-65300000D03*
X108834136Y-64486827D03*
X110460482Y-64486827D03*
X109647309Y-65300000D03*
X109647309Y-66926346D03*
X111273655Y-63673654D03*
X108834136Y-66113173D03*
X110460482Y-66113173D03*
X112086828Y-66113173D03*
X111273655Y-66926346D03*
X109647309Y-63673654D03*
X112086828Y-64486827D03*
X110460482Y-62860482D03*
D42*
X109974346Y-61631884D03*
X109620793Y-61985437D03*
X109267239Y-62338990D03*
X108913686Y-62692544D03*
X108560133Y-63046097D03*
X108206579Y-63399651D03*
X107853026Y-63753204D03*
X107499472Y-64106757D03*
X107145919Y-64460311D03*
X106792366Y-64813864D03*
D43*
X106792366Y-65786136D03*
X107145919Y-66139689D03*
X107499472Y-66493243D03*
X107853026Y-66846796D03*
X108206579Y-67200349D03*
X108560133Y-67553903D03*
X108913686Y-67907456D03*
X109267239Y-68261010D03*
X109620793Y-68614563D03*
X109974346Y-68968116D03*
D42*
X110946618Y-68968116D03*
X111300171Y-68614563D03*
X111653725Y-68261010D03*
X112007278Y-67907456D03*
X112360831Y-67553903D03*
X112714385Y-67200349D03*
X113067938Y-66846796D03*
X113421492Y-66493243D03*
X113775045Y-66139689D03*
X114128598Y-65786136D03*
D43*
X114128598Y-64813864D03*
X113775045Y-64460311D03*
X113421492Y-64106757D03*
X113067938Y-63753204D03*
X112714385Y-63399651D03*
X112360831Y-63046097D03*
X112007278Y-62692544D03*
X111653725Y-62338990D03*
X111300171Y-61985437D03*
X110946618Y-61631884D03*
%TD*%
D26*
%TO.C,R4*%
X105725000Y-117200000D03*
X104075000Y-117200000D03*
%TD*%
D31*
%TO.C,R2*%
X110700000Y-73525000D03*
X110700000Y-71700000D03*
%TD*%
D21*
%TO.C,R27*%
X105387500Y-126485529D03*
X106212500Y-127914471D03*
%TD*%
D19*
%TO.C,R18*%
X78085529Y-120512500D03*
X79514471Y-119687500D03*
%TD*%
D39*
%TO.C,C32*%
X130612500Y-126556811D03*
X131387500Y-125214471D03*
%TD*%
D16*
%TO.C,R15*%
X136012500Y-122985529D03*
X135187500Y-124414471D03*
%TD*%
D26*
%TO.C,R7*%
X112900000Y-86550000D03*
X111250000Y-86550000D03*
%TD*%
D39*
%TO.C,C23*%
X135012500Y-146471170D03*
X135787500Y-145128830D03*
%TD*%
D44*
%TO.C,TH2*%
X105262500Y-106150000D03*
X107087500Y-106150000D03*
%TD*%
D22*
%TO.C,R10*%
X119025000Y-86600000D03*
X120675000Y-86600000D03*
%TD*%
D28*
%TO.C,C3*%
X115850000Y-69400000D03*
X114300000Y-69400000D03*
%TD*%
D20*
%TO.C,C28*%
X99471170Y-160312500D03*
X98128830Y-161087500D03*
%TD*%
D45*
%TO.C,R1*%
X116800000Y-75075000D03*
X116800000Y-73425000D03*
%TD*%
%TO.C,R11*%
X107300000Y-61000000D03*
X107300000Y-59350000D03*
%TD*%
D46*
%TO.C,R19*%
X130875000Y-131528942D03*
X131700000Y-130100000D03*
%TD*%
D36*
%TO.C,Q2*%
X120062500Y-57750000D03*
X120062500Y-59650000D03*
X121937500Y-58700000D03*
%TD*%
D28*
%TO.C,C13*%
X121700000Y-54800000D03*
X120150000Y-54800000D03*
%TD*%
D23*
%TO.C,C15*%
X100700000Y-87200000D03*
X100700000Y-88750000D03*
%TD*%
D16*
%TO.C,R29*%
X146825000Y-103571058D03*
X146000000Y-105000000D03*
%TD*%
D35*
%TO.C,R36*%
X107300000Y-74400000D03*
X107300000Y-76050000D03*
%TD*%
D47*
%TO.C,C2*%
X116937500Y-79775000D03*
X116937500Y-77875000D03*
%TD*%
D45*
%TO.C,R39*%
X108900000Y-153025000D03*
X108900000Y-151375000D03*
%TD*%
D26*
%TO.C,R5*%
X115825000Y-117100000D03*
X114175000Y-117100000D03*
%TD*%
D21*
%TO.C,R17*%
X95175000Y-107971058D03*
X96000000Y-109400000D03*
%TD*%
D24*
%TO.C,D5*%
X108000000Y-87562500D03*
X108000000Y-85987500D03*
%TD*%
D21*
%TO.C,R12*%
X93162500Y-104570946D03*
X93987500Y-105999888D03*
%TD*%
D17*
%TO.C,R23*%
X131571058Y-143575000D03*
X133000000Y-144400000D03*
%TD*%
D21*
%TO.C,R37*%
X105487500Y-146785529D03*
X106312500Y-148214471D03*
%TD*%
%TO.C,R13*%
X91262500Y-101370947D03*
X92087500Y-102799889D03*
%TD*%
D40*
%TO.C,R34*%
X109212500Y-141814471D03*
X108387500Y-140385529D03*
%TD*%
D34*
%TO.C,C5*%
X117600000Y-71050000D03*
X117600000Y-69500000D03*
%TD*%
D22*
%TO.C,R8*%
X134275000Y-117100000D03*
X135925000Y-117100000D03*
%TD*%
M02*
