M48
; DRILL file {KiCad 6.0.9-8da3e8f707~116~ubuntu20.04.1} date Sat 25 Feb 2023 01:57:53 PM EST
; FORMAT={-:-/ absolute / metric / decimal}
; #@! TF.CreationDate,2023-02-25T13:57:53-05:00
; #@! TF.GenerationSoftware,Kicad,Pcbnew,6.0.9-8da3e8f707~116~ubuntu20.04.1
; #@! TF.FileFunction,MixedPlating,1,2
FMAT,2
METRIC
; #@! TA.AperFunction,Plated,PTH,ViaDrill
T1C0.400
; #@! TA.AperFunction,Plated,PTH,ComponentDrill
T2C0.500
; #@! TA.AperFunction,Plated,PTH,ComponentDrill
T3C0.750
; #@! TA.AperFunction,Plated,PTH,ComponentDrill
T4C0.762
; #@! TA.AperFunction,Plated,PTH,ViaDrill
T5C0.800
; #@! TA.AperFunction,Plated,PTH,ComponentDrill
T6C0.800
; #@! TA.AperFunction,Plated,PTH,ComponentDrill
T7C0.900
; #@! TA.AperFunction,Plated,PTH,ComponentDrill
T8C0.991
; #@! TA.AperFunction,Plated,PTH,ComponentDrill
T9C1.000
; #@! TA.AperFunction,Plated,PTH,ComponentDrill
T10C1.500
; #@! TA.AperFunction,Plated,PTH,ComponentDrill
T11C3.200
; #@! TA.AperFunction,Plated,PTH,ComponentDrill
T12C3.275
; #@! TA.AperFunction,NonPlated,NPTH,ComponentDrill
T13C0.650
%
G90
G05
T1
X72.2Y-123.5
X73.8Y-136.9
X77.8Y-118.9
X79.7Y-122.25
X82.8Y-105.0
X84.0Y-154.9
X86.0Y-120.4
X86.8Y-105.4
X88.3Y-113.3
X90.8Y-118.0
X91.0Y-119.5
X93.01Y-117.5
X93.1Y-85.8
X96.8Y-129.8
X97.7Y-88.3
X99.1Y-134.2
X100.4Y-119.1
X101.7Y-136.7
X102.0Y-121.4
X102.975Y-137.834
X104.3Y-64.2
X104.3Y-134.6
X104.6Y-66.3
X104.6Y-141.1
X104.9Y-70.4
X104.9Y-74.6
X105.3Y-67.1
X105.35Y-149.5
X105.4Y-110.15
X105.8Y-57.8
X105.8Y-136.7
X105.869Y-130.9
X106.1Y-67.9
X106.1Y-144.7
X106.2Y-63.1
X106.95Y-110.15
X107.1Y-152.9
X107.35Y-149.55
X107.671Y-62.201
X108.525Y-60.235
X108.6Y-65.4
X108.92Y-73.288
X109.05Y-146.45
X109.5Y-136.7
X110.0Y-59.0
X110.0Y-70.35
X110.0Y-88.7
X110.4Y-64.0
X110.4Y-66.8
X110.75Y-75.45
X111.151Y-58.951
X111.9Y-83.1
X112.1Y-65.3
X112.512Y-84.688
X113.299Y-61.401
X113.7Y-149.5
X114.0Y-160.2
X114.049Y-62.151
X114.1Y-63.4
X114.2Y-131.4
X114.3Y-123.5
X115.0Y-73.4
X115.2Y-67.5
X116.2Y-57.8
X116.5Y-60.9
X117.6Y-141.6
X118.8Y-84.5
X119.2Y-71.6
X119.4Y-76.6
X121.0Y-148.3
X121.6Y-60.749
X122.7Y-148.3
X123.0Y-130.7
X123.2Y-89.3
X123.25Y-83.8
X124.9Y-160.3
X125.95Y-85.25
X129.3Y-146.3
X129.5Y-124.1
X129.7Y-109.3
X129.8Y-115.2
X129.8Y-118.3
X129.9Y-104.4
X130.0Y-151.0
X130.2Y-134.2
X132.4Y-152.3
X132.75Y-145.95
X133.6Y-119.1
X134.0Y-129.0
X134.6Y-144.1
X136.9Y-140.0
X137.3Y-147.3
X140.2Y-132.2
X141.0Y-110.25
X141.1Y-125.3
X141.3Y-118.1
X141.6Y-141.2
X141.8Y-162.4
X147.8Y-104.7
X151.438Y-110.838
X155.5Y-154.8
X158.6Y-106.1
X158.678Y-120.6
X166.0Y-136.4
T2
X77.6Y-115.0
X78.303Y-113.303
X78.303Y-116.697
X80.0Y-112.6
X80.0Y-117.4
X81.697Y-113.303
X81.697Y-116.697
X82.4Y-115.0
X102.6Y-160.0
X103.303Y-158.303
X103.303Y-161.697
X105.0Y-157.6
X105.0Y-162.4
X106.697Y-158.303
X106.697Y-161.697
X107.4Y-160.0
X117.6Y-65.0
X118.303Y-63.303
X118.303Y-66.697
X120.0Y-62.6
X120.0Y-67.4
X121.697Y-63.303
X121.697Y-66.697
X122.4Y-65.0
X132.6Y-160.0
X133.303Y-158.303
X133.303Y-161.697
X135.0Y-157.6
X135.0Y-162.4
X136.697Y-158.303
X136.697Y-161.697
X137.4Y-160.0
X157.6Y-115.0
X158.303Y-113.303
X158.303Y-116.697
X160.0Y-112.6
X160.0Y-117.4
X161.697Y-113.303
X161.697Y-116.697
X162.4Y-115.0
T3
X142.4Y-96.0
X142.4Y-98.0
X142.4Y-100.0
T4
X101.2Y-96.55
X101.2Y-100.55
T5
X72.3Y-129.2
X79.3Y-141.9
X82.4Y-148.0
X85.0Y-122.3
X86.6Y-99.0
X87.1Y-108.5
X90.3Y-159.9
X95.05Y-99.35
X95.2Y-94.8
X96.4Y-139.8
X97.2Y-124.7
X98.2Y-79.0
X98.25Y-106.6
X99.6Y-116.2
X99.6Y-128.1
X101.4Y-73.7
X102.5Y-52.5
X107.75Y-83.35
X107.9Y-120.2
X107.95Y-95.2
X108.1Y-101.9
X108.4Y-155.7
X108.6Y-126.9
X108.7Y-77.5
X110.1Y-162.7
X110.4Y-109.15
X110.9Y-52.2
X112.9Y-80.4
X116.8Y-109.1
X119.4Y-160.4
X119.45Y-80.3
X119.5Y-152.6
X120.4Y-123.1
X120.9Y-52.1
X122.5Y-95.0
X122.5Y-100.0
X123.2Y-106.4
X123.2Y-126.7
X123.55Y-133.7
X124.4Y-80.0
X124.6Y-70.0
X124.7Y-61.5
X128.0Y-68.85
X129.9Y-162.6
X130.5Y-155.7
X131.05Y-62.7
X131.15Y-56.85
X131.9Y-80.1
X131.95Y-70.0
X134.3Y-94.9
X134.3Y-99.3
X136.2Y-68.25
X137.5Y-83.2
X137.7Y-54.6
X137.7Y-107.6
X138.2Y-135.2
X141.0Y-90.9
X142.9Y-127.6
X143.7Y-138.8
X146.5Y-132.7
X147.5Y-95.0
X147.5Y-100.0
X149.8Y-159.8
X154.0Y-105.4
X154.1Y-100.3
X157.5Y-148.4
X160.9Y-141.9
X168.5Y-128.9
T6
X76.789Y-124.401
X78.521Y-123.401
X85.679Y-139.799
X87.411Y-138.799
X87.489Y-142.951
X89.221Y-141.951
X89.299Y-126.289
X90.299Y-128.021
X96.379Y-158.349
X98.111Y-157.349
X99.999Y-144.839
X100.999Y-146.571
X128.3Y-52.3
X130.3Y-52.3
X132.3Y-52.3
X139.101Y-146.671
X140.101Y-144.939
X141.989Y-157.449
X143.721Y-158.449
X149.801Y-128.121
X150.801Y-126.389
X150.879Y-142.051
X152.611Y-143.051
X152.689Y-138.899
X154.421Y-139.899
X161.579Y-123.501
X163.311Y-124.501
T7
X105.0Y-112.5
X105.0Y-115.04
X115.0Y-112.5
X115.0Y-115.04
X125.0Y-112.5
X125.0Y-115.04
X135.0Y-112.5
X135.0Y-115.04
T8
X81.999Y-107.28
X83.269Y-109.479
X84.539Y-111.679
X85.809Y-113.879
X87.079Y-116.079
X88.349Y-118.278
X88.598Y-103.47
X89.619Y-120.478
X89.868Y-105.669
X91.138Y-107.869
X92.408Y-110.069
X93.466Y-127.206
X93.678Y-112.269
X94.736Y-129.406
X94.948Y-114.468
X96.006Y-131.605
X96.218Y-116.668
X97.276Y-133.805
X98.546Y-136.005
X99.816Y-138.204
X100.065Y-123.396
X101.086Y-140.404
X101.335Y-125.596
X102.605Y-127.795
X103.875Y-129.995
X105.145Y-132.195
X106.415Y-134.394
X107.685Y-136.594
X131.19Y-138.394
X132.46Y-136.194
X133.73Y-133.995
X135.0Y-131.795
X136.27Y-129.595
X137.54Y-127.396
X137.79Y-142.204
X138.81Y-125.196
X139.06Y-140.004
X140.33Y-137.805
X141.6Y-135.605
X142.87Y-133.405
X143.101Y-116.79
X144.14Y-131.206
X144.371Y-114.59
X145.41Y-129.006
X145.641Y-112.391
X146.911Y-110.191
X148.181Y-107.991
X149.451Y-105.791
X149.7Y-120.6
X150.721Y-103.592
X150.97Y-118.4
X152.24Y-116.201
X153.51Y-114.001
X154.78Y-111.801
X156.05Y-109.601
X157.32Y-107.402
T9
X111.79Y-122.05
X111.79Y-124.59
X111.79Y-127.13
X111.79Y-129.67
X111.79Y-132.21
X111.79Y-134.75
X111.79Y-137.29
X111.79Y-139.83
X111.79Y-142.37
X111.79Y-144.91
X111.79Y-147.45
X111.79Y-149.99
X111.79Y-152.53
X111.79Y-155.07
X111.79Y-157.61
X127.03Y-122.05
X127.03Y-124.59
X127.03Y-127.13
X127.03Y-129.67
X127.03Y-132.21
X127.03Y-134.75
X127.03Y-137.29
X127.03Y-139.83
X127.03Y-142.37
X127.03Y-144.91
X127.03Y-147.45
X127.03Y-149.99
X127.03Y-152.53
X127.03Y-155.07
X127.03Y-157.61
T10
X125.45Y-52.3
X135.15Y-52.3
T11
X80.0Y-115.0
X105.0Y-160.0
X120.0Y-65.0
X135.0Y-160.0
X160.0Y-115.0
T12
X100.0Y-171.0
X105.0Y-44.5
X135.0Y-44.5
X140.0Y-171.0
T13
X108.11Y-55.162
X113.89Y-55.162
T0
M30
