%TF.GenerationSoftware,KiCad,Pcbnew,6.0.9-8da3e8f707~116~ubuntu20.04.1*%
%TF.CreationDate,2023-02-25T13:57:50-05:00*%
%TF.ProjectId,free2breathe_pcb,66726565-3262-4726-9561-7468655f7063,rev?*%
%TF.SameCoordinates,Original*%
%TF.FileFunction,Legend,Top*%
%TF.FilePolarity,Positive*%
%FSLAX46Y46*%
G04 Gerber Fmt 4.6, Leading zero omitted, Abs format (unit mm)*
G04 Created by KiCad (PCBNEW 6.0.9-8da3e8f707~116~ubuntu20.04.1) date 2023-02-25 13:57:50*
%MOMM*%
%LPD*%
G01*
G04 APERTURE LIST*
G04 Aperture macros list*
%AMRoundRect*
0 Rectangle with rounded corners*
0 $1 Rounding radius*
0 $2 $3 $4 $5 $6 $7 $8 $9 X,Y pos of 4 corners*
0 Add a 4 corners polygon primitive as box body*
4,1,4,$2,$3,$4,$5,$6,$7,$8,$9,$2,$3,0*
0 Add four circle primitives for the rounded corners*
1,1,$1+$1,$2,$3*
1,1,$1+$1,$4,$5*
1,1,$1+$1,$6,$7*
1,1,$1+$1,$8,$9*
0 Add four rect primitives between the rounded corners*
20,1,$1+$1,$2,$3,$4,$5,0*
20,1,$1+$1,$4,$5,$6,$7,0*
20,1,$1+$1,$6,$7,$8,$9,0*
20,1,$1+$1,$8,$9,$2,$3,0*%
%AMRotRect*
0 Rectangle, with rotation*
0 The origin of the aperture is its center*
0 $1 length*
0 $2 width*
0 $3 Rotation angle, in degrees counterclockwise*
0 Add horizontal line*
21,1,$1,$2,0,0,$3*%
G04 Aperture macros list end*
%ADD10C,0.150000*%
%ADD11C,0.200000*%
%ADD12C,0.006350*%
%ADD13C,0.127000*%
%ADD14C,0.120000*%
%ADD15C,0.152400*%
%ADD16C,0.100000*%
%ADD17C,6.000000*%
%ADD18R,1.800000X2.000000*%
%ADD19C,0.650000*%
%ADD20R,0.600000X1.150000*%
%ADD21R,0.300000X1.150000*%
%ADD22R,2.180000X2.000000*%
%ADD23RoundRect,0.225000X-0.319856X-0.104006X0.069856X-0.329006X0.319856X0.104006X-0.069856X0.329006X0*%
%ADD24C,0.800000*%
%ADD25C,6.400000*%
%ADD26RoundRect,0.200000X-0.138157X0.310705X-0.338157X-0.035705X0.138157X-0.310705X0.338157X0.035705X0*%
%ADD27RoundRect,0.200000X-0.310705X-0.138157X0.035705X-0.338157X0.310705X0.138157X-0.035705X0.338157X0*%
%ADD28RoundRect,0.250000X0.250000X0.475000X-0.250000X0.475000X-0.250000X-0.475000X0.250000X-0.475000X0*%
%ADD29RoundRect,0.200000X-0.035705X-0.338157X0.310705X-0.138157X0.035705X0.338157X-0.310705X0.138157X0*%
%ADD30C,1.308000*%
%ADD31C,2.250000*%
%ADD32RoundRect,0.225000X0.069856X0.329006X-0.319856X0.104006X-0.069856X-0.329006X0.319856X-0.104006X0*%
%ADD33RoundRect,0.200000X-0.338157X0.035705X-0.138157X-0.310705X0.338157X-0.035705X0.138157X0.310705X0*%
%ADD34RoundRect,0.200000X-0.200000X-0.275000X0.200000X-0.275000X0.200000X0.275000X-0.200000X0.275000X0*%
%ADD35RoundRect,0.225000X-0.250000X0.225000X-0.250000X-0.225000X0.250000X-0.225000X0.250000X0.225000X0*%
%ADD36R,4.000000X4.000000*%
%ADD37RotRect,1.498600X1.498600X330.000000*%
%ADD38C,1.498600*%
%ADD39RoundRect,0.218750X0.256250X-0.218750X0.256250X0.218750X-0.256250X0.218750X-0.256250X-0.218750X0*%
%ADD40RoundRect,0.225000X0.319856X0.104006X-0.069856X0.329006X-0.319856X-0.104006X0.069856X-0.329006X0*%
%ADD41RoundRect,0.200000X0.200000X0.275000X-0.200000X0.275000X-0.200000X-0.275000X0.200000X-0.275000X0*%
%ADD42RotRect,1.308000X1.308000X210.000000*%
%ADD43RoundRect,0.200000X0.035705X0.338157X-0.310705X0.138157X-0.035705X-0.338157X0.310705X-0.138157X0*%
%ADD44RotRect,4.000000X4.000000X30.000000*%
%ADD45RoundRect,0.225000X0.225000X0.250000X-0.225000X0.250000X-0.225000X-0.250000X0.225000X-0.250000X0*%
%ADD46RotRect,1.308000X1.308000X330.000000*%
%ADD47RoundRect,0.225000X-0.225000X-0.250000X0.225000X-0.250000X0.225000X0.250000X-0.225000X0.250000X0*%
%ADD48R,1.800000X1.800000*%
%ADD49C,1.800000*%
%ADD50RoundRect,0.200000X0.310705X0.138157X-0.035705X0.338157X-0.310705X-0.138157X0.035705X-0.338157X0*%
%ADD51RoundRect,0.250000X0.450000X-0.262500X0.450000X0.262500X-0.450000X0.262500X-0.450000X-0.262500X0*%
%ADD52RoundRect,0.225000X-0.329006X0.069856X-0.104006X-0.319856X0.329006X-0.069856X0.104006X0.319856X0*%
%ADD53RoundRect,0.225000X0.329006X-0.069856X0.104006X0.319856X-0.329006X0.069856X-0.104006X-0.319856X0*%
%ADD54RotRect,1.498600X1.498600X210.000000*%
%ADD55RoundRect,0.250000X-0.625000X0.350000X-0.625000X-0.350000X0.625000X-0.350000X0.625000X0.350000X0*%
%ADD56O,1.750000X1.200000*%
%ADD57RoundRect,0.225000X0.250000X-0.225000X0.250000X0.225000X-0.250000X0.225000X-0.250000X-0.225000X0*%
%ADD58RoundRect,0.200000X-0.275000X0.200000X-0.275000X-0.200000X0.275000X-0.200000X0.275000X0.200000X0*%
%ADD59RoundRect,0.150000X-0.587500X-0.150000X0.587500X-0.150000X0.587500X0.150000X-0.587500X0.150000X0*%
%ADD60RotRect,4.000000X4.000000X330.000000*%
%ADD61RoundRect,0.225000X-0.069856X-0.329006X0.319856X-0.104006X0.069856X0.329006X-0.319856X0.104006X0*%
%ADD62RoundRect,0.225000X0.335876X0.017678X0.017678X0.335876X-0.335876X-0.017678X-0.017678X-0.335876X0*%
%ADD63RoundRect,0.225000X0.104006X-0.319856X0.329006X0.069856X-0.104006X0.319856X-0.329006X-0.069856X0*%
%ADD64RoundRect,0.200000X0.338157X-0.035705X0.138157X0.310705X-0.338157X0.035705X-0.138157X-0.310705X0*%
%ADD65RoundRect,0.062500X-0.291682X0.203293X0.203293X-0.291682X0.291682X-0.203293X-0.203293X0.291682X0*%
%ADD66RoundRect,0.062500X-0.291682X-0.203293X-0.203293X-0.291682X0.291682X0.203293X0.203293X0.291682X0*%
%ADD67RotRect,4.600000X4.600000X315.000000*%
%ADD68R,1.600000X1.600000*%
%ADD69O,1.600000X1.600000*%
%ADD70C,1.524000*%
%ADD71RoundRect,0.250000X-0.262500X-0.450000X0.262500X-0.450000X0.262500X0.450000X-0.262500X0.450000X0*%
%ADD72RoundRect,0.200000X0.275000X-0.200000X0.275000X0.200000X-0.275000X0.200000X-0.275000X-0.200000X0*%
%ADD73RoundRect,0.200000X0.138157X-0.310705X0.338157X0.035705X-0.138157X0.310705X-0.338157X-0.035705X0*%
%ADD74RoundRect,0.250000X0.475000X-0.250000X0.475000X0.250000X-0.475000X0.250000X-0.475000X-0.250000X0*%
G04 APERTURE END LIST*
D10*
X110078452Y-102385238D02*
X110173690Y-102290000D01*
X110364166Y-102194761D01*
X110840357Y-102194761D01*
X111030833Y-102290000D01*
X111126071Y-102385238D01*
X111221309Y-102575714D01*
X111221309Y-102766190D01*
X111126071Y-103051904D01*
X109983214Y-104194761D01*
X111221309Y-104194761D01*
X112459404Y-102194761D02*
X112649880Y-102194761D01*
X112840357Y-102290000D01*
X112935595Y-102385238D01*
X113030833Y-102575714D01*
X113126071Y-102956666D01*
X113126071Y-103432857D01*
X113030833Y-103813809D01*
X112935595Y-104004285D01*
X112840357Y-104099523D01*
X112649880Y-104194761D01*
X112459404Y-104194761D01*
X112268928Y-104099523D01*
X112173690Y-104004285D01*
X112078452Y-103813809D01*
X111983214Y-103432857D01*
X111983214Y-102956666D01*
X112078452Y-102575714D01*
X112173690Y-102385238D01*
X112268928Y-102290000D01*
X112459404Y-102194761D01*
X113887976Y-102385238D02*
X113983214Y-102290000D01*
X114173690Y-102194761D01*
X114649880Y-102194761D01*
X114840357Y-102290000D01*
X114935595Y-102385238D01*
X115030833Y-102575714D01*
X115030833Y-102766190D01*
X114935595Y-103051904D01*
X113792738Y-104194761D01*
X115030833Y-104194761D01*
X115697500Y-102194761D02*
X116935595Y-102194761D01*
X116268928Y-102956666D01*
X116554642Y-102956666D01*
X116745119Y-103051904D01*
X116840357Y-103147142D01*
X116935595Y-103337619D01*
X116935595Y-103813809D01*
X116840357Y-104004285D01*
X116745119Y-104099523D01*
X116554642Y-104194761D01*
X115983214Y-104194761D01*
X115792738Y-104099523D01*
X115697500Y-104004285D01*
X111316547Y-107414761D02*
X110649880Y-106462380D01*
X110173690Y-107414761D02*
X110173690Y-105414761D01*
X110935595Y-105414761D01*
X111126071Y-105510000D01*
X111221309Y-105605238D01*
X111316547Y-105795714D01*
X111316547Y-106081428D01*
X111221309Y-106271904D01*
X111126071Y-106367142D01*
X110935595Y-106462380D01*
X110173690Y-106462380D01*
X112935595Y-107319523D02*
X112745119Y-107414761D01*
X112364166Y-107414761D01*
X112173690Y-107319523D01*
X112078452Y-107129047D01*
X112078452Y-106367142D01*
X112173690Y-106176666D01*
X112364166Y-106081428D01*
X112745119Y-106081428D01*
X112935595Y-106176666D01*
X113030833Y-106367142D01*
X113030833Y-106557619D01*
X112078452Y-106748095D01*
X113697500Y-106081428D02*
X114173690Y-107414761D01*
X114649880Y-106081428D01*
X115411785Y-107224285D02*
X115507023Y-107319523D01*
X115411785Y-107414761D01*
X115316547Y-107319523D01*
X115411785Y-107224285D01*
X115411785Y-107414761D01*
X117792738Y-105605238D02*
X117887976Y-105510000D01*
X118078452Y-105414761D01*
X118554642Y-105414761D01*
X118745119Y-105510000D01*
X118840357Y-105605238D01*
X118935595Y-105795714D01*
X118935595Y-105986190D01*
X118840357Y-106271904D01*
X117697500Y-107414761D01*
X118935595Y-107414761D01*
D11*
X129104761Y-68052380D02*
X129438095Y-69052380D01*
X129771428Y-68052380D01*
X130295238Y-68052380D02*
X130485714Y-68052380D01*
X130580952Y-68100000D01*
X130676190Y-68195238D01*
X130723809Y-68385714D01*
X130723809Y-68719047D01*
X130676190Y-68909523D01*
X130580952Y-69004761D01*
X130485714Y-69052380D01*
X130295238Y-69052380D01*
X130200000Y-69004761D01*
X130104761Y-68909523D01*
X130057142Y-68719047D01*
X130057142Y-68385714D01*
X130104761Y-68195238D01*
X130200000Y-68100000D01*
X130295238Y-68052380D01*
X131580952Y-68385714D02*
X131580952Y-69052380D01*
X131152380Y-68385714D02*
X131152380Y-68909523D01*
X131200000Y-69004761D01*
X131295238Y-69052380D01*
X131438095Y-69052380D01*
X131533333Y-69004761D01*
X131580952Y-68957142D01*
X131914285Y-68385714D02*
X132295238Y-68385714D01*
X132057142Y-68052380D02*
X132057142Y-68909523D01*
X132104761Y-69004761D01*
X132200000Y-69052380D01*
X132295238Y-69052380D01*
D10*
%TO.C,REF\u002A\u002A*%
X146666666Y-170002380D02*
X146333333Y-169526190D01*
X146095238Y-170002380D02*
X146095238Y-169002380D01*
X146476190Y-169002380D01*
X146571428Y-169050000D01*
X146619047Y-169097619D01*
X146666666Y-169192857D01*
X146666666Y-169335714D01*
X146619047Y-169430952D01*
X146571428Y-169478571D01*
X146476190Y-169526190D01*
X146095238Y-169526190D01*
X147095238Y-169478571D02*
X147428571Y-169478571D01*
X147571428Y-170002380D02*
X147095238Y-170002380D01*
X147095238Y-169002380D01*
X147571428Y-169002380D01*
X148333333Y-169478571D02*
X148000000Y-169478571D01*
X148000000Y-170002380D02*
X148000000Y-169002380D01*
X148476190Y-169002380D01*
X149000000Y-169002380D02*
X149000000Y-169240476D01*
X148761904Y-169145238D02*
X149000000Y-169240476D01*
X149238095Y-169145238D01*
X148857142Y-169430952D02*
X149000000Y-169240476D01*
X149142857Y-169430952D01*
X149761904Y-169002380D02*
X149761904Y-169240476D01*
X149523809Y-169145238D02*
X149761904Y-169240476D01*
X150000000Y-169145238D01*
X149619047Y-169430952D02*
X149761904Y-169240476D01*
X149904761Y-169430952D01*
%TO.C,L1*%
X97889523Y-80506666D02*
X97889523Y-80811428D01*
X97249523Y-80811428D01*
X97889523Y-79958095D02*
X97889523Y-80323809D01*
X97889523Y-80140952D02*
X97249523Y-80140952D01*
X97340952Y-80201904D01*
X97401904Y-80262857D01*
X97432380Y-80323809D01*
%TO.C,J1*%
X118166666Y-51152380D02*
X118166666Y-51866666D01*
X118119047Y-52009523D01*
X118023809Y-52104761D01*
X117880952Y-52152380D01*
X117785714Y-52152380D01*
X119166666Y-52152380D02*
X118595238Y-52152380D01*
X118880952Y-52152380D02*
X118880952Y-51152380D01*
X118785714Y-51295238D01*
X118690476Y-51390476D01*
X118595238Y-51438095D01*
%TO.C,REF\u002A\u002A*%
X128516666Y-42152380D02*
X128183333Y-41676190D01*
X127945238Y-42152380D02*
X127945238Y-41152380D01*
X128326190Y-41152380D01*
X128421428Y-41200000D01*
X128469047Y-41247619D01*
X128516666Y-41342857D01*
X128516666Y-41485714D01*
X128469047Y-41580952D01*
X128421428Y-41628571D01*
X128326190Y-41676190D01*
X127945238Y-41676190D01*
X128945238Y-41628571D02*
X129278571Y-41628571D01*
X129421428Y-42152380D02*
X128945238Y-42152380D01*
X128945238Y-41152380D01*
X129421428Y-41152380D01*
X130183333Y-41628571D02*
X129850000Y-41628571D01*
X129850000Y-42152380D02*
X129850000Y-41152380D01*
X130326190Y-41152380D01*
X130850000Y-41152380D02*
X130850000Y-41390476D01*
X130611904Y-41295238D02*
X130850000Y-41390476D01*
X131088095Y-41295238D01*
X130707142Y-41580952D02*
X130850000Y-41390476D01*
X130992857Y-41580952D01*
X131611904Y-41152380D02*
X131611904Y-41390476D01*
X131373809Y-41295238D02*
X131611904Y-41390476D01*
X131850000Y-41295238D01*
X131469047Y-41580952D02*
X131611904Y-41390476D01*
X131754761Y-41580952D01*
%TO.C,C25*%
X149835302Y-96512132D02*
X149900350Y-96494703D01*
X150047878Y-96524892D01*
X150130356Y-96572511D01*
X150230265Y-96685179D01*
X150265124Y-96815276D01*
X150258745Y-96921564D01*
X150204746Y-97110331D01*
X150133317Y-97234049D01*
X149996840Y-97375197D01*
X149907982Y-97433866D01*
X149777884Y-97468725D01*
X149630356Y-97438536D01*
X149547878Y-97390917D01*
X149447969Y-97278249D01*
X149430540Y-97213200D01*
X149100625Y-97022724D02*
X149035576Y-97040154D01*
X148929288Y-97033774D01*
X148723092Y-96914727D01*
X148664423Y-96825868D01*
X148646993Y-96760820D01*
X148653373Y-96654531D01*
X148700992Y-96572053D01*
X148813660Y-96472144D01*
X149594245Y-96262987D01*
X149058134Y-95953463D01*
X147774588Y-96367108D02*
X148186981Y-96605203D01*
X148466315Y-96216619D01*
X148401266Y-96234049D01*
X148294978Y-96227669D01*
X148088782Y-96108622D01*
X148030113Y-96019763D01*
X148012683Y-95954715D01*
X148019063Y-95848426D01*
X148138110Y-95642230D01*
X148226969Y-95583561D01*
X148292017Y-95566131D01*
X148398306Y-95572511D01*
X148604502Y-95691558D01*
X148663171Y-95780417D01*
X148680601Y-95845466D01*
%TO.C,H5*%
X154838095Y-117152380D02*
X154838095Y-116152380D01*
X154838095Y-116628571D02*
X155409523Y-116628571D01*
X155409523Y-117152380D02*
X155409523Y-116152380D01*
X156361904Y-116152380D02*
X155885714Y-116152380D01*
X155838095Y-116628571D01*
X155885714Y-116580952D01*
X155980952Y-116533333D01*
X156219047Y-116533333D01*
X156314285Y-116580952D01*
X156361904Y-116628571D01*
X156409523Y-116723809D01*
X156409523Y-116961904D01*
X156361904Y-117057142D01*
X156314285Y-117104761D01*
X156219047Y-117152380D01*
X155980952Y-117152380D01*
X155885714Y-117104761D01*
X155838095Y-117057142D01*
%TO.C,R16*%
X134808760Y-128697921D02*
X134229701Y-128748500D01*
X134523046Y-129192792D02*
X133657021Y-128692792D01*
X133847497Y-128362878D01*
X133936355Y-128304209D01*
X134001404Y-128286779D01*
X134107692Y-128293159D01*
X134231410Y-128364587D01*
X134290079Y-128453446D01*
X134307509Y-128518494D01*
X134301129Y-128624783D01*
X134110653Y-128954697D01*
X135284951Y-127873134D02*
X134999237Y-128368006D01*
X135142094Y-128120570D02*
X134276068Y-127620570D01*
X134352167Y-127774478D01*
X134387027Y-127904575D01*
X134380647Y-128010863D01*
X134847497Y-126630827D02*
X134752259Y-126795784D01*
X134745879Y-126902072D01*
X134763309Y-126967121D01*
X134839408Y-127121028D01*
X134980555Y-127257506D01*
X135310470Y-127447982D01*
X135416758Y-127454362D01*
X135481807Y-127436932D01*
X135570665Y-127378263D01*
X135665903Y-127213306D01*
X135672283Y-127107017D01*
X135654853Y-127041969D01*
X135596184Y-126953110D01*
X135389988Y-126834063D01*
X135283699Y-126827683D01*
X135218651Y-126845113D01*
X135129792Y-126903782D01*
X135034554Y-127068739D01*
X135028174Y-127175027D01*
X135045604Y-127240076D01*
X135104273Y-127328934D01*
%TO.C,R21*%
X144097921Y-121091239D02*
X144148500Y-121670298D01*
X144592792Y-121376953D02*
X144092792Y-122242978D01*
X143762878Y-122052502D01*
X143704209Y-121963644D01*
X143686779Y-121898595D01*
X143693159Y-121792307D01*
X143764587Y-121668589D01*
X143853446Y-121609920D01*
X143918494Y-121592490D01*
X144024783Y-121598870D01*
X144354697Y-121789346D01*
X143315625Y-121684309D02*
X143250576Y-121701739D01*
X143144288Y-121695359D01*
X142938092Y-121576312D01*
X142879423Y-121487453D01*
X142861993Y-121422405D01*
X142868373Y-121316116D01*
X142915992Y-121233638D01*
X143028660Y-121133729D01*
X143809245Y-120924572D01*
X143273134Y-120615048D01*
X142448348Y-120138858D02*
X142943220Y-120424572D01*
X142695784Y-120281715D02*
X142195784Y-121147740D01*
X142349691Y-121071641D01*
X142479789Y-121036782D01*
X142586077Y-121043162D01*
%TO.C,C10*%
X101282142Y-69157142D02*
X101234523Y-69204761D01*
X101091666Y-69252380D01*
X100996428Y-69252380D01*
X100853571Y-69204761D01*
X100758333Y-69109523D01*
X100710714Y-69014285D01*
X100663095Y-68823809D01*
X100663095Y-68680952D01*
X100710714Y-68490476D01*
X100758333Y-68395238D01*
X100853571Y-68300000D01*
X100996428Y-68252380D01*
X101091666Y-68252380D01*
X101234523Y-68300000D01*
X101282142Y-68347619D01*
X102234523Y-69252380D02*
X101663095Y-69252380D01*
X101948809Y-69252380D02*
X101948809Y-68252380D01*
X101853571Y-68395238D01*
X101758333Y-68490476D01*
X101663095Y-68538095D01*
X102853571Y-68252380D02*
X102948809Y-68252380D01*
X103044047Y-68300000D01*
X103091666Y-68347619D01*
X103139285Y-68442857D01*
X103186904Y-68633333D01*
X103186904Y-68871428D01*
X103139285Y-69061904D01*
X103091666Y-69157142D01*
X103044047Y-69204761D01*
X102948809Y-69252380D01*
X102853571Y-69252380D01*
X102758333Y-69204761D01*
X102710714Y-69157142D01*
X102663095Y-69061904D01*
X102615476Y-68871428D01*
X102615476Y-68633333D01*
X102663095Y-68442857D01*
X102710714Y-68347619D01*
X102758333Y-68300000D01*
X102853571Y-68252380D01*
%TO.C,R22*%
X91813201Y-124330540D02*
X91567475Y-124857310D01*
X92098916Y-124825411D02*
X91232890Y-125325411D01*
X91042414Y-124995497D01*
X91036034Y-124889209D01*
X91053464Y-124824160D01*
X91112133Y-124735302D01*
X91235851Y-124663873D01*
X91342139Y-124657493D01*
X91407188Y-124674923D01*
X91496047Y-124733592D01*
X91686523Y-125063507D01*
X90839178Y-124453006D02*
X90774130Y-124435576D01*
X90685271Y-124376907D01*
X90566224Y-124170711D01*
X90559844Y-124064423D01*
X90577274Y-123999374D01*
X90635943Y-123910515D01*
X90718421Y-123862896D01*
X90865949Y-123832707D01*
X91646535Y-124041865D01*
X91337011Y-123505754D01*
X90362988Y-123628220D02*
X90297939Y-123610790D01*
X90209081Y-123552121D01*
X90090033Y-123345925D01*
X90083653Y-123239637D01*
X90101083Y-123174588D01*
X90159752Y-123085729D01*
X90242231Y-123038110D01*
X90389758Y-123007921D01*
X91170344Y-123217078D01*
X90860821Y-122680967D01*
%TO.C,S1*%
X123618710Y-52099925D02*
X123656205Y-51987439D01*
X123656205Y-51799962D01*
X123618710Y-51724972D01*
X123581215Y-51687476D01*
X123506224Y-51649981D01*
X123431233Y-51649981D01*
X123356243Y-51687476D01*
X123318747Y-51724972D01*
X123281252Y-51799962D01*
X123243757Y-51949944D01*
X123206261Y-52024934D01*
X123168766Y-52062430D01*
X123093775Y-52099925D01*
X123018785Y-52099925D01*
X122943794Y-52062430D01*
X122906299Y-52024934D01*
X122868803Y-51949944D01*
X122868803Y-51762467D01*
X122906299Y-51649981D01*
X123656205Y-50900074D02*
X123656205Y-51350018D01*
X123656205Y-51125046D02*
X122868803Y-51125046D01*
X122981289Y-51200037D01*
X123056280Y-51275028D01*
X123093775Y-51350018D01*
%TO.C,C18*%
X108521840Y-147130723D02*
X108504411Y-147195772D01*
X108404502Y-147308440D01*
X108322024Y-147356059D01*
X108174496Y-147386248D01*
X108044398Y-147351388D01*
X107955540Y-147292719D01*
X107819063Y-147151572D01*
X107747634Y-147027854D01*
X107693635Y-146839087D01*
X107687256Y-146732799D01*
X107722115Y-146602701D01*
X107822024Y-146490033D01*
X107904502Y-146442414D01*
X108052030Y-146412225D01*
X108117078Y-146429655D01*
X109394245Y-146737011D02*
X108899374Y-147022725D01*
X109146810Y-146879868D02*
X108646810Y-146013843D01*
X108635760Y-146185180D01*
X108600900Y-146315277D01*
X108542231Y-146404136D01*
X109603403Y-145956425D02*
X109497115Y-145962805D01*
X109432066Y-145945375D01*
X109343208Y-145886706D01*
X109319398Y-145845467D01*
X109313018Y-145739178D01*
X109330448Y-145674130D01*
X109389117Y-145585271D01*
X109554074Y-145490033D01*
X109660362Y-145483653D01*
X109725411Y-145501083D01*
X109814270Y-145559752D01*
X109838079Y-145600992D01*
X109844459Y-145707280D01*
X109827029Y-145772329D01*
X109768360Y-145861187D01*
X109603403Y-145956425D01*
X109544734Y-146045283D01*
X109527304Y-146110332D01*
X109533684Y-146216620D01*
X109628922Y-146381578D01*
X109717780Y-146440247D01*
X109782829Y-146457676D01*
X109889117Y-146451297D01*
X110054074Y-146356059D01*
X110112743Y-146267200D01*
X110130173Y-146202151D01*
X110123793Y-146095863D01*
X110028555Y-145930906D01*
X109939697Y-145872237D01*
X109874648Y-145854807D01*
X109768360Y-145861187D01*
%TO.C,R26*%
X105551617Y-123165540D02*
X105305891Y-123692310D01*
X105837332Y-123660411D02*
X104971306Y-124160411D01*
X104780830Y-123830497D01*
X104774450Y-123724209D01*
X104791880Y-123659160D01*
X104850549Y-123570302D01*
X104974267Y-123498873D01*
X105080555Y-123492493D01*
X105145604Y-123509923D01*
X105234463Y-123568592D01*
X105424939Y-123898507D01*
X104577594Y-123288006D02*
X104512546Y-123270576D01*
X104423687Y-123211907D01*
X104304640Y-123005711D01*
X104298260Y-122899423D01*
X104315690Y-122834374D01*
X104374359Y-122745515D01*
X104456837Y-122697896D01*
X104604365Y-122667707D01*
X105384951Y-122876865D01*
X105075427Y-122340754D01*
X103780830Y-122098446D02*
X103876068Y-122263403D01*
X103964927Y-122322072D01*
X104029975Y-122339502D01*
X104201312Y-122350552D01*
X104390079Y-122296553D01*
X104719994Y-122106077D01*
X104778663Y-122017219D01*
X104796092Y-121952170D01*
X104789713Y-121845882D01*
X104694475Y-121680925D01*
X104605616Y-121622256D01*
X104540567Y-121604826D01*
X104434279Y-121611206D01*
X104228083Y-121730253D01*
X104169414Y-121819112D01*
X104151984Y-121884160D01*
X104158364Y-121990448D01*
X104253602Y-122155406D01*
X104342460Y-122214075D01*
X104407509Y-122231505D01*
X104513797Y-122225125D01*
%TO.C,R6*%
X127852380Y-117266666D02*
X127376190Y-117600000D01*
X127852380Y-117838095D02*
X126852380Y-117838095D01*
X126852380Y-117457142D01*
X126900000Y-117361904D01*
X126947619Y-117314285D01*
X127042857Y-117266666D01*
X127185714Y-117266666D01*
X127280952Y-117314285D01*
X127328571Y-117361904D01*
X127376190Y-117457142D01*
X127376190Y-117838095D01*
X126852380Y-116409523D02*
X126852380Y-116600000D01*
X126900000Y-116695238D01*
X126947619Y-116742857D01*
X127090476Y-116838095D01*
X127280952Y-116885714D01*
X127661904Y-116885714D01*
X127757142Y-116838095D01*
X127804761Y-116790476D01*
X127852380Y-116695238D01*
X127852380Y-116504761D01*
X127804761Y-116409523D01*
X127757142Y-116361904D01*
X127661904Y-116314285D01*
X127423809Y-116314285D01*
X127328571Y-116361904D01*
X127280952Y-116409523D01*
X127233333Y-116504761D01*
X127233333Y-116695238D01*
X127280952Y-116790476D01*
X127328571Y-116838095D01*
X127423809Y-116885714D01*
%TO.C,R30*%
X145608760Y-109497921D02*
X145029701Y-109548500D01*
X145323046Y-109992792D02*
X144457021Y-109492792D01*
X144647497Y-109162878D01*
X144736355Y-109104209D01*
X144801404Y-109086779D01*
X144907692Y-109093159D01*
X145031410Y-109164587D01*
X145090079Y-109253446D01*
X145107509Y-109318494D01*
X145101129Y-109424783D01*
X144910653Y-109754697D01*
X144909402Y-108709245D02*
X145218925Y-108173134D01*
X145382173Y-108652286D01*
X145453602Y-108528568D01*
X145542460Y-108469899D01*
X145607509Y-108452469D01*
X145713797Y-108458849D01*
X145919994Y-108577896D01*
X145978663Y-108666755D01*
X145996092Y-108731804D01*
X145989713Y-108838092D01*
X145846856Y-109085528D01*
X145757997Y-109144197D01*
X145692948Y-109161626D01*
X145528449Y-107637024D02*
X145576068Y-107554545D01*
X145664927Y-107495876D01*
X145729975Y-107478446D01*
X145836264Y-107484826D01*
X146025030Y-107538825D01*
X146231227Y-107657872D01*
X146372375Y-107794350D01*
X146431044Y-107883208D01*
X146448473Y-107948257D01*
X146442094Y-108054545D01*
X146394475Y-108137024D01*
X146305616Y-108195693D01*
X146240567Y-108213122D01*
X146134279Y-108206743D01*
X145945513Y-108152744D01*
X145739316Y-108033696D01*
X145598168Y-107897219D01*
X145539499Y-107808360D01*
X145522069Y-107743312D01*
X145528449Y-107637024D01*
%TO.C,C17*%
X106957142Y-88617857D02*
X107004761Y-88665476D01*
X107052380Y-88808333D01*
X107052380Y-88903571D01*
X107004761Y-89046428D01*
X106909523Y-89141666D01*
X106814285Y-89189285D01*
X106623809Y-89236904D01*
X106480952Y-89236904D01*
X106290476Y-89189285D01*
X106195238Y-89141666D01*
X106100000Y-89046428D01*
X106052380Y-88903571D01*
X106052380Y-88808333D01*
X106100000Y-88665476D01*
X106147619Y-88617857D01*
X107052380Y-87665476D02*
X107052380Y-88236904D01*
X107052380Y-87951190D02*
X106052380Y-87951190D01*
X106195238Y-88046428D01*
X106290476Y-88141666D01*
X106338095Y-88236904D01*
X106052380Y-87332142D02*
X106052380Y-86665476D01*
X107052380Y-87094047D01*
%TO.C,C27*%
X164935302Y-118812133D02*
X165000350Y-118794704D01*
X165147878Y-118824893D01*
X165230356Y-118872512D01*
X165330265Y-118985180D01*
X165365124Y-119115277D01*
X165358745Y-119221565D01*
X165304746Y-119410332D01*
X165233317Y-119534050D01*
X165096840Y-119675198D01*
X165007982Y-119733867D01*
X164877884Y-119768726D01*
X164730356Y-119738537D01*
X164647878Y-119690918D01*
X164547969Y-119578250D01*
X164530540Y-119513201D01*
X164200625Y-119322725D02*
X164135576Y-119340155D01*
X164029288Y-119333775D01*
X163823092Y-119214728D01*
X163764423Y-119125869D01*
X163746993Y-119060821D01*
X163753373Y-118954532D01*
X163800992Y-118872054D01*
X163913660Y-118772145D01*
X164694245Y-118562988D01*
X164158134Y-118253464D01*
X163369459Y-118952823D02*
X162792109Y-118619490D01*
X163663263Y-117967750D01*
%TO.C,J4*%
X127666666Y-74252380D02*
X127666666Y-74966666D01*
X127619047Y-75109523D01*
X127523809Y-75204761D01*
X127380952Y-75252380D01*
X127285714Y-75252380D01*
X128571428Y-74585714D02*
X128571428Y-75252380D01*
X128333333Y-74204761D02*
X128095238Y-74919047D01*
X128714285Y-74919047D01*
%TO.C,U7*%
X155933071Y-103302535D02*
X156596881Y-102152783D01*
X156607344Y-101978470D01*
X156578759Y-101871790D01*
X156482541Y-101726063D01*
X156212012Y-101569872D01*
X156037699Y-101559409D01*
X155931019Y-101587994D01*
X155785291Y-101684211D01*
X155121482Y-102833963D01*
X154580422Y-102521582D02*
X153633568Y-101974916D01*
X155062260Y-100906063D01*
X151026190Y-102374252D02*
X151145238Y-102168055D01*
X151303815Y-102369581D02*
X151145238Y-102168055D01*
X150891422Y-102131486D01*
X151364194Y-102074526D02*
X151145238Y-102168055D01*
X151116758Y-101931669D01*
%TO.C,D7*%
X126152380Y-87513095D02*
X125152380Y-87513095D01*
X125152380Y-87275000D01*
X125200000Y-87132142D01*
X125295238Y-87036904D01*
X125390476Y-86989285D01*
X125580952Y-86941666D01*
X125723809Y-86941666D01*
X125914285Y-86989285D01*
X126009523Y-87036904D01*
X126104761Y-87132142D01*
X126152380Y-87275000D01*
X126152380Y-87513095D01*
X125152380Y-86608333D02*
X125152380Y-85941666D01*
X126152380Y-86370238D01*
%TO.C,C33*%
X161087866Y-111035302D02*
X161105295Y-111100350D01*
X161075106Y-111247878D01*
X161027487Y-111330356D01*
X160914819Y-111430265D01*
X160784722Y-111465124D01*
X160678434Y-111458745D01*
X160489667Y-111404746D01*
X160365949Y-111333317D01*
X160224801Y-111196840D01*
X160166132Y-111107982D01*
X160131273Y-110977884D01*
X160161462Y-110830356D01*
X160209081Y-110747878D01*
X160321749Y-110647969D01*
X160386798Y-110630540D01*
X160470986Y-110294245D02*
X160780509Y-109758134D01*
X160943757Y-110237286D01*
X161015186Y-110113568D01*
X161104044Y-110054899D01*
X161169093Y-110037469D01*
X161275381Y-110043849D01*
X161481578Y-110162896D01*
X161540247Y-110251755D01*
X161557676Y-110316804D01*
X161551297Y-110423092D01*
X161408440Y-110670528D01*
X161319581Y-110729197D01*
X161254532Y-110746626D01*
X160947176Y-109469459D02*
X161256700Y-108933348D01*
X161419948Y-109412500D01*
X161491376Y-109288782D01*
X161580235Y-109230113D01*
X161645283Y-109212683D01*
X161751572Y-109219063D01*
X161957768Y-109338110D01*
X162016437Y-109426969D01*
X162033867Y-109492017D01*
X162027487Y-109598306D01*
X161884630Y-109845741D01*
X161795772Y-109904411D01*
X161730723Y-109921840D01*
%TO.C,R41*%
X101432142Y-107982380D02*
X101098809Y-107506190D01*
X100860714Y-107982380D02*
X100860714Y-106982380D01*
X101241666Y-106982380D01*
X101336904Y-107030000D01*
X101384523Y-107077619D01*
X101432142Y-107172857D01*
X101432142Y-107315714D01*
X101384523Y-107410952D01*
X101336904Y-107458571D01*
X101241666Y-107506190D01*
X100860714Y-107506190D01*
X102289285Y-107315714D02*
X102289285Y-107982380D01*
X102051190Y-106934761D02*
X101813095Y-107649047D01*
X102432142Y-107649047D01*
X103336904Y-107982380D02*
X102765476Y-107982380D01*
X103051190Y-107982380D02*
X103051190Y-106982380D01*
X102955952Y-107125238D01*
X102860714Y-107220476D01*
X102765476Y-107268095D01*
%TO.C,C4*%
X106887142Y-84441666D02*
X106934761Y-84489285D01*
X106982380Y-84632142D01*
X106982380Y-84727380D01*
X106934761Y-84870238D01*
X106839523Y-84965476D01*
X106744285Y-85013095D01*
X106553809Y-85060714D01*
X106410952Y-85060714D01*
X106220476Y-85013095D01*
X106125238Y-84965476D01*
X106030000Y-84870238D01*
X105982380Y-84727380D01*
X105982380Y-84632142D01*
X106030000Y-84489285D01*
X106077619Y-84441666D01*
X106315714Y-83584523D02*
X106982380Y-83584523D01*
X105934761Y-83822619D02*
X106649047Y-84060714D01*
X106649047Y-83441666D01*
%TO.C,U8*%
X86306700Y-163433638D02*
X87007768Y-163028876D01*
X87066437Y-162940018D01*
X87083867Y-162874969D01*
X87077487Y-162768681D01*
X86982249Y-162603723D01*
X86893391Y-162545054D01*
X86828342Y-162527625D01*
X86722054Y-162534004D01*
X86020986Y-162938766D01*
X86082616Y-162188370D02*
X86088995Y-162294658D01*
X86071565Y-162359707D01*
X86012896Y-162448565D01*
X85971657Y-162472374D01*
X85865369Y-162478754D01*
X85800320Y-162461324D01*
X85711462Y-162402655D01*
X85616224Y-162237698D01*
X85609844Y-162131410D01*
X85627274Y-162066361D01*
X85685943Y-161977503D01*
X85727182Y-161953693D01*
X85833470Y-161947313D01*
X85898519Y-161964743D01*
X85987377Y-162023412D01*
X86082616Y-162188370D01*
X86171474Y-162247039D01*
X86236523Y-162264468D01*
X86342811Y-162258089D01*
X86507768Y-162162851D01*
X86566437Y-162073992D01*
X86583867Y-162008943D01*
X86577487Y-161902655D01*
X86482249Y-161737698D01*
X86393391Y-161679029D01*
X86328342Y-161661599D01*
X86222054Y-161667979D01*
X86057097Y-161763217D01*
X85998427Y-161852075D01*
X85980998Y-161917124D01*
X85987377Y-162023412D01*
%TO.C,H1*%
X107638095Y-163552380D02*
X107638095Y-162552380D01*
X107638095Y-163028571D02*
X108209523Y-163028571D01*
X108209523Y-163552380D02*
X108209523Y-162552380D01*
X109209523Y-163552380D02*
X108638095Y-163552380D01*
X108923809Y-163552380D02*
X108923809Y-162552380D01*
X108828571Y-162695238D01*
X108733333Y-162790476D01*
X108638095Y-162838095D01*
%TO.C,R24*%
X75669459Y-118913201D02*
X75142689Y-118667475D01*
X75174588Y-119198916D02*
X74674588Y-118332890D01*
X75004502Y-118142414D01*
X75110790Y-118136034D01*
X75175839Y-118153464D01*
X75264697Y-118212133D01*
X75336126Y-118335851D01*
X75342506Y-118442139D01*
X75325076Y-118507188D01*
X75266407Y-118596047D01*
X74936492Y-118786523D01*
X75546993Y-117939178D02*
X75564423Y-117874130D01*
X75623092Y-117785271D01*
X75829288Y-117666224D01*
X75935576Y-117659844D01*
X76000625Y-117677274D01*
X76089484Y-117735943D01*
X76137103Y-117818421D01*
X76167292Y-117965949D01*
X75958134Y-118746535D01*
X76494245Y-118437011D01*
X76903220Y-117431089D02*
X77236553Y-118008440D01*
X76506547Y-117220222D02*
X76657493Y-117957860D01*
X77193604Y-117648336D01*
%TO.C,H2*%
X138938095Y-162452380D02*
X138938095Y-161452380D01*
X138938095Y-161928571D02*
X139509523Y-161928571D01*
X139509523Y-162452380D02*
X139509523Y-161452380D01*
X139938095Y-161547619D02*
X139985714Y-161500000D01*
X140080952Y-161452380D01*
X140319047Y-161452380D01*
X140414285Y-161500000D01*
X140461904Y-161547619D01*
X140509523Y-161642857D01*
X140509523Y-161738095D01*
X140461904Y-161880952D01*
X139890476Y-162452380D01*
X140509523Y-162452380D01*
%TO.C,D8*%
X134152380Y-87513095D02*
X133152380Y-87513095D01*
X133152380Y-87275000D01*
X133200000Y-87132142D01*
X133295238Y-87036904D01*
X133390476Y-86989285D01*
X133580952Y-86941666D01*
X133723809Y-86941666D01*
X133914285Y-86989285D01*
X134009523Y-87036904D01*
X134104761Y-87132142D01*
X134152380Y-87275000D01*
X134152380Y-87513095D01*
X133580952Y-86370238D02*
X133533333Y-86465476D01*
X133485714Y-86513095D01*
X133390476Y-86560714D01*
X133342857Y-86560714D01*
X133247619Y-86513095D01*
X133200000Y-86465476D01*
X133152380Y-86370238D01*
X133152380Y-86179761D01*
X133200000Y-86084523D01*
X133247619Y-86036904D01*
X133342857Y-85989285D01*
X133390476Y-85989285D01*
X133485714Y-86036904D01*
X133533333Y-86084523D01*
X133580952Y-86179761D01*
X133580952Y-86370238D01*
X133628571Y-86465476D01*
X133676190Y-86513095D01*
X133771428Y-86560714D01*
X133961904Y-86560714D01*
X134057142Y-86513095D01*
X134104761Y-86465476D01*
X134152380Y-86370238D01*
X134152380Y-86179761D01*
X134104761Y-86084523D01*
X134057142Y-86036904D01*
X133961904Y-85989285D01*
X133771428Y-85989285D01*
X133676190Y-86036904D01*
X133628571Y-86084523D01*
X133580952Y-86179761D01*
%TO.C,C22*%
X98521840Y-119730723D02*
X98504411Y-119795772D01*
X98404502Y-119908440D01*
X98322024Y-119956059D01*
X98174496Y-119986248D01*
X98044398Y-119951388D01*
X97955540Y-119892719D01*
X97819063Y-119751572D01*
X97747634Y-119627854D01*
X97693635Y-119439087D01*
X97687256Y-119332799D01*
X97722115Y-119202701D01*
X97822024Y-119090033D01*
X97904502Y-119042414D01*
X98052030Y-119012225D01*
X98117078Y-119029655D01*
X98446993Y-118839178D02*
X98464423Y-118774130D01*
X98523092Y-118685271D01*
X98729288Y-118566224D01*
X98835576Y-118559844D01*
X98900625Y-118577274D01*
X98989484Y-118635943D01*
X99037103Y-118718421D01*
X99067292Y-118865949D01*
X98858134Y-119646535D01*
X99394245Y-119337011D01*
X99271779Y-118362988D02*
X99289209Y-118297939D01*
X99347878Y-118209081D01*
X99554074Y-118090033D01*
X99660362Y-118083653D01*
X99725411Y-118101083D01*
X99814270Y-118159752D01*
X99861889Y-118242231D01*
X99892078Y-118389758D01*
X99682921Y-119170344D01*
X100219032Y-118860821D01*
%TO.C,BT1*%
X146783837Y-91730997D02*
X146931364Y-91700807D01*
X146996413Y-91718237D01*
X147085271Y-91776906D01*
X147156700Y-91900624D01*
X147163080Y-92006912D01*
X147145650Y-92071961D01*
X147086981Y-92160820D01*
X146757066Y-92351296D01*
X146257066Y-91485270D01*
X146545741Y-91318604D01*
X146652030Y-91312224D01*
X146717078Y-91329654D01*
X146805937Y-91388323D01*
X146853556Y-91470801D01*
X146859936Y-91577090D01*
X146842506Y-91642138D01*
X146783837Y-91730997D01*
X146495162Y-91897663D01*
X146999374Y-91056699D02*
X147494245Y-90770985D01*
X147746810Y-91779867D02*
X147246810Y-90913842D01*
X148736553Y-91208439D02*
X148241681Y-91494153D01*
X148489117Y-91351296D02*
X147989117Y-90485270D01*
X147978067Y-90656607D01*
X147943208Y-90786705D01*
X147884538Y-90875563D01*
%TO.C,C11*%
X101757142Y-53657142D02*
X101709523Y-53704761D01*
X101566666Y-53752380D01*
X101471428Y-53752380D01*
X101328571Y-53704761D01*
X101233333Y-53609523D01*
X101185714Y-53514285D01*
X101138095Y-53323809D01*
X101138095Y-53180952D01*
X101185714Y-52990476D01*
X101233333Y-52895238D01*
X101328571Y-52800000D01*
X101471428Y-52752380D01*
X101566666Y-52752380D01*
X101709523Y-52800000D01*
X101757142Y-52847619D01*
X102709523Y-53752380D02*
X102138095Y-53752380D01*
X102423809Y-53752380D02*
X102423809Y-52752380D01*
X102328571Y-52895238D01*
X102233333Y-52990476D01*
X102138095Y-53038095D01*
X103661904Y-53752380D02*
X103090476Y-53752380D01*
X103376190Y-53752380D02*
X103376190Y-52752380D01*
X103280952Y-52895238D01*
X103185714Y-52990476D01*
X103090476Y-53038095D01*
%TO.C,U9*%
X170744795Y-131586018D02*
X171445863Y-131990780D01*
X171552151Y-131997160D01*
X171617200Y-131979730D01*
X171706059Y-131921061D01*
X171801297Y-131756103D01*
X171807676Y-131649815D01*
X171790247Y-131584766D01*
X171731578Y-131495908D01*
X171030509Y-131091146D01*
X172158440Y-131137514D02*
X172253678Y-130972557D01*
X172260057Y-130866268D01*
X172242628Y-130801220D01*
X172166529Y-130647312D01*
X172025381Y-130510835D01*
X171695467Y-130320359D01*
X171589178Y-130313979D01*
X171524130Y-130331409D01*
X171435271Y-130390078D01*
X171340033Y-130555035D01*
X171333653Y-130661323D01*
X171351083Y-130726372D01*
X171409752Y-130815231D01*
X171615949Y-130934278D01*
X171722237Y-130940658D01*
X171787286Y-130923228D01*
X171876144Y-130864559D01*
X171971382Y-130699602D01*
X171977762Y-130593314D01*
X171960332Y-130528265D01*
X171901663Y-130439407D01*
%TO.C,R25*%
X132470344Y-148982921D02*
X131891285Y-149033500D01*
X132184630Y-149477792D02*
X131318605Y-148977792D01*
X131509081Y-148647878D01*
X131597939Y-148589209D01*
X131662988Y-148571779D01*
X131769276Y-148578159D01*
X131892994Y-148649587D01*
X131951663Y-148738446D01*
X131969093Y-148803494D01*
X131962713Y-148909783D01*
X131772237Y-149239697D01*
X131877274Y-148200625D02*
X131859844Y-148135576D01*
X131866224Y-148029288D01*
X131985271Y-147823092D01*
X132074130Y-147764423D01*
X132139178Y-147746993D01*
X132245467Y-147753373D01*
X132327945Y-147800992D01*
X132427854Y-147913660D01*
X132637011Y-148694245D01*
X132946535Y-148158134D01*
X132532890Y-146874588D02*
X132294795Y-147286981D01*
X132683379Y-147566315D01*
X132665949Y-147501266D01*
X132672329Y-147394978D01*
X132791376Y-147188782D01*
X132880235Y-147130113D01*
X132945283Y-147112683D01*
X133051572Y-147119063D01*
X133257768Y-147238110D01*
X133316437Y-147326969D01*
X133333867Y-147392017D01*
X133327487Y-147498306D01*
X133208440Y-147704502D01*
X133119581Y-147763171D01*
X133054532Y-147780601D01*
%TO.C,H3*%
X123938095Y-65452380D02*
X123938095Y-64452380D01*
X123938095Y-64928571D02*
X124509523Y-64928571D01*
X124509523Y-65452380D02*
X124509523Y-64452380D01*
X124890476Y-64452380D02*
X125509523Y-64452380D01*
X125176190Y-64833333D01*
X125319047Y-64833333D01*
X125414285Y-64880952D01*
X125461904Y-64928571D01*
X125509523Y-65023809D01*
X125509523Y-65261904D01*
X125461904Y-65357142D01*
X125414285Y-65404761D01*
X125319047Y-65452380D01*
X125033333Y-65452380D01*
X124938095Y-65404761D01*
X124890476Y-65357142D01*
%TO.C,C6*%
X114908333Y-68257142D02*
X114860714Y-68304761D01*
X114717857Y-68352380D01*
X114622619Y-68352380D01*
X114479761Y-68304761D01*
X114384523Y-68209523D01*
X114336904Y-68114285D01*
X114289285Y-67923809D01*
X114289285Y-67780952D01*
X114336904Y-67590476D01*
X114384523Y-67495238D01*
X114479761Y-67400000D01*
X114622619Y-67352380D01*
X114717857Y-67352380D01*
X114860714Y-67400000D01*
X114908333Y-67447619D01*
X115765476Y-67352380D02*
X115575000Y-67352380D01*
X115479761Y-67400000D01*
X115432142Y-67447619D01*
X115336904Y-67590476D01*
X115289285Y-67780952D01*
X115289285Y-68161904D01*
X115336904Y-68257142D01*
X115384523Y-68304761D01*
X115479761Y-68352380D01*
X115670238Y-68352380D01*
X115765476Y-68304761D01*
X115813095Y-68257142D01*
X115860714Y-68161904D01*
X115860714Y-67923809D01*
X115813095Y-67828571D01*
X115765476Y-67780952D01*
X115670238Y-67733333D01*
X115479761Y-67733333D01*
X115384523Y-67780952D01*
X115336904Y-67828571D01*
X115289285Y-67923809D01*
%TO.C,D3*%
X128412380Y-114508095D02*
X127412380Y-114508095D01*
X127412380Y-114270000D01*
X127460000Y-114127142D01*
X127555238Y-114031904D01*
X127650476Y-113984285D01*
X127840952Y-113936666D01*
X127983809Y-113936666D01*
X128174285Y-113984285D01*
X128269523Y-114031904D01*
X128364761Y-114127142D01*
X128412380Y-114270000D01*
X128412380Y-114508095D01*
X127412380Y-113603333D02*
X127412380Y-112984285D01*
X127793333Y-113317619D01*
X127793333Y-113174761D01*
X127840952Y-113079523D01*
X127888571Y-113031904D01*
X127983809Y-112984285D01*
X128221904Y-112984285D01*
X128317142Y-113031904D01*
X128364761Y-113079523D01*
X128412380Y-113174761D01*
X128412380Y-113460476D01*
X128364761Y-113555714D01*
X128317142Y-113603333D01*
%TO.C,R40*%
X163382921Y-121229655D02*
X163433500Y-121808714D01*
X163877792Y-121515369D02*
X163377792Y-122381394D01*
X163047878Y-122190918D01*
X162989209Y-122102060D01*
X162971779Y-122037011D01*
X162978159Y-121930723D01*
X163049587Y-121807005D01*
X163138446Y-121748336D01*
X163203494Y-121730906D01*
X163309783Y-121737286D01*
X163639697Y-121927762D01*
X162307280Y-121378434D02*
X162640613Y-120801083D01*
X162323000Y-121827396D02*
X162886339Y-121327854D01*
X162350229Y-121018330D01*
X161522024Y-121309966D02*
X161439545Y-121262347D01*
X161380876Y-121173488D01*
X161363446Y-121108440D01*
X161369826Y-121002151D01*
X161423825Y-120813385D01*
X161542872Y-120607188D01*
X161679350Y-120466040D01*
X161768208Y-120407371D01*
X161833257Y-120389942D01*
X161939545Y-120396321D01*
X162022024Y-120443940D01*
X162080693Y-120532799D01*
X162098122Y-120597848D01*
X162091743Y-120704136D01*
X162037744Y-120892902D01*
X161918696Y-121099099D01*
X161782219Y-121240247D01*
X161693360Y-121298916D01*
X161628312Y-121316346D01*
X161522024Y-121309966D01*
%TO.C,R32*%
X103513202Y-144930540D02*
X103267476Y-145457310D01*
X103798917Y-145425411D02*
X102932891Y-145925411D01*
X102742415Y-145595497D01*
X102736035Y-145489209D01*
X102753465Y-145424160D01*
X102812134Y-145335302D01*
X102935852Y-145263873D01*
X103042140Y-145257493D01*
X103107189Y-145274923D01*
X103196048Y-145333592D01*
X103386524Y-145663507D01*
X102480510Y-145141865D02*
X102170987Y-144605754D01*
X102667568Y-144703952D01*
X102596139Y-144580235D01*
X102589759Y-144473946D01*
X102607189Y-144408898D01*
X102665858Y-144320039D01*
X102872055Y-144200992D01*
X102978343Y-144194612D01*
X103043392Y-144212042D01*
X103132250Y-144270711D01*
X103275107Y-144518147D01*
X103281487Y-144624435D01*
X103264057Y-144689484D01*
X102062989Y-144228220D02*
X101997940Y-144210790D01*
X101909082Y-144152121D01*
X101790034Y-143945925D01*
X101783654Y-143839637D01*
X101801084Y-143774588D01*
X101859753Y-143685729D01*
X101942232Y-143638110D01*
X102089759Y-143607921D01*
X102870345Y-143817078D01*
X102560822Y-143280967D01*
%TO.C,C24*%
X147550302Y-123173717D02*
X147615350Y-123156288D01*
X147762878Y-123186477D01*
X147845356Y-123234096D01*
X147945265Y-123346764D01*
X147980124Y-123476861D01*
X147973745Y-123583149D01*
X147919746Y-123771916D01*
X147848317Y-123895634D01*
X147711840Y-124036782D01*
X147622982Y-124095451D01*
X147492884Y-124130310D01*
X147345356Y-124100121D01*
X147262878Y-124052502D01*
X147162969Y-123939834D01*
X147145540Y-123874785D01*
X146815625Y-123684309D02*
X146750576Y-123701739D01*
X146644288Y-123695359D01*
X146438092Y-123576312D01*
X146379423Y-123487453D01*
X146361993Y-123422405D01*
X146368373Y-123316116D01*
X146415992Y-123233638D01*
X146528660Y-123133729D01*
X147309245Y-122924572D01*
X146773134Y-122615048D01*
X145697494Y-122763827D02*
X146030827Y-122186477D01*
X145713214Y-123212789D02*
X146276553Y-122713247D01*
X145740442Y-122403723D01*
%TO.C,R33*%
X156970344Y-112282921D02*
X156391285Y-112333500D01*
X156684630Y-112777792D02*
X155818605Y-112277792D01*
X156009081Y-111947878D01*
X156097939Y-111889209D01*
X156162988Y-111871779D01*
X156269276Y-111878159D01*
X156392994Y-111949587D01*
X156451663Y-112038446D01*
X156469093Y-112103494D01*
X156462713Y-112209783D01*
X156272237Y-112539697D01*
X156270986Y-111494245D02*
X156580509Y-110958134D01*
X156743757Y-111437286D01*
X156815186Y-111313568D01*
X156904044Y-111254899D01*
X156969093Y-111237469D01*
X157075381Y-111243849D01*
X157281578Y-111362896D01*
X157340247Y-111451755D01*
X157357676Y-111516804D01*
X157351297Y-111623092D01*
X157208440Y-111870528D01*
X157119581Y-111929197D01*
X157054532Y-111946626D01*
X156747176Y-110669459D02*
X157056700Y-110133348D01*
X157219948Y-110612500D01*
X157291376Y-110488782D01*
X157380235Y-110430113D01*
X157445283Y-110412683D01*
X157551572Y-110419063D01*
X157757768Y-110538110D01*
X157816437Y-110626969D01*
X157833867Y-110692017D01*
X157827487Y-110798306D01*
X157684630Y-111045741D01*
X157595772Y-111104411D01*
X157530723Y-111121840D01*
%TO.C,C1*%
X123424642Y-79016666D02*
X123472261Y-79064285D01*
X123519880Y-79207142D01*
X123519880Y-79302380D01*
X123472261Y-79445238D01*
X123377023Y-79540476D01*
X123281785Y-79588095D01*
X123091309Y-79635714D01*
X122948452Y-79635714D01*
X122757976Y-79588095D01*
X122662738Y-79540476D01*
X122567500Y-79445238D01*
X122519880Y-79302380D01*
X122519880Y-79207142D01*
X122567500Y-79064285D01*
X122615119Y-79016666D01*
X123519880Y-78064285D02*
X123519880Y-78635714D01*
X123519880Y-78350000D02*
X122519880Y-78350000D01*
X122662738Y-78445238D01*
X122757976Y-78540476D01*
X122805595Y-78635714D01*
%TO.C,R35*%
X148782921Y-98029654D02*
X148833500Y-98608713D01*
X149277792Y-98315368D02*
X148777792Y-99181393D01*
X148447878Y-98990917D01*
X148389209Y-98902059D01*
X148371779Y-98837010D01*
X148378159Y-98730722D01*
X148449587Y-98607004D01*
X148538446Y-98548335D01*
X148603494Y-98530905D01*
X148709783Y-98537285D01*
X149039697Y-98727761D01*
X147994245Y-98729012D02*
X147458134Y-98419489D01*
X147937286Y-98256241D01*
X147813568Y-98184812D01*
X147754899Y-98095954D01*
X147737469Y-98030905D01*
X147743849Y-97924617D01*
X147862896Y-97718420D01*
X147951755Y-97659751D01*
X148016804Y-97642322D01*
X148123092Y-97648701D01*
X148370528Y-97791558D01*
X148429197Y-97880417D01*
X148446626Y-97945466D01*
X146674588Y-97967108D02*
X147086981Y-98205203D01*
X147366315Y-97816619D01*
X147301266Y-97834049D01*
X147194978Y-97827669D01*
X146988782Y-97708622D01*
X146930113Y-97619763D01*
X146912683Y-97554715D01*
X146919063Y-97448426D01*
X147038110Y-97242230D01*
X147126969Y-97183561D01*
X147192017Y-97166131D01*
X147298306Y-97172511D01*
X147504502Y-97291558D01*
X147563171Y-97380417D01*
X147580601Y-97445466D01*
%TO.C,TH1*%
X103714285Y-57452380D02*
X104285714Y-57452380D01*
X104000000Y-58452380D02*
X104000000Y-57452380D01*
X104619047Y-58452380D02*
X104619047Y-57452380D01*
X104619047Y-57928571D02*
X105190476Y-57928571D01*
X105190476Y-58452380D02*
X105190476Y-57452380D01*
X106190476Y-58452380D02*
X105619047Y-58452380D01*
X105904761Y-58452380D02*
X105904761Y-57452380D01*
X105809523Y-57595238D01*
X105714285Y-57690476D01*
X105619047Y-57738095D01*
%TO.C,C30*%
X105830723Y-143478159D02*
X105895772Y-143495588D01*
X106008440Y-143595497D01*
X106056059Y-143677975D01*
X106086248Y-143825503D01*
X106051388Y-143955601D01*
X105992719Y-144044459D01*
X105851572Y-144180936D01*
X105727854Y-144252365D01*
X105539087Y-144306364D01*
X105432799Y-144312743D01*
X105302701Y-144277884D01*
X105190033Y-144177975D01*
X105142414Y-144095497D01*
X105112225Y-143947969D01*
X105129655Y-143882921D01*
X104880509Y-143641865D02*
X104570986Y-143105754D01*
X105067567Y-143203952D01*
X104996138Y-143080235D01*
X104989758Y-142973946D01*
X105007188Y-142908898D01*
X105065857Y-142820039D01*
X105272054Y-142700992D01*
X105378342Y-142694612D01*
X105443391Y-142712042D01*
X105532249Y-142770711D01*
X105675106Y-143018147D01*
X105681486Y-143124435D01*
X105664056Y-143189484D01*
X104261462Y-142569643D02*
X104213843Y-142487164D01*
X104207463Y-142380876D01*
X104224893Y-142315827D01*
X104283562Y-142226969D01*
X104424710Y-142090491D01*
X104630906Y-141971444D01*
X104819673Y-141917445D01*
X104925961Y-141911065D01*
X104991010Y-141928495D01*
X105079868Y-141987164D01*
X105127487Y-142069643D01*
X105133867Y-142175931D01*
X105116437Y-142240980D01*
X105057768Y-142329838D01*
X104916620Y-142466315D01*
X104710424Y-142585363D01*
X104521657Y-142639362D01*
X104415369Y-142645741D01*
X104350320Y-142628312D01*
X104261462Y-142569643D01*
%TO.C,C19*%
X100730723Y-108978159D02*
X100795772Y-108995588D01*
X100908440Y-109095497D01*
X100956059Y-109177975D01*
X100986248Y-109325503D01*
X100951388Y-109455601D01*
X100892719Y-109544459D01*
X100751572Y-109680936D01*
X100627854Y-109752365D01*
X100439087Y-109806364D01*
X100332799Y-109812743D01*
X100202701Y-109777884D01*
X100090033Y-109677975D01*
X100042414Y-109595497D01*
X100012225Y-109447969D01*
X100029655Y-109382921D01*
X100337011Y-108105754D02*
X100622725Y-108600625D01*
X100479868Y-108353189D02*
X99613843Y-108853189D01*
X99785180Y-108864239D01*
X99915277Y-108899099D01*
X100004136Y-108957768D01*
X100098916Y-107693360D02*
X100003678Y-107528403D01*
X99914819Y-107469734D01*
X99849770Y-107452304D01*
X99678434Y-107441254D01*
X99489667Y-107495253D01*
X99159752Y-107685729D01*
X99101083Y-107774588D01*
X99083653Y-107839637D01*
X99090033Y-107945925D01*
X99185271Y-108110882D01*
X99274130Y-108169551D01*
X99339178Y-108186981D01*
X99445467Y-108180601D01*
X99651663Y-108061553D01*
X99710332Y-107972695D01*
X99727762Y-107907646D01*
X99721382Y-107801358D01*
X99626144Y-107636401D01*
X99537286Y-107577732D01*
X99472237Y-107560302D01*
X99365949Y-107566682D01*
%TO.C,R42*%
X105582142Y-110532380D02*
X105248809Y-110056190D01*
X105010714Y-110532380D02*
X105010714Y-109532380D01*
X105391666Y-109532380D01*
X105486904Y-109580000D01*
X105534523Y-109627619D01*
X105582142Y-109722857D01*
X105582142Y-109865714D01*
X105534523Y-109960952D01*
X105486904Y-110008571D01*
X105391666Y-110056190D01*
X105010714Y-110056190D01*
X106439285Y-109865714D02*
X106439285Y-110532380D01*
X106201190Y-109484761D02*
X105963095Y-110199047D01*
X106582142Y-110199047D01*
X106915476Y-109627619D02*
X106963095Y-109580000D01*
X107058333Y-109532380D01*
X107296428Y-109532380D01*
X107391666Y-109580000D01*
X107439285Y-109627619D01*
X107486904Y-109722857D01*
X107486904Y-109818095D01*
X107439285Y-109960952D01*
X106867857Y-110532380D01*
X107486904Y-110532380D01*
%TO.C,D6*%
X118052380Y-87438095D02*
X117052380Y-87438095D01*
X117052380Y-87200000D01*
X117100000Y-87057142D01*
X117195238Y-86961904D01*
X117290476Y-86914285D01*
X117480952Y-86866666D01*
X117623809Y-86866666D01*
X117814285Y-86914285D01*
X117909523Y-86961904D01*
X118004761Y-87057142D01*
X118052380Y-87200000D01*
X118052380Y-87438095D01*
X117052380Y-86009523D02*
X117052380Y-86200000D01*
X117100000Y-86295238D01*
X117147619Y-86342857D01*
X117290476Y-86438095D01*
X117480952Y-86485714D01*
X117861904Y-86485714D01*
X117957142Y-86438095D01*
X118004761Y-86390476D01*
X118052380Y-86295238D01*
X118052380Y-86104761D01*
X118004761Y-86009523D01*
X117957142Y-85961904D01*
X117861904Y-85914285D01*
X117623809Y-85914285D01*
X117528571Y-85961904D01*
X117480952Y-86009523D01*
X117433333Y-86104761D01*
X117433333Y-86295238D01*
X117480952Y-86390476D01*
X117528571Y-86438095D01*
X117623809Y-86485714D01*
%TO.C,REF\u002A\u002A*%
X108966666Y-42602380D02*
X108633333Y-42126190D01*
X108395238Y-42602380D02*
X108395238Y-41602380D01*
X108776190Y-41602380D01*
X108871428Y-41650000D01*
X108919047Y-41697619D01*
X108966666Y-41792857D01*
X108966666Y-41935714D01*
X108919047Y-42030952D01*
X108871428Y-42078571D01*
X108776190Y-42126190D01*
X108395238Y-42126190D01*
X109395238Y-42078571D02*
X109728571Y-42078571D01*
X109871428Y-42602380D02*
X109395238Y-42602380D01*
X109395238Y-41602380D01*
X109871428Y-41602380D01*
X110633333Y-42078571D02*
X110300000Y-42078571D01*
X110300000Y-42602380D02*
X110300000Y-41602380D01*
X110776190Y-41602380D01*
X111300000Y-41602380D02*
X111300000Y-41840476D01*
X111061904Y-41745238D02*
X111300000Y-41840476D01*
X111538095Y-41745238D01*
X111157142Y-42030952D02*
X111300000Y-41840476D01*
X111442857Y-42030952D01*
X112061904Y-41602380D02*
X112061904Y-41840476D01*
X111823809Y-41745238D02*
X112061904Y-41840476D01*
X112300000Y-41745238D01*
X111919047Y-42030952D02*
X112061904Y-41840476D01*
X112204761Y-42030952D01*
%TO.C,U3*%
X83768833Y-101246988D02*
X84432642Y-102396740D01*
X84578370Y-102492957D01*
X84685050Y-102521542D01*
X84859362Y-102511079D01*
X85129892Y-102354889D01*
X85226110Y-102209161D01*
X85254694Y-102102481D01*
X85244232Y-101928169D01*
X84580422Y-100778417D01*
X85121482Y-100466036D02*
X86000704Y-99958417D01*
X85839657Y-100772810D01*
X86042555Y-100655667D01*
X86216867Y-100645204D01*
X86323547Y-100673789D01*
X86469275Y-100770006D01*
X86664513Y-101108169D01*
X86674976Y-101282481D01*
X86646391Y-101389161D01*
X86550174Y-101534889D01*
X86144379Y-101769175D01*
X85970067Y-101779637D01*
X85863386Y-101751052D01*
X80826190Y-105825747D02*
X80945238Y-106031944D01*
X80691422Y-106068513D02*
X80945238Y-106031944D01*
X81103815Y-105830418D01*
X80916758Y-106268330D02*
X80945238Y-106031944D01*
X81164194Y-106125473D01*
%TO.C,U5*%
X68006700Y-131433638D02*
X68707768Y-131028876D01*
X68766437Y-130940018D01*
X68783867Y-130874969D01*
X68777487Y-130768681D01*
X68682249Y-130603723D01*
X68593391Y-130545054D01*
X68528342Y-130527625D01*
X68422054Y-130534004D01*
X67720986Y-130938766D01*
X67244795Y-130113980D02*
X67482890Y-130526373D01*
X67919093Y-130329517D01*
X67854044Y-130312087D01*
X67765186Y-130253418D01*
X67646138Y-130047222D01*
X67639758Y-129940934D01*
X67657188Y-129875885D01*
X67715857Y-129787027D01*
X67922054Y-129667979D01*
X68028342Y-129661599D01*
X68093391Y-129679029D01*
X68182249Y-129737698D01*
X68301297Y-129943895D01*
X68307676Y-130050183D01*
X68290247Y-130115232D01*
%TO.C,J2*%
X144402380Y-98333333D02*
X145116666Y-98333333D01*
X145259523Y-98380952D01*
X145354761Y-98476190D01*
X145402380Y-98619047D01*
X145402380Y-98714285D01*
X144497619Y-97904761D02*
X144450000Y-97857142D01*
X144402380Y-97761904D01*
X144402380Y-97523809D01*
X144450000Y-97428571D01*
X144497619Y-97380952D01*
X144592857Y-97333333D01*
X144688095Y-97333333D01*
X144830952Y-97380952D01*
X145402380Y-97952380D01*
X145402380Y-97333333D01*
%TO.C,C29*%
X168735302Y-121812133D02*
X168800350Y-121794704D01*
X168947878Y-121824893D01*
X169030356Y-121872512D01*
X169130265Y-121985180D01*
X169165124Y-122115277D01*
X169158745Y-122221565D01*
X169104746Y-122410332D01*
X169033317Y-122534050D01*
X168896840Y-122675198D01*
X168807982Y-122733867D01*
X168677884Y-122768726D01*
X168530356Y-122738537D01*
X168447878Y-122690918D01*
X168347969Y-122578250D01*
X168330540Y-122513201D01*
X168000625Y-122322725D02*
X167935576Y-122340155D01*
X167829288Y-122333775D01*
X167623092Y-122214728D01*
X167564423Y-122125869D01*
X167546993Y-122060821D01*
X167553373Y-121954532D01*
X167600992Y-121872054D01*
X167713660Y-121772145D01*
X168494245Y-121562988D01*
X167958134Y-121253464D01*
X167545741Y-121015369D02*
X167380784Y-120920131D01*
X167274496Y-120913751D01*
X167209447Y-120931181D01*
X167055540Y-121007280D01*
X166919063Y-121148427D01*
X166728586Y-121478342D01*
X166722207Y-121584630D01*
X166739637Y-121649679D01*
X166798306Y-121738537D01*
X166963263Y-121833775D01*
X167069551Y-121840155D01*
X167134600Y-121822725D01*
X167223458Y-121764056D01*
X167342506Y-121557860D01*
X167348886Y-121451572D01*
X167331456Y-121386523D01*
X167272787Y-121297664D01*
X167107829Y-121202426D01*
X167001541Y-121196047D01*
X166936492Y-121213476D01*
X166847634Y-121272145D01*
%TO.C,C8*%
X102133333Y-56657142D02*
X102085714Y-56704761D01*
X101942857Y-56752380D01*
X101847619Y-56752380D01*
X101704761Y-56704761D01*
X101609523Y-56609523D01*
X101561904Y-56514285D01*
X101514285Y-56323809D01*
X101514285Y-56180952D01*
X101561904Y-55990476D01*
X101609523Y-55895238D01*
X101704761Y-55800000D01*
X101847619Y-55752380D01*
X101942857Y-55752380D01*
X102085714Y-55800000D01*
X102133333Y-55847619D01*
X102704761Y-56180952D02*
X102609523Y-56133333D01*
X102561904Y-56085714D01*
X102514285Y-55990476D01*
X102514285Y-55942857D01*
X102561904Y-55847619D01*
X102609523Y-55800000D01*
X102704761Y-55752380D01*
X102895238Y-55752380D01*
X102990476Y-55800000D01*
X103038095Y-55847619D01*
X103085714Y-55942857D01*
X103085714Y-55990476D01*
X103038095Y-56085714D01*
X102990476Y-56133333D01*
X102895238Y-56180952D01*
X102704761Y-56180952D01*
X102609523Y-56228571D01*
X102561904Y-56276190D01*
X102514285Y-56371428D01*
X102514285Y-56561904D01*
X102561904Y-56657142D01*
X102609523Y-56704761D01*
X102704761Y-56752380D01*
X102895238Y-56752380D01*
X102990476Y-56704761D01*
X103038095Y-56657142D01*
X103085714Y-56561904D01*
X103085714Y-56371428D01*
X103038095Y-56276190D01*
X102990476Y-56228571D01*
X102895238Y-56180952D01*
%TO.C,R14*%
X139008760Y-121497921D02*
X138429701Y-121548500D01*
X138723046Y-121992792D02*
X137857021Y-121492792D01*
X138047497Y-121162878D01*
X138136355Y-121104209D01*
X138201404Y-121086779D01*
X138307692Y-121093159D01*
X138431410Y-121164587D01*
X138490079Y-121253446D01*
X138507509Y-121318494D01*
X138501129Y-121424783D01*
X138310653Y-121754697D01*
X139484951Y-120673134D02*
X139199237Y-121168006D01*
X139342094Y-120920570D02*
X138476068Y-120420570D01*
X138552167Y-120574478D01*
X138587027Y-120704575D01*
X138580647Y-120810863D01*
X139336172Y-119597494D02*
X139913522Y-119930827D01*
X138887210Y-119613214D02*
X139386752Y-120176553D01*
X139696276Y-119640442D01*
%TO.C,C14*%
X104657142Y-82357142D02*
X104609523Y-82404761D01*
X104466666Y-82452380D01*
X104371428Y-82452380D01*
X104228571Y-82404761D01*
X104133333Y-82309523D01*
X104085714Y-82214285D01*
X104038095Y-82023809D01*
X104038095Y-81880952D01*
X104085714Y-81690476D01*
X104133333Y-81595238D01*
X104228571Y-81500000D01*
X104371428Y-81452380D01*
X104466666Y-81452380D01*
X104609523Y-81500000D01*
X104657142Y-81547619D01*
X105609523Y-82452380D02*
X105038095Y-82452380D01*
X105323809Y-82452380D02*
X105323809Y-81452380D01*
X105228571Y-81595238D01*
X105133333Y-81690476D01*
X105038095Y-81738095D01*
X106466666Y-81785714D02*
X106466666Y-82452380D01*
X106228571Y-81404761D02*
X105990476Y-82119047D01*
X106609523Y-82119047D01*
%TO.C,R3*%
X110782380Y-75391666D02*
X110306190Y-75725000D01*
X110782380Y-75963095D02*
X109782380Y-75963095D01*
X109782380Y-75582142D01*
X109830000Y-75486904D01*
X109877619Y-75439285D01*
X109972857Y-75391666D01*
X110115714Y-75391666D01*
X110210952Y-75439285D01*
X110258571Y-75486904D01*
X110306190Y-75582142D01*
X110306190Y-75963095D01*
X109782380Y-75058333D02*
X109782380Y-74439285D01*
X110163333Y-74772619D01*
X110163333Y-74629761D01*
X110210952Y-74534523D01*
X110258571Y-74486904D01*
X110353809Y-74439285D01*
X110591904Y-74439285D01*
X110687142Y-74486904D01*
X110734761Y-74534523D01*
X110782380Y-74629761D01*
X110782380Y-74915476D01*
X110734761Y-75010714D01*
X110687142Y-75058333D01*
%TO.C,R31*%
X143508760Y-113097921D02*
X142929701Y-113148500D01*
X143223046Y-113592792D02*
X142357021Y-113092792D01*
X142547497Y-112762878D01*
X142636355Y-112704209D01*
X142701404Y-112686779D01*
X142807692Y-112693159D01*
X142931410Y-112764587D01*
X142990079Y-112853446D01*
X143007509Y-112918494D01*
X143001129Y-113024783D01*
X142810653Y-113354697D01*
X142809402Y-112309245D02*
X143118925Y-111773134D01*
X143282173Y-112252286D01*
X143353602Y-112128568D01*
X143442460Y-112069899D01*
X143507509Y-112052469D01*
X143613797Y-112058849D01*
X143819994Y-112177896D01*
X143878663Y-112266755D01*
X143896092Y-112331804D01*
X143889713Y-112438092D01*
X143746856Y-112685528D01*
X143657997Y-112744197D01*
X143592948Y-112761626D01*
X144461141Y-111448348D02*
X144175427Y-111943220D01*
X144318284Y-111695784D02*
X143452259Y-111195784D01*
X143528358Y-111349691D01*
X143563217Y-111479789D01*
X143556837Y-111586077D01*
%TO.C,C31*%
X81821840Y-119130723D02*
X81804411Y-119195772D01*
X81704502Y-119308440D01*
X81622024Y-119356059D01*
X81474496Y-119386248D01*
X81344398Y-119351388D01*
X81255540Y-119292719D01*
X81119063Y-119151572D01*
X81047634Y-119027854D01*
X80993635Y-118839087D01*
X80987256Y-118732799D01*
X81022115Y-118602701D01*
X81122024Y-118490033D01*
X81204502Y-118442414D01*
X81352030Y-118412225D01*
X81417078Y-118429655D01*
X81658134Y-118180509D02*
X82194245Y-117870986D01*
X82096047Y-118367567D01*
X82219764Y-118296138D01*
X82326053Y-118289758D01*
X82391101Y-118307188D01*
X82479960Y-118365857D01*
X82599007Y-118572054D01*
X82605387Y-118678342D01*
X82587957Y-118743391D01*
X82529288Y-118832249D01*
X82281852Y-118975106D01*
X82175564Y-118981486D01*
X82110515Y-118964056D01*
X83519032Y-118260821D02*
X83024160Y-118546535D01*
X83271596Y-118403678D02*
X82771596Y-117537652D01*
X82760546Y-117708989D01*
X82725686Y-117839087D01*
X82667017Y-117927945D01*
%TO.C,C16*%
X102257142Y-90632142D02*
X102209523Y-90679761D01*
X102066666Y-90727380D01*
X101971428Y-90727380D01*
X101828571Y-90679761D01*
X101733333Y-90584523D01*
X101685714Y-90489285D01*
X101638095Y-90298809D01*
X101638095Y-90155952D01*
X101685714Y-89965476D01*
X101733333Y-89870238D01*
X101828571Y-89775000D01*
X101971428Y-89727380D01*
X102066666Y-89727380D01*
X102209523Y-89775000D01*
X102257142Y-89822619D01*
X103209523Y-90727380D02*
X102638095Y-90727380D01*
X102923809Y-90727380D02*
X102923809Y-89727380D01*
X102828571Y-89870238D01*
X102733333Y-89965476D01*
X102638095Y-90013095D01*
X104066666Y-89727380D02*
X103876190Y-89727380D01*
X103780952Y-89775000D01*
X103733333Y-89822619D01*
X103638095Y-89965476D01*
X103590476Y-90155952D01*
X103590476Y-90536904D01*
X103638095Y-90632142D01*
X103685714Y-90679761D01*
X103780952Y-90727380D01*
X103971428Y-90727380D01*
X104066666Y-90679761D01*
X104114285Y-90632142D01*
X104161904Y-90536904D01*
X104161904Y-90298809D01*
X104114285Y-90203571D01*
X104066666Y-90155952D01*
X103971428Y-90108333D01*
X103780952Y-90108333D01*
X103685714Y-90155952D01*
X103638095Y-90203571D01*
X103590476Y-90298809D01*
%TO.C,Q1*%
X120242261Y-72397619D02*
X120147023Y-72350000D01*
X120051785Y-72254761D01*
X119908928Y-72111904D01*
X119813690Y-72064285D01*
X119718452Y-72064285D01*
X119766071Y-72302380D02*
X119670833Y-72254761D01*
X119575595Y-72159523D01*
X119527976Y-71969047D01*
X119527976Y-71635714D01*
X119575595Y-71445238D01*
X119670833Y-71350000D01*
X119766071Y-71302380D01*
X119956547Y-71302380D01*
X120051785Y-71350000D01*
X120147023Y-71445238D01*
X120194642Y-71635714D01*
X120194642Y-71969047D01*
X120147023Y-72159523D01*
X120051785Y-72254761D01*
X119956547Y-72302380D01*
X119766071Y-72302380D01*
X121147023Y-72302380D02*
X120575595Y-72302380D01*
X120861309Y-72302380D02*
X120861309Y-71302380D01*
X120766071Y-71445238D01*
X120670833Y-71540476D01*
X120575595Y-71588095D01*
%TO.C,BT2*%
X87155265Y-98545283D02*
X87255174Y-98657951D01*
X87272603Y-98723000D01*
X87266224Y-98829288D01*
X87194795Y-98953006D01*
X87105937Y-99011675D01*
X87040888Y-99029105D01*
X86934600Y-99022725D01*
X86604685Y-98832249D01*
X87104685Y-97966224D01*
X87393360Y-98132890D01*
X87452030Y-98221749D01*
X87469459Y-98286798D01*
X87463080Y-98393086D01*
X87415461Y-98475564D01*
X87326602Y-98534233D01*
X87261553Y-98551663D01*
X87155265Y-98545283D01*
X86866590Y-98378617D01*
X87846993Y-98394795D02*
X88341865Y-98680509D01*
X87594429Y-99403678D02*
X88094429Y-98537652D01*
X88541681Y-98905845D02*
X88606730Y-98888415D01*
X88713018Y-98894795D01*
X88919215Y-99013843D01*
X88977884Y-99102701D01*
X88995314Y-99167750D01*
X88988934Y-99274038D01*
X88941315Y-99356517D01*
X88828647Y-99456425D01*
X88048061Y-99665582D01*
X88584172Y-99975106D01*
%TO.C,C26*%
X107857142Y-150542857D02*
X107904761Y-150590476D01*
X107952380Y-150733333D01*
X107952380Y-150828571D01*
X107904761Y-150971428D01*
X107809523Y-151066666D01*
X107714285Y-151114285D01*
X107523809Y-151161904D01*
X107380952Y-151161904D01*
X107190476Y-151114285D01*
X107095238Y-151066666D01*
X107000000Y-150971428D01*
X106952380Y-150828571D01*
X106952380Y-150733333D01*
X107000000Y-150590476D01*
X107047619Y-150542857D01*
X107047619Y-150161904D02*
X107000000Y-150114285D01*
X106952380Y-150019047D01*
X106952380Y-149780952D01*
X107000000Y-149685714D01*
X107047619Y-149638095D01*
X107142857Y-149590476D01*
X107238095Y-149590476D01*
X107380952Y-149638095D01*
X107952380Y-150209523D01*
X107952380Y-149590476D01*
X106952380Y-148733333D02*
X106952380Y-148923809D01*
X107000000Y-149019047D01*
X107047619Y-149066666D01*
X107190476Y-149161904D01*
X107380952Y-149209523D01*
X107761904Y-149209523D01*
X107857142Y-149161904D01*
X107904761Y-149114285D01*
X107952380Y-149019047D01*
X107952380Y-148828571D01*
X107904761Y-148733333D01*
X107857142Y-148685714D01*
X107761904Y-148638095D01*
X107523809Y-148638095D01*
X107428571Y-148685714D01*
X107380952Y-148733333D01*
X107333333Y-148828571D01*
X107333333Y-149019047D01*
X107380952Y-149114285D01*
X107428571Y-149161904D01*
X107523809Y-149209523D01*
%TO.C,C20*%
X72021840Y-124430723D02*
X72004411Y-124495772D01*
X71904502Y-124608440D01*
X71822024Y-124656059D01*
X71674496Y-124686248D01*
X71544398Y-124651388D01*
X71455540Y-124592719D01*
X71319063Y-124451572D01*
X71247634Y-124327854D01*
X71193635Y-124139087D01*
X71187256Y-124032799D01*
X71222115Y-123902701D01*
X71322024Y-123790033D01*
X71404502Y-123742414D01*
X71552030Y-123712225D01*
X71617078Y-123729655D01*
X71946993Y-123539178D02*
X71964423Y-123474130D01*
X72023092Y-123385271D01*
X72229288Y-123266224D01*
X72335576Y-123259844D01*
X72400625Y-123277274D01*
X72489484Y-123335943D01*
X72537103Y-123418421D01*
X72567292Y-123565949D01*
X72358134Y-124346535D01*
X72894245Y-124037011D01*
X72930356Y-122861462D02*
X73012835Y-122813843D01*
X73119123Y-122807463D01*
X73184172Y-122824893D01*
X73273030Y-122883562D01*
X73409508Y-123024710D01*
X73528555Y-123230906D01*
X73582554Y-123419673D01*
X73588934Y-123525961D01*
X73571504Y-123591010D01*
X73512835Y-123679868D01*
X73430356Y-123727487D01*
X73324068Y-123733867D01*
X73259019Y-123716437D01*
X73170161Y-123657768D01*
X73033684Y-123516620D01*
X72914636Y-123310424D01*
X72860637Y-123121657D01*
X72854258Y-123015369D01*
X72871687Y-122950320D01*
X72930356Y-122861462D01*
%TO.C,C12*%
X106895943Y-70613193D02*
X106963287Y-70613193D01*
X107097974Y-70680537D01*
X107165317Y-70747880D01*
X107232661Y-70882567D01*
X107232661Y-71017254D01*
X107198989Y-71118269D01*
X107097974Y-71286628D01*
X106996959Y-71387643D01*
X106828600Y-71488659D01*
X106727585Y-71522330D01*
X106592898Y-71522330D01*
X106458211Y-71454987D01*
X106390867Y-71387643D01*
X106323524Y-71252956D01*
X106323524Y-71185613D01*
X106289852Y-69872414D02*
X106693913Y-70276475D01*
X106491882Y-70074445D02*
X105784775Y-70781552D01*
X105953134Y-70747880D01*
X106087821Y-70747880D01*
X106188837Y-70781552D01*
X105380714Y-70242804D02*
X105313371Y-70242804D01*
X105212356Y-70209132D01*
X105043997Y-70040773D01*
X105010325Y-69939758D01*
X105010325Y-69872414D01*
X105043997Y-69771399D01*
X105111340Y-69704056D01*
X105246027Y-69636712D01*
X106054149Y-69636712D01*
X105616417Y-69198979D01*
%TO.C,C21*%
X129736950Y-147534773D02*
X129754379Y-147599821D01*
X129724190Y-147747349D01*
X129676571Y-147829827D01*
X129563903Y-147929736D01*
X129433806Y-147964595D01*
X129327518Y-147958216D01*
X129138751Y-147904217D01*
X129015033Y-147832788D01*
X128873885Y-147696311D01*
X128815216Y-147607453D01*
X128780357Y-147477355D01*
X128810546Y-147329827D01*
X128858165Y-147247349D01*
X128970833Y-147147440D01*
X129035882Y-147130011D01*
X129226358Y-146800096D02*
X129208928Y-146735047D01*
X129215308Y-146628759D01*
X129334355Y-146422563D01*
X129423214Y-146363894D01*
X129488262Y-146346464D01*
X129594551Y-146352844D01*
X129677029Y-146400463D01*
X129776938Y-146513131D01*
X129986095Y-147293716D01*
X130295619Y-146757605D01*
X130771809Y-145932819D02*
X130486095Y-146427691D01*
X130628952Y-146180255D02*
X129762927Y-145680255D01*
X129839026Y-145834162D01*
X129873885Y-145964260D01*
X129867505Y-146070548D01*
%TO.C,C9*%
X101733333Y-70657142D02*
X101685714Y-70704761D01*
X101542857Y-70752380D01*
X101447619Y-70752380D01*
X101304761Y-70704761D01*
X101209523Y-70609523D01*
X101161904Y-70514285D01*
X101114285Y-70323809D01*
X101114285Y-70180952D01*
X101161904Y-69990476D01*
X101209523Y-69895238D01*
X101304761Y-69800000D01*
X101447619Y-69752380D01*
X101542857Y-69752380D01*
X101685714Y-69800000D01*
X101733333Y-69847619D01*
X102209523Y-70752380D02*
X102400000Y-70752380D01*
X102495238Y-70704761D01*
X102542857Y-70657142D01*
X102638095Y-70514285D01*
X102685714Y-70323809D01*
X102685714Y-69942857D01*
X102638095Y-69847619D01*
X102590476Y-69800000D01*
X102495238Y-69752380D01*
X102304761Y-69752380D01*
X102209523Y-69800000D01*
X102161904Y-69847619D01*
X102114285Y-69942857D01*
X102114285Y-70180952D01*
X102161904Y-70276190D01*
X102209523Y-70323809D01*
X102304761Y-70371428D01*
X102495238Y-70371428D01*
X102590476Y-70323809D01*
X102638095Y-70276190D01*
X102685714Y-70180952D01*
%TO.C,R28*%
X109913201Y-130330541D02*
X109667475Y-130857311D01*
X110198916Y-130825412D02*
X109332890Y-131325412D01*
X109142414Y-130995498D01*
X109136034Y-130889210D01*
X109153464Y-130824161D01*
X109212133Y-130735303D01*
X109335851Y-130663874D01*
X109442139Y-130657494D01*
X109507188Y-130674924D01*
X109596047Y-130733593D01*
X109786523Y-131063508D01*
X108939178Y-130453007D02*
X108874130Y-130435577D01*
X108785271Y-130376908D01*
X108666224Y-130170712D01*
X108659844Y-130064424D01*
X108677274Y-129999375D01*
X108735943Y-129910516D01*
X108818421Y-129862897D01*
X108965949Y-129832708D01*
X109746535Y-130041866D01*
X109437011Y-129505755D01*
X108656425Y-129296597D02*
X108662805Y-129402885D01*
X108645375Y-129467934D01*
X108586706Y-129556792D01*
X108545467Y-129580602D01*
X108439178Y-129586982D01*
X108374130Y-129569552D01*
X108285271Y-129510883D01*
X108190033Y-129345926D01*
X108183653Y-129239638D01*
X108201083Y-129174589D01*
X108259752Y-129085730D01*
X108300992Y-129061921D01*
X108407280Y-129055541D01*
X108472329Y-129072971D01*
X108561187Y-129131640D01*
X108656425Y-129296597D01*
X108745283Y-129355266D01*
X108810332Y-129372696D01*
X108916620Y-129366316D01*
X109081578Y-129271078D01*
X109140247Y-129182220D01*
X109157676Y-129117171D01*
X109151297Y-129010883D01*
X109056059Y-128845926D01*
X108967200Y-128787257D01*
X108902151Y-128769827D01*
X108795863Y-128776207D01*
X108630906Y-128871445D01*
X108572237Y-128960303D01*
X108554807Y-129025352D01*
X108561187Y-129131640D01*
%TO.C,R9*%
X127983333Y-85952380D02*
X127650000Y-85476190D01*
X127411904Y-85952380D02*
X127411904Y-84952380D01*
X127792857Y-84952380D01*
X127888095Y-85000000D01*
X127935714Y-85047619D01*
X127983333Y-85142857D01*
X127983333Y-85285714D01*
X127935714Y-85380952D01*
X127888095Y-85428571D01*
X127792857Y-85476190D01*
X127411904Y-85476190D01*
X128459523Y-85952380D02*
X128650000Y-85952380D01*
X128745238Y-85904761D01*
X128792857Y-85857142D01*
X128888095Y-85714285D01*
X128935714Y-85523809D01*
X128935714Y-85142857D01*
X128888095Y-85047619D01*
X128840476Y-85000000D01*
X128745238Y-84952380D01*
X128554761Y-84952380D01*
X128459523Y-85000000D01*
X128411904Y-85047619D01*
X128364285Y-85142857D01*
X128364285Y-85380952D01*
X128411904Y-85476190D01*
X128459523Y-85523809D01*
X128554761Y-85571428D01*
X128745238Y-85571428D01*
X128840476Y-85523809D01*
X128888095Y-85476190D01*
X128935714Y-85380952D01*
%TO.C,R20*%
X96974785Y-113045540D02*
X96729059Y-113572310D01*
X97260500Y-113540411D02*
X96394474Y-114040411D01*
X96203998Y-113710497D01*
X96197618Y-113604209D01*
X96215048Y-113539160D01*
X96273717Y-113450302D01*
X96397435Y-113378873D01*
X96503723Y-113372493D01*
X96568772Y-113389923D01*
X96657631Y-113448592D01*
X96848107Y-113778507D01*
X96000762Y-113168006D02*
X95935714Y-113150576D01*
X95846855Y-113091907D01*
X95727808Y-112885711D01*
X95721428Y-112779423D01*
X95738858Y-112714374D01*
X95797527Y-112625515D01*
X95880005Y-112577896D01*
X96027533Y-112547707D01*
X96808119Y-112756865D01*
X96498595Y-112220754D01*
X95323046Y-112184643D02*
X95275427Y-112102164D01*
X95269047Y-111995876D01*
X95286477Y-111930827D01*
X95345146Y-111841969D01*
X95486294Y-111705491D01*
X95692490Y-111586444D01*
X95881257Y-111532445D01*
X95987545Y-111526065D01*
X96052594Y-111543495D01*
X96141452Y-111602164D01*
X96189071Y-111684643D01*
X96195451Y-111790931D01*
X96178021Y-111855980D01*
X96119352Y-111944838D01*
X95978204Y-112081315D01*
X95772008Y-112200363D01*
X95583241Y-112254362D01*
X95476953Y-112260741D01*
X95411904Y-112243312D01*
X95323046Y-112184643D01*
%TO.C,D4*%
X138412380Y-114338095D02*
X137412380Y-114338095D01*
X137412380Y-114100000D01*
X137460000Y-113957142D01*
X137555238Y-113861904D01*
X137650476Y-113814285D01*
X137840952Y-113766666D01*
X137983809Y-113766666D01*
X138174285Y-113814285D01*
X138269523Y-113861904D01*
X138364761Y-113957142D01*
X138412380Y-114100000D01*
X138412380Y-114338095D01*
X137745714Y-112909523D02*
X138412380Y-112909523D01*
X137364761Y-113147619D02*
X138079047Y-113385714D01*
X138079047Y-112766666D01*
%TO.C,REF\u002A\u002A*%
X89266666Y-169302380D02*
X88933333Y-168826190D01*
X88695238Y-169302380D02*
X88695238Y-168302380D01*
X89076190Y-168302380D01*
X89171428Y-168350000D01*
X89219047Y-168397619D01*
X89266666Y-168492857D01*
X89266666Y-168635714D01*
X89219047Y-168730952D01*
X89171428Y-168778571D01*
X89076190Y-168826190D01*
X88695238Y-168826190D01*
X89695238Y-168778571D02*
X90028571Y-168778571D01*
X90171428Y-169302380D02*
X89695238Y-169302380D01*
X89695238Y-168302380D01*
X90171428Y-168302380D01*
X90933333Y-168778571D02*
X90600000Y-168778571D01*
X90600000Y-169302380D02*
X90600000Y-168302380D01*
X91076190Y-168302380D01*
X91600000Y-168302380D02*
X91600000Y-168540476D01*
X91361904Y-168445238D02*
X91600000Y-168540476D01*
X91838095Y-168445238D01*
X91457142Y-168730952D02*
X91600000Y-168540476D01*
X91742857Y-168730952D01*
X92361904Y-168302380D02*
X92361904Y-168540476D01*
X92123809Y-168445238D02*
X92361904Y-168540476D01*
X92600000Y-168445238D01*
X92219047Y-168730952D02*
X92361904Y-168540476D01*
X92504761Y-168730952D01*
%TO.C,D2*%
X118412380Y-114508095D02*
X117412380Y-114508095D01*
X117412380Y-114270000D01*
X117460000Y-114127142D01*
X117555238Y-114031904D01*
X117650476Y-113984285D01*
X117840952Y-113936666D01*
X117983809Y-113936666D01*
X118174285Y-113984285D01*
X118269523Y-114031904D01*
X118364761Y-114127142D01*
X118412380Y-114270000D01*
X118412380Y-114508095D01*
X117507619Y-113555714D02*
X117460000Y-113508095D01*
X117412380Y-113412857D01*
X117412380Y-113174761D01*
X117460000Y-113079523D01*
X117507619Y-113031904D01*
X117602857Y-112984285D01*
X117698095Y-112984285D01*
X117840952Y-113031904D01*
X118412380Y-113603333D01*
X118412380Y-112984285D01*
%TO.C,C7*%
X102133333Y-55157142D02*
X102085714Y-55204761D01*
X101942857Y-55252380D01*
X101847619Y-55252380D01*
X101704761Y-55204761D01*
X101609523Y-55109523D01*
X101561904Y-55014285D01*
X101514285Y-54823809D01*
X101514285Y-54680952D01*
X101561904Y-54490476D01*
X101609523Y-54395238D01*
X101704761Y-54300000D01*
X101847619Y-54252380D01*
X101942857Y-54252380D01*
X102085714Y-54300000D01*
X102133333Y-54347619D01*
X102466666Y-54252380D02*
X103133333Y-54252380D01*
X102704761Y-55252380D01*
%TO.C,R38*%
X141508760Y-117597921D02*
X140929701Y-117648500D01*
X141223046Y-118092792D02*
X140357021Y-117592792D01*
X140547497Y-117262878D01*
X140636355Y-117204209D01*
X140701404Y-117186779D01*
X140807692Y-117193159D01*
X140931410Y-117264587D01*
X140990079Y-117353446D01*
X141007509Y-117418494D01*
X141001129Y-117524783D01*
X140810653Y-117854697D01*
X140809402Y-116809245D02*
X141118925Y-116273134D01*
X141282173Y-116752286D01*
X141353602Y-116628568D01*
X141442460Y-116569899D01*
X141507509Y-116552469D01*
X141613797Y-116558849D01*
X141819994Y-116677896D01*
X141878663Y-116766755D01*
X141896092Y-116831804D01*
X141889713Y-116938092D01*
X141746856Y-117185528D01*
X141657997Y-117244197D01*
X141592948Y-117261626D01*
X141775793Y-115992549D02*
X141686935Y-116051218D01*
X141621886Y-116068647D01*
X141515598Y-116062268D01*
X141474359Y-116038458D01*
X141415690Y-115949600D01*
X141398260Y-115884551D01*
X141404640Y-115778263D01*
X141499878Y-115613306D01*
X141588736Y-115554637D01*
X141653785Y-115537207D01*
X141760073Y-115543586D01*
X141801312Y-115567396D01*
X141859981Y-115656254D01*
X141877411Y-115721303D01*
X141871032Y-115827591D01*
X141775793Y-115992549D01*
X141769414Y-116098837D01*
X141786843Y-116163886D01*
X141845513Y-116252744D01*
X142010470Y-116347982D01*
X142116758Y-116354362D01*
X142181807Y-116336932D01*
X142270665Y-116278263D01*
X142365903Y-116113306D01*
X142372283Y-116007017D01*
X142354853Y-115941969D01*
X142296184Y-115853110D01*
X142131227Y-115757872D01*
X142024939Y-115751492D01*
X141959890Y-115768922D01*
X141871032Y-115827591D01*
%TO.C,U1*%
X113652563Y-63185414D02*
X114224983Y-62612994D01*
X114258655Y-62511979D01*
X114258655Y-62444635D01*
X114224983Y-62343620D01*
X114090296Y-62208933D01*
X113989281Y-62175261D01*
X113921937Y-62175261D01*
X113820922Y-62208933D01*
X113248502Y-62781353D01*
X113248502Y-61367139D02*
X113652563Y-61771200D01*
X113450533Y-61569170D02*
X112743426Y-62276276D01*
X112911785Y-62242605D01*
X113046472Y-62242605D01*
X113147487Y-62276276D01*
%TO.C,A1*%
X111085714Y-117366666D02*
X111561904Y-117366666D01*
X110990476Y-117652380D02*
X111323809Y-116652380D01*
X111657142Y-117652380D01*
X112514285Y-117652380D02*
X111942857Y-117652380D01*
X112228571Y-117652380D02*
X112228571Y-116652380D01*
X112133333Y-116795238D01*
X112038095Y-116890476D01*
X111942857Y-116938095D01*
X118148095Y-157062380D02*
X118148095Y-157871904D01*
X118195714Y-157967142D01*
X118243333Y-158014761D01*
X118338571Y-158062380D01*
X118529047Y-158062380D01*
X118624285Y-158014761D01*
X118671904Y-157967142D01*
X118719523Y-157871904D01*
X118719523Y-157062380D01*
X119148095Y-158014761D02*
X119290952Y-158062380D01*
X119529047Y-158062380D01*
X119624285Y-158014761D01*
X119671904Y-157967142D01*
X119719523Y-157871904D01*
X119719523Y-157776666D01*
X119671904Y-157681428D01*
X119624285Y-157633809D01*
X119529047Y-157586190D01*
X119338571Y-157538571D01*
X119243333Y-157490952D01*
X119195714Y-157443333D01*
X119148095Y-157348095D01*
X119148095Y-157252857D01*
X119195714Y-157157619D01*
X119243333Y-157110000D01*
X119338571Y-157062380D01*
X119576666Y-157062380D01*
X119719523Y-157110000D01*
X120481428Y-157538571D02*
X120624285Y-157586190D01*
X120671904Y-157633809D01*
X120719523Y-157729047D01*
X120719523Y-157871904D01*
X120671904Y-157967142D01*
X120624285Y-158014761D01*
X120529047Y-158062380D01*
X120148095Y-158062380D01*
X120148095Y-157062380D01*
X120481428Y-157062380D01*
X120576666Y-157110000D01*
X120624285Y-157157619D01*
X120671904Y-157252857D01*
X120671904Y-157348095D01*
X120624285Y-157443333D01*
X120576666Y-157490952D01*
X120481428Y-157538571D01*
X120148095Y-157538571D01*
%TO.C,R4*%
X107752380Y-117366666D02*
X107276190Y-117700000D01*
X107752380Y-117938095D02*
X106752380Y-117938095D01*
X106752380Y-117557142D01*
X106800000Y-117461904D01*
X106847619Y-117414285D01*
X106942857Y-117366666D01*
X107085714Y-117366666D01*
X107180952Y-117414285D01*
X107228571Y-117461904D01*
X107276190Y-117557142D01*
X107276190Y-117938095D01*
X107085714Y-116509523D02*
X107752380Y-116509523D01*
X106704761Y-116747619D02*
X107419047Y-116985714D01*
X107419047Y-116366666D01*
%TO.C,U2*%
X128697464Y-137133071D02*
X129847216Y-137796881D01*
X130021529Y-137807344D01*
X130128209Y-137778759D01*
X130273936Y-137682541D01*
X130430127Y-137412012D01*
X130440590Y-137237699D01*
X130412005Y-137131019D01*
X130315788Y-136985291D01*
X129166036Y-136321482D01*
X129652729Y-135790885D02*
X129624144Y-135684205D01*
X129634607Y-135509892D01*
X129829845Y-135171730D01*
X129975573Y-135075513D01*
X130082253Y-135046928D01*
X130256566Y-135057391D01*
X130391830Y-135135486D01*
X130555680Y-135320261D01*
X130898698Y-136600422D01*
X131406317Y-135721200D01*
X138926189Y-123974252D02*
X139045237Y-123768055D01*
X139203814Y-123969581D02*
X139045237Y-123768055D01*
X138791421Y-123731486D01*
X139264193Y-123674526D02*
X139045237Y-123768055D01*
X139016757Y-123531669D01*
%TO.C,R2*%
X109502380Y-72779166D02*
X109026190Y-73112500D01*
X109502380Y-73350595D02*
X108502380Y-73350595D01*
X108502380Y-72969642D01*
X108550000Y-72874404D01*
X108597619Y-72826785D01*
X108692857Y-72779166D01*
X108835714Y-72779166D01*
X108930952Y-72826785D01*
X108978571Y-72874404D01*
X109026190Y-72969642D01*
X109026190Y-73350595D01*
X108597619Y-72398214D02*
X108550000Y-72350595D01*
X108502380Y-72255357D01*
X108502380Y-72017261D01*
X108550000Y-71922023D01*
X108597619Y-71874404D01*
X108692857Y-71826785D01*
X108788095Y-71826785D01*
X108930952Y-71874404D01*
X109502380Y-72445833D01*
X109502380Y-71826785D01*
%TO.C,R27*%
X107751617Y-126815540D02*
X107505891Y-127342310D01*
X108037332Y-127310411D02*
X107171306Y-127810411D01*
X106980830Y-127480497D01*
X106974450Y-127374209D01*
X106991880Y-127309160D01*
X107050549Y-127220302D01*
X107174267Y-127148873D01*
X107280555Y-127142493D01*
X107345604Y-127159923D01*
X107434463Y-127218592D01*
X107624939Y-127548507D01*
X106777594Y-126938006D02*
X106712546Y-126920576D01*
X106623687Y-126861907D01*
X106504640Y-126655711D01*
X106498260Y-126549423D01*
X106515690Y-126484374D01*
X106574359Y-126395515D01*
X106656837Y-126347896D01*
X106804365Y-126317707D01*
X107584951Y-126526865D01*
X107275427Y-125990754D01*
X106242735Y-126202078D02*
X105909402Y-125624728D01*
X106989713Y-125495882D01*
%TO.C,R18*%
X76669459Y-120113201D02*
X76142689Y-119867475D01*
X76174588Y-120398916D02*
X75674588Y-119532890D01*
X76004502Y-119342414D01*
X76110790Y-119336034D01*
X76175839Y-119353464D01*
X76264697Y-119412133D01*
X76336126Y-119535851D01*
X76342506Y-119642139D01*
X76325076Y-119707188D01*
X76266407Y-119796047D01*
X75936492Y-119986523D01*
X77494245Y-119637011D02*
X76999374Y-119922725D01*
X77246810Y-119779868D02*
X76746810Y-118913843D01*
X76735760Y-119085180D01*
X76700900Y-119215277D01*
X76642231Y-119304136D01*
X77703403Y-118856425D02*
X77597115Y-118862805D01*
X77532066Y-118845375D01*
X77443208Y-118786706D01*
X77419398Y-118745467D01*
X77413018Y-118639178D01*
X77430448Y-118574130D01*
X77489117Y-118485271D01*
X77654074Y-118390033D01*
X77760362Y-118383653D01*
X77825411Y-118401083D01*
X77914270Y-118459752D01*
X77938079Y-118500992D01*
X77944459Y-118607280D01*
X77927029Y-118672329D01*
X77868360Y-118761187D01*
X77703403Y-118856425D01*
X77644734Y-118945283D01*
X77627304Y-119010332D01*
X77633684Y-119116620D01*
X77728922Y-119281578D01*
X77817780Y-119340247D01*
X77882829Y-119357676D01*
X77989117Y-119351297D01*
X78154074Y-119256059D01*
X78212743Y-119167200D01*
X78230173Y-119102151D01*
X78223793Y-118995863D01*
X78128555Y-118830906D01*
X78039697Y-118772237D01*
X77974648Y-118754807D01*
X77868360Y-118761187D01*
%TO.C,J3*%
X100866666Y-92252380D02*
X100866666Y-92966666D01*
X100819047Y-93109523D01*
X100723809Y-93204761D01*
X100580952Y-93252380D01*
X100485714Y-93252380D01*
X101247619Y-92252380D02*
X101866666Y-92252380D01*
X101533333Y-92633333D01*
X101676190Y-92633333D01*
X101771428Y-92680952D01*
X101819047Y-92728571D01*
X101866666Y-92823809D01*
X101866666Y-93061904D01*
X101819047Y-93157142D01*
X101771428Y-93204761D01*
X101676190Y-93252380D01*
X101390476Y-93252380D01*
X101295238Y-93204761D01*
X101247619Y-93157142D01*
%TO.C,C32*%
X129749450Y-125905943D02*
X129766879Y-125970991D01*
X129736690Y-126118519D01*
X129689071Y-126200997D01*
X129576403Y-126300906D01*
X129446306Y-126335765D01*
X129340018Y-126329386D01*
X129151251Y-126275387D01*
X129027533Y-126203958D01*
X128886385Y-126067481D01*
X128827716Y-125978623D01*
X128792857Y-125848525D01*
X128823046Y-125700997D01*
X128870665Y-125618519D01*
X128983333Y-125518610D01*
X129048382Y-125501181D01*
X129132570Y-125164886D02*
X129442093Y-124628775D01*
X129605341Y-125107927D01*
X129676770Y-124984209D01*
X129765628Y-124925540D01*
X129830677Y-124908110D01*
X129936965Y-124914490D01*
X130143162Y-125033537D01*
X130201831Y-125122396D01*
X130219260Y-125187445D01*
X130212881Y-125293733D01*
X130070024Y-125541169D01*
X129981165Y-125599838D01*
X129916116Y-125617267D01*
X129715048Y-124346480D02*
X129697618Y-124281431D01*
X129703998Y-124175143D01*
X129823046Y-123968947D01*
X129911904Y-123910278D01*
X129976953Y-123892848D01*
X130083241Y-123899227D01*
X130165720Y-123946847D01*
X130265628Y-124059514D01*
X130474785Y-124840100D01*
X130784309Y-124303989D01*
%TO.C,R15*%
X136908760Y-125197921D02*
X136329701Y-125248500D01*
X136623046Y-125692792D02*
X135757021Y-125192792D01*
X135947497Y-124862878D01*
X136036355Y-124804209D01*
X136101404Y-124786779D01*
X136207692Y-124793159D01*
X136331410Y-124864587D01*
X136390079Y-124953446D01*
X136407509Y-125018494D01*
X136401129Y-125124783D01*
X136210653Y-125454697D01*
X137384951Y-124373134D02*
X137099237Y-124868006D01*
X137242094Y-124620570D02*
X136376068Y-124120570D01*
X136452167Y-124274478D01*
X136487027Y-124404575D01*
X136480647Y-124510863D01*
X136971306Y-123089588D02*
X136733211Y-123501981D01*
X137121795Y-123781315D01*
X137104365Y-123716266D01*
X137110745Y-123609978D01*
X137229792Y-123403782D01*
X137318651Y-123345113D01*
X137383699Y-123327683D01*
X137489988Y-123334063D01*
X137696184Y-123453110D01*
X137754853Y-123541969D01*
X137772283Y-123607017D01*
X137765903Y-123713306D01*
X137646856Y-123919502D01*
X137557997Y-123978171D01*
X137492948Y-123995601D01*
D12*
%TO.C,G\u002A\u002A\u002A*%
X120577623Y-96537300D02*
X120575204Y-96536090D01*
X120571576Y-96536090D01*
X120567947Y-96537300D01*
X120565528Y-96539719D01*
X120564319Y-96542138D01*
X120563109Y-96546976D01*
X120563109Y-96550604D01*
X120564319Y-96555442D01*
X120565528Y-96557861D01*
X120567947Y-96560280D01*
X120571576Y-96561490D01*
X120573995Y-96561490D01*
X120577623Y-96560280D01*
X120578833Y-96559071D01*
X120578833Y-96550604D01*
X120573995Y-96550604D01*
X120593347Y-96536090D02*
X120593347Y-96542138D01*
X120587300Y-96539719D02*
X120593347Y-96542138D01*
X120599395Y-96539719D01*
X120589719Y-96546976D02*
X120593347Y-96542138D01*
X120596976Y-96546976D01*
X120612700Y-96536090D02*
X120612700Y-96542138D01*
X120606652Y-96539719D02*
X120612700Y-96542138D01*
X120618747Y-96539719D01*
X120609071Y-96546976D02*
X120612700Y-96542138D01*
X120616328Y-96546976D01*
X120632052Y-96536090D02*
X120632052Y-96542138D01*
X120626004Y-96539719D02*
X120632052Y-96542138D01*
X120638100Y-96539719D01*
X120628423Y-96546976D02*
X120632052Y-96542138D01*
X120635680Y-96546976D01*
D10*
%TO.C,R7*%
X111908333Y-85502380D02*
X111575000Y-85026190D01*
X111336904Y-85502380D02*
X111336904Y-84502380D01*
X111717857Y-84502380D01*
X111813095Y-84550000D01*
X111860714Y-84597619D01*
X111908333Y-84692857D01*
X111908333Y-84835714D01*
X111860714Y-84930952D01*
X111813095Y-84978571D01*
X111717857Y-85026190D01*
X111336904Y-85026190D01*
X112241666Y-84502380D02*
X112908333Y-84502380D01*
X112479761Y-85502380D01*
%TO.C,C23*%
X134149450Y-145935302D02*
X134166879Y-146000350D01*
X134136690Y-146147878D01*
X134089071Y-146230356D01*
X133976403Y-146330265D01*
X133846306Y-146365124D01*
X133740018Y-146358745D01*
X133551251Y-146304746D01*
X133427533Y-146233317D01*
X133286385Y-146096840D01*
X133227716Y-146007982D01*
X133192857Y-145877884D01*
X133223046Y-145730356D01*
X133270665Y-145647878D01*
X133383333Y-145547969D01*
X133448382Y-145530540D01*
X133638858Y-145200625D02*
X133621428Y-145135576D01*
X133627808Y-145029288D01*
X133746855Y-144823092D01*
X133835714Y-144764423D01*
X133900762Y-144746993D01*
X134007051Y-144753373D01*
X134089529Y-144800992D01*
X134189438Y-144913660D01*
X134398595Y-145694245D01*
X134708119Y-145158134D01*
X134008760Y-144369459D02*
X134318284Y-143833348D01*
X134481532Y-144312500D01*
X134552960Y-144188782D01*
X134641819Y-144130113D01*
X134706867Y-144112683D01*
X134813156Y-144119063D01*
X135019352Y-144238110D01*
X135078021Y-144326969D01*
X135095451Y-144392017D01*
X135089071Y-144498306D01*
X134946214Y-144745741D01*
X134857356Y-144804411D01*
X134792307Y-144821840D01*
%TO.C,TH2*%
X104889285Y-103952380D02*
X105460714Y-103952380D01*
X105175000Y-104952380D02*
X105175000Y-103952380D01*
X105794047Y-104952380D02*
X105794047Y-103952380D01*
X105794047Y-104428571D02*
X106365476Y-104428571D01*
X106365476Y-104952380D02*
X106365476Y-103952380D01*
X106794047Y-104047619D02*
X106841666Y-104000000D01*
X106936904Y-103952380D01*
X107175000Y-103952380D01*
X107270238Y-104000000D01*
X107317857Y-104047619D01*
X107365476Y-104142857D01*
X107365476Y-104238095D01*
X107317857Y-104380952D01*
X106746428Y-104952380D01*
X107365476Y-104952380D01*
%TO.C,R10*%
X119207142Y-85622380D02*
X118873809Y-85146190D01*
X118635714Y-85622380D02*
X118635714Y-84622380D01*
X119016666Y-84622380D01*
X119111904Y-84670000D01*
X119159523Y-84717619D01*
X119207142Y-84812857D01*
X119207142Y-84955714D01*
X119159523Y-85050952D01*
X119111904Y-85098571D01*
X119016666Y-85146190D01*
X118635714Y-85146190D01*
X120159523Y-85622380D02*
X119588095Y-85622380D01*
X119873809Y-85622380D02*
X119873809Y-84622380D01*
X119778571Y-84765238D01*
X119683333Y-84860476D01*
X119588095Y-84908095D01*
X120778571Y-84622380D02*
X120873809Y-84622380D01*
X120969047Y-84670000D01*
X121016666Y-84717619D01*
X121064285Y-84812857D01*
X121111904Y-85003333D01*
X121111904Y-85241428D01*
X121064285Y-85431904D01*
X121016666Y-85527142D01*
X120969047Y-85574761D01*
X120873809Y-85622380D01*
X120778571Y-85622380D01*
X120683333Y-85574761D01*
X120635714Y-85527142D01*
X120588095Y-85431904D01*
X120540476Y-85241428D01*
X120540476Y-85003333D01*
X120588095Y-84812857D01*
X120635714Y-84717619D01*
X120683333Y-84670000D01*
X120778571Y-84622380D01*
%TO.C,H4*%
X79238095Y-111252380D02*
X79238095Y-110252380D01*
X79238095Y-110728571D02*
X79809523Y-110728571D01*
X79809523Y-111252380D02*
X79809523Y-110252380D01*
X80714285Y-110585714D02*
X80714285Y-111252380D01*
X80476190Y-110204761D02*
X80238095Y-110919047D01*
X80857142Y-110919047D01*
%TO.C,U4*%
X152644796Y-163086019D02*
X153345864Y-163490781D01*
X153452152Y-163497161D01*
X153517201Y-163479731D01*
X153606060Y-163421062D01*
X153701298Y-163256104D01*
X153707677Y-163149816D01*
X153690248Y-163084767D01*
X153631579Y-162995909D01*
X152930510Y-162591147D01*
X153671566Y-161974267D02*
X154248917Y-162307600D01*
X153222604Y-161989987D02*
X153722146Y-162553327D01*
X154031670Y-162017216D01*
%TO.C,C3*%
X114933333Y-72957142D02*
X114885714Y-73004761D01*
X114742857Y-73052380D01*
X114647619Y-73052380D01*
X114504761Y-73004761D01*
X114409523Y-72909523D01*
X114361904Y-72814285D01*
X114314285Y-72623809D01*
X114314285Y-72480952D01*
X114361904Y-72290476D01*
X114409523Y-72195238D01*
X114504761Y-72100000D01*
X114647619Y-72052380D01*
X114742857Y-72052380D01*
X114885714Y-72100000D01*
X114933333Y-72147619D01*
X115266666Y-72052380D02*
X115885714Y-72052380D01*
X115552380Y-72433333D01*
X115695238Y-72433333D01*
X115790476Y-72480952D01*
X115838095Y-72528571D01*
X115885714Y-72623809D01*
X115885714Y-72861904D01*
X115838095Y-72957142D01*
X115790476Y-73004761D01*
X115695238Y-73052380D01*
X115409523Y-73052380D01*
X115314285Y-73004761D01*
X115266666Y-72957142D01*
%TO.C,C28*%
X99136840Y-162569139D02*
X99119411Y-162634188D01*
X99019502Y-162746856D01*
X98937024Y-162794475D01*
X98789496Y-162824664D01*
X98659398Y-162789804D01*
X98570540Y-162731135D01*
X98434063Y-162589988D01*
X98362634Y-162466270D01*
X98308635Y-162277503D01*
X98302256Y-162171215D01*
X98337115Y-162041117D01*
X98437024Y-161928449D01*
X98519502Y-161880830D01*
X98667030Y-161850641D01*
X98732078Y-161868071D01*
X99061993Y-161677594D02*
X99079423Y-161612546D01*
X99138092Y-161523687D01*
X99344288Y-161404640D01*
X99450576Y-161398260D01*
X99515625Y-161415690D01*
X99604484Y-161474359D01*
X99652103Y-161556837D01*
X99682292Y-161704365D01*
X99473134Y-162484951D01*
X100009245Y-162175427D01*
X100218403Y-161394841D02*
X100112115Y-161401221D01*
X100047066Y-161383791D01*
X99958208Y-161325122D01*
X99934398Y-161283883D01*
X99928018Y-161177594D01*
X99945448Y-161112546D01*
X100004117Y-161023687D01*
X100169074Y-160928449D01*
X100275362Y-160922069D01*
X100340411Y-160939499D01*
X100429270Y-160998168D01*
X100453079Y-161039408D01*
X100459459Y-161145696D01*
X100442029Y-161210745D01*
X100383360Y-161299603D01*
X100218403Y-161394841D01*
X100159734Y-161483699D01*
X100142304Y-161548748D01*
X100148684Y-161655036D01*
X100243922Y-161819994D01*
X100332780Y-161878663D01*
X100397829Y-161896092D01*
X100504117Y-161889713D01*
X100669074Y-161794475D01*
X100727743Y-161705616D01*
X100745173Y-161640567D01*
X100738793Y-161534279D01*
X100643555Y-161369322D01*
X100554697Y-161310653D01*
X100489648Y-161293223D01*
X100383360Y-161299603D01*
%TO.C,R1*%
X115822380Y-74416666D02*
X115346190Y-74750000D01*
X115822380Y-74988095D02*
X114822380Y-74988095D01*
X114822380Y-74607142D01*
X114870000Y-74511904D01*
X114917619Y-74464285D01*
X115012857Y-74416666D01*
X115155714Y-74416666D01*
X115250952Y-74464285D01*
X115298571Y-74511904D01*
X115346190Y-74607142D01*
X115346190Y-74988095D01*
X115822380Y-73464285D02*
X115822380Y-74035714D01*
X115822380Y-73750000D02*
X114822380Y-73750000D01*
X114965238Y-73845238D01*
X115060476Y-73940476D01*
X115108095Y-74035714D01*
%TO.C,R11*%
X107357142Y-58452380D02*
X107023809Y-57976190D01*
X106785714Y-58452380D02*
X106785714Y-57452380D01*
X107166666Y-57452380D01*
X107261904Y-57500000D01*
X107309523Y-57547619D01*
X107357142Y-57642857D01*
X107357142Y-57785714D01*
X107309523Y-57880952D01*
X107261904Y-57928571D01*
X107166666Y-57976190D01*
X106785714Y-57976190D01*
X108309523Y-58452380D02*
X107738095Y-58452380D01*
X108023809Y-58452380D02*
X108023809Y-57452380D01*
X107928571Y-57595238D01*
X107833333Y-57690476D01*
X107738095Y-57738095D01*
X109261904Y-58452380D02*
X108690476Y-58452380D01*
X108976190Y-58452380D02*
X108976190Y-57452380D01*
X108880952Y-57595238D01*
X108785714Y-57690476D01*
X108690476Y-57738095D01*
%TO.C,R19*%
X130119428Y-130882392D02*
X129540369Y-130932971D01*
X129833714Y-131377263D02*
X128967689Y-130877263D01*
X129158165Y-130547349D01*
X129247023Y-130488680D01*
X129312072Y-130471250D01*
X129418360Y-130477630D01*
X129542078Y-130549058D01*
X129600747Y-130637917D01*
X129618177Y-130702965D01*
X129611797Y-130809254D01*
X129421321Y-131139168D01*
X130595619Y-130057605D02*
X130309905Y-130552477D01*
X130452762Y-130305041D02*
X129586736Y-129805041D01*
X129662835Y-129958949D01*
X129697695Y-130089046D01*
X129691315Y-130195334D01*
X130833714Y-129645212D02*
X130928952Y-129480255D01*
X130935332Y-129373967D01*
X130917902Y-129308918D01*
X130841803Y-129155011D01*
X130700656Y-129018534D01*
X130370741Y-128828057D01*
X130264453Y-128821678D01*
X130199404Y-128839108D01*
X130110546Y-128897777D01*
X130015308Y-129062734D01*
X130008928Y-129169022D01*
X130026358Y-129234071D01*
X130085027Y-129322929D01*
X130291223Y-129441977D01*
X130397511Y-129448357D01*
X130462560Y-129430927D01*
X130551419Y-129372258D01*
X130646657Y-129207300D01*
X130653036Y-129101012D01*
X130635607Y-129035963D01*
X130576938Y-128947105D01*
%TO.C,BT3*%
X134083837Y-70130998D02*
X134231364Y-70100808D01*
X134296413Y-70118238D01*
X134385271Y-70176907D01*
X134456700Y-70300625D01*
X134463080Y-70406913D01*
X134445650Y-70471962D01*
X134386981Y-70560821D01*
X134057066Y-70751297D01*
X133557066Y-69885271D01*
X133845741Y-69718605D01*
X133952030Y-69712225D01*
X134017078Y-69729655D01*
X134105937Y-69788324D01*
X134153556Y-69870802D01*
X134159936Y-69977091D01*
X134142506Y-70042139D01*
X134083837Y-70130998D01*
X133795162Y-70297664D01*
X134299374Y-69456700D02*
X134794245Y-69170986D01*
X135046810Y-70179868D02*
X134546810Y-69313843D01*
X135000442Y-69051938D02*
X135536553Y-68742414D01*
X135438354Y-69238995D01*
X135562072Y-69167567D01*
X135668360Y-69161187D01*
X135733409Y-69178617D01*
X135822267Y-69237286D01*
X135941315Y-69443482D01*
X135947695Y-69549770D01*
X135930265Y-69614819D01*
X135871596Y-69703678D01*
X135624160Y-69846535D01*
X135517872Y-69852915D01*
X135452823Y-69835485D01*
%TO.C,Q2*%
X120904761Y-56847619D02*
X120809523Y-56800000D01*
X120714285Y-56704761D01*
X120571428Y-56561904D01*
X120476190Y-56514285D01*
X120380952Y-56514285D01*
X120428571Y-56752380D02*
X120333333Y-56704761D01*
X120238095Y-56609523D01*
X120190476Y-56419047D01*
X120190476Y-56085714D01*
X120238095Y-55895238D01*
X120333333Y-55800000D01*
X120428571Y-55752380D01*
X120619047Y-55752380D01*
X120714285Y-55800000D01*
X120809523Y-55895238D01*
X120857142Y-56085714D01*
X120857142Y-56419047D01*
X120809523Y-56609523D01*
X120714285Y-56704761D01*
X120619047Y-56752380D01*
X120428571Y-56752380D01*
X121238095Y-55847619D02*
X121285714Y-55800000D01*
X121380952Y-55752380D01*
X121619047Y-55752380D01*
X121714285Y-55800000D01*
X121761904Y-55847619D01*
X121809523Y-55942857D01*
X121809523Y-56038095D01*
X121761904Y-56180952D01*
X121190476Y-56752380D01*
X121809523Y-56752380D01*
%TO.C,C13*%
X119057142Y-55242857D02*
X119104761Y-55290476D01*
X119152380Y-55433333D01*
X119152380Y-55528571D01*
X119104761Y-55671428D01*
X119009523Y-55766666D01*
X118914285Y-55814285D01*
X118723809Y-55861904D01*
X118580952Y-55861904D01*
X118390476Y-55814285D01*
X118295238Y-55766666D01*
X118200000Y-55671428D01*
X118152380Y-55528571D01*
X118152380Y-55433333D01*
X118200000Y-55290476D01*
X118247619Y-55242857D01*
X119152380Y-54290476D02*
X119152380Y-54861904D01*
X119152380Y-54576190D02*
X118152380Y-54576190D01*
X118295238Y-54671428D01*
X118390476Y-54766666D01*
X118438095Y-54861904D01*
X118152380Y-53957142D02*
X118152380Y-53338095D01*
X118533333Y-53671428D01*
X118533333Y-53528571D01*
X118580952Y-53433333D01*
X118628571Y-53385714D01*
X118723809Y-53338095D01*
X118961904Y-53338095D01*
X119057142Y-53385714D01*
X119104761Y-53433333D01*
X119152380Y-53528571D01*
X119152380Y-53814285D01*
X119104761Y-53909523D01*
X119057142Y-53957142D01*
%TO.C,U6*%
X98768833Y-120546988D02*
X99432642Y-121696740D01*
X99578370Y-121792957D01*
X99685050Y-121821542D01*
X99859362Y-121811079D01*
X100129892Y-121654889D01*
X100226110Y-121509161D01*
X100254694Y-121402481D01*
X100244232Y-121228169D01*
X99580422Y-120078417D01*
X100865439Y-119336512D02*
X100594909Y-119492702D01*
X100498692Y-119638430D01*
X100470107Y-119745110D01*
X100451985Y-120026103D01*
X100540543Y-120335680D01*
X100852924Y-120876740D01*
X100998651Y-120972957D01*
X101105331Y-121001542D01*
X101279644Y-120991079D01*
X101550174Y-120834889D01*
X101646391Y-120689161D01*
X101674976Y-120582481D01*
X101664513Y-120408169D01*
X101469275Y-120070006D01*
X101323547Y-119973789D01*
X101216867Y-119945204D01*
X101042555Y-119955667D01*
X100772025Y-120111857D01*
X100675808Y-120257585D01*
X100647223Y-120364265D01*
X100657686Y-120538578D01*
X108826190Y-137625747D02*
X108945238Y-137831944D01*
X108691422Y-137868513D02*
X108945238Y-137831944D01*
X109103815Y-137630418D01*
X108916758Y-138068330D02*
X108945238Y-137831944D01*
X109164194Y-137925473D01*
%TO.C,C15*%
X99557142Y-88617857D02*
X99604761Y-88665476D01*
X99652380Y-88808333D01*
X99652380Y-88903571D01*
X99604761Y-89046428D01*
X99509523Y-89141666D01*
X99414285Y-89189285D01*
X99223809Y-89236904D01*
X99080952Y-89236904D01*
X98890476Y-89189285D01*
X98795238Y-89141666D01*
X98700000Y-89046428D01*
X98652380Y-88903571D01*
X98652380Y-88808333D01*
X98700000Y-88665476D01*
X98747619Y-88617857D01*
X99652380Y-87665476D02*
X99652380Y-88236904D01*
X99652380Y-87951190D02*
X98652380Y-87951190D01*
X98795238Y-88046428D01*
X98890476Y-88141666D01*
X98938095Y-88236904D01*
X98652380Y-86760714D02*
X98652380Y-87236904D01*
X99128571Y-87284523D01*
X99080952Y-87236904D01*
X99033333Y-87141666D01*
X99033333Y-86903571D01*
X99080952Y-86808333D01*
X99128571Y-86760714D01*
X99223809Y-86713095D01*
X99461904Y-86713095D01*
X99557142Y-86760714D01*
X99604761Y-86808333D01*
X99652380Y-86903571D01*
X99652380Y-87141666D01*
X99604761Y-87236904D01*
X99557142Y-87284523D01*
%TO.C,R29*%
X147721260Y-105783450D02*
X147142201Y-105834029D01*
X147435546Y-106278321D02*
X146569521Y-105778321D01*
X146759997Y-105448407D01*
X146848855Y-105389738D01*
X146913904Y-105372308D01*
X147020192Y-105378688D01*
X147143910Y-105450116D01*
X147202579Y-105538975D01*
X147220009Y-105604023D01*
X147213629Y-105710312D01*
X147023153Y-106040226D01*
X147128190Y-105001154D02*
X147110760Y-104936105D01*
X147117140Y-104829817D01*
X147236187Y-104623621D01*
X147325046Y-104564952D01*
X147390094Y-104547522D01*
X147496383Y-104553902D01*
X147578861Y-104601521D01*
X147678770Y-104714189D01*
X147887927Y-105494774D01*
X148197451Y-104958663D01*
X148435546Y-104546270D02*
X148530784Y-104381313D01*
X148537164Y-104275025D01*
X148519734Y-104209976D01*
X148443635Y-104056069D01*
X148302488Y-103919592D01*
X147972573Y-103729115D01*
X147866285Y-103722736D01*
X147801236Y-103740166D01*
X147712378Y-103798835D01*
X147617140Y-103963792D01*
X147610760Y-104070080D01*
X147628190Y-104135129D01*
X147686859Y-104223987D01*
X147893055Y-104343035D01*
X147999343Y-104349415D01*
X148064392Y-104331985D01*
X148153251Y-104273316D01*
X148248489Y-104108358D01*
X148254868Y-104002070D01*
X148237439Y-103937021D01*
X148178770Y-103848163D01*
%TO.C,R36*%
X106452380Y-75867857D02*
X105976190Y-76201190D01*
X106452380Y-76439285D02*
X105452380Y-76439285D01*
X105452380Y-76058333D01*
X105500000Y-75963095D01*
X105547619Y-75915476D01*
X105642857Y-75867857D01*
X105785714Y-75867857D01*
X105880952Y-75915476D01*
X105928571Y-75963095D01*
X105976190Y-76058333D01*
X105976190Y-76439285D01*
X105452380Y-75534523D02*
X105452380Y-74915476D01*
X105833333Y-75248809D01*
X105833333Y-75105952D01*
X105880952Y-75010714D01*
X105928571Y-74963095D01*
X106023809Y-74915476D01*
X106261904Y-74915476D01*
X106357142Y-74963095D01*
X106404761Y-75010714D01*
X106452380Y-75105952D01*
X106452380Y-75391666D01*
X106404761Y-75486904D01*
X106357142Y-75534523D01*
X105452380Y-74058333D02*
X105452380Y-74248809D01*
X105500000Y-74344047D01*
X105547619Y-74391666D01*
X105690476Y-74486904D01*
X105880952Y-74534523D01*
X106261904Y-74534523D01*
X106357142Y-74486904D01*
X106404761Y-74439285D01*
X106452380Y-74344047D01*
X106452380Y-74153571D01*
X106404761Y-74058333D01*
X106357142Y-74010714D01*
X106261904Y-73963095D01*
X106023809Y-73963095D01*
X105928571Y-74010714D01*
X105880952Y-74058333D01*
X105833333Y-74153571D01*
X105833333Y-74344047D01*
X105880952Y-74439285D01*
X105928571Y-74486904D01*
X106023809Y-74534523D01*
%TO.C,C2*%
X115614642Y-78991666D02*
X115662261Y-79039285D01*
X115709880Y-79182142D01*
X115709880Y-79277380D01*
X115662261Y-79420238D01*
X115567023Y-79515476D01*
X115471785Y-79563095D01*
X115281309Y-79610714D01*
X115138452Y-79610714D01*
X114947976Y-79563095D01*
X114852738Y-79515476D01*
X114757500Y-79420238D01*
X114709880Y-79277380D01*
X114709880Y-79182142D01*
X114757500Y-79039285D01*
X114805119Y-78991666D01*
X114805119Y-78610714D02*
X114757500Y-78563095D01*
X114709880Y-78467857D01*
X114709880Y-78229761D01*
X114757500Y-78134523D01*
X114805119Y-78086904D01*
X114900357Y-78039285D01*
X114995595Y-78039285D01*
X115138452Y-78086904D01*
X115709880Y-78658333D01*
X115709880Y-78039285D01*
%TO.C,R39*%
X108157142Y-154852380D02*
X107823809Y-154376190D01*
X107585714Y-154852380D02*
X107585714Y-153852380D01*
X107966666Y-153852380D01*
X108061904Y-153900000D01*
X108109523Y-153947619D01*
X108157142Y-154042857D01*
X108157142Y-154185714D01*
X108109523Y-154280952D01*
X108061904Y-154328571D01*
X107966666Y-154376190D01*
X107585714Y-154376190D01*
X108490476Y-153852380D02*
X109109523Y-153852380D01*
X108776190Y-154233333D01*
X108919047Y-154233333D01*
X109014285Y-154280952D01*
X109061904Y-154328571D01*
X109109523Y-154423809D01*
X109109523Y-154661904D01*
X109061904Y-154757142D01*
X109014285Y-154804761D01*
X108919047Y-154852380D01*
X108633333Y-154852380D01*
X108538095Y-154804761D01*
X108490476Y-154757142D01*
X109585714Y-154852380D02*
X109776190Y-154852380D01*
X109871428Y-154804761D01*
X109919047Y-154757142D01*
X110014285Y-154614285D01*
X110061904Y-154423809D01*
X110061904Y-154042857D01*
X110014285Y-153947619D01*
X109966666Y-153900000D01*
X109871428Y-153852380D01*
X109680952Y-153852380D01*
X109585714Y-153900000D01*
X109538095Y-153947619D01*
X109490476Y-154042857D01*
X109490476Y-154280952D01*
X109538095Y-154376190D01*
X109585714Y-154423809D01*
X109680952Y-154471428D01*
X109871428Y-154471428D01*
X109966666Y-154423809D01*
X110014285Y-154376190D01*
X110061904Y-154280952D01*
%TO.C,R5*%
X117952380Y-117266666D02*
X117476190Y-117600000D01*
X117952380Y-117838095D02*
X116952380Y-117838095D01*
X116952380Y-117457142D01*
X117000000Y-117361904D01*
X117047619Y-117314285D01*
X117142857Y-117266666D01*
X117285714Y-117266666D01*
X117380952Y-117314285D01*
X117428571Y-117361904D01*
X117476190Y-117457142D01*
X117476190Y-117838095D01*
X116952380Y-116361904D02*
X116952380Y-116838095D01*
X117428571Y-116885714D01*
X117380952Y-116838095D01*
X117333333Y-116742857D01*
X117333333Y-116504761D01*
X117380952Y-116409523D01*
X117428571Y-116361904D01*
X117523809Y-116314285D01*
X117761904Y-116314285D01*
X117857142Y-116361904D01*
X117904761Y-116409523D01*
X117952380Y-116504761D01*
X117952380Y-116742857D01*
X117904761Y-116838095D01*
X117857142Y-116885714D01*
%TO.C,R17*%
X95113200Y-109630540D02*
X94867474Y-110157310D01*
X95398915Y-110125411D02*
X94532889Y-110625411D01*
X94342413Y-110295497D01*
X94336033Y-110189209D01*
X94353463Y-110124160D01*
X94412132Y-110035302D01*
X94535850Y-109963873D01*
X94642138Y-109957493D01*
X94707187Y-109974923D01*
X94796046Y-110033592D01*
X94986522Y-110363507D01*
X94637010Y-108805754D02*
X94922724Y-109300625D01*
X94779867Y-109053189D02*
X93913842Y-109553189D01*
X94085179Y-109564239D01*
X94215276Y-109599099D01*
X94304135Y-109657768D01*
X93604318Y-109017078D02*
X93270985Y-108439728D01*
X94351296Y-108310882D01*
%TO.C,D5*%
X110052380Y-87738095D02*
X109052380Y-87738095D01*
X109052380Y-87500000D01*
X109100000Y-87357142D01*
X109195238Y-87261904D01*
X109290476Y-87214285D01*
X109480952Y-87166666D01*
X109623809Y-87166666D01*
X109814285Y-87214285D01*
X109909523Y-87261904D01*
X110004761Y-87357142D01*
X110052380Y-87500000D01*
X110052380Y-87738095D01*
X109052380Y-86261904D02*
X109052380Y-86738095D01*
X109528571Y-86785714D01*
X109480952Y-86738095D01*
X109433333Y-86642857D01*
X109433333Y-86404761D01*
X109480952Y-86309523D01*
X109528571Y-86261904D01*
X109623809Y-86214285D01*
X109861904Y-86214285D01*
X109957142Y-86261904D01*
X110004761Y-86309523D01*
X110052380Y-86404761D01*
X110052380Y-86642857D01*
X110004761Y-86738095D01*
X109957142Y-86785714D01*
%TO.C,R12*%
X95526617Y-104900957D02*
X95280891Y-105427727D01*
X95812332Y-105395828D02*
X94946306Y-105895828D01*
X94755830Y-105565914D01*
X94749450Y-105459626D01*
X94766880Y-105394577D01*
X94825549Y-105305719D01*
X94949267Y-105234290D01*
X95055555Y-105227910D01*
X95120604Y-105245340D01*
X95209463Y-105304009D01*
X95399939Y-105633924D01*
X95050427Y-104076171D02*
X95336141Y-104571042D01*
X95193284Y-104323606D02*
X94327259Y-104823606D01*
X94498596Y-104834656D01*
X94628693Y-104869516D01*
X94717552Y-104928185D01*
X94076404Y-104198637D02*
X94011355Y-104181207D01*
X93922497Y-104122538D01*
X93803449Y-103916342D01*
X93797069Y-103810054D01*
X93814499Y-103745005D01*
X93873168Y-103656146D01*
X93955647Y-103608527D01*
X94103174Y-103578338D01*
X94883760Y-103787495D01*
X94574237Y-103251384D01*
%TO.C,D1*%
X108412380Y-114508095D02*
X107412380Y-114508095D01*
X107412380Y-114270000D01*
X107460000Y-114127142D01*
X107555238Y-114031904D01*
X107650476Y-113984285D01*
X107840952Y-113936666D01*
X107983809Y-113936666D01*
X108174285Y-113984285D01*
X108269523Y-114031904D01*
X108364761Y-114127142D01*
X108412380Y-114270000D01*
X108412380Y-114508095D01*
X108412380Y-112984285D02*
X108412380Y-113555714D01*
X108412380Y-113270000D02*
X107412380Y-113270000D01*
X107555238Y-113365238D01*
X107650476Y-113460476D01*
X107698095Y-113555714D01*
%TO.C,R23*%
X132282921Y-145029655D02*
X132333500Y-145608714D01*
X132777792Y-145315369D02*
X132277792Y-146181394D01*
X131947878Y-145990918D01*
X131889209Y-145902060D01*
X131871779Y-145837011D01*
X131878159Y-145730723D01*
X131949587Y-145607005D01*
X132038446Y-145548336D01*
X132103494Y-145530906D01*
X132209783Y-145537286D01*
X132539697Y-145727762D01*
X131500625Y-145622725D02*
X131435576Y-145640155D01*
X131329288Y-145633775D01*
X131123092Y-145514728D01*
X131064423Y-145425869D01*
X131046993Y-145360821D01*
X131053373Y-145254532D01*
X131100992Y-145172054D01*
X131213660Y-145072145D01*
X131994245Y-144862988D01*
X131458134Y-144553464D01*
X130669459Y-145252823D02*
X130133348Y-144943299D01*
X130612500Y-144780051D01*
X130488782Y-144708623D01*
X130430113Y-144619764D01*
X130412683Y-144554716D01*
X130419063Y-144448427D01*
X130538110Y-144242231D01*
X130626969Y-144183562D01*
X130692017Y-144166132D01*
X130798306Y-144172512D01*
X131045741Y-144315369D01*
X131104411Y-144404227D01*
X131121840Y-144469276D01*
%TO.C,R37*%
X105513201Y-148630540D02*
X105267475Y-149157310D01*
X105798916Y-149125411D02*
X104932890Y-149625411D01*
X104742414Y-149295497D01*
X104736034Y-149189209D01*
X104753464Y-149124160D01*
X104812133Y-149035302D01*
X104935851Y-148963873D01*
X105042139Y-148957493D01*
X105107188Y-148974923D01*
X105196047Y-149033592D01*
X105386523Y-149363507D01*
X104480509Y-148841865D02*
X104170986Y-148305754D01*
X104667567Y-148403952D01*
X104596138Y-148280235D01*
X104589758Y-148173946D01*
X104607188Y-148108898D01*
X104665857Y-148020039D01*
X104872054Y-147900992D01*
X104978342Y-147894612D01*
X105043391Y-147912042D01*
X105132249Y-147970711D01*
X105275106Y-148218147D01*
X105281486Y-148324435D01*
X105264056Y-148389484D01*
X104004319Y-148017078D02*
X103670986Y-147439728D01*
X104751297Y-147310882D01*
%TO.C,R13*%
X93713201Y-101730540D02*
X93467475Y-102257310D01*
X93998916Y-102225411D02*
X93132890Y-102725411D01*
X92942414Y-102395497D01*
X92936034Y-102289209D01*
X92953464Y-102224160D01*
X93012133Y-102135302D01*
X93135851Y-102063873D01*
X93242139Y-102057493D01*
X93307188Y-102074923D01*
X93396047Y-102133592D01*
X93586523Y-102463507D01*
X93237011Y-100905754D02*
X93522725Y-101400625D01*
X93379868Y-101153189D02*
X92513843Y-101653189D01*
X92685180Y-101664239D01*
X92815277Y-101699099D01*
X92904136Y-101757768D01*
X92204319Y-101117078D02*
X91894795Y-100580967D01*
X92391376Y-100679166D01*
X92319948Y-100555448D01*
X92313568Y-100449160D01*
X92330998Y-100384112D01*
X92389667Y-100295253D01*
X92595863Y-100176206D01*
X92702151Y-100169826D01*
X92767200Y-100187256D01*
X92856059Y-100245925D01*
X92998916Y-100493360D01*
X93005295Y-100599649D01*
X92987866Y-100664697D01*
%TO.C,R34*%
X108313201Y-142030540D02*
X108067475Y-142557310D01*
X108598916Y-142525411D02*
X107732890Y-143025411D01*
X107542414Y-142695497D01*
X107536034Y-142589209D01*
X107553464Y-142524160D01*
X107612133Y-142435302D01*
X107735851Y-142363873D01*
X107842139Y-142357493D01*
X107907188Y-142374923D01*
X107996047Y-142433592D01*
X108186523Y-142763507D01*
X107280509Y-142241865D02*
X106970986Y-141705754D01*
X107467567Y-141803952D01*
X107396138Y-141680235D01*
X107389758Y-141573946D01*
X107407188Y-141508898D01*
X107465857Y-141420039D01*
X107672054Y-141300992D01*
X107778342Y-141294612D01*
X107843391Y-141312042D01*
X107932249Y-141370711D01*
X108075106Y-141618147D01*
X108081486Y-141724435D01*
X108064056Y-141789484D01*
X106831089Y-140796779D02*
X107408440Y-140463446D01*
X106620222Y-141193452D02*
X107357860Y-141042506D01*
X107048336Y-140506395D01*
%TO.C,C5*%
X119457142Y-70441666D02*
X119504761Y-70489285D01*
X119552380Y-70632142D01*
X119552380Y-70727380D01*
X119504761Y-70870238D01*
X119409523Y-70965476D01*
X119314285Y-71013095D01*
X119123809Y-71060714D01*
X118980952Y-71060714D01*
X118790476Y-71013095D01*
X118695238Y-70965476D01*
X118600000Y-70870238D01*
X118552380Y-70727380D01*
X118552380Y-70632142D01*
X118600000Y-70489285D01*
X118647619Y-70441666D01*
X118552380Y-69536904D02*
X118552380Y-70013095D01*
X119028571Y-70060714D01*
X118980952Y-70013095D01*
X118933333Y-69917857D01*
X118933333Y-69679761D01*
X118980952Y-69584523D01*
X119028571Y-69536904D01*
X119123809Y-69489285D01*
X119361904Y-69489285D01*
X119457142Y-69536904D01*
X119504761Y-69584523D01*
X119552380Y-69679761D01*
X119552380Y-69917857D01*
X119504761Y-70013095D01*
X119457142Y-70060714D01*
%TO.C,R8*%
X138052380Y-117266666D02*
X137576190Y-117600000D01*
X138052380Y-117838095D02*
X137052380Y-117838095D01*
X137052380Y-117457142D01*
X137100000Y-117361904D01*
X137147619Y-117314285D01*
X137242857Y-117266666D01*
X137385714Y-117266666D01*
X137480952Y-117314285D01*
X137528571Y-117361904D01*
X137576190Y-117457142D01*
X137576190Y-117838095D01*
X137480952Y-116695238D02*
X137433333Y-116790476D01*
X137385714Y-116838095D01*
X137290476Y-116885714D01*
X137242857Y-116885714D01*
X137147619Y-116838095D01*
X137100000Y-116790476D01*
X137052380Y-116695238D01*
X137052380Y-116504761D01*
X137100000Y-116409523D01*
X137147619Y-116361904D01*
X137242857Y-116314285D01*
X137290476Y-116314285D01*
X137385714Y-116361904D01*
X137433333Y-116409523D01*
X137480952Y-116504761D01*
X137480952Y-116695238D01*
X137528571Y-116790476D01*
X137576190Y-116838095D01*
X137671428Y-116885714D01*
X137861904Y-116885714D01*
X137957142Y-116838095D01*
X138004761Y-116790476D01*
X138052380Y-116695238D01*
X138052380Y-116504761D01*
X138004761Y-116409523D01*
X137957142Y-116361904D01*
X137861904Y-116314285D01*
X137671428Y-116314285D01*
X137576190Y-116361904D01*
X137528571Y-116409523D01*
X137480952Y-116504761D01*
D13*
%TO.C,L1*%
X103600000Y-76300000D02*
X103600000Y-82000000D01*
X98400000Y-76300000D02*
X98400000Y-82000000D01*
D11*
%TO.C,J1*%
X115470000Y-48882500D02*
X106530000Y-48882500D01*
X106530000Y-48882500D02*
X106530000Y-50372500D01*
X106530000Y-54302500D02*
X106530000Y-53092500D01*
X115470000Y-54302500D02*
X115470000Y-53092500D01*
X115470000Y-50372500D02*
X115470000Y-48882500D01*
X114880000Y-57392500D02*
G75*
G03*
X114880000Y-57392500I-100000J0D01*
G01*
D14*
%TO.C,C25*%
X151933254Y-97388037D02*
X152176746Y-97528617D01*
X151423254Y-98271383D02*
X151666746Y-98411963D01*
%TO.C,R16*%
X134071127Y-127255779D02*
X133833869Y-127666721D01*
X133166131Y-126733279D02*
X132928873Y-127144221D01*
%TO.C,R21*%
X142133279Y-122733869D02*
X142544221Y-122971127D01*
X142655779Y-121828873D02*
X143066721Y-122066131D01*
%TO.C,C10*%
X102186254Y-65435000D02*
X101663750Y-65435000D01*
X102186254Y-63965000D02*
X101663750Y-63965000D01*
%TO.C,R22*%
X92533279Y-122566131D02*
X92944221Y-122328873D01*
X93055779Y-123471127D02*
X93466721Y-123233869D01*
D13*
%TO.C,S1*%
X125300000Y-50300000D02*
X128300000Y-50300000D01*
X130300000Y-50300000D02*
X132300000Y-50300000D01*
X135300000Y-54300000D02*
X135300000Y-53600000D01*
X125300000Y-51000000D02*
X125300000Y-50300000D01*
X125300000Y-54300000D02*
X125300000Y-53600000D01*
X132300000Y-50300000D02*
X135300000Y-50300000D01*
X135300000Y-51000000D02*
X135300000Y-50300000D01*
X128300000Y-50300000D02*
X130300000Y-50300000D01*
X135300000Y-54300000D02*
X125300000Y-54300000D01*
D14*
%TO.C,C18*%
X108876746Y-145471383D02*
X108633254Y-145611963D01*
X108366746Y-144588037D02*
X108123254Y-144728617D01*
%TO.C,R26*%
X103028873Y-123605779D02*
X103266131Y-124016721D01*
X103933869Y-123083279D02*
X104171127Y-123494221D01*
%TO.C,R6*%
X124662742Y-117622500D02*
X125137258Y-117622500D01*
X124662742Y-116577500D02*
X125137258Y-116577500D01*
%TO.C,R30*%
X143966131Y-107533279D02*
X143728873Y-107944221D01*
X144871127Y-108055779D02*
X144633869Y-108466721D01*
%TO.C,C17*%
X105610000Y-87834420D02*
X105610000Y-88115580D01*
X104590000Y-87834420D02*
X104590000Y-88115580D01*
%TO.C,C27*%
X164933254Y-116988037D02*
X165176746Y-117128617D01*
X164423254Y-117871383D02*
X164666746Y-118011963D01*
%TO.C,J4*%
X125800000Y-80500000D02*
X125800000Y-76100000D01*
X125800000Y-70100000D02*
X125800000Y-74500000D01*
X125800000Y-76100000D02*
X130200000Y-76100000D01*
X130200000Y-74500000D02*
X130200000Y-70100000D01*
X130200000Y-74500000D02*
X125800000Y-74500000D01*
X130200000Y-76100000D02*
X130200000Y-80500000D01*
X125800000Y-70100000D02*
X130200000Y-70100000D01*
X130200000Y-80500000D02*
X125800000Y-80500000D01*
D15*
%TO.C,U7*%
X155080730Y-110772303D02*
X155309330Y-110376356D01*
X147880157Y-109020061D02*
X147651557Y-109416008D01*
X156350730Y-108572599D02*
X156579330Y-108176652D01*
X148362430Y-122408740D02*
X148959330Y-121374879D01*
X146610157Y-111219765D02*
X146381557Y-111615712D01*
X149150157Y-106820356D02*
X148921557Y-107216303D01*
X145340157Y-113419470D02*
X145111557Y-113815417D01*
X155402008Y-103713433D02*
X154874079Y-103408633D01*
X154874079Y-103408633D02*
X152058457Y-101783033D01*
X157620730Y-106372894D02*
X158217630Y-105339033D01*
X150000730Y-119571121D02*
X150229330Y-119175174D01*
X158217630Y-105339033D02*
X155402008Y-103713433D01*
X144070157Y-115619174D02*
X143841557Y-116015121D01*
X142800157Y-117818879D02*
X142203257Y-118852740D01*
X150394757Y-104664646D02*
X150191557Y-105016599D01*
X142203257Y-118852740D02*
X148362430Y-122408740D01*
X152540730Y-115171712D02*
X152769330Y-114775765D01*
X151270730Y-117371417D02*
X151499330Y-116975470D01*
X153810730Y-112972008D02*
X154039330Y-112576061D01*
X152058457Y-101783033D02*
X151486957Y-102772900D01*
D16*
X154874079Y-103408633D02*
G75*
G03*
X155402008Y-103713433I263964J-152400D01*
G01*
D14*
%TO.C,D7*%
X124735000Y-88260000D02*
X124735000Y-85975000D01*
X123265000Y-88260000D02*
X124735000Y-88260000D01*
X123265000Y-85975000D02*
X123265000Y-88260000D01*
%TO.C,C33*%
X159666746Y-108711963D02*
X159423254Y-108571383D01*
X160176746Y-107828617D02*
X159933254Y-107688037D01*
%TO.C,R41*%
X102312258Y-106622500D02*
X101837742Y-106622500D01*
X102312258Y-105577500D02*
X101837742Y-105577500D01*
%TO.C,C4*%
X105610000Y-84134420D02*
X105610000Y-84415580D01*
X104590000Y-84134420D02*
X104590000Y-84415580D01*
D13*
%TO.C,U8*%
X88988211Y-164375789D02*
X107025789Y-153961789D01*
X107025789Y-153961789D02*
X96611789Y-135924211D01*
X78574211Y-146338211D02*
X88988211Y-164375789D01*
X96611789Y-135924211D02*
X78574211Y-146338211D01*
D11*
X88266025Y-140123721D02*
G75*
G03*
X88266025Y-140123721I-100000J0D01*
G01*
D14*
%TO.C,R24*%
X74066721Y-120233869D02*
X73655779Y-120471127D01*
X73544221Y-119328873D02*
X73133279Y-119566131D01*
%TO.C,D8*%
X131265000Y-88260000D02*
X132735000Y-88260000D01*
X132735000Y-88260000D02*
X132735000Y-85975000D01*
X131265000Y-85975000D02*
X131265000Y-88260000D01*
%TO.C,C22*%
X96876746Y-121271383D02*
X96633254Y-121411963D01*
X96366746Y-120388037D02*
X96123254Y-120528617D01*
%TO.C,BT1*%
X145705256Y-84109104D02*
X143505256Y-80298592D01*
X139694744Y-82498592D02*
X141894744Y-86309104D01*
X148705256Y-89305256D02*
X144894744Y-91505256D01*
X139694744Y-82498592D02*
X143505256Y-80298592D01*
X142694744Y-87694744D02*
X146505256Y-85494744D01*
X145705256Y-84109104D02*
X141894744Y-86309104D01*
X144894744Y-91505256D02*
X142694744Y-87694744D01*
X146505256Y-85494744D02*
X148705256Y-89305256D01*
%TO.C,C11*%
X102040580Y-57490000D02*
X101759420Y-57490000D01*
X102040580Y-58510000D02*
X101759420Y-58510000D01*
D13*
%TO.C,U9*%
X172225789Y-127888211D02*
X154188211Y-117474211D01*
X161811789Y-145925789D02*
X172225789Y-127888211D01*
X154188211Y-117474211D02*
X143774211Y-135511789D01*
X143774211Y-135511789D02*
X161811789Y-145925789D01*
D11*
X151733975Y-140726279D02*
G75*
G03*
X151733975Y-140726279I-100000J0D01*
G01*
D14*
%TO.C,R25*%
X133153631Y-148547750D02*
X132916373Y-148958692D01*
X134058627Y-149070250D02*
X133821369Y-149481192D01*
%TO.C,C6*%
X114934420Y-70590000D02*
X115215580Y-70590000D01*
X114934420Y-71610000D02*
X115215580Y-71610000D01*
%TO.C,D3*%
X126236000Y-112210000D02*
X126080000Y-112210000D01*
X123920000Y-112210000D02*
X123764000Y-112210000D01*
X123920000Y-112729039D02*
G75*
G03*
X123920163Y-114811130I1080000J-1040961D01*
G01*
X123764484Y-112210000D02*
G75*
G03*
X123921392Y-115442335I1235516J-1560000D01*
G01*
X126079837Y-114811130D02*
G75*
G03*
X126080000Y-112729039I-1079837J1041130D01*
G01*
X126078608Y-115442335D02*
G75*
G03*
X126235516Y-112210000I-1078608J1672335D01*
G01*
%TO.C,R40*%
X163766721Y-119816131D02*
X163355779Y-119578873D01*
X163244221Y-120721127D02*
X162833279Y-120483869D01*
%TO.C,R32*%
X104333869Y-143433279D02*
X104571127Y-143844221D01*
X103428873Y-143955779D02*
X103666131Y-144366721D01*
%TO.C,C24*%
X145723254Y-124771383D02*
X145966746Y-124911963D01*
X146233254Y-123888037D02*
X146476746Y-124028617D01*
%TO.C,R33*%
X159166721Y-109766131D02*
X158755779Y-109528873D01*
X158644221Y-110671127D02*
X158233279Y-110433869D01*
%TO.C,C1*%
X122147500Y-78709420D02*
X122147500Y-78990580D01*
X121127500Y-78709420D02*
X121127500Y-78990580D01*
%TO.C,R35*%
X150852250Y-99853631D02*
X150441308Y-99616373D01*
X150329750Y-100758627D02*
X149918808Y-100521369D01*
%TO.C,TH1*%
X105935000Y-60727064D02*
X105935000Y-60272936D01*
X104465000Y-60727064D02*
X104465000Y-60272936D01*
%TO.C,C30*%
X105888037Y-142633254D02*
X106028617Y-142876746D01*
X106771383Y-142123254D02*
X106911963Y-142366746D01*
%TO.C,C19*%
X98328617Y-109676746D02*
X98188037Y-109433254D01*
X99211963Y-109166746D02*
X99071383Y-108923254D01*
%TO.C,R42*%
X106462258Y-109172500D02*
X105987742Y-109172500D01*
X106462258Y-108127500D02*
X105987742Y-108127500D01*
%TO.C,D6*%
X115265000Y-88260000D02*
X116735000Y-88260000D01*
X116735000Y-88260000D02*
X116735000Y-85975000D01*
X115265000Y-85975000D02*
X115265000Y-88260000D01*
D15*
%TO.C,U3*%
X85279766Y-112454008D02*
X85508366Y-112849955D01*
X84009766Y-110254303D02*
X84238366Y-110650250D01*
X82739766Y-108054599D02*
X82968366Y-108450546D01*
X94207539Y-113693364D02*
X93978939Y-113297417D01*
X90359766Y-121252826D02*
X90956666Y-122286687D01*
X92937539Y-111493659D02*
X92708939Y-111097712D01*
X94300217Y-120356287D02*
X97115839Y-118730687D01*
X95452139Y-115849074D02*
X95248939Y-115497121D01*
X91667539Y-109293955D02*
X91438939Y-108898008D01*
X90956666Y-122286687D02*
X93772288Y-120661087D01*
X87819766Y-116853417D02*
X88048366Y-117249364D01*
X86549766Y-114653712D02*
X86778366Y-115049659D01*
X89089766Y-119053121D02*
X89318366Y-119449068D01*
X81101466Y-105216980D02*
X81698366Y-106250841D01*
X90397539Y-107094250D02*
X90168939Y-106698303D01*
X89127539Y-104894546D02*
X88898939Y-104498599D01*
X87260639Y-101660980D02*
X81101466Y-105216980D01*
X97115839Y-118730687D02*
X96544339Y-117740820D01*
X93772288Y-120661087D02*
X94300217Y-120356287D01*
X87857539Y-102694841D02*
X87260639Y-101660980D01*
D16*
X94300217Y-120356287D02*
G75*
G03*
X93772288Y-120661087I-263964J-152400D01*
G01*
D13*
%TO.C,U5*%
X67874211Y-127788211D02*
X78288211Y-145825789D01*
X85911789Y-117374211D02*
X67874211Y-127788211D01*
X78288211Y-145825789D02*
X96325789Y-135411789D01*
X96325789Y-135411789D02*
X85911789Y-117374211D01*
D11*
X77566025Y-121573721D02*
G75*
G03*
X77566025Y-121573721I-100000J0D01*
G01*
D14*
%TO.C,J2*%
X139900000Y-95700000D02*
X139900000Y-94700000D01*
X136040000Y-93940000D02*
X136040000Y-102060000D01*
X143860000Y-93940000D02*
X136040000Y-93940000D01*
X139900000Y-94700000D02*
X138300000Y-94700000D01*
X143860000Y-101140000D02*
X142260000Y-101140000D01*
X139900000Y-100300000D02*
X139900000Y-101300000D01*
X138300000Y-95700000D02*
X136040000Y-95700000D01*
X142260000Y-93940000D02*
X142260000Y-94860000D01*
X142260000Y-101140000D02*
X142260000Y-100860000D01*
X140400000Y-99500000D02*
X136040000Y-99500000D01*
X138300000Y-101300000D02*
X138300000Y-100300000D01*
X142260000Y-94860000D02*
X143860000Y-94860000D01*
X138300000Y-95200000D02*
X136040000Y-95200000D01*
X138300000Y-94700000D02*
X138300000Y-95700000D01*
X142260000Y-95140000D02*
X143475000Y-95140000D01*
X139900000Y-101300000D02*
X138300000Y-101300000D01*
X143860000Y-94860000D02*
X143860000Y-93940000D01*
X140400000Y-96500000D02*
X140400000Y-99500000D01*
X142260000Y-102060000D02*
X142260000Y-101140000D01*
X142260000Y-95140000D02*
X142260000Y-94860000D01*
X136040000Y-102060000D02*
X143860000Y-102060000D01*
X136040000Y-96500000D02*
X140400000Y-96500000D01*
X138300000Y-95700000D02*
X139900000Y-95700000D01*
X143860000Y-102060000D02*
X143860000Y-101140000D01*
X138300000Y-100300000D02*
X139900000Y-100300000D01*
%TO.C,C29*%
X167423254Y-123771383D02*
X167666746Y-123911963D01*
X167933254Y-122888037D02*
X168176746Y-123028617D01*
%TO.C,C8*%
X102161252Y-61665000D02*
X101638748Y-61665000D01*
X102161252Y-63135000D02*
X101638748Y-63135000D01*
%TO.C,R14*%
X138271127Y-120055779D02*
X138033869Y-120466721D01*
X137366131Y-119533279D02*
X137128873Y-119944221D01*
%TO.C,C14*%
X102390000Y-84415580D02*
X102390000Y-84134420D01*
X103410000Y-84415580D02*
X103410000Y-84134420D01*
%TO.C,R3*%
X109422500Y-74987742D02*
X109422500Y-75462258D01*
X108377500Y-74987742D02*
X108377500Y-75462258D01*
%TO.C,R31*%
X141866131Y-111133279D02*
X141628873Y-111544221D01*
X142771127Y-111655779D02*
X142533869Y-112066721D01*
%TO.C,C31*%
X84466746Y-116288037D02*
X84223254Y-116428617D01*
X84976746Y-117171383D02*
X84733254Y-117311963D01*
%TO.C,C16*%
X102390000Y-87834420D02*
X102390000Y-88115580D01*
X103410000Y-87834420D02*
X103410000Y-88115580D01*
%TO.C,Q1*%
X120337500Y-72690000D02*
X120987500Y-72690000D01*
X120337500Y-75810000D02*
X120987500Y-75810000D01*
X120337500Y-75810000D02*
X119687500Y-75810000D01*
X120337500Y-72690000D02*
X118662500Y-72690000D01*
%TO.C,BT2*%
X93405256Y-94007180D02*
X89594744Y-91807180D01*
X92605256Y-95392820D02*
X90405256Y-99203332D01*
X86594744Y-97003332D02*
X88794744Y-93192820D01*
X90405256Y-99203332D02*
X86594744Y-97003332D01*
X88794744Y-93192820D02*
X92605256Y-95392820D01*
X91794744Y-87996668D02*
X95605256Y-90196668D01*
X91794744Y-87996668D02*
X89594744Y-91807180D01*
X93405256Y-94007180D02*
X95605256Y-90196668D01*
%TO.C,C26*%
X109410000Y-148840580D02*
X109410000Y-148559420D01*
X108390000Y-148840580D02*
X108390000Y-148559420D01*
%TO.C,C20*%
X75033254Y-122811963D02*
X75276746Y-122671383D01*
X74523254Y-121928617D02*
X74766746Y-121788037D01*
%TO.C,C12*%
X106938781Y-69860030D02*
X106739970Y-69661219D01*
X107660030Y-69138781D02*
X107461219Y-68939970D01*
%TO.C,C21*%
X131358883Y-147891217D02*
X131499463Y-147647725D01*
X130475537Y-147381217D02*
X130616117Y-147137725D01*
%TO.C,C9*%
X102186252Y-66165000D02*
X101663748Y-66165000D01*
X102186252Y-67635000D02*
X101663748Y-67635000D01*
%TO.C,R28*%
X108333869Y-130333279D02*
X108571127Y-130744221D01*
X107428873Y-130855779D02*
X107666131Y-131266721D01*
%TO.C,R9*%
X128387258Y-86377500D02*
X127912742Y-86377500D01*
X128387258Y-87422500D02*
X127912742Y-87422500D01*
%TO.C,R20*%
X97166131Y-112466721D02*
X96928873Y-112055779D01*
X98071127Y-111944221D02*
X97833869Y-111533279D01*
%TO.C,D4*%
X136236000Y-112210000D02*
X136080000Y-112210000D01*
X133920000Y-112210000D02*
X133764000Y-112210000D01*
X136078608Y-115442335D02*
G75*
G03*
X136235516Y-112210000I-1078608J1672335D01*
G01*
X136079837Y-114811130D02*
G75*
G03*
X136080000Y-112729039I-1079837J1041130D01*
G01*
X133764484Y-112210000D02*
G75*
G03*
X133921392Y-115442335I1235516J-1560000D01*
G01*
X133920000Y-112729039D02*
G75*
G03*
X133920163Y-114811130I1080000J-1040961D01*
G01*
%TO.C,D2*%
X113920000Y-112210000D02*
X113764000Y-112210000D01*
X116236000Y-112210000D02*
X116080000Y-112210000D01*
X116079837Y-114811130D02*
G75*
G03*
X116080000Y-112729039I-1079837J1041130D01*
G01*
X113764484Y-112210000D02*
G75*
G03*
X113921392Y-115442335I1235516J-1560000D01*
G01*
X116078608Y-115442335D02*
G75*
G03*
X116235516Y-112210000I-1078608J1672335D01*
G01*
X113920000Y-112729039D02*
G75*
G03*
X113920163Y-114811130I1080000J-1040961D01*
G01*
%TO.C,C7*%
X102161252Y-60835000D02*
X101638748Y-60835000D01*
X102161252Y-59365000D02*
X101638748Y-59365000D01*
%TO.C,R38*%
X139866131Y-115633279D02*
X139628873Y-116044221D01*
X140771127Y-116155779D02*
X140533869Y-116566721D01*
%TO.C,U1*%
X110460482Y-69698204D02*
X110796358Y-69362328D01*
X106398154Y-65635876D02*
X106062278Y-65300000D01*
X106062278Y-65300000D02*
X106398154Y-64964124D01*
X110796358Y-61237672D02*
X110460482Y-60901796D01*
X114522810Y-64964124D02*
X114858686Y-65300000D01*
X114858686Y-65300000D02*
X114522810Y-65635876D01*
X110124606Y-69362328D02*
X110460482Y-69698204D01*
%TO.C,A1*%
X110390000Y-161550000D02*
X115470000Y-161550000D01*
X123350000Y-153670000D02*
X123350000Y-164090000D01*
X113060000Y-123320000D02*
X113060000Y-158880000D01*
X113060000Y-123320000D02*
X110390000Y-123320000D01*
X113060000Y-158880000D02*
X110390000Y-158880000D01*
X113060000Y-123320000D02*
X113060000Y-120780000D01*
X115470000Y-153670000D02*
X123350000Y-153670000D01*
X125760000Y-120780000D02*
X128430000Y-120780000D01*
X125760000Y-120780000D02*
X125760000Y-158880000D01*
X128430000Y-118110000D02*
X110390000Y-118110000D01*
X123350000Y-164090000D02*
X115470000Y-164090000D01*
X113060000Y-120780000D02*
X110390000Y-120780000D01*
X110390000Y-123320000D02*
X110390000Y-161550000D01*
X128430000Y-161550000D02*
X123350000Y-161550000D01*
X115470000Y-164090000D02*
X115470000Y-153670000D01*
X110390000Y-118110000D02*
X110390000Y-120780000D01*
X128430000Y-161550000D02*
X128430000Y-118110000D01*
X125760000Y-158880000D02*
X128430000Y-158880000D01*
%TO.C,R4*%
X105137258Y-116677500D02*
X104662742Y-116677500D01*
X105137258Y-117722500D02*
X104662742Y-117722500D01*
D15*
%TO.C,U2*%
X139360287Y-138975531D02*
X139588887Y-138579584D01*
X143491565Y-125317547D02*
X142963636Y-125012747D01*
X130889714Y-139422993D02*
X130292814Y-140456854D01*
X134699714Y-132823879D02*
X134471114Y-133219826D01*
X140148014Y-123387147D02*
X139576514Y-124377014D01*
X144440287Y-130176713D02*
X144668887Y-129780766D01*
X138484314Y-126268760D02*
X138281114Y-126620713D01*
X138090287Y-141175235D02*
X138318887Y-140779288D01*
X132159714Y-137223288D02*
X131931114Y-137619235D01*
X136451987Y-144012854D02*
X137048887Y-142978993D01*
X133429714Y-135023584D02*
X133201114Y-135419531D01*
X137239714Y-128424470D02*
X137011114Y-128820417D01*
X146307187Y-126943147D02*
X143491565Y-125317547D01*
X130292814Y-140456854D02*
X136451987Y-144012854D01*
X143170287Y-132376417D02*
X143398887Y-131980470D01*
X135969714Y-130624175D02*
X135741114Y-131020122D01*
X141900287Y-134576122D02*
X142128887Y-134180175D01*
X142963636Y-125012747D02*
X140148014Y-123387147D01*
X140630287Y-136775826D02*
X140858887Y-136379879D01*
X145710287Y-127977008D02*
X146307187Y-126943147D01*
D16*
X142963636Y-125012747D02*
G75*
G03*
X143491565Y-125317547I263964J-152400D01*
G01*
D14*
%TO.C,R2*%
X109965000Y-72839564D02*
X109965000Y-72385436D01*
X111435000Y-72839564D02*
X111435000Y-72385436D01*
%TO.C,R27*%
X106133869Y-126733279D02*
X106371127Y-127144221D01*
X105228873Y-127255779D02*
X105466131Y-127666721D01*
%TO.C,R18*%
X78855779Y-120671127D02*
X79266721Y-120433869D01*
X78333279Y-119766131D02*
X78744221Y-119528873D01*
%TO.C,J3*%
X103650000Y-104650000D02*
X98750000Y-104650000D01*
X98750000Y-104650000D02*
X98750000Y-102450000D01*
X103650000Y-102450000D02*
X103650000Y-104650000D01*
X105800000Y-98550000D02*
G75*
G03*
X105800000Y-98550000I-4600000J0D01*
G01*
%TO.C,C32*%
X130488037Y-125752387D02*
X130628617Y-125508895D01*
X131371383Y-126262387D02*
X131511963Y-126018895D01*
%TO.C,R15*%
X135266131Y-123233279D02*
X135028873Y-123644221D01*
X136171127Y-123755779D02*
X135933869Y-124166721D01*
%TO.C,G\u002A\u002A\u002A*%
G36*
X118240930Y-92418310D02*
G01*
X116556236Y-92418310D01*
X116556236Y-93548639D01*
X117909750Y-93548639D01*
X117909750Y-93973413D01*
X116556236Y-93973413D01*
X116556236Y-95132540D01*
X118240930Y-95132540D01*
X118240930Y-95564512D01*
X116016270Y-95564512D01*
X116016270Y-91986338D01*
X118240930Y-91986338D01*
X118240930Y-92418310D01*
G37*
G36*
X129714296Y-99133896D02*
G01*
X129752669Y-99135689D01*
X129788379Y-99139552D01*
X129824476Y-99146067D01*
X129864013Y-99155815D01*
X129910039Y-99169377D01*
X129965606Y-99187336D01*
X129983390Y-99193264D01*
X130030277Y-99208279D01*
X130076773Y-99221942D01*
X130119246Y-99233264D01*
X130154063Y-99241256D01*
X130170145Y-99244096D01*
X130244219Y-99249643D01*
X130327019Y-99246937D01*
X130415696Y-99236289D01*
X130507398Y-99218010D01*
X130575080Y-99199888D01*
X130600693Y-99192906D01*
X130621235Y-99188489D01*
X130632558Y-99187517D01*
X130632952Y-99187618D01*
X130630872Y-99192191D01*
X130618710Y-99202343D01*
X130598873Y-99216489D01*
X130573769Y-99233046D01*
X130545806Y-99250428D01*
X130517391Y-99267050D01*
X130490934Y-99281328D01*
X130489311Y-99282152D01*
X130412061Y-99316094D01*
X130337106Y-99338032D01*
X130260474Y-99348928D01*
X130206576Y-99350532D01*
X130173590Y-99349946D01*
X130144861Y-99348945D01*
X130124166Y-99347688D01*
X130116581Y-99346762D01*
X130066779Y-99335567D01*
X130022232Y-99323821D01*
X129977965Y-99310011D01*
X129929002Y-99292625D01*
X129890717Y-99278076D01*
X129848573Y-99262436D01*
X129806352Y-99247939D01*
X129767911Y-99235830D01*
X129737107Y-99227354D01*
X129726294Y-99224967D01*
X129665564Y-99216832D01*
X129600716Y-99215237D01*
X129529815Y-99220345D01*
X129450925Y-99232322D01*
X129362113Y-99251332D01*
X129333050Y-99258481D01*
X129299988Y-99266540D01*
X129272335Y-99272736D01*
X129252876Y-99276484D01*
X129244391Y-99277200D01*
X129244289Y-99277131D01*
X129247788Y-99271610D01*
X129261918Y-99261132D01*
X129284384Y-99247079D01*
X129312886Y-99230831D01*
X129345127Y-99213767D01*
X129371428Y-99200763D01*
X129453287Y-99167332D01*
X129535701Y-99145752D01*
X129622743Y-99135106D01*
X129670210Y-99133593D01*
X129714296Y-99133896D01*
G37*
G36*
X112286905Y-92418310D02*
G01*
X110602211Y-92418310D01*
X110602211Y-93613435D01*
X112034920Y-93613435D01*
X112034920Y-94052608D01*
X110602211Y-94052608D01*
X110602211Y-95564512D01*
X110062245Y-95564512D01*
X110062245Y-91986338D01*
X112286905Y-91986338D01*
X112286905Y-92418310D01*
G37*
G36*
X122063394Y-95033072D02*
G01*
X122102262Y-95036164D01*
X122135723Y-95040562D01*
X122144853Y-95042288D01*
X122214279Y-95063684D01*
X122276887Y-95096363D01*
X122331303Y-95139072D01*
X122376156Y-95190559D01*
X122410074Y-95249574D01*
X122428257Y-95300781D01*
X122434450Y-95335746D01*
X122437568Y-95378994D01*
X122437652Y-95425303D01*
X122434738Y-95469448D01*
X122428868Y-95506205D01*
X122426656Y-95514609D01*
X122399830Y-95583775D01*
X122359905Y-95654177D01*
X122306435Y-95726572D01*
X122291534Y-95744332D01*
X122279810Y-95757339D01*
X122259472Y-95779178D01*
X122231940Y-95808352D01*
X122198635Y-95843367D01*
X122160977Y-95882728D01*
X122120387Y-95924938D01*
X122093546Y-95952737D01*
X122048724Y-95999432D01*
X122010801Y-96039653D01*
X121980384Y-96072721D01*
X121958079Y-96097960D01*
X121944494Y-96114694D01*
X121940233Y-96122245D01*
X121941496Y-96122475D01*
X121954750Y-96120373D01*
X121980012Y-96118506D01*
X122015110Y-96116889D01*
X122057872Y-96115540D01*
X122106129Y-96114477D01*
X122157709Y-96113715D01*
X122210441Y-96113273D01*
X122262154Y-96113168D01*
X122310676Y-96113416D01*
X122353838Y-96114034D01*
X122389466Y-96115041D01*
X122415391Y-96116452D01*
X122429442Y-96118286D01*
X122430441Y-96118619D01*
X122445518Y-96126619D01*
X122456411Y-96137750D01*
X122463879Y-96154352D01*
X122468678Y-96178769D01*
X122471567Y-96213341D01*
X122473022Y-96250269D01*
X122475709Y-96342063D01*
X121543760Y-96342063D01*
X121546799Y-96278506D01*
X121549439Y-96242630D01*
X121553934Y-96216758D01*
X121561221Y-96196522D01*
X121566461Y-96186711D01*
X121575093Y-96175688D01*
X121592888Y-96155852D01*
X121618673Y-96128416D01*
X121651275Y-96094592D01*
X121689520Y-96055591D01*
X121732235Y-96012624D01*
X121778246Y-95966904D01*
X121802024Y-95943486D01*
X121867627Y-95878774D01*
X121923648Y-95822781D01*
X121971043Y-95774412D01*
X122010767Y-95732572D01*
X122043774Y-95696167D01*
X122071018Y-95664100D01*
X122093457Y-95635277D01*
X122112043Y-95608603D01*
X122127732Y-95582983D01*
X122141479Y-95557322D01*
X122145024Y-95550158D01*
X122159827Y-95518316D01*
X122169064Y-95493253D01*
X122174265Y-95469219D01*
X122176961Y-95440465D01*
X122177618Y-95427765D01*
X122178597Y-95396513D01*
X122177493Y-95374556D01*
X122173402Y-95356838D01*
X122165423Y-95338304D01*
X122159634Y-95327038D01*
X122131977Y-95288822D01*
X122095854Y-95261444D01*
X122052951Y-95245537D01*
X122004958Y-95241731D01*
X121954499Y-95250382D01*
X121911547Y-95269972D01*
X121874757Y-95302138D01*
X121843769Y-95347225D01*
X121834880Y-95364733D01*
X121814743Y-95401325D01*
X121794083Y-95425297D01*
X121770909Y-95438350D01*
X121744338Y-95442192D01*
X121720415Y-95441056D01*
X121690595Y-95437919D01*
X121657984Y-95433333D01*
X121625685Y-95427846D01*
X121596803Y-95422011D01*
X121574443Y-95416378D01*
X121561708Y-95411498D01*
X121559920Y-95409478D01*
X121561614Y-95398984D01*
X121566106Y-95378521D01*
X121572516Y-95352041D01*
X121574299Y-95345007D01*
X121599789Y-95272119D01*
X121636382Y-95208010D01*
X121683442Y-95153123D01*
X121740331Y-95107897D01*
X121806413Y-95072775D01*
X121881051Y-95048199D01*
X121963609Y-95034610D01*
X122025788Y-95031871D01*
X122063394Y-95033072D01*
G37*
G36*
X124590930Y-97839569D02*
G01*
X123482199Y-97839569D01*
X123482199Y-100848979D01*
X123266213Y-100848979D01*
X123266213Y-97839569D01*
X122157483Y-97839569D01*
X122157483Y-97637982D01*
X124590930Y-97637982D01*
X124590930Y-97839569D01*
G37*
G36*
X121120748Y-92418310D02*
G01*
X119436054Y-92418310D01*
X119436054Y-93548639D01*
X120789569Y-93548639D01*
X120789569Y-93973413D01*
X119436054Y-93973413D01*
X119436054Y-95132540D01*
X121120748Y-95132540D01*
X121120748Y-95564512D01*
X118896088Y-95564512D01*
X118896088Y-91986338D01*
X121120748Y-91986338D01*
X121120748Y-92418310D01*
G37*
G36*
X117009026Y-99132722D02*
G01*
X117077981Y-99142584D01*
X117152450Y-99160416D01*
X117235191Y-99186631D01*
X117245795Y-99190355D01*
X117331551Y-99217913D01*
X117411120Y-99236936D01*
X117487524Y-99247512D01*
X117563787Y-99249726D01*
X117642931Y-99243667D01*
X117727980Y-99229422D01*
X117821955Y-99207076D01*
X117822427Y-99206951D01*
X117854703Y-99198744D01*
X117881610Y-99192580D01*
X117900286Y-99189066D01*
X117907836Y-99188769D01*
X117904189Y-99194232D01*
X117890435Y-99205100D01*
X117869063Y-99219798D01*
X117842560Y-99236753D01*
X117813416Y-99254391D01*
X117784117Y-99271137D01*
X117757152Y-99285417D01*
X117748018Y-99289878D01*
X117696166Y-99312880D01*
X117650487Y-99329036D01*
X117605874Y-99339548D01*
X117557222Y-99345621D01*
X117499424Y-99348457D01*
X117499376Y-99348458D01*
X117442154Y-99348801D01*
X117396757Y-99346517D01*
X117360831Y-99341473D01*
X117355385Y-99340307D01*
X117322494Y-99332361D01*
X117290949Y-99323497D01*
X117257438Y-99312614D01*
X117218649Y-99298609D01*
X117171271Y-99280381D01*
X117149668Y-99271857D01*
X117081271Y-99247099D01*
X117017042Y-99229352D01*
X116954445Y-99218553D01*
X116890942Y-99214643D01*
X116823997Y-99217560D01*
X116751073Y-99227242D01*
X116669632Y-99243628D01*
X116607379Y-99258752D01*
X116575053Y-99266698D01*
X116548135Y-99272683D01*
X116529486Y-99276114D01*
X116521998Y-99276438D01*
X116525218Y-99270712D01*
X116538891Y-99260212D01*
X116560501Y-99246417D01*
X116587532Y-99230810D01*
X116617466Y-99214869D01*
X116647789Y-99200076D01*
X116664229Y-99192748D01*
X116724943Y-99168977D01*
X116781360Y-99152131D01*
X116840550Y-99140299D01*
X116876615Y-99135263D01*
X116942824Y-99130419D01*
X117009026Y-99132722D01*
G37*
G36*
X129930636Y-97642985D02*
G01*
X129976347Y-97644815D01*
X130018649Y-97648465D01*
X130060064Y-97654424D01*
X130103110Y-97663185D01*
X130150308Y-97675238D01*
X130204178Y-97691073D01*
X130267239Y-97711181D01*
X130317842Y-97727943D01*
X130386219Y-97750369D01*
X130443961Y-97768125D01*
X130493837Y-97781800D01*
X130538617Y-97791987D01*
X130581068Y-97799275D01*
X130623961Y-97804258D01*
X130670064Y-97807525D01*
X130696322Y-97808746D01*
X130790938Y-97808724D01*
X130889125Y-97800926D01*
X130992977Y-97785051D01*
X131104590Y-97760803D01*
X131189059Y-97738517D01*
X131220391Y-97730074D01*
X131246300Y-97723759D01*
X131263870Y-97720240D01*
X131270117Y-97719985D01*
X131267392Y-97726424D01*
X131253716Y-97738220D01*
X131230997Y-97754247D01*
X131201140Y-97773376D01*
X131166053Y-97794482D01*
X131127641Y-97816436D01*
X131087811Y-97838113D01*
X131048470Y-97858384D01*
X131011524Y-97876124D01*
X130989670Y-97885774D01*
X130921483Y-97912060D01*
X130857604Y-97930783D01*
X130792990Y-97942995D01*
X130722601Y-97949751D01*
X130674546Y-97951645D01*
X130610239Y-97951979D01*
X130556128Y-97949891D01*
X130514085Y-97945464D01*
X130508957Y-97944606D01*
X130424313Y-97926111D01*
X130332861Y-97899800D01*
X130238965Y-97866937D01*
X130231774Y-97864178D01*
X130160790Y-97836998D01*
X130100990Y-97814830D01*
X130050256Y-97797172D01*
X130006470Y-97783524D01*
X129967514Y-97773383D01*
X129931270Y-97766250D01*
X129895620Y-97761623D01*
X129858446Y-97759000D01*
X129817630Y-97757882D01*
X129781803Y-97757732D01*
X129725752Y-97758842D01*
X129671916Y-97762222D01*
X129617512Y-97768293D01*
X129559760Y-97777480D01*
X129495877Y-97790204D01*
X129423083Y-97806890D01*
X129366029Y-97820979D01*
X129326175Y-97830787D01*
X129291625Y-97838811D01*
X129264591Y-97844576D01*
X129247279Y-97847610D01*
X129241837Y-97847604D01*
X129248087Y-97839717D01*
X129265418Y-97827200D01*
X129291702Y-97811151D01*
X129324812Y-97792671D01*
X129362618Y-97772860D01*
X129402994Y-97752818D01*
X129443810Y-97733645D01*
X129482940Y-97716441D01*
X129518255Y-97702307D01*
X129533418Y-97696870D01*
X129599396Y-97676058D01*
X129660144Y-97660936D01*
X129720187Y-97650793D01*
X129784049Y-97644916D01*
X129856252Y-97642595D01*
X129878996Y-97642485D01*
X129930636Y-97642985D01*
G37*
G36*
X119794656Y-99239639D02*
G01*
X120448438Y-97641581D01*
X120663275Y-97641581D01*
X121316724Y-99232681D01*
X121376181Y-99377465D01*
X121434216Y-99518807D01*
X121490591Y-99656125D01*
X121545066Y-99788837D01*
X121597402Y-99916359D01*
X121647361Y-100038108D01*
X121694703Y-100153501D01*
X121739189Y-100261955D01*
X121780580Y-100362887D01*
X121818637Y-100455715D01*
X121853121Y-100539855D01*
X121883794Y-100614723D01*
X121910415Y-100679739D01*
X121932746Y-100734317D01*
X121950548Y-100777875D01*
X121963581Y-100809831D01*
X121971608Y-100829601D01*
X121974375Y-100836557D01*
X121975044Y-100841222D01*
X121972209Y-100844534D01*
X121963937Y-100846669D01*
X121948294Y-100847808D01*
X121923347Y-100848128D01*
X121887163Y-100847808D01*
X121857559Y-100847356D01*
X121736542Y-100845380D01*
X121544524Y-100370210D01*
X121511656Y-100288883D01*
X121479489Y-100209311D01*
X121448569Y-100132845D01*
X121419444Y-100060833D01*
X121392658Y-99994626D01*
X121368759Y-99935573D01*
X121348293Y-99885026D01*
X121331804Y-99844332D01*
X121319841Y-99814843D01*
X121315126Y-99803245D01*
X121277745Y-99711451D01*
X119833782Y-99711451D01*
X119696829Y-100051630D01*
X119666043Y-100128104D01*
X119633491Y-100208970D01*
X119600248Y-100291559D01*
X119567388Y-100373200D01*
X119535986Y-100451224D01*
X119507117Y-100522960D01*
X119481855Y-100585740D01*
X119467912Y-100620394D01*
X119375948Y-100848979D01*
X119258410Y-100848979D01*
X119219099Y-100848653D01*
X119185372Y-100847750D01*
X119159615Y-100846385D01*
X119144215Y-100844672D01*
X119140873Y-100843338D01*
X119143561Y-100836255D01*
X119151470Y-100816424D01*
X119164363Y-100784426D01*
X119182003Y-100740838D01*
X119204156Y-100686239D01*
X119230585Y-100621208D01*
X119261055Y-100546324D01*
X119295329Y-100462166D01*
X119333172Y-100369311D01*
X119374347Y-100268339D01*
X119418619Y-100159829D01*
X119465752Y-100044358D01*
X119515510Y-99922506D01*
X119567656Y-99794852D01*
X119621956Y-99661974D01*
X119678173Y-99524451D01*
X119685221Y-99507214D01*
X119911224Y-99507214D01*
X119918254Y-99507606D01*
X119938660Y-99507980D01*
X119971423Y-99508332D01*
X120015519Y-99508659D01*
X120069927Y-99508955D01*
X120133626Y-99509217D01*
X120205594Y-99509440D01*
X120284809Y-99509621D01*
X120370249Y-99509755D01*
X120460893Y-99509837D01*
X120551984Y-99509864D01*
X120646667Y-99509825D01*
X120737129Y-99509712D01*
X120822347Y-99509531D01*
X120901300Y-99509288D01*
X120972967Y-99508987D01*
X121036326Y-99508636D01*
X121090354Y-99508238D01*
X121134031Y-99507801D01*
X121166334Y-99507329D01*
X121186242Y-99506829D01*
X121192744Y-99506326D01*
X121190143Y-99499237D01*
X121182612Y-99479806D01*
X121170561Y-99449066D01*
X121154396Y-99408046D01*
X121134527Y-99357778D01*
X121111361Y-99299295D01*
X121085307Y-99233627D01*
X121056772Y-99161806D01*
X121026166Y-99084863D01*
X120993897Y-99003830D01*
X120988289Y-98989758D01*
X120934324Y-98854252D01*
X120885390Y-98731174D01*
X120841126Y-98619601D01*
X120801168Y-98518610D01*
X120765156Y-98427278D01*
X120732727Y-98344682D01*
X120703519Y-98269898D01*
X120677171Y-98202005D01*
X120653319Y-98140078D01*
X120631603Y-98083196D01*
X120611660Y-98030434D01*
X120603530Y-98008758D01*
X120587009Y-97965445D01*
X120574487Y-97934700D01*
X120565433Y-97915423D01*
X120559321Y-97906513D01*
X120555620Y-97906869D01*
X120555120Y-97907965D01*
X120534724Y-97962409D01*
X120509698Y-98027742D01*
X120480988Y-98101578D01*
X120449538Y-98181529D01*
X120416294Y-98265208D01*
X120382199Y-98350229D01*
X120348199Y-98434205D01*
X120315239Y-98514748D01*
X120307166Y-98534325D01*
X120285224Y-98587541D01*
X120260662Y-98647279D01*
X120233970Y-98712334D01*
X120205641Y-98781499D01*
X120176165Y-98853567D01*
X120146034Y-98927331D01*
X120115737Y-99001584D01*
X120085767Y-99075120D01*
X120056615Y-99146733D01*
X120028772Y-99215215D01*
X120002728Y-99279359D01*
X119978975Y-99337959D01*
X119958005Y-99389809D01*
X119940307Y-99433701D01*
X119926374Y-99468428D01*
X119916696Y-99492785D01*
X119911764Y-99505564D01*
X119911224Y-99507214D01*
X119685221Y-99507214D01*
X119736071Y-99382861D01*
X119794656Y-99239639D01*
G37*
G36*
X110348427Y-97638022D02*
G01*
X110490734Y-97638488D01*
X110619684Y-97639931D01*
X110736293Y-97642475D01*
X110841576Y-97646243D01*
X110936550Y-97651358D01*
X111022231Y-97657942D01*
X111099636Y-97666120D01*
X111169779Y-97676013D01*
X111233679Y-97687745D01*
X111292350Y-97701439D01*
X111346808Y-97717219D01*
X111398071Y-97735206D01*
X111447154Y-97755525D01*
X111491355Y-97776432D01*
X111565299Y-97817887D01*
X111635231Y-97865763D01*
X111698536Y-97917921D01*
X111752599Y-97972223D01*
X111791956Y-98022280D01*
X111837237Y-98101315D01*
X111871251Y-98188709D01*
X111894040Y-98284655D01*
X111905648Y-98389348D01*
X111906115Y-98502982D01*
X111904257Y-98536406D01*
X111891025Y-98640988D01*
X111866102Y-98737171D01*
X111829500Y-98824935D01*
X111781235Y-98904264D01*
X111721322Y-98975141D01*
X111649774Y-99037549D01*
X111566607Y-99091470D01*
X111471834Y-99136888D01*
X111365471Y-99173786D01*
X111363084Y-99174478D01*
X111306201Y-99190900D01*
X111372964Y-99195940D01*
X111481452Y-99210158D01*
X111581648Y-99235628D01*
X111673169Y-99272046D01*
X111755628Y-99319114D01*
X111828641Y-99376528D01*
X111891824Y-99443989D01*
X111944792Y-99521194D01*
X111987160Y-99607843D01*
X112017770Y-99700652D01*
X112027470Y-99748369D01*
X112034880Y-99806107D01*
X112039802Y-99869638D01*
X112042038Y-99934739D01*
X112041389Y-99997181D01*
X112037658Y-100052741D01*
X112035195Y-100072520D01*
X112013242Y-100173917D01*
X111977742Y-100273214D01*
X111929540Y-100368720D01*
X111869483Y-100458745D01*
X111802895Y-100536943D01*
X111727684Y-100607956D01*
X111647731Y-100667967D01*
X111561569Y-100717684D01*
X111467732Y-100757814D01*
X111364752Y-100789064D01*
X111251164Y-100812142D01*
X111223687Y-100816324D01*
X111187754Y-100821295D01*
X111153003Y-100825625D01*
X111118101Y-100829370D01*
X111081714Y-100832586D01*
X111042511Y-100835330D01*
X110999156Y-100837658D01*
X110950319Y-100839626D01*
X110894665Y-100841291D01*
X110830862Y-100842708D01*
X110757577Y-100843934D01*
X110673476Y-100845025D01*
X110577226Y-100846037D01*
X110503217Y-100846718D01*
X110019047Y-100850983D01*
X110019047Y-100647392D01*
X110235034Y-100647392D01*
X110560813Y-100647363D01*
X110632408Y-100647188D01*
X110703262Y-100646701D01*
X110771288Y-100645937D01*
X110834400Y-100644933D01*
X110890508Y-100643724D01*
X110937525Y-100642348D01*
X110973363Y-100640840D01*
X110987386Y-100639979D01*
X111115803Y-100627162D01*
X111231411Y-100608322D01*
X111334532Y-100583342D01*
X111425493Y-100552101D01*
X111504615Y-100514483D01*
X111572223Y-100470368D01*
X111628640Y-100419638D01*
X111647257Y-100398547D01*
X111694389Y-100331912D01*
X111735098Y-100254692D01*
X111768032Y-100169775D01*
X111788091Y-100097297D01*
X111793438Y-100064217D01*
X111797254Y-100020950D01*
X111799501Y-99971475D01*
X111800139Y-99919775D01*
X111799128Y-99869828D01*
X111796428Y-99825615D01*
X111792000Y-99791117D01*
X111791188Y-99787046D01*
X111766686Y-99695289D01*
X111734286Y-99615209D01*
X111693290Y-99546015D01*
X111642999Y-99486914D01*
X111582714Y-99437115D01*
X111511738Y-99395824D01*
X111429371Y-99362251D01*
X111411492Y-99356400D01*
X111385673Y-99348447D01*
X111361308Y-99341531D01*
X111337202Y-99335572D01*
X111312158Y-99330490D01*
X111284982Y-99326206D01*
X111254476Y-99322639D01*
X111219445Y-99319709D01*
X111178693Y-99317337D01*
X111131024Y-99315443D01*
X111075242Y-99313947D01*
X111010151Y-99312769D01*
X110934555Y-99311829D01*
X110847258Y-99311047D01*
X110747064Y-99310344D01*
X110719203Y-99310167D01*
X110235034Y-99307134D01*
X110235034Y-100647392D01*
X110019047Y-100647392D01*
X110019047Y-99108179D01*
X110235034Y-99108179D01*
X110632809Y-99104766D01*
X110723911Y-99103913D01*
X110801881Y-99103013D01*
X110867989Y-99102022D01*
X110923501Y-99100901D01*
X110969687Y-99099608D01*
X111007812Y-99098102D01*
X111039147Y-99096342D01*
X111064958Y-99094287D01*
X111086513Y-99091896D01*
X111102579Y-99089546D01*
X111178419Y-99075114D01*
X111243467Y-99058164D01*
X111301251Y-99037666D01*
X111340164Y-99020217D01*
X111419446Y-98974341D01*
X111487529Y-98919581D01*
X111544497Y-98855809D01*
X111590432Y-98782898D01*
X111625419Y-98700723D01*
X111649541Y-98609155D01*
X111660668Y-98533107D01*
X111664169Y-98449599D01*
X111658327Y-98365729D01*
X111643725Y-98284754D01*
X111620944Y-98209931D01*
X111591615Y-98146369D01*
X111555764Y-98094733D01*
X111508133Y-98044674D01*
X111451328Y-97998349D01*
X111387958Y-97957912D01*
X111328372Y-97928718D01*
X111281997Y-97910706D01*
X111233362Y-97895091D01*
X111181221Y-97881734D01*
X111124329Y-97870498D01*
X111061443Y-97861246D01*
X110991317Y-97853837D01*
X110912707Y-97848136D01*
X110824369Y-97844003D01*
X110725056Y-97841300D01*
X110613526Y-97839891D01*
X110524816Y-97839598D01*
X110235034Y-97839569D01*
X110235034Y-99108179D01*
X110019047Y-99108179D01*
X110019047Y-97637982D01*
X110348427Y-97638022D01*
G37*
G36*
X117236946Y-100532821D02*
G01*
X117282501Y-100537055D01*
X117325879Y-100543091D01*
X117369796Y-100551575D01*
X117416966Y-100563155D01*
X117470104Y-100578477D01*
X117531925Y-100598187D01*
X117582171Y-100615062D01*
X117654158Y-100638894D01*
X117716124Y-100657679D01*
X117771227Y-100672168D01*
X117822626Y-100683113D01*
X117873479Y-100691264D01*
X117926947Y-100697372D01*
X117929186Y-100697585D01*
X118010006Y-100701029D01*
X118100316Y-100697307D01*
X118197217Y-100686589D01*
X118244529Y-100679129D01*
X118270657Y-100674074D01*
X118305353Y-100666589D01*
X118345667Y-100657393D01*
X118388649Y-100647204D01*
X118431350Y-100636741D01*
X118470821Y-100626724D01*
X118504111Y-100617871D01*
X118528271Y-100610900D01*
X118537911Y-100607630D01*
X118550042Y-100604208D01*
X118550929Y-100607636D01*
X118541493Y-100617057D01*
X118522652Y-100631614D01*
X118495328Y-100650451D01*
X118483880Y-100657930D01*
X118374596Y-100722386D01*
X118267771Y-100773008D01*
X118162680Y-100810005D01*
X118058600Y-100833588D01*
X117954806Y-100843964D01*
X117850575Y-100841344D01*
X117849530Y-100841253D01*
X117788955Y-100833977D01*
X117726832Y-100822352D01*
X117660932Y-100805758D01*
X117589026Y-100783578D01*
X117508885Y-100755193D01*
X117431700Y-100725357D01*
X117372776Y-100702350D01*
X117323557Y-100684619D01*
X117280634Y-100671490D01*
X117240599Y-100662292D01*
X117200045Y-100656351D01*
X117155563Y-100652994D01*
X117103744Y-100651549D01*
X117056604Y-100651316D01*
X117002760Y-100651668D01*
X116956617Y-100652921D01*
X116915171Y-100655487D01*
X116875416Y-100659778D01*
X116834345Y-100666205D01*
X116788954Y-100675180D01*
X116736238Y-100687115D01*
X116673189Y-100702420D01*
X116660629Y-100705535D01*
X116621086Y-100715410D01*
X116585813Y-100724301D01*
X116557463Y-100731535D01*
X116538690Y-100736436D01*
X116532837Y-100738063D01*
X116521211Y-100739996D01*
X116521020Y-100735540D01*
X116531330Y-100725677D01*
X116551207Y-100711389D01*
X116568835Y-100700184D01*
X116683820Y-100637681D01*
X116801105Y-100589382D01*
X116920666Y-100555293D01*
X117042478Y-100535421D01*
X117166517Y-100529770D01*
X117236946Y-100532821D01*
G37*
G36*
X116239456Y-100848979D02*
G01*
X116023469Y-100848979D01*
X116023469Y-97637982D01*
X116239456Y-97637982D01*
X116239456Y-100848979D01*
G37*
G36*
X128968254Y-100848979D02*
G01*
X128745068Y-100848979D01*
X128745068Y-97637982D01*
X128968254Y-97637982D01*
X128968254Y-100848979D01*
G37*
G36*
X113541426Y-97640008D02*
G01*
X113640638Y-97640813D01*
X113733529Y-97641793D01*
X113819076Y-97642928D01*
X113896254Y-97644196D01*
X113964038Y-97645578D01*
X114021403Y-97647052D01*
X114067327Y-97648598D01*
X114100784Y-97650195D01*
X114119189Y-97651636D01*
X114243678Y-97670833D01*
X114361572Y-97699430D01*
X114471738Y-97736958D01*
X114573047Y-97782947D01*
X114664368Y-97836928D01*
X114744571Y-97898433D01*
X114769734Y-97921581D01*
X114834697Y-97992817D01*
X114887577Y-98069779D01*
X114928979Y-98153703D01*
X114959511Y-98245822D01*
X114979778Y-98347371D01*
X114980128Y-98349826D01*
X114984060Y-98391712D01*
X114985847Y-98443305D01*
X114985635Y-98500724D01*
X114983572Y-98560091D01*
X114979804Y-98617523D01*
X114974476Y-98669142D01*
X114967736Y-98711068D01*
X114966240Y-98717914D01*
X114934835Y-98824687D01*
X114891760Y-98923312D01*
X114836454Y-99014799D01*
X114768357Y-99100161D01*
X114734750Y-99135487D01*
X114655746Y-99206589D01*
X114571777Y-99266358D01*
X114481476Y-99315428D01*
X114383473Y-99354435D01*
X114276400Y-99384013D01*
X114158888Y-99404796D01*
X114151588Y-99405762D01*
X114117537Y-99410274D01*
X114089270Y-99414175D01*
X114069512Y-99417079D01*
X114060986Y-99418598D01*
X114060846Y-99418669D01*
X114065116Y-99424365D01*
X114077761Y-99440697D01*
X114098247Y-99466985D01*
X114126044Y-99502552D01*
X114160619Y-99546718D01*
X114201440Y-99598805D01*
X114247974Y-99658134D01*
X114299689Y-99724028D01*
X114356054Y-99795807D01*
X114416535Y-99872792D01*
X114480601Y-99954307D01*
X114547720Y-100039670D01*
X114617011Y-100127764D01*
X114686685Y-100216379D01*
X114753843Y-100301897D01*
X114817953Y-100383634D01*
X114878481Y-100460905D01*
X114934892Y-100533024D01*
X114986652Y-100599307D01*
X115033229Y-100659068D01*
X115074087Y-100711623D01*
X115108693Y-100756287D01*
X115136514Y-100792374D01*
X115157015Y-100819200D01*
X115169662Y-100836080D01*
X115173923Y-100842319D01*
X115167039Y-100844553D01*
X115147647Y-100846391D01*
X115117634Y-100847740D01*
X115078887Y-100848511D01*
X115042531Y-100848649D01*
X114911139Y-100848319D01*
X114353174Y-100143579D01*
X113795210Y-99438839D01*
X113523427Y-99438353D01*
X113251644Y-99437868D01*
X113251644Y-100848979D01*
X113035657Y-100848979D01*
X113035657Y-99243481D01*
X113251644Y-99243481D01*
X113473030Y-99243351D01*
X113537164Y-99243067D01*
X113604734Y-99242332D01*
X113672148Y-99241215D01*
X113735816Y-99239786D01*
X113792148Y-99238115D01*
X113836259Y-99236333D01*
X113969448Y-99226818D01*
X114090001Y-99211685D01*
X114198638Y-99190691D01*
X114296082Y-99163593D01*
X114383055Y-99130148D01*
X114460277Y-99090114D01*
X114528471Y-99043247D01*
X114588358Y-98989304D01*
X114596902Y-98980338D01*
X114646081Y-98917773D01*
X114687333Y-98844805D01*
X114720108Y-98763393D01*
X114743857Y-98675501D01*
X114758029Y-98583090D01*
X114762077Y-98488120D01*
X114757260Y-98407905D01*
X114743358Y-98322472D01*
X114720766Y-98245275D01*
X114688977Y-98175918D01*
X114647481Y-98114004D01*
X114595770Y-98059138D01*
X114533337Y-98010923D01*
X114459671Y-97968962D01*
X114374265Y-97932859D01*
X114276610Y-97902218D01*
X114166198Y-97876642D01*
X114050463Y-97856885D01*
X114027395Y-97853914D01*
X114001024Y-97851373D01*
X113969957Y-97849213D01*
X113932803Y-97847385D01*
X113888169Y-97845841D01*
X113834663Y-97844533D01*
X113770893Y-97843412D01*
X113695467Y-97842430D01*
X113609821Y-97841564D01*
X113251644Y-97838309D01*
X113251644Y-99243481D01*
X113035657Y-99243481D01*
X113035657Y-97636483D01*
X113541426Y-97640008D01*
G37*
G36*
X113476630Y-91986344D02*
G01*
X113600379Y-91986410D01*
X113710824Y-91986653D01*
X113809057Y-91987137D01*
X113896172Y-91987931D01*
X113973263Y-91989100D01*
X114041423Y-91990713D01*
X114101747Y-91992834D01*
X114155327Y-91995533D01*
X114203258Y-91998874D01*
X114246632Y-92002926D01*
X114286544Y-92007755D01*
X114324088Y-92013427D01*
X114360356Y-92020010D01*
X114396442Y-92027571D01*
X114433441Y-92036175D01*
X114472445Y-92045891D01*
X114479166Y-92047610D01*
X114604922Y-92085690D01*
X114719872Y-92132582D01*
X114823833Y-92188132D01*
X114916617Y-92252183D01*
X114998038Y-92324581D01*
X115067910Y-92405170D01*
X115126048Y-92493794D01*
X115172264Y-92590299D01*
X115190942Y-92641760D01*
X115210352Y-92706662D01*
X115224466Y-92767988D01*
X115233904Y-92829987D01*
X115239286Y-92896910D01*
X115241231Y-92973006D01*
X115241264Y-92987075D01*
X115235735Y-93110521D01*
X115219009Y-93225401D01*
X115190720Y-93332639D01*
X115150501Y-93433156D01*
X115097986Y-93527876D01*
X115032809Y-93617723D01*
X114958137Y-93700095D01*
X114867276Y-93780948D01*
X114766247Y-93852052D01*
X114655916Y-93912909D01*
X114537148Y-93963024D01*
X114452316Y-93990623D01*
X114395681Y-94006974D01*
X114423025Y-94025940D01*
X114441703Y-94040663D01*
X114465275Y-94061668D01*
X114488900Y-94084623D01*
X114490783Y-94086554D01*
X114498512Y-94095951D01*
X114513859Y-94115921D01*
X114536207Y-94145613D01*
X114564935Y-94184176D01*
X114599425Y-94230757D01*
X114639057Y-94284506D01*
X114683212Y-94344571D01*
X114731271Y-94410099D01*
X114782615Y-94480240D01*
X114836625Y-94554142D01*
X114892682Y-94630954D01*
X114950165Y-94709823D01*
X115008458Y-94789899D01*
X115066939Y-94870330D01*
X115124990Y-94950263D01*
X115181992Y-95028848D01*
X115237326Y-95105234D01*
X115290372Y-95178567D01*
X115340511Y-95247998D01*
X115387124Y-95312674D01*
X115429593Y-95371743D01*
X115467297Y-95424355D01*
X115499618Y-95469658D01*
X115525937Y-95506799D01*
X115545634Y-95534928D01*
X115558090Y-95553193D01*
X115562686Y-95560742D01*
X115562698Y-95560828D01*
X115555762Y-95561659D01*
X115536004Y-95562424D01*
X115505003Y-95563103D01*
X115464335Y-95563672D01*
X115415580Y-95564111D01*
X115360315Y-95564398D01*
X115300117Y-95564511D01*
X115293998Y-95564512D01*
X115218662Y-95564446D01*
X115156227Y-95564102D01*
X115105194Y-95563266D01*
X115064066Y-95561722D01*
X115031343Y-95559255D01*
X115005528Y-95555649D01*
X114985122Y-95550688D01*
X114968627Y-95544158D01*
X114954544Y-95535842D01*
X114941376Y-95525525D01*
X114927624Y-95512993D01*
X114926161Y-95511611D01*
X114917780Y-95501778D01*
X114901670Y-95480988D01*
X114878412Y-95450043D01*
X114848588Y-95409744D01*
X114812781Y-95360893D01*
X114771573Y-95304292D01*
X114725544Y-95240741D01*
X114675277Y-95171044D01*
X114621354Y-95096000D01*
X114564357Y-95016412D01*
X114504868Y-94933081D01*
X114443468Y-94846810D01*
X114439310Y-94840958D01*
X114377834Y-94754525D01*
X114318271Y-94670969D01*
X114261200Y-94591093D01*
X114207200Y-94515697D01*
X114156849Y-94445585D01*
X114110726Y-94381557D01*
X114069410Y-94324416D01*
X114033480Y-94274964D01*
X114003514Y-94234002D01*
X113980092Y-94202332D01*
X113963791Y-94180756D01*
X113955191Y-94170077D01*
X113954898Y-94169764D01*
X113931822Y-94149040D01*
X113905651Y-94130269D01*
X113892865Y-94122967D01*
X113883153Y-94118383D01*
X113873302Y-94114723D01*
X113861600Y-94111863D01*
X113846330Y-94109678D01*
X113825778Y-94108046D01*
X113798230Y-94106842D01*
X113761970Y-94105942D01*
X113715284Y-94105222D01*
X113656457Y-94104559D01*
X113635020Y-94104341D01*
X113410034Y-94102078D01*
X113410034Y-95564512D01*
X112877267Y-95564512D01*
X112877267Y-93707029D01*
X113410034Y-93707029D01*
X113691100Y-93707029D01*
X113756675Y-93706835D01*
X113820557Y-93706280D01*
X113880647Y-93705410D01*
X113934848Y-93704270D01*
X113981061Y-93702903D01*
X114017190Y-93701355D01*
X114041135Y-93699670D01*
X114042078Y-93699572D01*
X114158853Y-93680618D01*
X114269414Y-93649475D01*
X114372693Y-93606474D01*
X114416129Y-93583558D01*
X114453051Y-93559203D01*
X114493728Y-93526616D01*
X114534853Y-93488986D01*
X114573116Y-93449506D01*
X114605209Y-93411365D01*
X114625710Y-93381457D01*
X114665446Y-93300547D01*
X114694188Y-93213504D01*
X114711838Y-93122601D01*
X114718297Y-93030111D01*
X114713468Y-92938305D01*
X114697253Y-92849456D01*
X114669553Y-92765837D01*
X114653804Y-92731491D01*
X114610770Y-92661681D01*
X114555961Y-92600137D01*
X114489405Y-92546875D01*
X114411131Y-92501912D01*
X114321165Y-92465264D01*
X114219535Y-92436947D01*
X114137188Y-92421421D01*
X114113763Y-92418318D01*
X114085678Y-92415657D01*
X114051555Y-92413384D01*
X114010016Y-92411447D01*
X113959683Y-92409792D01*
X113899178Y-92408366D01*
X113827125Y-92407116D01*
X113742145Y-92405988D01*
X113735813Y-92405914D01*
X113410034Y-92402127D01*
X113410034Y-93707029D01*
X112877267Y-93707029D01*
X112877267Y-91986338D01*
X113476630Y-91986344D01*
G37*
G36*
X130000219Y-100537128D02*
G01*
X130125060Y-100559066D01*
X130251304Y-100595225D01*
X130270195Y-100601821D01*
X130364492Y-100634064D01*
X130448688Y-100659521D01*
X130525154Y-100678600D01*
X130596264Y-100691710D01*
X130664387Y-100699258D01*
X130731896Y-100701653D01*
X130801163Y-100699304D01*
X130825737Y-100697480D01*
X130875272Y-100692044D01*
X130932521Y-100683617D01*
X130994318Y-100672858D01*
X131057499Y-100660421D01*
X131118898Y-100646964D01*
X131175351Y-100633143D01*
X131223692Y-100619614D01*
X131259509Y-100607519D01*
X131269823Y-100606646D01*
X131272109Y-100609931D01*
X131266088Y-100617511D01*
X131249364Y-100630592D01*
X131223941Y-100647908D01*
X131191827Y-100668194D01*
X131155026Y-100690184D01*
X131115546Y-100712611D01*
X131075391Y-100734211D01*
X131074121Y-100734872D01*
X130966215Y-100783869D01*
X130858386Y-100818504D01*
X130750466Y-100838814D01*
X130642286Y-100844835D01*
X130573753Y-100841291D01*
X130520741Y-100835165D01*
X130469191Y-100826481D01*
X130416557Y-100814546D01*
X130360297Y-100798665D01*
X130297865Y-100778145D01*
X130226719Y-100752293D01*
X130176101Y-100732887D01*
X130114460Y-100709209D01*
X130063183Y-100690566D01*
X130019382Y-100676362D01*
X129980167Y-100666006D01*
X129942649Y-100658901D01*
X129903940Y-100654455D01*
X129861150Y-100652073D01*
X129811391Y-100651161D01*
X129778203Y-100651072D01*
X129725821Y-100651458D01*
X129680074Y-100652821D01*
X129638222Y-100655559D01*
X129597521Y-100660074D01*
X129555229Y-100666766D01*
X129508604Y-100676035D01*
X129454903Y-100688282D01*
X129391385Y-100703907D01*
X129357543Y-100712485D01*
X129319685Y-100721903D01*
X129286967Y-100729595D01*
X129261810Y-100735026D01*
X129246639Y-100737662D01*
X129243303Y-100737653D01*
X129246951Y-100732188D01*
X129261205Y-100721448D01*
X129283876Y-100706760D01*
X129312773Y-100689449D01*
X129345706Y-100670843D01*
X129380484Y-100652267D01*
X129403826Y-100640449D01*
X129518753Y-100591412D01*
X129636049Y-100556552D01*
X129755521Y-100535879D01*
X129876975Y-100529402D01*
X130000219Y-100537128D01*
G37*
G36*
X125591666Y-99092290D02*
G01*
X127434750Y-99092290D01*
X127434750Y-97637982D01*
X127657936Y-97637982D01*
X127657936Y-100848979D01*
X127434750Y-100848979D01*
X127434750Y-99293877D01*
X125591666Y-99293877D01*
X125591666Y-100848979D01*
X125368481Y-100848979D01*
X125368481Y-97637982D01*
X125591666Y-97637982D01*
X125591666Y-99092290D01*
G37*
G36*
X117205294Y-97642791D02*
G01*
X117253850Y-97644900D01*
X117298708Y-97649105D01*
X117342713Y-97655938D01*
X117388708Y-97665934D01*
X117439536Y-97679623D01*
X117498040Y-97697539D01*
X117567063Y-97720214D01*
X117567772Y-97720452D01*
X117638263Y-97743790D01*
X117697742Y-97762578D01*
X117748687Y-97777299D01*
X117793578Y-97788432D01*
X117834894Y-97796459D01*
X117875114Y-97801863D01*
X117916717Y-97805124D01*
X117962181Y-97806725D01*
X118013987Y-97807145D01*
X118014144Y-97807145D01*
X118075296Y-97806399D01*
X118130689Y-97803880D01*
X118183289Y-97799131D01*
X118236068Y-97791695D01*
X118291992Y-97781115D01*
X118354033Y-97766934D01*
X118425157Y-97748695D01*
X118466581Y-97737493D01*
X118498062Y-97729276D01*
X118524179Y-97723226D01*
X118541991Y-97719975D01*
X118548465Y-97719931D01*
X118544367Y-97725096D01*
X118530343Y-97736214D01*
X118508666Y-97751590D01*
X118484804Y-97767462D01*
X118377239Y-97831326D01*
X118272554Y-97881550D01*
X118169920Y-97918407D01*
X118068510Y-97942171D01*
X117967498Y-97953116D01*
X117921407Y-97953927D01*
X117888012Y-97953405D01*
X117859348Y-97952637D01*
X117838847Y-97951734D01*
X117830555Y-97950976D01*
X117818492Y-97948853D01*
X117796646Y-97945207D01*
X117769454Y-97940778D01*
X117765759Y-97940183D01*
X117711720Y-97929081D01*
X117647474Y-97911738D01*
X117575407Y-97888895D01*
X117497905Y-97861293D01*
X117442726Y-97839947D01*
X117375661Y-97814230D01*
X117317407Y-97794459D01*
X117264187Y-97779587D01*
X117212227Y-97768567D01*
X117157750Y-97760353D01*
X117153798Y-97759863D01*
X117080900Y-97754995D01*
X116999129Y-97757299D01*
X116907722Y-97766864D01*
X116805919Y-97783782D01*
X116692957Y-97808143D01*
X116640830Y-97820913D01*
X116601600Y-97830541D01*
X116567705Y-97838300D01*
X116541384Y-97843723D01*
X116524879Y-97846344D01*
X116520238Y-97846045D01*
X116526548Y-97837515D01*
X116544093Y-97824542D01*
X116570800Y-97808174D01*
X116604591Y-97789459D01*
X116643394Y-97769445D01*
X116685131Y-97749181D01*
X116727729Y-97729714D01*
X116769112Y-97712093D01*
X116807204Y-97697365D01*
X116830080Y-97689565D01*
X116891435Y-97671448D01*
X116946866Y-97658358D01*
X117001001Y-97649612D01*
X117058470Y-97644524D01*
X117123902Y-97642411D01*
X117150198Y-97642247D01*
X117205294Y-97642791D01*
G37*
%TO.C,R7*%
X112312258Y-87072500D02*
X111837742Y-87072500D01*
X112312258Y-86027500D02*
X111837742Y-86027500D01*
%TO.C,C23*%
X134888037Y-145666746D02*
X135028617Y-145423254D01*
X135771383Y-146176746D02*
X135911963Y-145933254D01*
%TO.C,TH2*%
X105947936Y-105415000D02*
X106402064Y-105415000D01*
X105947936Y-106885000D02*
X106402064Y-106885000D01*
%TO.C,R10*%
X119612742Y-86077500D02*
X120087258Y-86077500D01*
X119612742Y-87122500D02*
X120087258Y-87122500D01*
D13*
%TO.C,U4*%
X133074211Y-154061789D02*
X151111789Y-164475789D01*
X161525789Y-146438211D02*
X143488211Y-136024211D01*
X143488211Y-136024211D02*
X133074211Y-154061789D01*
X151111789Y-164475789D02*
X161525789Y-146438211D01*
D11*
X141033975Y-159276279D02*
G75*
G03*
X141033975Y-159276279I-100000J0D01*
G01*
D14*
%TO.C,C3*%
X115215580Y-68890000D02*
X114934420Y-68890000D01*
X115215580Y-69910000D02*
X114934420Y-69910000D01*
%TO.C,C28*%
X98666746Y-160188037D02*
X98423254Y-160328617D01*
X99176746Y-161071383D02*
X98933254Y-161211963D01*
%TO.C,R1*%
X116277500Y-74487258D02*
X116277500Y-74012742D01*
X117322500Y-74487258D02*
X117322500Y-74012742D01*
%TO.C,R11*%
X107822500Y-60412258D02*
X107822500Y-59937742D01*
X106777500Y-60412258D02*
X106777500Y-59937742D01*
%TO.C,R19*%
X130716373Y-130758692D02*
X130953631Y-130347750D01*
X131621369Y-131281192D02*
X131858627Y-130870250D01*
%TO.C,BT3*%
X136494744Y-76996668D02*
X140305256Y-74796668D01*
X139505256Y-73411028D02*
X137305256Y-69600516D01*
X133494744Y-71800516D02*
X135694744Y-75611028D01*
X142505256Y-78607180D02*
X138694744Y-80807180D01*
X138694744Y-80807180D02*
X136494744Y-76996668D01*
X140305256Y-74796668D02*
X142505256Y-78607180D01*
X133494744Y-71800516D02*
X137305256Y-69600516D01*
X139505256Y-73411028D02*
X135694744Y-75611028D01*
%TO.C,Q2*%
X121000000Y-60260000D02*
X120350000Y-60260000D01*
X121000000Y-60260000D02*
X121650000Y-60260000D01*
X121000000Y-57140000D02*
X119325000Y-57140000D01*
X121000000Y-57140000D02*
X121650000Y-57140000D01*
%TO.C,C13*%
X121065580Y-54290000D02*
X120784420Y-54290000D01*
X121065580Y-55310000D02*
X120784420Y-55310000D01*
D15*
%TO.C,U6*%
X104404020Y-131419826D02*
X104175420Y-131023879D01*
X105766698Y-140282454D02*
X108582320Y-138656854D01*
X103134020Y-129220122D02*
X102905420Y-128824175D01*
X95476247Y-130180470D02*
X95704847Y-130576417D01*
X98727120Y-121587147D02*
X92567947Y-125143147D01*
X105674020Y-133619531D02*
X105445420Y-133223584D01*
X96746247Y-132380175D02*
X96974847Y-132776122D01*
X100556247Y-138979288D02*
X100784847Y-139375235D01*
X100594020Y-124820713D02*
X100365420Y-124424766D01*
X98016247Y-134579879D02*
X98244847Y-134975826D01*
X108582320Y-138656854D02*
X108010820Y-137666987D01*
X102423147Y-142212854D02*
X105238769Y-140587254D01*
X106918620Y-135775241D02*
X106715420Y-135423288D01*
X101826247Y-141178993D02*
X102423147Y-142212854D01*
X94206247Y-127980766D02*
X94434847Y-128376713D01*
X105238769Y-140587254D02*
X105766698Y-140282454D01*
X92567947Y-125143147D02*
X93164847Y-126177008D01*
X99286247Y-136779584D02*
X99514847Y-137175531D01*
X99324020Y-122621008D02*
X98727120Y-121587147D01*
X101864020Y-127020417D02*
X101635420Y-126624470D01*
D16*
X105766698Y-140282454D02*
G75*
G03*
X105238769Y-140587254I-263964J-152400D01*
G01*
D14*
%TO.C,C15*%
X101210000Y-87834420D02*
X101210000Y-88115580D01*
X100190000Y-87834420D02*
X100190000Y-88115580D01*
%TO.C,R29*%
X146983627Y-104341308D02*
X146746369Y-104752250D01*
X146078631Y-103818808D02*
X145841373Y-104229750D01*
%TO.C,R36*%
X106777500Y-74987742D02*
X106777500Y-75462258D01*
X107822500Y-74987742D02*
X107822500Y-75462258D01*
%TO.C,C2*%
X116202500Y-79086252D02*
X116202500Y-78563748D01*
X117672500Y-79086252D02*
X117672500Y-78563748D01*
%TO.C,R39*%
X108377500Y-152437258D02*
X108377500Y-151962742D01*
X109422500Y-152437258D02*
X109422500Y-151962742D01*
%TO.C,R5*%
X115237258Y-117622500D02*
X114762742Y-117622500D01*
X115237258Y-116577500D02*
X114762742Y-116577500D01*
%TO.C,R17*%
X95921369Y-108218808D02*
X96158627Y-108629750D01*
X95016373Y-108741308D02*
X95253631Y-109152250D01*
%TO.C,D5*%
X107265000Y-88260000D02*
X108735000Y-88260000D01*
X107265000Y-85975000D02*
X107265000Y-88260000D01*
X108735000Y-88260000D02*
X108735000Y-85975000D01*
%TO.C,R12*%
X93003873Y-105341196D02*
X93241131Y-105752138D01*
X93908869Y-104818696D02*
X94146127Y-105229638D01*
%TO.C,D1*%
X106236000Y-112210000D02*
X106080000Y-112210000D01*
X103920000Y-112210000D02*
X103764000Y-112210000D01*
X103764484Y-112210000D02*
G75*
G03*
X103921392Y-115442335I1235516J-1560000D01*
G01*
X106078608Y-115442335D02*
G75*
G03*
X106235516Y-112210000I-1078608J1672335D01*
G01*
X106079837Y-114811130D02*
G75*
G03*
X106080000Y-112729039I-1079837J1041130D01*
G01*
X103920000Y-112729039D02*
G75*
G03*
X103920163Y-114811130I1080000J-1040961D01*
G01*
%TO.C,R23*%
X131818808Y-144321369D02*
X132229750Y-144558627D01*
X132341308Y-143416373D02*
X132752250Y-143653631D01*
%TO.C,R37*%
X106233869Y-147033279D02*
X106471127Y-147444221D01*
X105328873Y-147555779D02*
X105566131Y-147966721D01*
%TO.C,R13*%
X92008869Y-101618697D02*
X92246127Y-102029639D01*
X91103873Y-102141197D02*
X91341131Y-102552139D01*
%TO.C,R34*%
X109371127Y-141044221D02*
X109133869Y-140633279D01*
X108466131Y-141566721D02*
X108228873Y-141155779D01*
%TO.C,C5*%
X118110000Y-70415580D02*
X118110000Y-70134420D01*
X117090000Y-70415580D02*
X117090000Y-70134420D01*
%TO.C,R8*%
X134862742Y-116577500D02*
X135337258Y-116577500D01*
X134862742Y-117622500D02*
X135337258Y-117622500D01*
%TD*%
%LPC*%
D17*
%TO.C,REF\u002A\u002A*%
X140000000Y-171000000D03*
%TD*%
D18*
%TO.C,L1*%
X101000000Y-76900000D03*
X101000000Y-81400000D03*
%TD*%
D19*
%TO.C,J1*%
X108110000Y-55162500D03*
X113890000Y-55162500D03*
D20*
X114200000Y-56237500D03*
X113400000Y-56237500D03*
D21*
X112250000Y-56237500D03*
X111250000Y-56237500D03*
X110750000Y-56237500D03*
X109750000Y-56237500D03*
D20*
X107800000Y-56237500D03*
X108600000Y-56237500D03*
D21*
X109250000Y-56237500D03*
X110250000Y-56237500D03*
X111750000Y-56237500D03*
X112750000Y-56237500D03*
D22*
X116110000Y-55662500D03*
X105890000Y-55662500D03*
X116110000Y-51732500D03*
X105890000Y-51732500D03*
%TD*%
D17*
%TO.C,REF\u002A\u002A*%
X135000000Y-44500000D03*
%TD*%
D23*
%TO.C,C25*%
X151128830Y-97512500D03*
X152471170Y-98287500D03*
%TD*%
D24*
%TO.C,H5*%
X158302944Y-113302944D03*
X161697056Y-113302944D03*
X160000000Y-117400000D03*
X157600000Y-115000000D03*
D25*
X160000000Y-115000000D03*
D24*
X160000000Y-112600000D03*
X162400000Y-115000000D03*
X161697056Y-116697056D03*
X158302944Y-116697056D03*
%TD*%
D26*
%TO.C,R16*%
X133912500Y-126485529D03*
X133087500Y-127914471D03*
%TD*%
D27*
%TO.C,R21*%
X141885529Y-121987500D03*
X143314471Y-122812500D03*
%TD*%
D28*
%TO.C,C10*%
X102875002Y-64700000D03*
X100975002Y-64700000D03*
%TD*%
D29*
%TO.C,R22*%
X92285529Y-123312500D03*
X93714471Y-122487500D03*
%TD*%
D30*
%TO.C,S1*%
X132300000Y-52300000D03*
X130300000Y-52300000D03*
X128300000Y-52300000D03*
D31*
X135150000Y-52300000D03*
X125450000Y-52300000D03*
%TD*%
D32*
%TO.C,C18*%
X109171170Y-144712500D03*
X107828830Y-145487500D03*
%TD*%
D33*
%TO.C,R26*%
X103187500Y-122835529D03*
X104012500Y-124264471D03*
%TD*%
D34*
%TO.C,R6*%
X124075000Y-117100000D03*
X125725000Y-117100000D03*
%TD*%
D26*
%TO.C,R30*%
X144712500Y-107285529D03*
X143887500Y-108714471D03*
%TD*%
D35*
%TO.C,C17*%
X105100000Y-87200000D03*
X105100000Y-88750000D03*
%TD*%
D23*
%TO.C,C27*%
X164128830Y-117112500D03*
X165471170Y-117887500D03*
%TD*%
D36*
%TO.C,J4*%
X128000000Y-72300000D03*
X128000000Y-78300000D03*
%TD*%
D37*
%TO.C,U7*%
X150720886Y-103591773D03*
D38*
X149450886Y-105791477D03*
X148180886Y-107991182D03*
X146910886Y-110190886D03*
X145640886Y-112390591D03*
X144370886Y-114590295D03*
X143100886Y-116790000D03*
X149700000Y-120600000D03*
X150970000Y-118400295D03*
X152240000Y-116200591D03*
X153510000Y-114000886D03*
X154780000Y-111801182D03*
X156050000Y-109601477D03*
X157320000Y-107401773D03*
%TD*%
D39*
%TO.C,D7*%
X124000000Y-87562500D03*
X124000000Y-85987500D03*
%TD*%
D40*
%TO.C,C33*%
X160471170Y-108587500D03*
X159128830Y-107812500D03*
%TD*%
D41*
%TO.C,R41*%
X102900000Y-106100000D03*
X101250000Y-106100000D03*
%TD*%
D35*
%TO.C,C4*%
X105100000Y-83500000D03*
X105100000Y-85050000D03*
%TD*%
D42*
%TO.C,U8*%
X89221025Y-141951034D03*
D30*
X99998966Y-144838975D03*
X100998966Y-146571025D03*
X98111025Y-157348966D03*
X96378975Y-158348966D03*
X87488975Y-142951034D03*
%TD*%
D24*
%TO.C,H1*%
X103302944Y-161697056D03*
D25*
X105000000Y-160000000D03*
D24*
X106697056Y-161697056D03*
X103302944Y-158302944D03*
X105000000Y-162400000D03*
X102600000Y-160000000D03*
X105000000Y-157600000D03*
X106697056Y-158302944D03*
X107400000Y-160000000D03*
%TD*%
D43*
%TO.C,R24*%
X74314471Y-119487500D03*
X72885529Y-120312500D03*
%TD*%
D24*
%TO.C,H2*%
X136697056Y-161697056D03*
X136697056Y-158302944D03*
X132600000Y-160000000D03*
X135000000Y-162400000D03*
X135000000Y-157600000D03*
X133302944Y-158302944D03*
X137400000Y-160000000D03*
D25*
X135000000Y-160000000D03*
D24*
X133302944Y-161697056D03*
%TD*%
D39*
%TO.C,D8*%
X132000000Y-87562500D03*
X132000000Y-85987500D03*
%TD*%
D32*
%TO.C,C22*%
X97171170Y-120512500D03*
X95828830Y-121287500D03*
%TD*%
D44*
%TO.C,BT1*%
X142700000Y-83303848D03*
X145700000Y-88500000D03*
%TD*%
D45*
%TO.C,C11*%
X102675000Y-58000000D03*
X101125000Y-58000000D03*
%TD*%
D46*
%TO.C,U9*%
X152688975Y-138898966D03*
D30*
X149801034Y-128121025D03*
X150801034Y-126388975D03*
X161578975Y-123501034D03*
X163311025Y-124501034D03*
X154421025Y-139898966D03*
%TD*%
D26*
%TO.C,R25*%
X133900000Y-148300000D03*
X133075000Y-149728942D03*
%TD*%
D24*
%TO.C,H3*%
X121697056Y-66697056D03*
X118302944Y-63302944D03*
X122400000Y-65000000D03*
X117600000Y-65000000D03*
X121697056Y-63302944D03*
X118302944Y-66697056D03*
X120000000Y-62600000D03*
D25*
X120000000Y-65000000D03*
D24*
X120000000Y-67400000D03*
%TD*%
D47*
%TO.C,C6*%
X114300000Y-71100000D03*
X115850000Y-71100000D03*
%TD*%
D48*
%TO.C,D3*%
X125000000Y-112500000D03*
D49*
X125000000Y-115040000D03*
%TD*%
D50*
%TO.C,R40*%
X164014471Y-120562500D03*
X162585529Y-119737500D03*
%TD*%
D33*
%TO.C,R32*%
X103587500Y-143185529D03*
X104412500Y-144614471D03*
%TD*%
D23*
%TO.C,C24*%
X145428830Y-124012500D03*
X146771170Y-124787500D03*
%TD*%
D50*
%TO.C,R33*%
X159414471Y-110512500D03*
X157985529Y-109687500D03*
%TD*%
D35*
%TO.C,C1*%
X121637500Y-78075000D03*
X121637500Y-79625000D03*
%TD*%
D50*
%TO.C,R35*%
X151100000Y-100600000D03*
X149671058Y-99775000D03*
%TD*%
D51*
%TO.C,TH1*%
X105200000Y-61412500D03*
X105200000Y-59587500D03*
%TD*%
D52*
%TO.C,C30*%
X106012500Y-141828830D03*
X106787500Y-143171170D03*
%TD*%
D53*
%TO.C,C19*%
X99087500Y-109971170D03*
X98312500Y-108628830D03*
%TD*%
D41*
%TO.C,R42*%
X107050000Y-108650000D03*
X105400000Y-108650000D03*
%TD*%
D39*
%TO.C,D6*%
X116000000Y-87562500D03*
X116000000Y-85987500D03*
%TD*%
D17*
%TO.C,REF\u002A\u002A*%
X105000000Y-44500000D03*
%TD*%
D54*
%TO.C,U3*%
X96218210Y-116667947D03*
D38*
X94948210Y-114468243D03*
X93678210Y-112268538D03*
X92408210Y-110068834D03*
X91138210Y-107869129D03*
X89868210Y-105669425D03*
X88598210Y-103469720D03*
X81999096Y-107279720D03*
X83269096Y-109479425D03*
X84539096Y-111679129D03*
X85809096Y-113878834D03*
X87079096Y-116078538D03*
X88349096Y-118278243D03*
X89619096Y-120477947D03*
%TD*%
D42*
%TO.C,U5*%
X78521025Y-123401034D03*
D30*
X89298966Y-126288975D03*
X90298966Y-128021025D03*
X87411025Y-138798966D03*
X85678975Y-139798966D03*
X76788975Y-124401034D03*
%TD*%
D55*
%TO.C,J2*%
X142400000Y-96000000D03*
D56*
X142400000Y-98000000D03*
X142400000Y-100000000D03*
%TD*%
D23*
%TO.C,C29*%
X167128830Y-123012500D03*
X168471170Y-123787500D03*
%TD*%
D28*
%TO.C,C8*%
X102850000Y-62400000D03*
X100950000Y-62400000D03*
%TD*%
D26*
%TO.C,R14*%
X138112500Y-119285529D03*
X137287500Y-120714471D03*
%TD*%
D57*
%TO.C,C14*%
X102900000Y-85050000D03*
X102900000Y-83500000D03*
%TD*%
D58*
%TO.C,R3*%
X108900000Y-74400000D03*
X108900000Y-76050000D03*
%TD*%
D26*
%TO.C,R31*%
X142612500Y-110885529D03*
X141787500Y-112314471D03*
%TD*%
D32*
%TO.C,C31*%
X85271170Y-116412500D03*
X83928830Y-117187500D03*
%TD*%
D35*
%TO.C,C16*%
X102900000Y-87200000D03*
X102900000Y-88750000D03*
%TD*%
D59*
%TO.C,Q1*%
X119400000Y-73300000D03*
X119400000Y-75200000D03*
X121275000Y-74250000D03*
%TD*%
D60*
%TO.C,BT2*%
X92600000Y-91001924D03*
X89600000Y-96198076D03*
%TD*%
D57*
%TO.C,C26*%
X108900000Y-149475000D03*
X108900000Y-147925000D03*
%TD*%
D61*
%TO.C,C20*%
X74228830Y-122687500D03*
X75571170Y-121912500D03*
%TD*%
D62*
%TO.C,C12*%
X107748008Y-69948008D03*
X106651992Y-68851992D03*
%TD*%
D63*
%TO.C,C21*%
X130600000Y-148185641D03*
X131375000Y-146843301D03*
%TD*%
D28*
%TO.C,C9*%
X102875000Y-66900000D03*
X100975000Y-66900000D03*
%TD*%
D33*
%TO.C,R28*%
X107587500Y-130085529D03*
X108412500Y-131514471D03*
%TD*%
D41*
%TO.C,R9*%
X128975000Y-86900000D03*
X127325000Y-86900000D03*
%TD*%
D64*
%TO.C,R20*%
X97912500Y-112714471D03*
X97087500Y-111285529D03*
%TD*%
D48*
%TO.C,D4*%
X135000000Y-112500000D03*
D49*
X135000000Y-115040000D03*
%TD*%
D17*
%TO.C,REF\u002A\u002A*%
X100000000Y-171000000D03*
%TD*%
D48*
%TO.C,D2*%
X115000000Y-112500000D03*
D49*
X115000000Y-115040000D03*
%TD*%
D28*
%TO.C,C7*%
X102850000Y-60100000D03*
X100950000Y-60100000D03*
%TD*%
D26*
%TO.C,R38*%
X140612500Y-115385529D03*
X139787500Y-116814471D03*
%TD*%
D65*
%TO.C,U1*%
X109974346Y-61631884D03*
X109620793Y-61985437D03*
X109267239Y-62338990D03*
X108913686Y-62692544D03*
X108560133Y-63046097D03*
X108206579Y-63399651D03*
X107853026Y-63753204D03*
X107499472Y-64106757D03*
X107145919Y-64460311D03*
X106792366Y-64813864D03*
D66*
X106792366Y-65786136D03*
X107145919Y-66139689D03*
X107499472Y-66493243D03*
X107853026Y-66846796D03*
X108206579Y-67200349D03*
X108560133Y-67553903D03*
X108913686Y-67907456D03*
X109267239Y-68261010D03*
X109620793Y-68614563D03*
X109974346Y-68968116D03*
D65*
X110946618Y-68968116D03*
X111300171Y-68614563D03*
X111653725Y-68261010D03*
X112007278Y-67907456D03*
X112360831Y-67553903D03*
X112714385Y-67200349D03*
X113067938Y-66846796D03*
X113421492Y-66493243D03*
X113775045Y-66139689D03*
X114128598Y-65786136D03*
D66*
X114128598Y-64813864D03*
X113775045Y-64460311D03*
X113421492Y-64106757D03*
X113067938Y-63753204D03*
X112714385Y-63399651D03*
X112360831Y-63046097D03*
X112007278Y-62692544D03*
X111653725Y-62338990D03*
X111300171Y-61985437D03*
X110946618Y-61631884D03*
D67*
X110460482Y-65300000D03*
%TD*%
D68*
%TO.C,A1*%
X111790000Y-122050000D03*
D69*
X111790000Y-124590000D03*
X111790000Y-127130000D03*
X111790000Y-129670000D03*
X111790000Y-132210000D03*
X111790000Y-134750000D03*
X111790000Y-137290000D03*
X111790000Y-139830000D03*
X111790000Y-142370000D03*
X111790000Y-144910000D03*
X111790000Y-147450000D03*
X111790000Y-149990000D03*
X111790000Y-152530000D03*
X111790000Y-155070000D03*
X111790000Y-157610000D03*
X127030000Y-157610000D03*
X127030000Y-155070000D03*
X127030000Y-152530000D03*
X127030000Y-149990000D03*
X127030000Y-147450000D03*
X127030000Y-144910000D03*
X127030000Y-142370000D03*
X127030000Y-139830000D03*
X127030000Y-137290000D03*
X127030000Y-134750000D03*
X127030000Y-132210000D03*
X127030000Y-129670000D03*
X127030000Y-127130000D03*
X127030000Y-124590000D03*
X127030000Y-122050000D03*
%TD*%
D41*
%TO.C,R4*%
X105725000Y-117200000D03*
X104075000Y-117200000D03*
%TD*%
D37*
%TO.C,U2*%
X138810443Y-125195887D03*
D38*
X137540443Y-127395591D03*
X136270443Y-129595296D03*
X135000443Y-131795000D03*
X133730443Y-133994705D03*
X132460443Y-136194409D03*
X131190443Y-138394114D03*
X137789557Y-142204114D03*
X139059557Y-140004409D03*
X140329557Y-137804705D03*
X141599557Y-135605000D03*
X142869557Y-133405296D03*
X144139557Y-131205591D03*
X145409557Y-129005887D03*
%TD*%
D51*
%TO.C,R2*%
X110700000Y-73525000D03*
X110700000Y-71700000D03*
%TD*%
D33*
%TO.C,R27*%
X105387500Y-126485529D03*
X106212500Y-127914471D03*
%TD*%
D29*
%TO.C,R18*%
X78085529Y-120512500D03*
X79514471Y-119687500D03*
%TD*%
D70*
%TO.C,J3*%
X101200000Y-100550000D03*
X101200000Y-96550000D03*
%TD*%
D63*
%TO.C,C32*%
X130612500Y-126556811D03*
X131387500Y-125214471D03*
%TD*%
D26*
%TO.C,R15*%
X136012500Y-122985529D03*
X135187500Y-124414471D03*
%TD*%
D41*
%TO.C,R7*%
X112900000Y-86550000D03*
X111250000Y-86550000D03*
%TD*%
D63*
%TO.C,C23*%
X135012500Y-146471170D03*
X135787500Y-145128830D03*
%TD*%
D71*
%TO.C,TH2*%
X105262500Y-106150000D03*
X107087500Y-106150000D03*
%TD*%
D34*
%TO.C,R10*%
X119025000Y-86600000D03*
X120675000Y-86600000D03*
%TD*%
D24*
%TO.C,H4*%
X81697056Y-116697056D03*
D25*
X80000000Y-115000000D03*
D24*
X77600000Y-115000000D03*
X78302944Y-116697056D03*
X80000000Y-117400000D03*
X78302944Y-113302944D03*
X80000000Y-112600000D03*
X81697056Y-113302944D03*
X82400000Y-115000000D03*
%TD*%
D46*
%TO.C,U4*%
X141988975Y-157448966D03*
D30*
X139101034Y-146671025D03*
X140101034Y-144938975D03*
X150878975Y-142051034D03*
X152611025Y-143051034D03*
X143721025Y-158448966D03*
%TD*%
D45*
%TO.C,C3*%
X115850000Y-69400000D03*
X114300000Y-69400000D03*
%TD*%
D32*
%TO.C,C28*%
X99471170Y-160312500D03*
X98128830Y-161087500D03*
%TD*%
D72*
%TO.C,R1*%
X116800000Y-75075000D03*
X116800000Y-73425000D03*
%TD*%
%TO.C,R11*%
X107300000Y-61000000D03*
X107300000Y-59350000D03*
%TD*%
D73*
%TO.C,R19*%
X130875000Y-131528942D03*
X131700000Y-130100000D03*
%TD*%
D44*
%TO.C,BT3*%
X136500000Y-72605772D03*
X139500000Y-77801924D03*
%TD*%
D59*
%TO.C,Q2*%
X120062500Y-57750000D03*
X120062500Y-59650000D03*
X121937500Y-58700000D03*
%TD*%
D45*
%TO.C,C13*%
X121700000Y-54800000D03*
X120150000Y-54800000D03*
%TD*%
D54*
%TO.C,U6*%
X107684691Y-136594114D03*
D38*
X106414691Y-134394410D03*
X105144691Y-132194705D03*
X103874691Y-129995001D03*
X102604691Y-127795296D03*
X101334691Y-125595592D03*
X100064691Y-123395887D03*
X93465577Y-127205887D03*
X94735577Y-129405592D03*
X96005577Y-131605296D03*
X97275577Y-133805001D03*
X98545577Y-136004705D03*
X99815577Y-138204410D03*
X101085577Y-140404114D03*
%TD*%
D35*
%TO.C,C15*%
X100700000Y-87200000D03*
X100700000Y-88750000D03*
%TD*%
D26*
%TO.C,R29*%
X146825000Y-103571058D03*
X146000000Y-105000000D03*
%TD*%
D58*
%TO.C,R36*%
X107300000Y-74400000D03*
X107300000Y-76050000D03*
%TD*%
D74*
%TO.C,C2*%
X116937500Y-79775000D03*
X116937500Y-77875000D03*
%TD*%
D72*
%TO.C,R39*%
X108900000Y-153025000D03*
X108900000Y-151375000D03*
%TD*%
D41*
%TO.C,R5*%
X115825000Y-117100000D03*
X114175000Y-117100000D03*
%TD*%
D33*
%TO.C,R17*%
X95175000Y-107971058D03*
X96000000Y-109400000D03*
%TD*%
D39*
%TO.C,D5*%
X108000000Y-87562500D03*
X108000000Y-85987500D03*
%TD*%
D33*
%TO.C,R12*%
X93162500Y-104570946D03*
X93987500Y-105999888D03*
%TD*%
D48*
%TO.C,D1*%
X105000000Y-112500000D03*
D49*
X105000000Y-115040000D03*
%TD*%
D27*
%TO.C,R23*%
X131571058Y-143575000D03*
X133000000Y-144400000D03*
%TD*%
D33*
%TO.C,R37*%
X105487500Y-146785529D03*
X106312500Y-148214471D03*
%TD*%
%TO.C,R13*%
X91262500Y-101370947D03*
X92087500Y-102799889D03*
%TD*%
D64*
%TO.C,R34*%
X109212500Y-141814471D03*
X108387500Y-140385529D03*
%TD*%
D57*
%TO.C,C5*%
X117600000Y-71050000D03*
X117600000Y-69500000D03*
%TD*%
D34*
%TO.C,R8*%
X134275000Y-117100000D03*
X135925000Y-117100000D03*
%TD*%
M02*
