%TF.GenerationSoftware,KiCad,Pcbnew,6.0.9-8da3e8f707~116~ubuntu20.04.1*%
%TF.CreationDate,2023-02-25T13:57:50-05:00*%
%TF.ProjectId,free2breathe_pcb,66726565-3262-4726-9561-7468655f7063,rev?*%
%TF.SameCoordinates,Original*%
%TF.FileFunction,Legend,Bot*%
%TF.FilePolarity,Positive*%
%FSLAX46Y46*%
G04 Gerber Fmt 4.6, Leading zero omitted, Abs format (unit mm)*
G04 Created by KiCad (PCBNEW 6.0.9-8da3e8f707~116~ubuntu20.04.1) date 2023-02-25 13:57:50*
%MOMM*%
%LPD*%
G01*
G04 APERTURE LIST*
G04 Aperture macros list*
%AMRoundRect*
0 Rectangle with rounded corners*
0 $1 Rounding radius*
0 $2 $3 $4 $5 $6 $7 $8 $9 X,Y pos of 4 corners*
0 Add a 4 corners polygon primitive as box body*
4,1,4,$2,$3,$4,$5,$6,$7,$8,$9,$2,$3,0*
0 Add four circle primitives for the rounded corners*
1,1,$1+$1,$2,$3*
1,1,$1+$1,$4,$5*
1,1,$1+$1,$6,$7*
1,1,$1+$1,$8,$9*
0 Add four rect primitives between the rounded corners*
20,1,$1+$1,$2,$3,$4,$5,0*
20,1,$1+$1,$4,$5,$6,$7,0*
20,1,$1+$1,$6,$7,$8,$9,0*
20,1,$1+$1,$8,$9,$2,$3,0*%
%AMRotRect*
0 Rectangle, with rotation*
0 The origin of the aperture is its center*
0 $1 length*
0 $2 width*
0 $3 Rotation angle, in degrees counterclockwise*
0 Add horizontal line*
21,1,$1,$2,0,0,$3*%
G04 Aperture macros list end*
%ADD10C,6.000000*%
%ADD11C,0.650000*%
%ADD12C,0.800000*%
%ADD13C,6.400000*%
%ADD14C,1.308000*%
%ADD15C,2.250000*%
%ADD16RotRect,1.498600X1.498600X330.000000*%
%ADD17C,1.498600*%
%ADD18RotRect,1.308000X1.308000X210.000000*%
%ADD19RotRect,1.308000X1.308000X330.000000*%
%ADD20R,1.800000X1.800000*%
%ADD21C,1.800000*%
%ADD22RotRect,1.498600X1.498600X210.000000*%
%ADD23RoundRect,0.250000X-0.625000X0.350000X-0.625000X-0.350000X0.625000X-0.350000X0.625000X0.350000X0*%
%ADD24O,1.750000X1.200000*%
%ADD25R,1.600000X1.600000*%
%ADD26O,1.600000X1.600000*%
%ADD27C,1.524000*%
G04 APERTURE END LIST*
%TO.C,G\u002A\u002A\u002A*%
G36*
X142984937Y-89610457D02*
G01*
X142756948Y-89782650D01*
X142541306Y-89941999D01*
X142352560Y-90077258D01*
X142205262Y-90177179D01*
X142154964Y-90208797D01*
X141912570Y-90347448D01*
X141638317Y-90488313D01*
X141382403Y-90605275D01*
X140928935Y-90795143D01*
X141663424Y-90987242D01*
X141795027Y-91022162D01*
X142033401Y-91088246D01*
X142224624Y-91145053D01*
X142351770Y-91187444D01*
X142397913Y-91210280D01*
X142393704Y-91216872D01*
X142320349Y-91258265D01*
X142162509Y-91326688D01*
X141929034Y-91418727D01*
X141628773Y-91530969D01*
X141270578Y-91659997D01*
X140863297Y-91802397D01*
X140845364Y-91808565D01*
X140253397Y-91987932D01*
X139700968Y-92102482D01*
X139155742Y-92157252D01*
X138585388Y-92157279D01*
X138560095Y-92156151D01*
X137976429Y-92107274D01*
X137448407Y-92013721D01*
X136939588Y-91869110D01*
X136786450Y-91819934D01*
X136668063Y-91786804D01*
X136618821Y-91779784D01*
X136617562Y-91782903D01*
X136603325Y-91852086D01*
X136579776Y-91990876D01*
X136551305Y-92173658D01*
X136544866Y-92215443D01*
X136384058Y-92933003D01*
X136134562Y-93635683D01*
X135805502Y-94301695D01*
X135405999Y-94909249D01*
X135074918Y-95347225D01*
X134971690Y-95944437D01*
X134931345Y-96174362D01*
X134891677Y-96393504D01*
X134859870Y-96561952D01*
X134840437Y-96655268D01*
X134825441Y-96728731D01*
X134840918Y-96760811D01*
X134909037Y-96746828D01*
X135049986Y-96690142D01*
X135100620Y-96669623D01*
X135169271Y-96649615D01*
X135242708Y-96647061D01*
X135338718Y-96666000D01*
X135475088Y-96710467D01*
X135669603Y-96784498D01*
X135940052Y-96892130D01*
X136058375Y-96939184D01*
X136295104Y-97031472D01*
X136491633Y-97105602D01*
X136630178Y-97154942D01*
X136692954Y-97172863D01*
X136717285Y-97167131D01*
X136814630Y-97121988D01*
X136944235Y-97046620D01*
X137005524Y-97009579D01*
X137127894Y-96945663D01*
X137203343Y-96920378D01*
X137255830Y-96939210D01*
X137390076Y-96995216D01*
X137594909Y-97083552D01*
X137859493Y-97199348D01*
X138172994Y-97337738D01*
X138524576Y-97493852D01*
X138903405Y-97662822D01*
X139298646Y-97839781D01*
X139699465Y-98019860D01*
X140095025Y-98198192D01*
X140474493Y-98369907D01*
X140827033Y-98530138D01*
X141141811Y-98674016D01*
X141407992Y-98796674D01*
X141614741Y-98893244D01*
X141751223Y-98958856D01*
X141806603Y-98988644D01*
X141806005Y-98990980D01*
X141753974Y-99034869D01*
X141624843Y-99129954D01*
X141424370Y-99272285D01*
X141158318Y-99457912D01*
X140832445Y-99682884D01*
X140452513Y-99943251D01*
X140024282Y-100235064D01*
X139553513Y-100554371D01*
X139045966Y-100897222D01*
X138507402Y-101259667D01*
X137943581Y-101637755D01*
X136762280Y-102428543D01*
X135617581Y-103194872D01*
X134551669Y-103908506D01*
X133561919Y-104571208D01*
X132645708Y-105184739D01*
X131800410Y-105750860D01*
X131023401Y-106271332D01*
X130312057Y-106747918D01*
X129663753Y-107182378D01*
X129075864Y-107576473D01*
X128545767Y-107931966D01*
X128070836Y-108250617D01*
X127648448Y-108534189D01*
X127275977Y-108784442D01*
X126950799Y-109003138D01*
X126670290Y-109192038D01*
X126431825Y-109352903D01*
X126232780Y-109487496D01*
X126070530Y-109597577D01*
X125942451Y-109684909D01*
X125845918Y-109751251D01*
X125778307Y-109798366D01*
X125736993Y-109828016D01*
X125719351Y-109841961D01*
X125687569Y-109866791D01*
X125616301Y-109884161D01*
X125601596Y-109861989D01*
X125546553Y-109757249D01*
X125454973Y-109573282D01*
X125330402Y-109317497D01*
X125176383Y-108997304D01*
X124996460Y-108620115D01*
X124794176Y-108193339D01*
X124573076Y-107724386D01*
X124336702Y-107220668D01*
X124088600Y-106689594D01*
X123953482Y-106399745D01*
X123702763Y-105861955D01*
X123461798Y-105345144D01*
X123234703Y-104858132D01*
X123025590Y-104409739D01*
X122838574Y-104008786D01*
X122677767Y-103664092D01*
X122547285Y-103384477D01*
X122451240Y-103178761D01*
X122393747Y-103055765D01*
X122193807Y-102628761D01*
X121961993Y-102133780D01*
X121767189Y-101717962D01*
X121606090Y-101374264D01*
X121475393Y-101095645D01*
X121371794Y-100875060D01*
X121291989Y-100705470D01*
X121232674Y-100579830D01*
X121190546Y-100491099D01*
X121150844Y-100403801D01*
X121669425Y-100403801D01*
X121681708Y-100453578D01*
X121731756Y-100583275D01*
X121814612Y-100780038D01*
X121924922Y-101031453D01*
X122057329Y-101325106D01*
X122206477Y-101648584D01*
X122290944Y-101829877D01*
X122476775Y-102228740D01*
X122668295Y-102639823D01*
X122853418Y-103037184D01*
X123020058Y-103394883D01*
X123156130Y-103686978D01*
X123157020Y-103688888D01*
X123257732Y-103905029D01*
X123394984Y-104199509D01*
X123562693Y-104559280D01*
X123754777Y-104971298D01*
X123965155Y-105422516D01*
X124187742Y-105899888D01*
X124416458Y-106390370D01*
X124645220Y-106880914D01*
X124718436Y-107037629D01*
X124928545Y-107484192D01*
X125125751Y-107898762D01*
X125305862Y-108272806D01*
X125464682Y-108597791D01*
X125598016Y-108865183D01*
X125701670Y-109066450D01*
X125771449Y-109193059D01*
X125803158Y-109236475D01*
X125824422Y-109229155D01*
X125919876Y-109176837D01*
X126065342Y-109085641D01*
X126238867Y-108969042D01*
X126279033Y-108941504D01*
X126415954Y-108848672D01*
X126627207Y-108706163D01*
X126906493Y-108518205D01*
X127247514Y-108289024D01*
X127643969Y-108022847D01*
X128089560Y-107723901D01*
X128577989Y-107396411D01*
X129102955Y-107044606D01*
X129658162Y-106672711D01*
X130237308Y-106284954D01*
X130834096Y-105885561D01*
X131072444Y-105726081D01*
X132210916Y-104964245D01*
X133268082Y-104256670D01*
X134246188Y-103601845D01*
X135147477Y-102998263D01*
X135974193Y-102444414D01*
X136728580Y-101938791D01*
X137412883Y-101479884D01*
X138029344Y-101066185D01*
X138580208Y-100696184D01*
X139067718Y-100368374D01*
X139494120Y-100081246D01*
X139861657Y-99833291D01*
X140172572Y-99623000D01*
X140429110Y-99448864D01*
X140633515Y-99309375D01*
X140788030Y-99203025D01*
X140894901Y-99128303D01*
X140956369Y-99083703D01*
X140974681Y-99067715D01*
X140966590Y-99063509D01*
X140885776Y-99025743D01*
X140726409Y-98952757D01*
X140498294Y-98848996D01*
X140211236Y-98718907D01*
X139875040Y-98566936D01*
X139499510Y-98397528D01*
X139094453Y-98215129D01*
X137230158Y-97376363D01*
X136980133Y-97520714D01*
X136730107Y-97665066D01*
X135991346Y-97367068D01*
X135252585Y-97069071D01*
X134781044Y-97276431D01*
X134638658Y-97337714D01*
X134464180Y-97408533D01*
X134341021Y-97453144D01*
X134289510Y-97463797D01*
X134288966Y-97444793D01*
X134300813Y-97341338D01*
X134327099Y-97160730D01*
X134365621Y-96917148D01*
X134414177Y-96624774D01*
X134470567Y-96297786D01*
X134671618Y-95151768D01*
X134972896Y-94772641D01*
X135228550Y-94430472D01*
X135541618Y-93926108D01*
X135782618Y-93411303D01*
X135831386Y-93278341D01*
X135928885Y-92959820D01*
X136023384Y-92590337D01*
X136107444Y-92202739D01*
X136173627Y-91829869D01*
X136214492Y-91504572D01*
X136218889Y-91457728D01*
X136240352Y-91282467D01*
X136263480Y-91159565D01*
X136283977Y-91113220D01*
X136288494Y-91113917D01*
X136360521Y-91142061D01*
X136493217Y-91203124D01*
X136661788Y-91285782D01*
X136736079Y-91321948D01*
X137259997Y-91520578D01*
X137839270Y-91655040D01*
X138454012Y-91725015D01*
X139084340Y-91730182D01*
X139710368Y-91670220D01*
X140312213Y-91544808D01*
X140869989Y-91353627D01*
X141033715Y-91284260D01*
X140617504Y-91117002D01*
X140503573Y-91069732D01*
X140284049Y-90971866D01*
X140067018Y-90867863D01*
X139870466Y-90767099D01*
X139712374Y-90678947D01*
X139610729Y-90612785D01*
X139583513Y-90577985D01*
X139593584Y-90573562D01*
X139680169Y-90555299D01*
X139833584Y-90531356D01*
X140029174Y-90505729D01*
X140452071Y-90435244D01*
X141114428Y-90243212D01*
X141745467Y-89957625D01*
X142335663Y-89582296D01*
X142702637Y-89310965D01*
X142007432Y-89277172D01*
X141757356Y-89261797D01*
X141033113Y-89175407D01*
X140390563Y-89030733D01*
X139830030Y-88827861D01*
X139351835Y-88566879D01*
X139319630Y-88545298D01*
X139165242Y-88433084D01*
X139031987Y-88314830D01*
X138909554Y-88176141D01*
X138787627Y-88002621D01*
X138655894Y-87779876D01*
X138504042Y-87493511D01*
X138321758Y-87129131D01*
X138196999Y-86881433D01*
X138029310Y-86562643D01*
X137862631Y-86259348D01*
X137710936Y-85996855D01*
X137588195Y-85800472D01*
X137489980Y-85650195D01*
X137390827Y-85489220D01*
X137327810Y-85375075D01*
X137311518Y-85325924D01*
X137320571Y-85320813D01*
X137404570Y-85292772D01*
X137554231Y-85251462D01*
X137744830Y-85203848D01*
X138297720Y-85030492D01*
X138832986Y-84772784D01*
X139308724Y-84444882D01*
X139712602Y-84053991D01*
X139970713Y-83756050D01*
X139278050Y-83722840D01*
X138575801Y-83672699D01*
X137947150Y-83590223D01*
X137382685Y-83471494D01*
X136865870Y-83312255D01*
X136380168Y-83108246D01*
X135909046Y-82855209D01*
X135735842Y-82750148D01*
X135566112Y-82640353D01*
X135401654Y-82523999D01*
X135226534Y-82388737D01*
X135024818Y-82222220D01*
X134780575Y-82012099D01*
X134477869Y-81746024D01*
X133935974Y-81312457D01*
X133313625Y-80914310D01*
X132673479Y-80603384D01*
X132027751Y-80386456D01*
X131857073Y-80347330D01*
X131483440Y-80287540D01*
X131086156Y-80251318D01*
X130704968Y-80241674D01*
X130379622Y-80261619D01*
X130365540Y-80263333D01*
X130186822Y-80280413D01*
X129932307Y-80299230D01*
X129624643Y-80318364D01*
X129286478Y-80336395D01*
X128940457Y-80351901D01*
X128708195Y-80361816D01*
X128338702Y-80382050D01*
X128041587Y-80407520D01*
X127798165Y-80441989D01*
X127589754Y-80489217D01*
X127397668Y-80552967D01*
X127203223Y-80637001D01*
X126987736Y-80745082D01*
X126623594Y-80972437D01*
X126215419Y-81324384D01*
X125852966Y-81746248D01*
X125547265Y-82222818D01*
X125309344Y-82738885D01*
X125150232Y-83279238D01*
X125123552Y-83430421D01*
X125092306Y-83729209D01*
X125081150Y-84040950D01*
X125090898Y-84328511D01*
X125122359Y-84554756D01*
X125164873Y-84737644D01*
X124818172Y-84905367D01*
X124783067Y-84922497D01*
X124625013Y-85003734D01*
X124514204Y-85067492D01*
X124472800Y-85101207D01*
X124476060Y-85111784D01*
X124513329Y-85192833D01*
X124583298Y-85332209D01*
X124674788Y-85507432D01*
X124709201Y-85572778D01*
X124794132Y-85738979D01*
X124853262Y-85862107D01*
X124875448Y-85919292D01*
X124862960Y-85940247D01*
X124792669Y-86020899D01*
X124674291Y-86143975D01*
X124523712Y-86292617D01*
X124136649Y-86718211D01*
X123751308Y-87262243D01*
X123414685Y-87873778D01*
X123136018Y-88537873D01*
X123129933Y-88554935D01*
X123046993Y-88810977D01*
X122956997Y-89124131D01*
X122867686Y-89463792D01*
X122786801Y-89799358D01*
X122722083Y-90100223D01*
X122681272Y-90335785D01*
X122676096Y-90371608D01*
X122646893Y-90502005D01*
X122593872Y-90612627D01*
X122499657Y-90732255D01*
X122346870Y-90889672D01*
X122047614Y-91185805D01*
X122047614Y-94449433D01*
X122445383Y-94871720D01*
X122843151Y-95294006D01*
X122923789Y-95741089D01*
X122936487Y-95812182D01*
X122978846Y-96054915D01*
X123030046Y-96354046D01*
X123084744Y-96678230D01*
X123137601Y-96996123D01*
X123270776Y-97804075D01*
X123558487Y-98157554D01*
X123601413Y-98210445D01*
X123750786Y-98396521D01*
X123885750Y-98567399D01*
X123981436Y-98691675D01*
X124116674Y-98872317D01*
X122905283Y-99618264D01*
X122857661Y-99647608D01*
X122546618Y-99840220D01*
X122265878Y-100015669D01*
X122026616Y-100166853D01*
X121840004Y-100286672D01*
X121717216Y-100368022D01*
X121669425Y-100403801D01*
X121150844Y-100403801D01*
X121147140Y-100395656D01*
X121103394Y-100283682D01*
X121094321Y-100233556D01*
X121094745Y-100233234D01*
X121145605Y-100200995D01*
X121270679Y-100123355D01*
X121458686Y-100007270D01*
X121698342Y-99859698D01*
X121978366Y-99687594D01*
X122287475Y-99497915D01*
X122306532Y-99486226D01*
X122613261Y-99296859D01*
X122889033Y-99124390D01*
X123122773Y-98975921D01*
X123303405Y-98858552D01*
X123419853Y-98779384D01*
X123461041Y-98745518D01*
X123443455Y-98710001D01*
X123377168Y-98614014D01*
X123278570Y-98485785D01*
X123244390Y-98443204D01*
X123124931Y-98294190D01*
X123031902Y-98171236D01*
X122959753Y-98058662D01*
X122902930Y-97940789D01*
X122855882Y-97801935D01*
X122813054Y-97626422D01*
X122768895Y-97398569D01*
X122717852Y-97102697D01*
X122654373Y-96723126D01*
X122448197Y-95493687D01*
X121644557Y-94622763D01*
X121644098Y-92803290D01*
X121643638Y-90983816D01*
X121942681Y-90687894D01*
X122031793Y-90598560D01*
X122149624Y-90468092D01*
X122221168Y-90356118D01*
X122264706Y-90230291D01*
X122298520Y-90058262D01*
X122414123Y-89482103D01*
X122633106Y-88693747D01*
X122910986Y-87957350D01*
X123243210Y-87283030D01*
X123625223Y-86680909D01*
X124052469Y-86161107D01*
X124368919Y-85825654D01*
X124142461Y-85405612D01*
X124088101Y-85303141D01*
X123999695Y-85128200D01*
X123938728Y-84996120D01*
X123916004Y-84929613D01*
X123919090Y-84920788D01*
X123981747Y-84865029D01*
X124108543Y-84784982D01*
X124277603Y-84694848D01*
X124639203Y-84516039D01*
X124648979Y-83989481D01*
X124656861Y-83797675D01*
X124744520Y-83166563D01*
X124921804Y-82561982D01*
X125182583Y-81993856D01*
X125520726Y-81472107D01*
X125930104Y-81006656D01*
X126404586Y-80607426D01*
X126938043Y-80284340D01*
X127045026Y-80232787D01*
X127327178Y-80119604D01*
X127627117Y-80035582D01*
X127965424Y-79976764D01*
X128362679Y-79939197D01*
X128839463Y-79918924D01*
X128983501Y-79915304D01*
X129376708Y-79905028D01*
X129809361Y-79893282D01*
X130238250Y-79881253D01*
X130620166Y-79870123D01*
X130882091Y-79863803D01*
X131270323Y-79863778D01*
X131596928Y-79880736D01*
X131886463Y-79918335D01*
X132163487Y-79980231D01*
X132452557Y-80070083D01*
X132778231Y-80191549D01*
X133089175Y-80321484D01*
X133459242Y-80502118D01*
X133813358Y-80709626D01*
X134171384Y-80956925D01*
X134553179Y-81256931D01*
X134978606Y-81622561D01*
X135274911Y-81876319D01*
X135819358Y-82290066D01*
X136344590Y-82616412D01*
X136859620Y-82860644D01*
X137373459Y-83028053D01*
X137407055Y-83036449D01*
X137950118Y-83146641D01*
X138567431Y-83229749D01*
X139236778Y-83283371D01*
X139935941Y-83305105D01*
X140195238Y-83308839D01*
X140449794Y-83316798D01*
X140651519Y-83327876D01*
X140784361Y-83341166D01*
X140832263Y-83355761D01*
X140821710Y-83381688D01*
X140756281Y-83476919D01*
X140642140Y-83622323D01*
X140492193Y-83802789D01*
X140319346Y-84003210D01*
X140136505Y-84208474D01*
X139956575Y-84403474D01*
X139792462Y-84573101D01*
X139599110Y-84750471D01*
X139207346Y-85042139D01*
X138782011Y-85287613D01*
X138360265Y-85463786D01*
X138355496Y-85465353D01*
X138188647Y-85521544D01*
X138065054Y-85565695D01*
X138011161Y-85588367D01*
X138016370Y-85617117D01*
X138060351Y-85711854D01*
X138135242Y-85846625D01*
X138183022Y-85931761D01*
X138278707Y-86111592D01*
X138399972Y-86346212D01*
X138536108Y-86614847D01*
X138676408Y-86896719D01*
X138784220Y-87112293D01*
X138919016Y-87373537D01*
X139040478Y-87600143D01*
X139138478Y-87773310D01*
X139202890Y-87874235D01*
X139384675Y-88059262D01*
X139661176Y-88251186D01*
X140003909Y-88427799D01*
X140394854Y-88581077D01*
X140815992Y-88702996D01*
X141249303Y-88785533D01*
X141271600Y-88788464D01*
X141458056Y-88806930D01*
X141719241Y-88826020D01*
X142032672Y-88844394D01*
X142375866Y-88860711D01*
X142726341Y-88873630D01*
X142853827Y-88877799D01*
X143159676Y-88889604D01*
X143422686Y-88902304D01*
X143628325Y-88915044D01*
X143762063Y-88926971D01*
X143809370Y-88937232D01*
X143800800Y-88950507D01*
X143729340Y-89018205D01*
X143597473Y-89129296D01*
X143419750Y-89272533D01*
X143370806Y-89310965D01*
X143210721Y-89436669D01*
X142984937Y-89610457D01*
G37*
G36*
X136767495Y-98240882D02*
G01*
X137019980Y-98104808D01*
X137272465Y-97968735D01*
X138558520Y-98550634D01*
X138603265Y-98570902D01*
X138934172Y-98722253D01*
X139231971Y-98860947D01*
X139484838Y-98981291D01*
X139680946Y-99077588D01*
X139808467Y-99144144D01*
X139855576Y-99175263D01*
X139833616Y-99205740D01*
X139742102Y-99281674D01*
X139595334Y-99387522D01*
X139410407Y-99510413D01*
X138954236Y-99802835D01*
X137409875Y-99320725D01*
X135865515Y-98838616D01*
X135533801Y-99034836D01*
X135528070Y-99038226D01*
X135423520Y-99100020D01*
X135240269Y-99208286D01*
X134985842Y-99358581D01*
X134667765Y-99546461D01*
X134293562Y-99767479D01*
X133870758Y-100017193D01*
X133406879Y-100291158D01*
X132909449Y-100584929D01*
X132385993Y-100894061D01*
X131844036Y-101214111D01*
X131348936Y-101506527D01*
X130789378Y-101837106D01*
X130241602Y-102160819D01*
X129715004Y-102472109D01*
X129218986Y-102765415D01*
X128762945Y-103035178D01*
X128356281Y-103275841D01*
X128008393Y-103481843D01*
X127728680Y-103647626D01*
X127526541Y-103767631D01*
X127400429Y-103842366D01*
X127129660Y-104001061D01*
X126892710Y-104137550D01*
X126702762Y-104244372D01*
X126572998Y-104314066D01*
X126516601Y-104339173D01*
X126490562Y-104308220D01*
X126414497Y-104201667D01*
X126295105Y-104028325D01*
X126138685Y-103797727D01*
X125951534Y-103519408D01*
X125739954Y-103202900D01*
X125510241Y-102857738D01*
X125268696Y-102493453D01*
X125021618Y-102119581D01*
X124775305Y-101745654D01*
X124536056Y-101381206D01*
X124310171Y-101035771D01*
X124103948Y-100718880D01*
X123923687Y-100440070D01*
X123775685Y-100208871D01*
X123666244Y-100034819D01*
X123601660Y-99927446D01*
X123598789Y-99912025D01*
X123646007Y-99840339D01*
X123778673Y-99728309D01*
X123999311Y-99573689D01*
X124102676Y-99505587D01*
X124272521Y-99399913D01*
X124384189Y-99343835D01*
X124453464Y-99330321D01*
X124496131Y-99352337D01*
X124541657Y-99406582D01*
X124641739Y-99529396D01*
X124787061Y-99709279D01*
X124968685Y-99935139D01*
X125177673Y-100195883D01*
X125405086Y-100480417D01*
X125407845Y-100483874D01*
X125632068Y-100764742D01*
X125834901Y-101018710D01*
X126008024Y-101235370D01*
X126143117Y-101404311D01*
X126231861Y-101515126D01*
X126265935Y-101557406D01*
X126280563Y-101556203D01*
X126368017Y-101526529D01*
X126515410Y-101467491D01*
X126701476Y-101387391D01*
X126756107Y-101363238D01*
X126981323Y-101264271D01*
X127259645Y-101142611D01*
X127560864Y-101011446D01*
X127854772Y-100883962D01*
X128037540Y-100804581D01*
X128309179Y-100686133D01*
X128648384Y-100537904D01*
X129042353Y-100365498D01*
X129478285Y-100174522D01*
X129943378Y-99970580D01*
X130424831Y-99759278D01*
X130909841Y-99546222D01*
X131367181Y-99345301D01*
X131849188Y-99133698D01*
X132315564Y-98929107D01*
X132753508Y-98737137D01*
X133150217Y-98563397D01*
X133492889Y-98413497D01*
X133768721Y-98293046D01*
X133964911Y-98207653D01*
X134080656Y-98157390D01*
X134357240Y-98036968D01*
X134614847Y-97924405D01*
X134828908Y-97830449D01*
X134974851Y-97765850D01*
X135252585Y-97641738D01*
X136767495Y-98240882D01*
G37*
G36*
X135631046Y-91545590D02*
G01*
X135529080Y-92266530D01*
X135349485Y-92942704D01*
X135095002Y-93566337D01*
X134768374Y-94129653D01*
X134372340Y-94624878D01*
X134162094Y-94849193D01*
X133933453Y-96149895D01*
X133877249Y-96465736D01*
X133816929Y-96795956D01*
X133762568Y-97084540D01*
X133716949Y-97317012D01*
X133682856Y-97478897D01*
X133663074Y-97555721D01*
X133645342Y-97581147D01*
X133566410Y-97642010D01*
X133421179Y-97725122D01*
X133202688Y-97834058D01*
X132903974Y-97972393D01*
X132518074Y-98143702D01*
X132402264Y-98194407D01*
X132109252Y-98322806D01*
X131761212Y-98475438D01*
X131367977Y-98647979D01*
X130939381Y-98836109D01*
X130485258Y-99035507D01*
X130015442Y-99241851D01*
X129539767Y-99450819D01*
X129068066Y-99658091D01*
X128610173Y-99859345D01*
X128175922Y-100050259D01*
X127775148Y-100226512D01*
X127417682Y-100383783D01*
X127113361Y-100517751D01*
X126872016Y-100624093D01*
X126703483Y-100698489D01*
X126617595Y-100736618D01*
X126610362Y-100739852D01*
X126497154Y-100786368D01*
X126430278Y-100806671D01*
X126420718Y-100799256D01*
X126356846Y-100729223D01*
X126239909Y-100592040D01*
X126076699Y-100395957D01*
X125874010Y-100149221D01*
X125638633Y-99860082D01*
X125377363Y-99536788D01*
X125096991Y-99187588D01*
X123799528Y-97566528D01*
X123656083Y-96729486D01*
X124885912Y-96729486D01*
X125001208Y-96989047D01*
X125068480Y-97139552D01*
X125168887Y-97362362D01*
X125266261Y-97576839D01*
X125284484Y-97616868D01*
X125384039Y-97837418D01*
X125498131Y-98092368D01*
X125605518Y-98334294D01*
X125633736Y-98398184D01*
X125737359Y-98632458D01*
X125836549Y-98856263D01*
X125913154Y-99028628D01*
X125965706Y-99142901D01*
X126020209Y-99251702D01*
X126047871Y-99293737D01*
X126050174Y-99293170D01*
X126103670Y-99266951D01*
X126227672Y-99200458D01*
X126425064Y-99092092D01*
X126698734Y-98940251D01*
X127051566Y-98743337D01*
X127486447Y-98499749D01*
X128006263Y-98207887D01*
X128283149Y-98052513D01*
X128596894Y-97876936D01*
X128894271Y-97710973D01*
X129151409Y-97567947D01*
X129344434Y-97461179D01*
X129557448Y-97343250D01*
X129834896Y-97188475D01*
X130129491Y-97023209D01*
X130404871Y-96867799D01*
X130421408Y-96858432D01*
X130677417Y-96713885D01*
X130931125Y-96571376D01*
X131154039Y-96446872D01*
X131317662Y-96356339D01*
X131425853Y-96296779D01*
X131626217Y-96185940D01*
X131876366Y-96047180D01*
X132154761Y-95892450D01*
X132439866Y-95733698D01*
X133255243Y-95279224D01*
X133283201Y-91794930D01*
X134204772Y-91321937D01*
X134290446Y-91277823D01*
X134610123Y-91109637D01*
X134846518Y-90978004D01*
X135006665Y-90878630D01*
X135097595Y-90807224D01*
X135126342Y-90759494D01*
X135124644Y-90727266D01*
X135094544Y-90563909D01*
X135032745Y-90338017D01*
X134946965Y-90072471D01*
X134844920Y-89790153D01*
X134734328Y-89513944D01*
X134622904Y-89266726D01*
X134313906Y-88711280D01*
X133880916Y-88117255D01*
X133378478Y-87590741D01*
X132812629Y-87135347D01*
X132189403Y-86754680D01*
X131514836Y-86452347D01*
X130794963Y-86231955D01*
X130035819Y-86097112D01*
X129243440Y-86051424D01*
X129231888Y-86051432D01*
X128753338Y-86064767D01*
X128338078Y-86106932D01*
X127951985Y-86182922D01*
X127560934Y-86297733D01*
X127321390Y-86382407D01*
X127033634Y-86503267D01*
X126769756Y-86643694D01*
X126485302Y-86825499D01*
X126396334Y-86890886D01*
X126235115Y-87026471D01*
X126064432Y-87185549D01*
X125901577Y-87350352D01*
X125763842Y-87503108D01*
X125668520Y-87626050D01*
X125632903Y-87701408D01*
X125652220Y-87733675D01*
X125739303Y-87805635D01*
X125872764Y-87888253D01*
X125885632Y-87895324D01*
X126050405Y-87986978D01*
X126279046Y-88115602D01*
X126562079Y-88275763D01*
X126890026Y-88462027D01*
X127253410Y-88668961D01*
X127642752Y-88891131D01*
X128048577Y-89123104D01*
X128461407Y-89359446D01*
X128871764Y-89594725D01*
X129270171Y-89823506D01*
X129647150Y-90040356D01*
X129993225Y-90239842D01*
X130298918Y-90416531D01*
X130554752Y-90564989D01*
X130751249Y-90679782D01*
X130878933Y-90755477D01*
X130928325Y-90786641D01*
X130930598Y-90789393D01*
X130900978Y-90789233D01*
X130807785Y-90757169D01*
X130782689Y-90747610D01*
X130658777Y-90702513D01*
X130462010Y-90632340D01*
X130208622Y-90542833D01*
X129914847Y-90439735D01*
X129596919Y-90328791D01*
X129399681Y-90260149D01*
X128815151Y-90056666D01*
X128220360Y-89849531D01*
X127632917Y-89644881D01*
X127070431Y-89448852D01*
X126550510Y-89267581D01*
X126090764Y-89107203D01*
X125708802Y-88973855D01*
X125635214Y-88948479D01*
X125402106Y-88872663D01*
X125208513Y-88816532D01*
X125072864Y-88785133D01*
X125013587Y-88783510D01*
X124973259Y-88855887D01*
X124930662Y-88975897D01*
X124886645Y-89129375D01*
X125499635Y-89335536D01*
X125545532Y-89350980D01*
X125732301Y-89413903D01*
X126001284Y-89504590D01*
X126342620Y-89619715D01*
X126746449Y-89755951D01*
X127202909Y-89909971D01*
X127702140Y-90078448D01*
X128234282Y-90258055D01*
X128698293Y-90414685D01*
X128789475Y-90445464D01*
X129357857Y-90637348D01*
X131540579Y-91374277D01*
X132603089Y-91733001D01*
X132602024Y-91841338D01*
X132582250Y-93852960D01*
X132576243Y-94464049D01*
X132450000Y-94499619D01*
X132404573Y-94512815D01*
X132266241Y-94553403D01*
X132045382Y-94618387D01*
X131750044Y-94705391D01*
X131388277Y-94812044D01*
X130968129Y-94935971D01*
X130497649Y-95074798D01*
X130416090Y-95098872D01*
X129984887Y-95226152D01*
X129437892Y-95387659D01*
X128864712Y-95556945D01*
X128436987Y-95683278D01*
X127875611Y-95849055D01*
X127343420Y-96006178D01*
X126848873Y-96152151D01*
X126400427Y-96284478D01*
X126006543Y-96400664D01*
X125675678Y-96498215D01*
X125416292Y-96574633D01*
X125236843Y-96627424D01*
X125145789Y-96654093D01*
X124885912Y-96729486D01*
X123656083Y-96729486D01*
X123589253Y-96339517D01*
X123378977Y-95112506D01*
X123260452Y-94980463D01*
X124067495Y-94980463D01*
X124294732Y-95203479D01*
X124521968Y-95426495D01*
X124521968Y-92950959D01*
X125329921Y-92950959D01*
X125330156Y-93258168D01*
X125331585Y-93757582D01*
X125334201Y-94219884D01*
X125337878Y-94635946D01*
X125342491Y-94996643D01*
X125347915Y-95292850D01*
X125354024Y-95515440D01*
X125360692Y-95655288D01*
X125367793Y-95703269D01*
X125409795Y-95692708D01*
X125526458Y-95658095D01*
X125683400Y-95608732D01*
X125961133Y-95519376D01*
X125974120Y-92986184D01*
X126794334Y-92986184D01*
X126794538Y-93401172D01*
X126795240Y-93846021D01*
X126796390Y-94249579D01*
X126797934Y-94601897D01*
X126799817Y-94893024D01*
X126801985Y-95113009D01*
X126804383Y-95251901D01*
X126806958Y-95299750D01*
X126854153Y-95284690D01*
X126972501Y-95247618D01*
X127135189Y-95196949D01*
X127450795Y-95098872D01*
X127450795Y-93001456D01*
X128258748Y-93001456D01*
X128259299Y-93451009D01*
X128261402Y-93869345D01*
X128265335Y-94201546D01*
X128271367Y-94455481D01*
X128279767Y-94639020D01*
X128290804Y-94760032D01*
X128304749Y-94826386D01*
X128321869Y-94845951D01*
X128361607Y-94838811D01*
X128482063Y-94806419D01*
X128637475Y-94757582D01*
X128889960Y-94673260D01*
X128903165Y-93036681D01*
X129723161Y-93036681D01*
X129723188Y-93089720D01*
X129724840Y-93450672D01*
X129728813Y-93774315D01*
X129734762Y-94047914D01*
X129742344Y-94258731D01*
X129751216Y-94394030D01*
X129761034Y-94441073D01*
X129802702Y-94431041D01*
X129919421Y-94397844D01*
X130076640Y-94350421D01*
X130354374Y-94264720D01*
X130373637Y-92535533D01*
X131194389Y-92535533D01*
X131195621Y-92794289D01*
X131199058Y-93089788D01*
X131212823Y-94020468D01*
X131490557Y-93936714D01*
X131768290Y-93852960D01*
X131768290Y-92309538D01*
X131494605Y-92216509D01*
X131375938Y-92178476D01*
X131256433Y-92146522D01*
X131203106Y-92141294D01*
X131198266Y-92192835D01*
X131195294Y-92329665D01*
X131194389Y-92535533D01*
X130373637Y-92535533D01*
X130381370Y-91841338D01*
X130052266Y-91734339D01*
X129723161Y-91627339D01*
X129723161Y-93036681D01*
X128903165Y-93036681D01*
X128903269Y-93023769D01*
X128916578Y-91374277D01*
X128650784Y-91286890D01*
X128543280Y-91251348D01*
X128402902Y-91204272D01*
X128321869Y-91176208D01*
X128305149Y-91188947D01*
X128291203Y-91247359D01*
X128280151Y-91359477D01*
X128271719Y-91533180D01*
X128265635Y-91776350D01*
X128261627Y-92096866D01*
X128259422Y-92502608D01*
X128258748Y-93001456D01*
X127450795Y-93001456D01*
X127450795Y-90881327D01*
X127122565Y-90774611D01*
X126794334Y-90667896D01*
X126794334Y-92986184D01*
X125974120Y-92986184D01*
X125974218Y-92967030D01*
X125987303Y-90414685D01*
X125721733Y-90327373D01*
X125614456Y-90291905D01*
X125474089Y-90244833D01*
X125393042Y-90216765D01*
X125381507Y-90224551D01*
X125369063Y-90272381D01*
X125358651Y-90368664D01*
X125356928Y-90399216D01*
X125350119Y-90519966D01*
X125343315Y-90732855D01*
X125338089Y-91013898D01*
X125334288Y-91369663D01*
X125331761Y-91806716D01*
X125330355Y-92331626D01*
X125329921Y-92950959D01*
X124521968Y-92950959D01*
X124521968Y-90399216D01*
X124296388Y-90592103D01*
X124070807Y-90784990D01*
X124069151Y-92882726D01*
X124067980Y-94365526D01*
X124067495Y-94980463D01*
X123260452Y-94980463D01*
X122552585Y-94191860D01*
X122552585Y-93971054D01*
X123108052Y-93971054D01*
X123512028Y-94365526D01*
X123512028Y-92865616D01*
X123511879Y-92737010D01*
X123509734Y-92369685D01*
X123505304Y-92041331D01*
X123498923Y-91764351D01*
X123490928Y-91551151D01*
X123481654Y-91414134D01*
X123471437Y-91365706D01*
X123452341Y-91373095D01*
X123374145Y-91432586D01*
X123269449Y-91532225D01*
X123108052Y-91698744D01*
X123108052Y-93971054D01*
X122552585Y-93971054D01*
X122552585Y-91444168D01*
X123167601Y-90823636D01*
X123263393Y-90274094D01*
X123314643Y-90004289D01*
X123459383Y-89395645D01*
X123636553Y-88812517D01*
X123835345Y-88292353D01*
X123957247Y-88031587D01*
X124205581Y-87588915D01*
X124487899Y-87176076D01*
X124790671Y-86810352D01*
X125100365Y-86509027D01*
X125403450Y-86289384D01*
X125491663Y-86236408D01*
X125593312Y-86170822D01*
X125632903Y-86138343D01*
X125629006Y-86127927D01*
X125590150Y-86049042D01*
X125518512Y-85911477D01*
X125425116Y-85736548D01*
X125385359Y-85661319D01*
X125304891Y-85497135D01*
X125255068Y-85377159D01*
X125245398Y-85323256D01*
X125316451Y-85285818D01*
X125465375Y-85229714D01*
X125671339Y-85161495D01*
X125913786Y-85087439D01*
X126172153Y-85013822D01*
X126425882Y-84946924D01*
X126654411Y-84893023D01*
X126813059Y-84860438D01*
X126988861Y-84830702D01*
X127170364Y-84809186D01*
X127376623Y-84794605D01*
X127626694Y-84785672D01*
X127939632Y-84781100D01*
X128334493Y-84779604D01*
X128687783Y-84780153D01*
X129007785Y-84783653D01*
X129262391Y-84791407D01*
X129470465Y-84804661D01*
X129650874Y-84824661D01*
X129822484Y-84852653D01*
X130004160Y-84889882D01*
X130741750Y-85082635D01*
X131482295Y-85352598D01*
X132151145Y-85685031D01*
X132754218Y-86082500D01*
X132851678Y-86158071D01*
X133201248Y-86458319D01*
X133567053Y-86810842D01*
X133923693Y-87189081D01*
X134245769Y-87566471D01*
X134507881Y-87916452D01*
X134734868Y-88272606D01*
X134972253Y-88691618D01*
X135192818Y-89125694D01*
X135380826Y-89543780D01*
X135520541Y-89914818D01*
X135533034Y-89953320D01*
X135587538Y-90136931D01*
X135623245Y-90302316D01*
X135643888Y-90479261D01*
X135653200Y-90697553D01*
X135653567Y-90759494D01*
X135654915Y-90986978D01*
X135631046Y-91545590D01*
G37*
G36*
X137160208Y-99675627D02*
G01*
X137401699Y-99756062D01*
X137704254Y-99857603D01*
X137964112Y-99945703D01*
X138167969Y-100015813D01*
X138302521Y-100063385D01*
X138354465Y-100083871D01*
X138359633Y-100090362D01*
X138357334Y-100101010D01*
X138340748Y-100119766D01*
X138303555Y-100151015D01*
X138239433Y-100199140D01*
X138142059Y-100268525D01*
X138005113Y-100363555D01*
X137822272Y-100488612D01*
X137587216Y-100648082D01*
X137293621Y-100846348D01*
X136935167Y-101087794D01*
X136505532Y-101376803D01*
X135998395Y-101717761D01*
X135556823Y-102014692D01*
X135088443Y-102329813D01*
X134625016Y-102641754D01*
X134179691Y-102941659D01*
X133765613Y-103220671D01*
X133395929Y-103469935D01*
X133083786Y-103680594D01*
X132842331Y-103843792D01*
X132787533Y-103880861D01*
X132508770Y-104069145D01*
X132165423Y-104300686D01*
X131773100Y-104564980D01*
X131347404Y-104851520D01*
X130903942Y-105149802D01*
X130458320Y-105449320D01*
X130026143Y-105739569D01*
X129944373Y-105794471D01*
X129502612Y-106091399D01*
X129046414Y-106398514D01*
X128592170Y-106704752D01*
X128156272Y-106999047D01*
X127755110Y-107270334D01*
X127405078Y-107507549D01*
X127122565Y-107699626D01*
X126877065Y-107865881D01*
X126608742Y-108044937D01*
X126376966Y-108196707D01*
X126193381Y-108313674D01*
X126069634Y-108388320D01*
X126017368Y-108413127D01*
X126013646Y-108411069D01*
X125989004Y-108377925D01*
X125945172Y-108300549D01*
X125879614Y-108173651D01*
X125789796Y-107991940D01*
X125673180Y-107750128D01*
X125527234Y-107442922D01*
X125349421Y-107065034D01*
X125137206Y-106611174D01*
X124888054Y-106076050D01*
X124599429Y-105454374D01*
X124547458Y-105342420D01*
X124414177Y-105055916D01*
X124260407Y-104725966D01*
X124101296Y-104385065D01*
X123951994Y-104065706D01*
X123857062Y-103862858D01*
X123703764Y-103535304D01*
X123526804Y-103157196D01*
X123337011Y-102751671D01*
X123145212Y-102341866D01*
X122962238Y-101950918D01*
X122929210Y-101880329D01*
X122774821Y-101549755D01*
X122636442Y-101252492D01*
X122519452Y-101000164D01*
X122429229Y-100804395D01*
X122371151Y-100676809D01*
X122350597Y-100629028D01*
X122351326Y-100627565D01*
X122400941Y-100590642D01*
X122513103Y-100518219D01*
X122666203Y-100424315D01*
X122668629Y-100422857D01*
X122841533Y-100318437D01*
X122992730Y-100226248D01*
X123089737Y-100166095D01*
X123118609Y-100150909D01*
X123152949Y-100148202D01*
X123194413Y-100169923D01*
X123249744Y-100224743D01*
X123325685Y-100321337D01*
X123428978Y-100468378D01*
X123566366Y-100674539D01*
X123744591Y-100948494D01*
X123970396Y-101298915D01*
X124160379Y-101594213D01*
X124386839Y-101946039D01*
X124606094Y-102286506D01*
X124806292Y-102597215D01*
X124975582Y-102859768D01*
X125102110Y-103055765D01*
X125141072Y-103116070D01*
X125314435Y-103384672D01*
X125514753Y-103695367D01*
X125720218Y-104014319D01*
X125909022Y-104307690D01*
X125994536Y-104439486D01*
X126164578Y-104691452D01*
X126291328Y-104861693D01*
X126378517Y-104955000D01*
X126429879Y-104976163D01*
X126457522Y-104962853D01*
X126517067Y-104930393D01*
X126611193Y-104876890D01*
X126743901Y-104799967D01*
X126919193Y-104697244D01*
X127141070Y-104566342D01*
X127413534Y-104404884D01*
X127740586Y-104210490D01*
X128126227Y-103980782D01*
X128574459Y-103713381D01*
X129089283Y-103405909D01*
X129674701Y-103055987D01*
X130334715Y-102661236D01*
X131073325Y-102219277D01*
X131894533Y-101727733D01*
X132293807Y-101488746D01*
X132812725Y-101178248D01*
X133310652Y-100880422D01*
X133779382Y-100600173D01*
X134210707Y-100342401D01*
X134596422Y-100112011D01*
X134928321Y-99913905D01*
X135198196Y-99752985D01*
X135397843Y-99634154D01*
X135519055Y-99562315D01*
X135987513Y-99286244D01*
X137160208Y-99675627D01*
G37*
G36*
X128240199Y-80877442D02*
G01*
X128239971Y-80883514D01*
X128191247Y-80935540D01*
X128082679Y-81025066D01*
X127932212Y-81136969D01*
X127780438Y-81253754D01*
X127425376Y-81612385D01*
X127140477Y-82041640D01*
X126925317Y-82542422D01*
X126779472Y-83115637D01*
X126702519Y-83762191D01*
X126668092Y-84313944D01*
X126238867Y-84425632D01*
X126154422Y-84447666D01*
X125930843Y-84504381D01*
X125783055Y-84531894D01*
X125693768Y-84525674D01*
X125645693Y-84481194D01*
X125621543Y-84393925D01*
X125604028Y-84259337D01*
X125589248Y-83940144D01*
X125643572Y-83479423D01*
X125776287Y-83012017D01*
X125978116Y-82554920D01*
X126239780Y-82125126D01*
X126552001Y-81739629D01*
X126905501Y-81415422D01*
X127291001Y-81169499D01*
X127456881Y-81094107D01*
X127656487Y-81017094D01*
X127858531Y-80949564D01*
X128039104Y-80898874D01*
X128174296Y-80872382D01*
X128240199Y-80877442D01*
G37*
G36*
X131592312Y-80840526D02*
G01*
X132158328Y-80977788D01*
X132708327Y-81192465D01*
X133252977Y-81489557D01*
X133802941Y-81874064D01*
X134368887Y-82350987D01*
X134749888Y-82679693D01*
X135390787Y-83152404D01*
X136043436Y-83531530D01*
X136717525Y-83821668D01*
X137422746Y-84027414D01*
X138168787Y-84153363D01*
X138305484Y-84170528D01*
X138488731Y-84199619D01*
X138614449Y-84227578D01*
X138661133Y-84250176D01*
X138658824Y-84258691D01*
X138595539Y-84312888D01*
X138461063Y-84386078D01*
X138276129Y-84469415D01*
X138061475Y-84554051D01*
X137837835Y-84631141D01*
X137625945Y-84691838D01*
X137552583Y-84709788D01*
X137163497Y-84791145D01*
X136795186Y-84839106D01*
X136387475Y-84861936D01*
X136057952Y-84871525D01*
X136488469Y-85304029D01*
X136686055Y-85509494D01*
X136880329Y-85732149D01*
X137058306Y-85964604D01*
X137231036Y-86223536D01*
X137409570Y-86525619D01*
X137604956Y-86887530D01*
X137828246Y-87325944D01*
X137973420Y-87611775D01*
X138117541Y-87886735D01*
X138247930Y-88127065D01*
X138354426Y-88314039D01*
X138426868Y-88428936D01*
X138609675Y-88641691D01*
X138926171Y-88905840D01*
X139312635Y-89143255D01*
X139751772Y-89345052D01*
X140226287Y-89502348D01*
X140718887Y-89606260D01*
X140745749Y-89610386D01*
X140917675Y-89642293D01*
X141039026Y-89674250D01*
X141084990Y-89699911D01*
X141080532Y-89706921D01*
X141010036Y-89742781D01*
X140871624Y-89791888D01*
X140688364Y-89845758D01*
X140136267Y-89966678D01*
X139478529Y-90033939D01*
X138850768Y-90011403D01*
X138260771Y-89898899D01*
X138239164Y-89892926D01*
X138065425Y-89846032D01*
X137935403Y-89812873D01*
X137875838Y-89800298D01*
X137872875Y-89812438D01*
X137901135Y-89887572D01*
X137963568Y-90008588D01*
X138097088Y-90200715D01*
X138350563Y-90457792D01*
X138677184Y-90705834D01*
X139061605Y-90931936D01*
X139198776Y-91004148D01*
X139364358Y-91095747D01*
X139477616Y-91164073D01*
X139519583Y-91198103D01*
X139505351Y-91203272D01*
X139410528Y-91209432D01*
X139241421Y-91211100D01*
X139015316Y-91208217D01*
X138749503Y-91200725D01*
X138334662Y-91178352D01*
X137910423Y-91131296D01*
X137544451Y-91057720D01*
X137214323Y-90952923D01*
X136897621Y-90812198D01*
X136610126Y-90648458D01*
X136373085Y-90459964D01*
X136211384Y-90252144D01*
X136111608Y-90011332D01*
X136073089Y-89879776D01*
X135856518Y-89272615D01*
X135577304Y-88650878D01*
X135252257Y-88049317D01*
X134898186Y-87502684D01*
X134554488Y-87051728D01*
X133963859Y-86395149D01*
X133326767Y-85820996D01*
X132647997Y-85332967D01*
X131932333Y-84934765D01*
X131184559Y-84630088D01*
X131142847Y-84615790D01*
X130971468Y-84551224D01*
X130847578Y-84495186D01*
X130795632Y-84458467D01*
X130823313Y-84404975D01*
X130922066Y-84322413D01*
X131070971Y-84225871D01*
X131248630Y-84129180D01*
X131433642Y-84046168D01*
X131559402Y-84003184D01*
X131866156Y-83930952D01*
X132214209Y-83880993D01*
X132564521Y-83858143D01*
X132878050Y-83867237D01*
X132908640Y-83870274D01*
X133137777Y-83899108D01*
X133400559Y-83939941D01*
X133663495Y-83986857D01*
X133893095Y-84033941D01*
X134055867Y-84075277D01*
X134105912Y-84089821D01*
X134145691Y-84095476D01*
X134115181Y-84074896D01*
X134030290Y-84035250D01*
X133906927Y-83983708D01*
X133761000Y-83927439D01*
X133608418Y-83873615D01*
X133227313Y-83759407D01*
X132572337Y-83628142D01*
X131925118Y-83584491D01*
X131751979Y-83586556D01*
X131261997Y-83625027D01*
X130829943Y-83717106D01*
X130431176Y-83869386D01*
X130041051Y-84088459D01*
X129742454Y-84281451D01*
X129391953Y-84234085D01*
X129270945Y-84222503D01*
X129042612Y-84210730D01*
X128757120Y-84203252D01*
X128439237Y-84200661D01*
X128113731Y-84203549D01*
X127186011Y-84220378D01*
X127215571Y-83917395D01*
X127235633Y-83751680D01*
X127356967Y-83206089D01*
X127555120Y-82690826D01*
X127821693Y-82224716D01*
X128148290Y-81826583D01*
X128239729Y-81737209D01*
X128702926Y-81367262D01*
X129214749Y-81085008D01*
X129771986Y-80891626D01*
X130371423Y-80788296D01*
X131009846Y-80776198D01*
X131592312Y-80840526D01*
G37*
G36*
X113573610Y-84938707D02*
G01*
X113587827Y-85082626D01*
X113605877Y-85176357D01*
X113631556Y-85266581D01*
X113662413Y-85397868D01*
X113693142Y-85542251D01*
X113767293Y-85881037D01*
X113826735Y-86135125D01*
X113873756Y-86313430D01*
X113910642Y-86424867D01*
X113939682Y-86478353D01*
X113955028Y-86510489D01*
X113975642Y-86623287D01*
X113983721Y-86776599D01*
X113985947Y-86845233D01*
X114010732Y-87012262D01*
X114055992Y-87123634D01*
X114078381Y-87155417D01*
X114125333Y-87257747D01*
X114116149Y-87320246D01*
X114051319Y-87322053D01*
X114005539Y-87312358D01*
X113915951Y-87332532D01*
X113816544Y-87381642D01*
X113635307Y-87435532D01*
X113409360Y-87480539D01*
X113167326Y-87509883D01*
X112936290Y-87540560D01*
X112680464Y-87620917D01*
X112495345Y-87748353D01*
X112419562Y-87800598D01*
X112296405Y-87834496D01*
X112270690Y-87835257D01*
X112206672Y-87850460D01*
X112140486Y-87897439D01*
X112053523Y-87992118D01*
X111927169Y-88150422D01*
X111915905Y-88164233D01*
X111805526Y-88260518D01*
X111695406Y-88306839D01*
X111648355Y-88319978D01*
X111526420Y-88389429D01*
X111399700Y-88495468D01*
X111335637Y-88555969D01*
X111275245Y-88604208D01*
X111231081Y-88639484D01*
X111163960Y-88672955D01*
X111106522Y-88690912D01*
X111007148Y-88756942D01*
X110919968Y-88841666D01*
X110882558Y-88913026D01*
X110880418Y-88928640D01*
X110833333Y-88966667D01*
X110816889Y-88970004D01*
X110784108Y-89024472D01*
X110784293Y-89027696D01*
X110818624Y-89035628D01*
X110894864Y-88983250D01*
X110974423Y-88922676D01*
X111160471Y-88811636D01*
X111394382Y-88694868D01*
X111647625Y-88586216D01*
X111891667Y-88499528D01*
X112064377Y-88444737D01*
X112305313Y-88365686D01*
X112531589Y-88289096D01*
X112726952Y-88226201D01*
X112935049Y-88167480D01*
X113097674Y-88130047D01*
X113147333Y-88120254D01*
X113318993Y-88076340D01*
X113454554Y-88028240D01*
X113583300Y-87991750D01*
X113712401Y-88022173D01*
X113809998Y-88052385D01*
X113903168Y-88051773D01*
X113910636Y-88049723D01*
X113996137Y-88069678D01*
X114101155Y-88139238D01*
X114108621Y-88145966D01*
X114212856Y-88304820D01*
X114248837Y-88508296D01*
X114216150Y-88731000D01*
X114114378Y-88947542D01*
X113979663Y-89149929D01*
X113649424Y-89057931D01*
X113563734Y-89035914D01*
X113384719Y-89002366D01*
X113175131Y-88980740D01*
X112912409Y-88969097D01*
X112573990Y-88965497D01*
X112425955Y-88966190D01*
X112013676Y-88979930D01*
X111679724Y-89014222D01*
X111409714Y-89072959D01*
X111263399Y-89130749D01*
X111189259Y-89160032D01*
X111003977Y-89279334D01*
X110839482Y-89434755D01*
X110770282Y-89513131D01*
X110710472Y-89603219D01*
X110700524Y-89686665D01*
X110728726Y-89802348D01*
X110734899Y-89823645D01*
X110770357Y-89978533D01*
X110785653Y-90104548D01*
X110801675Y-90188406D01*
X110853418Y-90337704D01*
X110928261Y-90505662D01*
X111069324Y-90789426D01*
X111121055Y-90641031D01*
X111123138Y-90635194D01*
X111164189Y-90559311D01*
X111473256Y-90559311D01*
X111479115Y-90593122D01*
X111534787Y-90675866D01*
X111571080Y-90700252D01*
X111679954Y-90753224D01*
X111737015Y-90757212D01*
X111737782Y-90714993D01*
X111686228Y-90645116D01*
X111592184Y-90568291D01*
X111545578Y-90539212D01*
X111487593Y-90519365D01*
X111473256Y-90559311D01*
X111164189Y-90559311D01*
X111177713Y-90534312D01*
X111236184Y-90492636D01*
X111246980Y-90489120D01*
X111225223Y-90450132D01*
X111141146Y-90381880D01*
X111027012Y-90273865D01*
X110981858Y-90160368D01*
X110981968Y-90143820D01*
X110993308Y-90091866D01*
X111038328Y-90063619D01*
X111138611Y-90051921D01*
X111315736Y-90049612D01*
X111489109Y-90042478D01*
X111630348Y-90023164D01*
X111704138Y-89995939D01*
X111707362Y-89992966D01*
X111777363Y-89970157D01*
X111913308Y-89973182D01*
X112129666Y-90002253D01*
X112158630Y-90006805D01*
X112344391Y-90030330D01*
X112493348Y-90040052D01*
X112575512Y-90033846D01*
X112635468Y-89986651D01*
X112720182Y-89864631D01*
X112797258Y-89702912D01*
X112849436Y-89533049D01*
X112855662Y-89507527D01*
X112923116Y-89395481D01*
X113027150Y-89370360D01*
X113150562Y-89437617D01*
X113209529Y-89513259D01*
X113247615Y-89663007D01*
X113220548Y-89817875D01*
X113136359Y-89946333D01*
X113003075Y-90016846D01*
X112889316Y-90060964D01*
X112851550Y-90141565D01*
X112851579Y-90144926D01*
X112885351Y-90232301D01*
X112990605Y-90280775D01*
X113178774Y-90295736D01*
X113201831Y-90295968D01*
X113395744Y-90325404D01*
X113506202Y-90403356D01*
X113531471Y-90528679D01*
X113530014Y-90542114D01*
X113542273Y-90634215D01*
X113614535Y-90666323D01*
X113710074Y-90681385D01*
X113848353Y-90712833D01*
X113863701Y-90714993D01*
X113944086Y-90726306D01*
X113987487Y-90707177D01*
X113991736Y-90668137D01*
X114040566Y-90504732D01*
X114154634Y-90366535D01*
X114206426Y-90319880D01*
X114297301Y-90258660D01*
X114366936Y-90266357D01*
X114446968Y-90340112D01*
X114447448Y-90340644D01*
X114475425Y-90381985D01*
X114496749Y-90444211D01*
X114512424Y-90540250D01*
X114523454Y-90683027D01*
X114530844Y-90885471D01*
X114533839Y-91058721D01*
X114534418Y-91092217D01*
X114535598Y-91160508D01*
X114538720Y-91521066D01*
X114539412Y-91632185D01*
X114540330Y-91944767D01*
X114540430Y-91978994D01*
X114537377Y-92242427D01*
X114527994Y-92434310D01*
X114510025Y-92566471D01*
X114481212Y-92650736D01*
X114439298Y-92698931D01*
X114382025Y-92722884D01*
X114307137Y-92734420D01*
X114279196Y-92736807D01*
X114200527Y-92719647D01*
X114179866Y-92641886D01*
X114171667Y-92571750D01*
X114131395Y-92461628D01*
X114109211Y-92438129D01*
X114089288Y-92470784D01*
X114082924Y-92592894D01*
X114084116Y-92642441D01*
X114100229Y-92759704D01*
X114129303Y-92814406D01*
X114146179Y-92842825D01*
X114150815Y-92957990D01*
X114130580Y-93150775D01*
X114101734Y-93363165D01*
X114069069Y-93620883D01*
X114040159Y-93864535D01*
X114035589Y-93903918D01*
X114009345Y-94101891D01*
X113982514Y-94266510D01*
X113960251Y-94365466D01*
X113954375Y-94461342D01*
X114028152Y-94560999D01*
X114042292Y-94578295D01*
X114095669Y-94643583D01*
X114130641Y-94749215D01*
X114130301Y-94768517D01*
X114119043Y-94816597D01*
X114082170Y-94775194D01*
X114052917Y-94740571D01*
X114033699Y-94759982D01*
X114035125Y-94777561D01*
X114050960Y-94805067D01*
X114073010Y-94843369D01*
X114094762Y-94882878D01*
X114115032Y-95003612D01*
X114115335Y-95009243D01*
X114124425Y-95178011D01*
X114123264Y-95380532D01*
X114122909Y-95386928D01*
X114111869Y-95585630D01*
X114108001Y-95618695D01*
X114090564Y-95767761D01*
X114059670Y-95901380D01*
X114044708Y-95947469D01*
X114001213Y-96135309D01*
X113983721Y-96304447D01*
X113983099Y-96336744D01*
X113968618Y-96456727D01*
X113940962Y-96518678D01*
X113930595Y-96529683D01*
X113895661Y-96614504D01*
X113865978Y-96746629D01*
X113863563Y-96759994D01*
X113817779Y-96909428D01*
X113737336Y-97099905D01*
X113638000Y-97293600D01*
X113612312Y-97339319D01*
X113525714Y-97499914D01*
X113465085Y-97622620D01*
X113442248Y-97683865D01*
X113441663Y-97691561D01*
X113402912Y-97728682D01*
X113395664Y-97730988D01*
X113351211Y-97789097D01*
X113301276Y-97900969D01*
X113290622Y-97928765D01*
X113237912Y-98031634D01*
X113192938Y-98073256D01*
X113167976Y-98087596D01*
X113146899Y-98162424D01*
X113124305Y-98244929D01*
X113054471Y-98350801D01*
X112988586Y-98437811D01*
X112926915Y-98560691D01*
X112900485Y-98631810D01*
X112875893Y-98653902D01*
X112866936Y-98588733D01*
X112874119Y-98442216D01*
X112897943Y-98220262D01*
X112905849Y-98160472D01*
X112936027Y-97973794D01*
X112967310Y-97830959D01*
X112994064Y-97759006D01*
X113011004Y-97726554D01*
X113044444Y-97611517D01*
X113072017Y-97457946D01*
X113083610Y-97381276D01*
X113118041Y-97209256D01*
X113154497Y-97081127D01*
X113181787Y-96969797D01*
X113184335Y-96835003D01*
X113183332Y-96829192D01*
X113167191Y-96761121D01*
X113144775Y-96771785D01*
X113100274Y-96867248D01*
X113089458Y-96893602D01*
X113037008Y-97052727D01*
X112994306Y-97225291D01*
X112978924Y-97291745D01*
X112913828Y-97498453D01*
X112823200Y-97729345D01*
X112720236Y-97954724D01*
X112618129Y-98144893D01*
X112530074Y-98270155D01*
X112528979Y-98271348D01*
X112451193Y-98390112D01*
X112366892Y-98568764D01*
X112289749Y-98771441D01*
X112233437Y-98962282D01*
X112211628Y-99105424D01*
X112202983Y-99164096D01*
X112166482Y-99205426D01*
X112144684Y-99225478D01*
X112104927Y-99318062D01*
X112066633Y-99460499D01*
X112043935Y-99556701D01*
X112003884Y-99692559D01*
X111970519Y-99768154D01*
X111961680Y-99781373D01*
X111916637Y-99877135D01*
X111867560Y-100011669D01*
X111855042Y-100048159D01*
X111788533Y-100195075D01*
X111713635Y-100308571D01*
X111643658Y-100375091D01*
X111591912Y-100381080D01*
X111571705Y-100312984D01*
X111563129Y-100278550D01*
X111497868Y-100239147D01*
X111445679Y-100270267D01*
X111424031Y-100388040D01*
X111399525Y-100512128D01*
X111313275Y-100580212D01*
X111218448Y-100630635D01*
X111100205Y-100720721D01*
X111084440Y-100731395D01*
X111006430Y-100784213D01*
X110830530Y-100860359D01*
X110625595Y-100922194D01*
X110473597Y-100950463D01*
X110430001Y-100958571D01*
X110282123Y-100958343D01*
X110276622Y-100957264D01*
X110174748Y-100953565D01*
X110144186Y-101000457D01*
X110123945Y-101074320D01*
X110043019Y-101102162D01*
X109905484Y-101055195D01*
X109814873Y-101013688D01*
X109746691Y-101013481D01*
X109681535Y-101070461D01*
X109640450Y-101105625D01*
X109555701Y-101138719D01*
X109419443Y-101155478D01*
X109208348Y-101160334D01*
X109002280Y-101155088D01*
X108839947Y-101133578D01*
X108760773Y-101094414D01*
X108733704Y-101039776D01*
X108759379Y-101018573D01*
X109061240Y-101018573D01*
X109063754Y-101039244D01*
X109112713Y-101088704D01*
X109192015Y-101084381D01*
X109259120Y-101024911D01*
X109277206Y-100950463D01*
X109243068Y-100925260D01*
X109183806Y-100978322D01*
X109170284Y-100993857D01*
X109107064Y-101000030D01*
X109091236Y-100993146D01*
X109061240Y-101018573D01*
X108759379Y-101018573D01*
X108784960Y-100997448D01*
X108824941Y-100976083D01*
X108864341Y-100923028D01*
X108856496Y-100896352D01*
X108798014Y-100878932D01*
X108709965Y-100909735D01*
X108625500Y-100980749D01*
X108591365Y-101019116D01*
X108516080Y-101056745D01*
X108406990Y-101030654D01*
X108400158Y-101027967D01*
X108267082Y-100953969D01*
X108136861Y-100852211D01*
X108136196Y-100851584D01*
X108012387Y-100756756D01*
X108441299Y-100756756D01*
X108492250Y-100780620D01*
X108528925Y-100774596D01*
X108568992Y-100731395D01*
X108567666Y-100719716D01*
X108522672Y-100682171D01*
X108508862Y-100684048D01*
X108445930Y-100731395D01*
X108441299Y-100756756D01*
X108012387Y-100756756D01*
X107992106Y-100741222D01*
X107833865Y-100653357D01*
X107726423Y-100590633D01*
X107575347Y-100474398D01*
X107426326Y-100336323D01*
X107423897Y-100333832D01*
X107296458Y-100211331D01*
X107190137Y-100123495D01*
X107127732Y-100089194D01*
X107099449Y-100077529D01*
X107017374Y-100007111D01*
X106919961Y-99894574D01*
X106867788Y-99829160D01*
X106785295Y-99737090D01*
X106737836Y-99699954D01*
X106732611Y-99699140D01*
X106654835Y-99661116D01*
X106529136Y-99579356D01*
X106379794Y-99471328D01*
X106231091Y-99354502D01*
X106107307Y-99246345D01*
X106067523Y-99206266D01*
X105938317Y-99050099D01*
X105840433Y-98896484D01*
X105814596Y-98849562D01*
X105745745Y-98756923D01*
X105693202Y-98728518D01*
X105683754Y-98730670D01*
X105611365Y-98699503D01*
X105547294Y-98612328D01*
X105518620Y-98503973D01*
X105510150Y-98458523D01*
X105466611Y-98417829D01*
X105424098Y-98392303D01*
X105371087Y-98307074D01*
X105311327Y-98188033D01*
X105229886Y-98055453D01*
X105133766Y-97914588D01*
X105101342Y-98106507D01*
X105095508Y-98153901D01*
X105095243Y-98340604D01*
X105120261Y-98527529D01*
X105134202Y-98598542D01*
X105150198Y-98739995D01*
X105143868Y-98828913D01*
X105141832Y-98835470D01*
X105149097Y-98931376D01*
X105195543Y-99054755D01*
X105233252Y-99144215D01*
X105246733Y-99241582D01*
X105214797Y-99282782D01*
X105142296Y-99250027D01*
X105099979Y-99221184D01*
X105045496Y-99220557D01*
X105039844Y-99285367D01*
X105088925Y-99399129D01*
X105113321Y-99444312D01*
X105159613Y-99564140D01*
X105174049Y-99659059D01*
X105150184Y-99697674D01*
X105102400Y-99682771D01*
X105004389Y-99641404D01*
X104887116Y-99560515D01*
X104751315Y-99389859D01*
X104653103Y-99174560D01*
X104609746Y-98945086D01*
X104594944Y-98795992D01*
X104551271Y-98678078D01*
X104463489Y-98581732D01*
X104461682Y-98580169D01*
X104335520Y-98420882D01*
X104265663Y-98229448D01*
X104266868Y-98046063D01*
X104269238Y-97963415D01*
X104195511Y-97867479D01*
X104115251Y-97788633D01*
X104035992Y-97665027D01*
X103982597Y-97571601D01*
X103937776Y-97531783D01*
X103929043Y-97527979D01*
X103888227Y-97464366D01*
X103843799Y-97347190D01*
X103838277Y-97329451D01*
X103783286Y-97172534D01*
X103729225Y-97043786D01*
X103720353Y-97025148D01*
X103696008Y-96941269D01*
X103730880Y-96904908D01*
X103757095Y-96869317D01*
X103737710Y-96796845D01*
X103682284Y-96726530D01*
X103611603Y-96694961D01*
X103585475Y-96686196D01*
X103577447Y-96626437D01*
X103579757Y-96614357D01*
X103568818Y-96518546D01*
X103531209Y-96364683D01*
X103473244Y-96179827D01*
X103447156Y-96104243D01*
X106369776Y-96104243D01*
X106380222Y-96240322D01*
X106387676Y-96284608D01*
X106418886Y-96444953D01*
X106447269Y-96522778D01*
X106480451Y-96530689D01*
X106526063Y-96481291D01*
X106554707Y-96449872D01*
X106658393Y-96417208D01*
X106783259Y-96474553D01*
X106921934Y-96619336D01*
X106939149Y-96641302D01*
X107046694Y-96742604D01*
X107141119Y-96758541D01*
X107257286Y-96758820D01*
X107387555Y-96803170D01*
X107492300Y-96874472D01*
X107535271Y-96954688D01*
X107544562Y-96993445D01*
X107615630Y-97066402D01*
X107719136Y-97103828D01*
X107809640Y-97084262D01*
X107834629Y-97070718D01*
X107908090Y-97084919D01*
X107942910Y-97103105D01*
X108057233Y-97135100D01*
X108211896Y-97162174D01*
X108282738Y-97170961D01*
X108406407Y-97177583D01*
X108471299Y-97157558D01*
X108504491Y-97105655D01*
X108527054Y-97054990D01*
X108635899Y-96926924D01*
X108780001Y-96882118D01*
X108845818Y-96883159D01*
X108998786Y-96886136D01*
X109216390Y-96890649D01*
X109480420Y-96896319D01*
X109772670Y-96902768D01*
X110656387Y-96922520D01*
X110736273Y-97067171D01*
X110772775Y-97124315D01*
X110872902Y-97203286D01*
X111005459Y-97204378D01*
X111187127Y-97129911D01*
X111253294Y-97090637D01*
X111368771Y-96977161D01*
X111453437Y-96803137D01*
X111476326Y-96742092D01*
X111550525Y-96574007D01*
X111616053Y-96490564D01*
X111683468Y-96482865D01*
X111763330Y-96542013D01*
X111840939Y-96609403D01*
X111933417Y-96641163D01*
X111996494Y-96581185D01*
X112036374Y-96426851D01*
X112043529Y-96258084D01*
X113213040Y-96258084D01*
X113215627Y-96301163D01*
X113222831Y-96300283D01*
X113272106Y-96249902D01*
X113294877Y-96157590D01*
X113316414Y-96061953D01*
X113368714Y-95938656D01*
X113370005Y-95936152D01*
X113419908Y-95784651D01*
X113438362Y-95618695D01*
X113434476Y-95439729D01*
X113385538Y-95587403D01*
X113341269Y-95713694D01*
X113294899Y-95833527D01*
X113291012Y-95843214D01*
X113255956Y-95965885D01*
X113227756Y-96116570D01*
X113223227Y-96151140D01*
X113215414Y-96233158D01*
X113213040Y-96258084D01*
X112043529Y-96258084D01*
X112044586Y-96233158D01*
X111993218Y-96061037D01*
X111946217Y-95920082D01*
X111947172Y-95695715D01*
X111953739Y-95632932D01*
X111952724Y-95510523D01*
X111931030Y-95448845D01*
X111897538Y-95466397D01*
X111879429Y-95553111D01*
X111873086Y-95658125D01*
X111859771Y-95799697D01*
X111853051Y-95845548D01*
X111832073Y-95881612D01*
X111786361Y-95832476D01*
X111773694Y-95817307D01*
X111678335Y-95737055D01*
X111548993Y-95655958D01*
X111508991Y-95635249D01*
X111414743Y-95597876D01*
X111311898Y-95582923D01*
X111170924Y-95588142D01*
X110962287Y-95611283D01*
X110673144Y-95634589D01*
X110095414Y-95614649D01*
X109990225Y-95605014D01*
X109792812Y-95593962D01*
X109640035Y-95594703D01*
X109558403Y-95607588D01*
X109521355Y-95621361D01*
X109400169Y-95619879D01*
X109307364Y-95563752D01*
X109276210Y-95550148D01*
X109161882Y-95526896D01*
X108984436Y-95501468D01*
X108764713Y-95476011D01*
X108523553Y-95452669D01*
X108281795Y-95433588D01*
X108060279Y-95420913D01*
X107879845Y-95416790D01*
X107740573Y-95423020D01*
X107558632Y-95448835D01*
X107436822Y-95488953D01*
X107329965Y-95535137D01*
X107203004Y-95561046D01*
X107134019Y-95572918D01*
X107092248Y-95612016D01*
X107073787Y-95640626D01*
X106993798Y-95661240D01*
X106962217Y-95658062D01*
X106902653Y-95613541D01*
X106911335Y-95545280D01*
X106989251Y-95490397D01*
X106995230Y-95488394D01*
X107081490Y-95430038D01*
X107118852Y-95352335D01*
X107115323Y-95344855D01*
X113456544Y-95344855D01*
X113480361Y-95423694D01*
X113510886Y-95444371D01*
X113565310Y-95415116D01*
X113575626Y-95386928D01*
X113551809Y-95308089D01*
X113521285Y-95287412D01*
X113512649Y-95292054D01*
X113466860Y-95316667D01*
X113456544Y-95344855D01*
X107115323Y-95344855D01*
X107089658Y-95290453D01*
X107071595Y-95282370D01*
X106978858Y-95283340D01*
X106887285Y-95322434D01*
X106845510Y-95381515D01*
X106826864Y-95425924D01*
X106755831Y-95526355D01*
X106650008Y-95649561D01*
X106608834Y-95694332D01*
X106472646Y-95856291D01*
X106396772Y-95984581D01*
X106369776Y-96104243D01*
X103447156Y-96104243D01*
X103342746Y-95801740D01*
X103470016Y-95618088D01*
X103554369Y-95460654D01*
X103597287Y-95253625D01*
X103597748Y-95225535D01*
X103620620Y-95116076D01*
X106904783Y-95116076D01*
X106907922Y-95144016D01*
X106969186Y-95168992D01*
X107009827Y-95160961D01*
X107033588Y-95116076D01*
X107026904Y-95101481D01*
X106969186Y-95063159D01*
X106955602Y-95065218D01*
X106904783Y-95116076D01*
X103620620Y-95116076D01*
X103626593Y-95087489D01*
X103712234Y-94997496D01*
X103734410Y-94982153D01*
X103772298Y-94941162D01*
X107244829Y-94941162D01*
X107253753Y-95040883D01*
X107267194Y-95116076D01*
X107274299Y-95155823D01*
X107299291Y-95248534D01*
X107321831Y-95294059D01*
X107322825Y-95292054D01*
X111620930Y-95292054D01*
X111645542Y-95316667D01*
X111670155Y-95292054D01*
X111645542Y-95267442D01*
X111620930Y-95292054D01*
X107322825Y-95292054D01*
X107335021Y-95267442D01*
X107336983Y-95253285D01*
X107387443Y-95143358D01*
X107480782Y-95036896D01*
X107587351Y-94961744D01*
X107677503Y-94945753D01*
X107737452Y-94951545D01*
X107801337Y-94892677D01*
X107814879Y-94851618D01*
X111247258Y-94851618D01*
X111298883Y-94921137D01*
X111340188Y-94965909D01*
X111374806Y-95048898D01*
X111393912Y-95091711D01*
X111461190Y-95106069D01*
X111539540Y-95076440D01*
X111588905Y-95010088D01*
X111589123Y-95009243D01*
X111570920Y-94923423D01*
X111463249Y-94843856D01*
X111353128Y-94805228D01*
X111272104Y-94809802D01*
X111247258Y-94851618D01*
X107814879Y-94851618D01*
X107816143Y-94847787D01*
X107819472Y-94805067D01*
X107790911Y-94790603D01*
X107709159Y-94746227D01*
X107610419Y-94718327D01*
X107426116Y-94739908D01*
X107421057Y-94741197D01*
X107302086Y-94781088D01*
X107252421Y-94837665D01*
X107244829Y-94941162D01*
X103772298Y-94941162D01*
X103792697Y-94919093D01*
X103817370Y-94824009D01*
X103818929Y-94664094D01*
X103824363Y-94529070D01*
X108101356Y-94529070D01*
X108111460Y-94543801D01*
X108153486Y-94578295D01*
X108158399Y-94577015D01*
X108175194Y-94529070D01*
X108173190Y-94515578D01*
X108123064Y-94479845D01*
X108105259Y-94483710D01*
X108101356Y-94529070D01*
X103824363Y-94529070D01*
X103827568Y-94449427D01*
X103831814Y-94430620D01*
X108372093Y-94430620D01*
X108373523Y-94442386D01*
X108421318Y-94479845D01*
X108433084Y-94478415D01*
X108470542Y-94430620D01*
X108469112Y-94418854D01*
X108421318Y-94381395D01*
X108409552Y-94382826D01*
X108372093Y-94430620D01*
X103831814Y-94430620D01*
X103870708Y-94258366D01*
X103943154Y-94131831D01*
X104038736Y-94086047D01*
X104083677Y-94079059D01*
X104117569Y-94033598D01*
X104110231Y-93931231D01*
X104065824Y-93766085D01*
X104434108Y-93766085D01*
X104458721Y-93790698D01*
X104483333Y-93766085D01*
X104458721Y-93741473D01*
X104434108Y-93766085D01*
X104065824Y-93766085D01*
X104062888Y-93755166D01*
X104060646Y-93703560D01*
X104084301Y-93575835D01*
X104131146Y-93424142D01*
X104190370Y-93288089D01*
X104209804Y-93233523D01*
X104207629Y-93130966D01*
X104207503Y-93130639D01*
X104185422Y-93031281D01*
X104171508Y-92895202D01*
X104170806Y-92881961D01*
X104154416Y-92780730D01*
X104100573Y-92735167D01*
X103978779Y-92717087D01*
X103916972Y-92710855D01*
X103820797Y-92682568D01*
X103802907Y-92617601D01*
X103849658Y-92492186D01*
X103881124Y-92365359D01*
X103849787Y-92183086D01*
X103737331Y-92022062D01*
X103671933Y-91953198D01*
X103663955Y-91898448D01*
X104089535Y-91898448D01*
X104090815Y-91903360D01*
X104138760Y-91920155D01*
X104152251Y-91918152D01*
X104187984Y-91868025D01*
X104184119Y-91850221D01*
X104138760Y-91846318D01*
X104124028Y-91856421D01*
X104089535Y-91898448D01*
X103663955Y-91898448D01*
X103662871Y-91891006D01*
X103715889Y-91796990D01*
X103802125Y-91699452D01*
X103911220Y-91627098D01*
X103972293Y-91590737D01*
X104071213Y-91498200D01*
X104153565Y-91391373D01*
X104187984Y-91306577D01*
X104161879Y-91279449D01*
X104084179Y-91302837D01*
X103979153Y-91375699D01*
X103876850Y-91463537D01*
X103749735Y-91572598D01*
X103746023Y-91575771D01*
X103657220Y-91645277D01*
X103605937Y-91674031D01*
X103581762Y-91667104D01*
X103505377Y-91607263D01*
X103432729Y-91519341D01*
X103400387Y-91444222D01*
X103389147Y-91387178D01*
X103341041Y-91282318D01*
X103334631Y-91271777D01*
X103329694Y-91254631D01*
X108431835Y-91254631D01*
X108437726Y-91313049D01*
X108452532Y-91320750D01*
X108470542Y-91280233D01*
X108466990Y-91254173D01*
X108437726Y-91247416D01*
X108431835Y-91254631D01*
X103329694Y-91254631D01*
X103309542Y-91184645D01*
X103362245Y-91098283D01*
X103436979Y-90999402D01*
X103516184Y-90867820D01*
X103556970Y-90777938D01*
X103555486Y-90703954D01*
X103493045Y-90622753D01*
X103425550Y-90518362D01*
X103421873Y-90396224D01*
X103498914Y-90294422D01*
X103646815Y-90224503D01*
X103855717Y-90198012D01*
X103876223Y-90197990D01*
X103986729Y-90206859D01*
X104031752Y-90248148D01*
X104040310Y-90344961D01*
X104059387Y-90442512D01*
X104130911Y-90490880D01*
X104263239Y-90475852D01*
X104464464Y-90398450D01*
X104552289Y-90363555D01*
X104684031Y-90339179D01*
X104754502Y-90370402D01*
X104752264Y-90454979D01*
X104748374Y-90466929D01*
X104766905Y-90526059D01*
X104870039Y-90564915D01*
X104989442Y-90616807D01*
X105091720Y-90710489D01*
X105114499Y-90740615D01*
X105220635Y-90812127D01*
X105394969Y-90849483D01*
X105493803Y-90863991D01*
X105642848Y-90909048D01*
X105704964Y-90970329D01*
X105674573Y-91043953D01*
X105646039Y-91076738D01*
X105615504Y-91136964D01*
X105652823Y-91148444D01*
X105770391Y-91157385D01*
X105949088Y-91161493D01*
X106169283Y-91159954D01*
X106441114Y-91148516D01*
X106768234Y-91112780D01*
X107014276Y-91055539D01*
X107171448Y-90978204D01*
X107230341Y-90946026D01*
X107367795Y-90894086D01*
X107536560Y-90843114D01*
X107698834Y-90804221D01*
X107816817Y-90788517D01*
X107917187Y-90770985D01*
X108099680Y-90688869D01*
X108300488Y-90552919D01*
X108495155Y-90377937D01*
X108692054Y-90174470D01*
X108707211Y-90383185D01*
X108709309Y-90451089D01*
X108679879Y-90632623D01*
X108589356Y-90836285D01*
X108456346Y-91080669D01*
X108572593Y-91174800D01*
X108672219Y-91238573D01*
X108754326Y-91237026D01*
X108800598Y-91147961D01*
X108815116Y-90967896D01*
X108815116Y-90715317D01*
X108946040Y-90899325D01*
X108986471Y-90952310D01*
X109076163Y-91046168D01*
X109141207Y-91083333D01*
X109195084Y-91107791D01*
X109262640Y-91190192D01*
X109274160Y-91212773D01*
X109287349Y-91280233D01*
X109290420Y-91295941D01*
X109230338Y-91362488D01*
X109198258Y-91388246D01*
X109148867Y-91452384D01*
X109115519Y-91553940D01*
X109086080Y-91723256D01*
X109083504Y-91738955D01*
X109051733Y-91868025D01*
X109048148Y-91882591D01*
X108990607Y-92064360D01*
X108922857Y-92250972D01*
X108856876Y-92409135D01*
X108804640Y-92505559D01*
X108776593Y-92546931D01*
X108787597Y-92548198D01*
X108836910Y-92527631D01*
X108898415Y-92565004D01*
X108935195Y-92660834D01*
X108933084Y-92791434D01*
X108920338Y-92882731D01*
X108936839Y-92953578D01*
X109004339Y-92986830D01*
X109068551Y-93020205D01*
X109139364Y-93115055D01*
X109163171Y-93178923D01*
X109193482Y-93181026D01*
X109254480Y-93106402D01*
X109310929Y-93038752D01*
X109363825Y-93027335D01*
X109444852Y-93085906D01*
X109518118Y-93180521D01*
X109565184Y-93344227D01*
X109567315Y-93433258D01*
X109538692Y-93507504D01*
X109455039Y-93544536D01*
X109376720Y-93581673D01*
X109338813Y-93658739D01*
X109323275Y-93726305D01*
X109258281Y-93746507D01*
X109160216Y-93716029D01*
X109047221Y-93646370D01*
X108937440Y-93549030D01*
X108849016Y-93435507D01*
X108800092Y-93317300D01*
X108766818Y-93152321D01*
X108714566Y-92914433D01*
X108669685Y-92750546D01*
X108626767Y-92645616D01*
X108580406Y-92584599D01*
X108525193Y-92552451D01*
X108516440Y-92549325D01*
X108435120Y-92539015D01*
X108353790Y-92579955D01*
X108243108Y-92686039D01*
X108170025Y-92766832D01*
X108117329Y-92846181D01*
X108089499Y-92939205D01*
X108078612Y-93074160D01*
X108076744Y-93279303D01*
X108076749Y-93284751D01*
X108097403Y-93598437D01*
X108136699Y-93766085D01*
X108155715Y-93847214D01*
X108248174Y-94021170D01*
X108371267Y-94110397D01*
X108429522Y-94142395D01*
X108470542Y-94212426D01*
X108475548Y-94243317D01*
X108519767Y-94282946D01*
X108541319Y-94290105D01*
X108568992Y-94353431D01*
X108570271Y-94363604D01*
X108612051Y-94430620D01*
X108619067Y-94441873D01*
X108716667Y-94529070D01*
X108798379Y-94583273D01*
X108851164Y-94598669D01*
X108864341Y-94557034D01*
X108871211Y-94525482D01*
X108931738Y-94484560D01*
X109024061Y-94493788D01*
X109110465Y-94553682D01*
X109189608Y-94619465D01*
X109255948Y-94597302D01*
X109314740Y-94479845D01*
X109378014Y-94374150D01*
X109478241Y-94325000D01*
X109580303Y-94357569D01*
X109656736Y-94472450D01*
X109680867Y-94533613D01*
X109718457Y-94579176D01*
X109787554Y-94604301D01*
X109910467Y-94616400D01*
X110109505Y-94622885D01*
X110308180Y-94628297D01*
X110511533Y-94636346D01*
X110646347Y-94647212D01*
X110730003Y-94663316D01*
X110779882Y-94687079D01*
X110813368Y-94720921D01*
X110879633Y-94766324D01*
X110989376Y-94761106D01*
X111096805Y-94693187D01*
X111171724Y-94574873D01*
X111180420Y-94552693D01*
X111385323Y-94552693D01*
X111391214Y-94611111D01*
X111406020Y-94618812D01*
X111424031Y-94578295D01*
X111420478Y-94552235D01*
X111391214Y-94545478D01*
X111385323Y-94552693D01*
X111180420Y-94552693D01*
X111194120Y-94517751D01*
X111247016Y-94451734D01*
X111324317Y-94454831D01*
X111340339Y-94459556D01*
X111407136Y-94459050D01*
X111418136Y-94397712D01*
X111376690Y-94263289D01*
X111360410Y-94210207D01*
X111366732Y-94141938D01*
X111423924Y-94067411D01*
X111546427Y-93960896D01*
X111594465Y-93919439D01*
X111764641Y-93713600D01*
X111838202Y-93496119D01*
X111814538Y-93270833D01*
X111693036Y-93041579D01*
X111609701Y-92929264D01*
X111637725Y-93049219D01*
X111642271Y-93073975D01*
X111648981Y-93214910D01*
X111637269Y-93376966D01*
X111601929Y-93508990D01*
X111494587Y-93709978D01*
X111342155Y-93894117D01*
X111167705Y-94035206D01*
X110994309Y-94107046D01*
X110782654Y-94143144D01*
X110614907Y-94168222D01*
X110510360Y-94174833D01*
X110450924Y-94161977D01*
X110418511Y-94128650D01*
X110395031Y-94073852D01*
X110339423Y-93985774D01*
X110229480Y-93859781D01*
X110091188Y-93727403D01*
X109833291Y-93501801D01*
X109822649Y-92913205D01*
X109816301Y-92683960D01*
X109806552Y-92485080D01*
X109794820Y-92342292D01*
X109782444Y-92276774D01*
X109773740Y-92256573D01*
X109759677Y-92154058D01*
X109762280Y-92022432D01*
X109773313Y-91944767D01*
X113688372Y-91944767D01*
X113712984Y-91969380D01*
X113737597Y-91944767D01*
X113712984Y-91920155D01*
X113688372Y-91944767D01*
X109773313Y-91944767D01*
X109779095Y-91904068D01*
X109807666Y-91841340D01*
X109813758Y-91837172D01*
X109849052Y-91759393D01*
X109823882Y-91656590D01*
X109747245Y-91569279D01*
X109709325Y-91541885D01*
X109673071Y-91491004D01*
X109674090Y-91410447D01*
X109708210Y-91268001D01*
X109733716Y-91158321D01*
X109735424Y-91132558D01*
X113048449Y-91132558D01*
X113049997Y-91162757D01*
X113072828Y-91175540D01*
X113146899Y-91132558D01*
X113156328Y-91126391D01*
X113191595Y-91092217D01*
X113134593Y-91084087D01*
X113089037Y-91091186D01*
X113048449Y-91132558D01*
X109735424Y-91132558D01*
X109744492Y-90995735D01*
X109725068Y-90898041D01*
X111087129Y-90898041D01*
X111112192Y-90993511D01*
X111136522Y-91045036D01*
X111165486Y-91069743D01*
X111195375Y-91010363D01*
X111202915Y-90982005D01*
X111193429Y-90897440D01*
X111183981Y-90885253D01*
X111819694Y-90885253D01*
X111849910Y-90923060D01*
X111944685Y-90969732D01*
X111976850Y-90982005D01*
X112118548Y-91036071D01*
X112245896Y-91079326D01*
X112443803Y-91125745D01*
X112564562Y-91118920D01*
X112605426Y-91058721D01*
X112576542Y-91007337D01*
X112470058Y-90977386D01*
X112394966Y-90972896D01*
X112281632Y-90959797D01*
X112189825Y-90930646D01*
X112067174Y-90871705D01*
X111933022Y-90820974D01*
X111848944Y-90835629D01*
X111839509Y-90845511D01*
X111819694Y-90885253D01*
X111183981Y-90885253D01*
X111151134Y-90842882D01*
X111097157Y-90852326D01*
X111087129Y-90898041D01*
X109725068Y-90898041D01*
X109710542Y-90824978D01*
X109695810Y-90769611D01*
X109653367Y-90568950D01*
X109623385Y-90369991D01*
X109611167Y-90288115D01*
X109572307Y-90139316D01*
X109525046Y-90045381D01*
X109487558Y-89984359D01*
X109430592Y-89846657D01*
X109378354Y-89677435D01*
X109337996Y-89548300D01*
X109271441Y-89394480D01*
X109206767Y-89298674D01*
X109143114Y-89227776D01*
X109110465Y-89162783D01*
X109109769Y-89156600D01*
X109101617Y-89145555D01*
X110694366Y-89145555D01*
X110734884Y-89163566D01*
X110760943Y-89160013D01*
X110767700Y-89130749D01*
X110760485Y-89124858D01*
X110702067Y-89130749D01*
X110694366Y-89145555D01*
X109101617Y-89145555D01*
X109065348Y-89096418D01*
X108978684Y-89031565D01*
X108887679Y-88986171D01*
X108830233Y-88984367D01*
X108824605Y-88998107D01*
X108830812Y-89084316D01*
X108864428Y-89213054D01*
X108896835Y-89327141D01*
X108901572Y-89437568D01*
X108862118Y-89545566D01*
X108843335Y-89582812D01*
X108770281Y-89711288D01*
X108713537Y-89753835D01*
X108653345Y-89713753D01*
X108569944Y-89594341D01*
X108517266Y-89516702D01*
X108360153Y-89329467D01*
X108207464Y-89207279D01*
X108074638Y-89163566D01*
X107982258Y-89145427D01*
X107859519Y-89088011D01*
X107782690Y-89063170D01*
X107620268Y-89038078D01*
X107394789Y-89016284D01*
X107124882Y-88998433D01*
X106829172Y-88985171D01*
X106526285Y-88977142D01*
X106234848Y-88974993D01*
X105973488Y-88979368D01*
X105760831Y-88990912D01*
X105615504Y-89010271D01*
X105578591Y-89018673D01*
X105366912Y-89074069D01*
X105190454Y-89131835D01*
X105069618Y-89184561D01*
X105024806Y-89224836D01*
X104993437Y-89253385D01*
X104907940Y-89261190D01*
X104812355Y-89245338D01*
X104751419Y-89208502D01*
X104742361Y-89177256D01*
X104773126Y-89100207D01*
X104816858Y-89021783D01*
X104817093Y-88879939D01*
X104750315Y-88730120D01*
X104706978Y-88659220D01*
X104711216Y-88598173D01*
X104734847Y-88575331D01*
X108273643Y-88575331D01*
X108292377Y-88600871D01*
X108372093Y-88636356D01*
X108444511Y-88642380D01*
X108465872Y-88604208D01*
X108404482Y-88530098D01*
X108381723Y-88514471D01*
X108306792Y-88508874D01*
X108273643Y-88575331D01*
X104734847Y-88575331D01*
X104787234Y-88524694D01*
X104895400Y-88455329D01*
X105039457Y-88398581D01*
X105137657Y-88356672D01*
X105162519Y-88280556D01*
X105161417Y-88272473D01*
X105175242Y-88168702D01*
X105222775Y-88057475D01*
X105285158Y-87973198D01*
X105343537Y-87950275D01*
X105343880Y-87950404D01*
X105424621Y-87947516D01*
X105542154Y-87911987D01*
X105566743Y-87902545D01*
X105672108Y-87880311D01*
X105800357Y-87890010D01*
X105986009Y-87933300D01*
X106128786Y-87973604D01*
X106264240Y-88016360D01*
X106335838Y-88044860D01*
X106336427Y-88045214D01*
X106409467Y-88068243D01*
X106549581Y-88098408D01*
X106726968Y-88129276D01*
X106881016Y-88156911D01*
X107153050Y-88217328D01*
X107433726Y-88290673D01*
X107687755Y-88367488D01*
X107879845Y-88438311D01*
X107972436Y-88471128D01*
X108045007Y-88481282D01*
X108073470Y-88483015D01*
X108151623Y-88524508D01*
X108165792Y-88534864D01*
X108221864Y-88536652D01*
X108248643Y-88469206D01*
X108242713Y-88354202D01*
X108200658Y-88213315D01*
X108187557Y-88181663D01*
X108152712Y-88078913D01*
X108163092Y-88024201D01*
X108221826Y-87983558D01*
X108238605Y-87974456D01*
X108285630Y-87937393D01*
X108272888Y-87889716D01*
X108196129Y-87801264D01*
X108184002Y-87788564D01*
X108078730Y-87701585D01*
X107989568Y-87661024D01*
X107895177Y-87644700D01*
X107761659Y-87612900D01*
X107665916Y-87598546D01*
X107524763Y-87632736D01*
X107472107Y-87655900D01*
X107365745Y-87664700D01*
X107280292Y-87635435D01*
X107253228Y-87575944D01*
X107242212Y-87556051D01*
X107152938Y-87532745D01*
X106984546Y-87524362D01*
X106748664Y-87531227D01*
X106456917Y-87553667D01*
X106355506Y-87559249D01*
X106189508Y-87551910D01*
X106074089Y-87526067D01*
X105978575Y-87497829D01*
X105900844Y-87529466D01*
X105860957Y-87556812D01*
X105782529Y-87534781D01*
X105753208Y-87516941D01*
X105629314Y-87485410D01*
X105485301Y-87482028D01*
X105376474Y-87510151D01*
X105352801Y-87520334D01*
X105265675Y-87511287D01*
X105240427Y-87484017D01*
X105277981Y-87435298D01*
X105315277Y-87402014D01*
X105264635Y-87392227D01*
X105221256Y-87396224D01*
X105100662Y-87429312D01*
X104972018Y-87483057D01*
X104869656Y-87541892D01*
X104827907Y-87590251D01*
X104802620Y-87631847D01*
X104684291Y-87692133D01*
X104471027Y-87754389D01*
X104376981Y-87764912D01*
X104335659Y-87734079D01*
X104339547Y-87715866D01*
X104384884Y-87711434D01*
X104418556Y-87699386D01*
X104434108Y-87615222D01*
X104442724Y-87519543D01*
X104474889Y-87403111D01*
X104504273Y-87342176D01*
X104568731Y-87209610D01*
X104646280Y-87050864D01*
X104670474Y-87000413D01*
X104731121Y-86841251D01*
X104727498Y-86733823D01*
X104652010Y-86654060D01*
X104497063Y-86577889D01*
X104375987Y-86505051D01*
X104345470Y-86421920D01*
X104338740Y-86364924D01*
X104262627Y-86334307D01*
X104233833Y-86331198D01*
X104161996Y-86276080D01*
X104152127Y-86170186D01*
X104208521Y-86037102D01*
X104220523Y-86018458D01*
X104278591Y-85899344D01*
X104262060Y-85835347D01*
X104169113Y-85816279D01*
X104132221Y-85812972D01*
X104045048Y-85756390D01*
X104022914Y-85643467D01*
X104071237Y-85492152D01*
X104114971Y-85375661D01*
X104085330Y-85316010D01*
X103974331Y-85299419D01*
X103900773Y-85282288D01*
X103883130Y-85210474D01*
X103897687Y-85166828D01*
X103948103Y-85083418D01*
X104011779Y-85008458D01*
X104066372Y-84966620D01*
X104089535Y-84982576D01*
X104089869Y-84986046D01*
X104139238Y-85016077D01*
X104249112Y-85019495D01*
X104374640Y-84979475D01*
X104433033Y-84884398D01*
X104408804Y-84757946D01*
X113442248Y-84757946D01*
X113466860Y-84782558D01*
X113491473Y-84757946D01*
X113466860Y-84733333D01*
X113442248Y-84757946D01*
X104408804Y-84757946D01*
X104405895Y-84742764D01*
X104397919Y-84723063D01*
X104382229Y-84578248D01*
X104441994Y-84405539D01*
X104465642Y-84324497D01*
X104442581Y-84213549D01*
X104364286Y-84145347D01*
X104250935Y-84147178D01*
X104217784Y-84161911D01*
X104159393Y-84228134D01*
X104147864Y-84354302D01*
X104143946Y-84479280D01*
X104101527Y-84596930D01*
X104012792Y-84634884D01*
X103979716Y-84631572D01*
X103945461Y-84588303D01*
X103988591Y-84489560D01*
X104016384Y-84406165D01*
X103982632Y-84366055D01*
X103904329Y-84398676D01*
X103868025Y-84426181D01*
X103844062Y-84422248D01*
X103863815Y-84339535D01*
X103885856Y-84242587D01*
X103897803Y-84109189D01*
X103898473Y-84093528D01*
X103954471Y-83978731D01*
X104094107Y-83843665D01*
X104167999Y-83780250D01*
X104241204Y-83699502D01*
X104252347Y-83655600D01*
X104235361Y-83622739D01*
X104213539Y-83512819D01*
X104200952Y-83359064D01*
X104197097Y-83292707D01*
X104175042Y-83140798D01*
X104141465Y-83044654D01*
X104103063Y-83018377D01*
X104066536Y-83076071D01*
X104053452Y-83117100D01*
X104015918Y-83235429D01*
X103983465Y-83278835D01*
X103884406Y-83296960D01*
X103863231Y-83291760D01*
X103788221Y-83221546D01*
X103762088Y-83100402D01*
X103793721Y-82961240D01*
X103810627Y-82924825D01*
X103924737Y-82688455D01*
X104010361Y-82532336D01*
X104073709Y-82446198D01*
X104120987Y-82419767D01*
X104163936Y-82393396D01*
X104187984Y-82302444D01*
X104223632Y-82207552D01*
X104332072Y-82156071D01*
X104498366Y-82163570D01*
X104547373Y-82181214D01*
X104539709Y-82219272D01*
X104461922Y-82298050D01*
X104456101Y-82303538D01*
X104378863Y-82404602D01*
X104364551Y-82487009D01*
X104353791Y-82568348D01*
X104287163Y-82665162D01*
X104213447Y-82768009D01*
X104215861Y-82854861D01*
X104303315Y-82903414D01*
X104337233Y-82900750D01*
X104438144Y-82850763D01*
X104550792Y-82763149D01*
X104642411Y-82665540D01*
X104680232Y-82585569D01*
X104717547Y-82521572D01*
X104807439Y-82446191D01*
X104885633Y-82389217D01*
X104902629Y-82339816D01*
X104852227Y-82271770D01*
X104809720Y-82206160D01*
X104802175Y-82078721D01*
X104860341Y-82003782D01*
X104970066Y-81974083D01*
X105093019Y-82001758D01*
X105194302Y-82086147D01*
X105257806Y-82203176D01*
X105258400Y-82290240D01*
X105184787Y-82321621D01*
X105170040Y-82322368D01*
X105158258Y-82343873D01*
X105239638Y-82395458D01*
X105368220Y-82446130D01*
X105494079Y-82468992D01*
X105614353Y-82492445D01*
X105749649Y-82550560D01*
X105804760Y-82577955D01*
X105968133Y-82604873D01*
X106138632Y-82546109D01*
X106329412Y-82398203D01*
X106500405Y-82267443D01*
X106723492Y-82187511D01*
X106973034Y-82195730D01*
X107097924Y-82205275D01*
X107141473Y-82172969D01*
X107145518Y-82154039D01*
X107191138Y-82149303D01*
X107222937Y-82162412D01*
X107314307Y-82157496D01*
X107388319Y-82112965D01*
X107404431Y-82048061D01*
X107395310Y-82013222D01*
X107410179Y-81976744D01*
X107421033Y-81977600D01*
X107517164Y-82014868D01*
X107625998Y-82084777D01*
X107697698Y-82156217D01*
X107702719Y-82163281D01*
X107784454Y-82205224D01*
X107908722Y-82221461D01*
X108030143Y-82210399D01*
X108103333Y-82170446D01*
X108103416Y-82170313D01*
X108170712Y-82137945D01*
X108286691Y-82133527D01*
X108380529Y-82132540D01*
X108448982Y-82099520D01*
X108437160Y-82048206D01*
X108337318Y-81999156D01*
X108231930Y-81975458D01*
X108157790Y-81970369D01*
X108065743Y-81965712D01*
X107970761Y-81916199D01*
X107929070Y-81843703D01*
X107929272Y-81839085D01*
X107967594Y-81752041D01*
X108052132Y-81652472D01*
X108070474Y-81635308D01*
X108155626Y-81543983D01*
X108164815Y-81497483D01*
X108101356Y-81484496D01*
X108053194Y-81460410D01*
X108027519Y-81361434D01*
X108027710Y-81347703D01*
X108053806Y-81261341D01*
X108140736Y-81238372D01*
X108218895Y-81250084D01*
X108315073Y-81299492D01*
X108368382Y-81335309D01*
X108415731Y-81296637D01*
X108480843Y-81255905D01*
X108583305Y-81262942D01*
X108676188Y-81312008D01*
X108716667Y-81389838D01*
X108702613Y-81447728D01*
X108637837Y-81451156D01*
X108583244Y-81446200D01*
X108576306Y-81510153D01*
X108593686Y-81559349D01*
X108650734Y-81618420D01*
X108689160Y-81622140D01*
X108737408Y-81593878D01*
X108747339Y-81582946D01*
X110021124Y-81582946D01*
X110031227Y-81597677D01*
X110073254Y-81632171D01*
X110078166Y-81630891D01*
X110094961Y-81582946D01*
X110092958Y-81569454D01*
X110042831Y-81533721D01*
X110025027Y-81537586D01*
X110021124Y-81582946D01*
X108747339Y-81582946D01*
X108807878Y-81516305D01*
X108917674Y-81373740D01*
X109005623Y-81286201D01*
X109153854Y-81238372D01*
X109260890Y-81221928D01*
X109384099Y-81166100D01*
X109390777Y-81161097D01*
X109504235Y-81100991D01*
X109602731Y-81118374D01*
X109716777Y-81218008D01*
X109718607Y-81219978D01*
X109806473Y-81300179D01*
X109890285Y-81321013D01*
X110018099Y-81294714D01*
X110040292Y-81288980D01*
X110261245Y-81280136D01*
X110478849Y-81365593D01*
X110480458Y-81404447D01*
X110461843Y-81500765D01*
X110419892Y-81582946D01*
X110416720Y-81589160D01*
X110299466Y-81676396D01*
X110266617Y-81689050D01*
X110220617Y-81712640D01*
X110254528Y-81720822D01*
X110377544Y-81718559D01*
X110551423Y-81733578D01*
X110732431Y-81819473D01*
X110868997Y-81891104D01*
X111052852Y-81927519D01*
X111077181Y-81928001D01*
X111183824Y-81944357D01*
X111227132Y-81976744D01*
X111228744Y-81985217D01*
X111284483Y-82017378D01*
X111393751Y-82028256D01*
X111521069Y-82019744D01*
X111630963Y-81993738D01*
X111687956Y-81952132D01*
X111725303Y-81909377D01*
X111823897Y-81880850D01*
X111930562Y-81895101D01*
X111996928Y-81952132D01*
X112040973Y-81998474D01*
X112143057Y-82025969D01*
X112218893Y-82037602D01*
X112260853Y-82075194D01*
X112244205Y-82103020D01*
X112166429Y-82124419D01*
X112064486Y-82135084D01*
X111959415Y-82172112D01*
X111916279Y-82222163D01*
X111917773Y-82229962D01*
X111972440Y-82278572D01*
X112075466Y-82324189D01*
X112185246Y-82351789D01*
X112260176Y-82346348D01*
X112303217Y-82353141D01*
X112395279Y-82418989D01*
X112509375Y-82533871D01*
X112520419Y-82546357D01*
X112642100Y-82670156D01*
X112733041Y-82726271D01*
X112814735Y-82728397D01*
X112846100Y-82721356D01*
X112894164Y-82722274D01*
X112863856Y-82767489D01*
X112812778Y-82848258D01*
X112812462Y-82927841D01*
X112875162Y-82961240D01*
X112918805Y-82980613D01*
X112994796Y-83069803D01*
X113068841Y-83204308D01*
X113125283Y-83353923D01*
X113148465Y-83488446D01*
X113166325Y-83598647D01*
X113222302Y-83721327D01*
X113265795Y-83796879D01*
X113294573Y-83905920D01*
X113307398Y-83954905D01*
X113380717Y-83995715D01*
X113386635Y-83995786D01*
X113437285Y-84005445D01*
X113395216Y-84041789D01*
X113375115Y-84056753D01*
X113349601Y-84105109D01*
X113354694Y-84193438D01*
X113389929Y-84348690D01*
X113419940Y-84453268D01*
X113468127Y-84580502D01*
X113508696Y-84644095D01*
X113522048Y-84659214D01*
X113553621Y-84752091D01*
X113554351Y-84757946D01*
X113570848Y-84890219D01*
X113573610Y-84938707D01*
G37*
G36*
X100446899Y-97408721D02*
G01*
X100422287Y-97433333D01*
X100397674Y-97408721D01*
X100422287Y-97384109D01*
X100446899Y-97408721D01*
G37*
G36*
X97982019Y-95327980D02*
G01*
X98097112Y-95360559D01*
X98210686Y-95295570D01*
X98248291Y-95251619D01*
X98277414Y-95163241D01*
X98223067Y-95108658D01*
X98194309Y-95064228D01*
X98220390Y-95002970D01*
X98281599Y-94972093D01*
X98311835Y-94991042D01*
X98354911Y-95082390D01*
X98387548Y-95222293D01*
X98403454Y-95380364D01*
X98396337Y-95526215D01*
X98390835Y-95566872D01*
X98389087Y-95668890D01*
X98409730Y-95704865D01*
X98495976Y-95715875D01*
X98607872Y-95765682D01*
X98686358Y-95829937D01*
X98704870Y-95882752D01*
X98710359Y-95898411D01*
X98721949Y-96005814D01*
X98723277Y-96018120D01*
X98731109Y-96075549D01*
X98735941Y-96110975D01*
X98768363Y-96153488D01*
X98798151Y-96180705D01*
X98833205Y-96280478D01*
X98860731Y-96425240D01*
X98876725Y-96584869D01*
X98877180Y-96729244D01*
X98858092Y-96828244D01*
X98814714Y-96901559D01*
X98765354Y-96941085D01*
X98743522Y-96954117D01*
X98723728Y-97027229D01*
X98702410Y-97127949D01*
X98649890Y-97254367D01*
X98598795Y-97380175D01*
X98576356Y-97493884D01*
X98574618Y-97520498D01*
X98550790Y-97639467D01*
X98507392Y-97790172D01*
X98455161Y-97940770D01*
X98404835Y-98059419D01*
X98367151Y-98114276D01*
X98360034Y-98118378D01*
X98330232Y-98180674D01*
X98330215Y-98182211D01*
X98301459Y-98284077D01*
X98220206Y-98460174D01*
X98089796Y-98703868D01*
X97913567Y-99008527D01*
X97852276Y-99112110D01*
X97741431Y-99302125D01*
X97650862Y-99460744D01*
X97595793Y-99561475D01*
X97562039Y-99618714D01*
X97467054Y-99744463D01*
X97355079Y-99865659D01*
X97250633Y-99956959D01*
X97178234Y-99993023D01*
X97176725Y-99993121D01*
X97119304Y-100032208D01*
X97023536Y-100126667D01*
X96908876Y-100254003D01*
X96794779Y-100391722D01*
X96700697Y-100517330D01*
X96646085Y-100608333D01*
X96645893Y-100608779D01*
X96632513Y-100626150D01*
X96620941Y-100607863D01*
X96611006Y-100547641D01*
X96602539Y-100439203D01*
X96595368Y-100276271D01*
X96589325Y-100052564D01*
X96584238Y-99761805D01*
X96579937Y-99397713D01*
X96576253Y-98954010D01*
X96573015Y-98424415D01*
X96570053Y-97802650D01*
X96569964Y-97781780D01*
X96567718Y-97119415D01*
X96567069Y-96550952D01*
X96568076Y-96074275D01*
X98633315Y-96074275D01*
X98645066Y-96140157D01*
X98661870Y-96139394D01*
X98670920Y-96075549D01*
X98663037Y-96027164D01*
X98641180Y-96045809D01*
X98633315Y-96074275D01*
X96568076Y-96074275D01*
X96568081Y-96071986D01*
X96568718Y-95980212D01*
X98537649Y-95980212D01*
X98543540Y-96038630D01*
X98558346Y-96046332D01*
X98576356Y-96005814D01*
X98572804Y-95979754D01*
X98543540Y-95972997D01*
X98537649Y-95980212D01*
X96568718Y-95980212D01*
X96569395Y-95882752D01*
X98527132Y-95882752D01*
X98551744Y-95907364D01*
X98576356Y-95882752D01*
X98551744Y-95858140D01*
X98527132Y-95882752D01*
X96569395Y-95882752D01*
X96570816Y-95678111D01*
X96575336Y-95364921D01*
X96579766Y-95200206D01*
X96714521Y-95200206D01*
X96755039Y-95218217D01*
X96781098Y-95214665D01*
X96787855Y-95185401D01*
X96780640Y-95179509D01*
X96722222Y-95185401D01*
X96714521Y-95200206D01*
X96579766Y-95200206D01*
X96581707Y-95128011D01*
X96589989Y-94962974D01*
X96600246Y-94865404D01*
X96612542Y-94830897D01*
X96636634Y-94813903D01*
X96600628Y-94769989D01*
X96588215Y-94760471D01*
X96603885Y-94735496D01*
X96716575Y-94726723D01*
X96796619Y-94723633D01*
X96868439Y-94701960D01*
X96871289Y-94652132D01*
X96871212Y-94595803D01*
X96918177Y-94580386D01*
X96976550Y-94627519D01*
X96981847Y-94635219D01*
X97064194Y-94675595D01*
X97171505Y-94652566D01*
X97172017Y-94652132D01*
X97296511Y-94652132D01*
X97321124Y-94676744D01*
X97345736Y-94652132D01*
X97321124Y-94627519D01*
X97296511Y-94652132D01*
X97172017Y-94652132D01*
X97264839Y-94573437D01*
X97268362Y-94568516D01*
X97354481Y-94480555D01*
X97461220Y-94407550D01*
X97557756Y-94366950D01*
X97613265Y-94376204D01*
X97623694Y-94421175D01*
X97611199Y-94507933D01*
X97578827Y-94582359D01*
X97540440Y-94601550D01*
X97486266Y-94588510D01*
X97471028Y-94632817D01*
X97477606Y-94652132D01*
X97498192Y-94712580D01*
X97564598Y-94801631D01*
X97575910Y-94813333D01*
X97657071Y-94925310D01*
X97690310Y-95023555D01*
X97700204Y-95078692D01*
X97744756Y-95119767D01*
X97745844Y-95119791D01*
X97812627Y-95156719D01*
X97840399Y-95185401D01*
X97896004Y-95242829D01*
X97982019Y-95327980D01*
G37*
G36*
X103400387Y-95218217D02*
G01*
X103396835Y-95244277D01*
X103367571Y-95251034D01*
X103361680Y-95243819D01*
X103367571Y-95185401D01*
X103382377Y-95177699D01*
X103400387Y-95218217D01*
G37*
G36*
X96787855Y-94397804D02*
G01*
X96795556Y-94412610D01*
X96755039Y-94430620D01*
X96728979Y-94427068D01*
X96722222Y-94397804D01*
X96729437Y-94391912D01*
X96787855Y-94397804D01*
G37*
G36*
X113653423Y-81781853D02*
G01*
X113720218Y-81830135D01*
X113796219Y-81916803D01*
X113854089Y-82006974D01*
X113866487Y-82065764D01*
X113865254Y-82068055D01*
X113875722Y-82138149D01*
X113935167Y-82237153D01*
X113936848Y-82239299D01*
X114004776Y-82341747D01*
X114032946Y-82415225D01*
X114018603Y-82444398D01*
X113943904Y-82468992D01*
X113902372Y-82463690D01*
X113779500Y-82398067D01*
X113665070Y-82279137D01*
X113577157Y-82134308D01*
X113533838Y-81990988D01*
X113553189Y-81876584D01*
X113597042Y-81816432D01*
X113642407Y-81779845D01*
X113653423Y-81781853D01*
G37*
G36*
X100118476Y-91281531D02*
G01*
X100176421Y-91323503D01*
X100209830Y-91432012D01*
X100220472Y-91617063D01*
X100210118Y-91888662D01*
X100196487Y-92052872D01*
X100180620Y-92170591D01*
X100166012Y-92215504D01*
X100123494Y-92183995D01*
X100050322Y-92104748D01*
X100030135Y-92076526D01*
X99977398Y-91941935D01*
X99952780Y-91773304D01*
X99954630Y-91596725D01*
X99981297Y-91438291D01*
X100031130Y-91324096D01*
X100102480Y-91280233D01*
X100118476Y-91281531D01*
G37*
G36*
X104040304Y-89449554D02*
G01*
X104144956Y-89498688D01*
X104187984Y-89565682D01*
X104162520Y-89582829D01*
X104062700Y-89599958D01*
X103913146Y-89606589D01*
X103862521Y-89605757D01*
X103715579Y-89587762D01*
X103656153Y-89550798D01*
X103687887Y-89500865D01*
X103814423Y-89443965D01*
X103910674Y-89430222D01*
X104040304Y-89449554D01*
G37*
G36*
X98015830Y-83081633D02*
G01*
X97961611Y-83206273D01*
X97918894Y-83281003D01*
X97866463Y-83327111D01*
X97810307Y-83303270D01*
X97750655Y-83230242D01*
X97761414Y-83142933D01*
X97868958Y-83065748D01*
X97929330Y-83040491D01*
X98006682Y-83028818D01*
X98015830Y-83081633D01*
G37*
G36*
X108490043Y-89942892D02*
G01*
X108495670Y-89993782D01*
X108437086Y-90072671D01*
X108298816Y-90182350D01*
X108274999Y-90198915D01*
X108159581Y-90260399D01*
X108105113Y-90245946D01*
X108109813Y-90155301D01*
X108140058Y-90105800D01*
X108226375Y-90031986D01*
X108335029Y-89968190D01*
X108433694Y-89932473D01*
X108490043Y-89942892D01*
G37*
G36*
X103671769Y-93050279D02*
G01*
X103695736Y-93158979D01*
X103681296Y-93231630D01*
X103633128Y-93237121D01*
X103562219Y-93155153D01*
X103558184Y-93148617D01*
X103528940Y-93073316D01*
X103570178Y-93035482D01*
X103599285Y-93026871D01*
X103671769Y-93050279D01*
G37*
G36*
X103756727Y-93989027D02*
G01*
X103794186Y-94036822D01*
X103792755Y-94048588D01*
X103744961Y-94086047D01*
X103733195Y-94084616D01*
X103695736Y-94036822D01*
X103697167Y-94025056D01*
X103744961Y-93987597D01*
X103756727Y-93989027D01*
G37*
G36*
X105960077Y-87612984D02*
G01*
X105935465Y-87637597D01*
X105910853Y-87612984D01*
X105935465Y-87588372D01*
X105960077Y-87612984D01*
G37*
G36*
X109537132Y-78526261D02*
G01*
X109678325Y-78561646D01*
X109836893Y-78613970D01*
X109957011Y-78665312D01*
X110007604Y-78710703D01*
X109990846Y-78759345D01*
X109925672Y-78809240D01*
X109796864Y-78814740D01*
X109646055Y-78733845D01*
X109542749Y-78666277D01*
X109439917Y-78623089D01*
X109393433Y-78607631D01*
X109364600Y-78565861D01*
X109406554Y-78529035D01*
X109504263Y-78521000D01*
X109537132Y-78526261D01*
G37*
G36*
X102992750Y-84313698D02*
G01*
X102988390Y-84401066D01*
X102970739Y-84478388D01*
X102958036Y-84573353D01*
X102940739Y-84624197D01*
X102889940Y-84624597D01*
X102839745Y-84557481D01*
X102833316Y-84532428D01*
X102845447Y-84427650D01*
X102896248Y-84332078D01*
X102964837Y-84290310D01*
X102992750Y-84313698D01*
G37*
G36*
X105713953Y-87612984D02*
G01*
X105689341Y-87637597D01*
X105664729Y-87612984D01*
X105689341Y-87588372D01*
X105713953Y-87612984D01*
G37*
G36*
X110200596Y-96707685D02*
G01*
X110218023Y-96744186D01*
X110186289Y-96770807D01*
X110092056Y-96793411D01*
X110037610Y-96784577D01*
X109996511Y-96744186D01*
X110028589Y-96711457D01*
X110122479Y-96694961D01*
X110200596Y-96707685D01*
G37*
G36*
X103843411Y-84856395D02*
G01*
X103818798Y-84881008D01*
X103794186Y-84856395D01*
X103818798Y-84831783D01*
X103843411Y-84856395D01*
G37*
G36*
X103485606Y-100259651D02*
G01*
X103566418Y-100369076D01*
X103597287Y-100430973D01*
X103599133Y-100447503D01*
X103634205Y-100477456D01*
X103713081Y-100487157D01*
X103802777Y-100542517D01*
X103843411Y-100615145D01*
X103849580Y-100646697D01*
X103910981Y-100711189D01*
X103935690Y-100728074D01*
X104007870Y-100814913D01*
X104085028Y-100943462D01*
X104092396Y-100956972D01*
X104175828Y-101079399D01*
X104309263Y-101248024D01*
X104375253Y-101324998D01*
X104459655Y-101423448D01*
X104475898Y-101442394D01*
X104591241Y-101568217D01*
X104658928Y-101642054D01*
X104679055Y-101663251D01*
X104682296Y-101666667D01*
X104804574Y-101795539D01*
X104845767Y-101838953D01*
X104871355Y-101865921D01*
X105056271Y-102061032D01*
X105213658Y-102227317D01*
X105323368Y-102343508D01*
X105415164Y-102431341D01*
X105538773Y-102519495D01*
X105636065Y-102555845D01*
X105691452Y-102535674D01*
X105689341Y-102454264D01*
X105680491Y-102394137D01*
X105710636Y-102355814D01*
X105734845Y-102364172D01*
X105763178Y-102429651D01*
X105767877Y-102463513D01*
X105805102Y-102503488D01*
X105825799Y-102511073D01*
X105906394Y-102568113D01*
X106013631Y-102662704D01*
X106049692Y-102699466D01*
X106144289Y-102841037D01*
X106159337Y-102964489D01*
X106091798Y-103054591D01*
X106063356Y-103078302D01*
X106073536Y-103120704D01*
X106172279Y-103151286D01*
X106353106Y-103167254D01*
X106482713Y-103177757D01*
X106588513Y-103196664D01*
X106648341Y-103217711D01*
X106645147Y-103234808D01*
X106561884Y-103241860D01*
X106475150Y-103253698D01*
X106431858Y-103311722D01*
X106458422Y-103431598D01*
X106501106Y-103502454D01*
X106574128Y-103519892D01*
X106611555Y-103513219D01*
X106679072Y-103545680D01*
X106707493Y-103565747D01*
X106758374Y-103516341D01*
X106776979Y-103466152D01*
X106747218Y-103364373D01*
X106728236Y-103337309D01*
X106737029Y-103295286D01*
X106829474Y-103265528D01*
X106942682Y-103233984D01*
X107062321Y-103184879D01*
X107091310Y-103169808D01*
X107137359Y-103165106D01*
X107128443Y-103237145D01*
X107121518Y-103296496D01*
X107146063Y-103312860D01*
X107173977Y-103269592D01*
X107190698Y-103167623D01*
X107207983Y-103093074D01*
X107283385Y-102984696D01*
X107395999Y-102890577D01*
X107520870Y-102826145D01*
X107633041Y-102806830D01*
X107707558Y-102848062D01*
X107729540Y-102868342D01*
X107808020Y-102893666D01*
X107890715Y-102893482D01*
X107929070Y-102864244D01*
X107915171Y-102829387D01*
X107857432Y-102752043D01*
X107856638Y-102751164D01*
X107832923Y-102715476D01*
X107848673Y-102692018D01*
X107918633Y-102677733D01*
X108057551Y-102669567D01*
X108280173Y-102664466D01*
X108399477Y-102662878D01*
X108585601Y-102664366D01*
X108695641Y-102674040D01*
X108744669Y-102693880D01*
X108747758Y-102725865D01*
X108742576Y-102742243D01*
X108756135Y-102813343D01*
X108817600Y-102831428D01*
X108889541Y-102781745D01*
X108895297Y-102774627D01*
X108974409Y-102725560D01*
X109078870Y-102701773D01*
X109169948Y-102707487D01*
X109208915Y-102746926D01*
X109208915Y-102747080D01*
X109248826Y-102799359D01*
X109344283Y-102859651D01*
X109433844Y-102922943D01*
X109465292Y-103022317D01*
X109464388Y-103028533D01*
X109464241Y-103084018D01*
X109496920Y-103050617D01*
X109507814Y-103035688D01*
X109549585Y-103018759D01*
X109598881Y-103087026D01*
X109676123Y-103183634D01*
X109791011Y-103263390D01*
X109906132Y-103300372D01*
X109989189Y-103278718D01*
X110036227Y-103248242D01*
X110104806Y-103281240D01*
X110134221Y-103338020D01*
X110093297Y-103403339D01*
X109971899Y-103446962D01*
X109914903Y-103470842D01*
X109873449Y-103537883D01*
X109873445Y-103538524D01*
X109837153Y-103618968D01*
X109751086Y-103709496D01*
X109659314Y-103783333D01*
X109628722Y-103807946D01*
X109817235Y-103832558D01*
X110005748Y-103857171D01*
X109902680Y-103975458D01*
X109832006Y-104070799D01*
X109792699Y-104178931D01*
X109823560Y-104232792D01*
X109912415Y-104219631D01*
X109959548Y-104187107D01*
X110203533Y-104187107D01*
X110210035Y-104287888D01*
X110227127Y-104296238D01*
X110234863Y-104226357D01*
X110228002Y-104158642D01*
X110210035Y-104164826D01*
X110203533Y-104187107D01*
X109959548Y-104187107D01*
X110047091Y-104126698D01*
X110095524Y-104085382D01*
X110186983Y-104019625D01*
X110233978Y-104004392D01*
X110270073Y-104002641D01*
X110322813Y-103939735D01*
X110368551Y-103840875D01*
X110388744Y-103737985D01*
X110402529Y-103651741D01*
X110455401Y-103541085D01*
X110468015Y-103523938D01*
X110525607Y-103411450D01*
X110577855Y-103266473D01*
X110621952Y-103115584D01*
X110723089Y-102774998D01*
X110804476Y-102511711D01*
X110870522Y-102312862D01*
X110925633Y-102165589D01*
X110974218Y-102057030D01*
X111020685Y-101974322D01*
X111082757Y-101901327D01*
X111154417Y-101863566D01*
X111179240Y-101872271D01*
X111217374Y-101905842D01*
X111273354Y-101972595D01*
X111353054Y-102080820D01*
X111462347Y-102238803D01*
X111607107Y-102454834D01*
X111793206Y-102737199D01*
X112026519Y-103094186D01*
X112066207Y-103155812D01*
X112215014Y-103395115D01*
X112399992Y-103701947D01*
X112612854Y-104062109D01*
X112708476Y-104226357D01*
X112845316Y-104461403D01*
X113089092Y-104885628D01*
X113335896Y-105320587D01*
X113511640Y-105634530D01*
X113577444Y-105752080D01*
X113593994Y-105781793D01*
X113661175Y-105900000D01*
X113717457Y-105999029D01*
X113828871Y-106187914D01*
X113916581Y-106329066D01*
X113968931Y-106403102D01*
X113993188Y-106455583D01*
X114017262Y-106507670D01*
X114021315Y-106689018D01*
X113971420Y-106918680D01*
X113869722Y-107179845D01*
X113845000Y-107229080D01*
X113751541Y-107393565D01*
X113620516Y-107606730D01*
X113465757Y-107846425D01*
X113301091Y-108090504D01*
X113274776Y-108128708D01*
X113078672Y-108418616D01*
X112869116Y-108735849D01*
X112669589Y-109044539D01*
X112503569Y-109308818D01*
X112148066Y-109887209D01*
X109730913Y-109887064D01*
X107313760Y-109886918D01*
X107129882Y-109505571D01*
X107123158Y-109491659D01*
X106997609Y-109239238D01*
X106834429Y-108921639D01*
X106643726Y-108558139D01*
X106435606Y-108168014D01*
X106220178Y-107770543D01*
X106176826Y-107692666D01*
X106065901Y-107499430D01*
X105933920Y-107274816D01*
X105800915Y-107053097D01*
X105733687Y-106941641D01*
X105595553Y-106708742D01*
X105484843Y-106518215D01*
X113491473Y-106518215D01*
X113491952Y-106525097D01*
X113520446Y-106535937D01*
X113570010Y-106483092D01*
X113581987Y-106455583D01*
X113548303Y-106461385D01*
X113541539Y-106466085D01*
X113526436Y-106476580D01*
X113491473Y-106518215D01*
X105484843Y-106518215D01*
X105467170Y-106487801D01*
X105454918Y-106466085D01*
X113393023Y-106466085D01*
X113417635Y-106490698D01*
X113442248Y-106466085D01*
X113417635Y-106441473D01*
X113393023Y-106466085D01*
X105454918Y-106466085D01*
X105369520Y-106314725D01*
X105332590Y-106248957D01*
X105189509Y-106010304D01*
X105103078Y-105874398D01*
X109859354Y-105874398D01*
X109865245Y-105932817D01*
X109880051Y-105940518D01*
X109898062Y-105900000D01*
X109894509Y-105873941D01*
X109865245Y-105867183D01*
X109859354Y-105874398D01*
X105103078Y-105874398D01*
X105010523Y-105728864D01*
X104929413Y-105606196D01*
X109455039Y-105606196D01*
X109463357Y-105628115D01*
X109528876Y-105653876D01*
X109562517Y-105651738D01*
X109602713Y-105634530D01*
X109593644Y-105621789D01*
X109528876Y-105586850D01*
X109491121Y-105579112D01*
X109455039Y-105606196D01*
X104929413Y-105606196D01*
X104808111Y-105422743D01*
X104594750Y-105110043D01*
X104382918Y-104808869D01*
X104185092Y-104537325D01*
X104013750Y-104313515D01*
X103881370Y-104155544D01*
X103823977Y-104084275D01*
X103794186Y-104026156D01*
X103779547Y-103998335D01*
X103717791Y-103906142D01*
X103620831Y-103769397D01*
X103612330Y-103757732D01*
X107004315Y-103757732D01*
X107010207Y-103816150D01*
X107025013Y-103823851D01*
X107043023Y-103783333D01*
X107039471Y-103757274D01*
X107010207Y-103750517D01*
X107004315Y-103757732D01*
X103612330Y-103757732D01*
X103502962Y-103607656D01*
X103378482Y-103440476D01*
X103261685Y-103287413D01*
X103166870Y-103168023D01*
X103138343Y-103131641D01*
X103058560Y-103027601D01*
X102944429Y-102877596D01*
X102810257Y-102700388D01*
X102797298Y-102683249D01*
X102593634Y-102417563D01*
X102383124Y-102148909D01*
X102178964Y-101893622D01*
X102048902Y-101734694D01*
X104187984Y-101734694D01*
X104192411Y-101767943D01*
X104237209Y-101838953D01*
X104261814Y-101844208D01*
X104264472Y-101838953D01*
X104335659Y-101838953D01*
X104360271Y-101863566D01*
X104384884Y-101838953D01*
X104360271Y-101814341D01*
X104335659Y-101838953D01*
X104264472Y-101838953D01*
X104286434Y-101795539D01*
X104282008Y-101762290D01*
X104237209Y-101691279D01*
X104212604Y-101686025D01*
X104187984Y-101734694D01*
X102048902Y-101734694D01*
X101994352Y-101668037D01*
X101971538Y-101641065D01*
X104100052Y-101641065D01*
X104105943Y-101699483D01*
X104120749Y-101707184D01*
X104138760Y-101666667D01*
X104135207Y-101640607D01*
X104105943Y-101633850D01*
X104100052Y-101641065D01*
X101971538Y-101641065D01*
X101909920Y-101568217D01*
X103941860Y-101568217D01*
X103943291Y-101579983D01*
X103991085Y-101617442D01*
X104002851Y-101616011D01*
X104040310Y-101568217D01*
X104038879Y-101556451D01*
X103991085Y-101518992D01*
X103979319Y-101520423D01*
X103941860Y-101568217D01*
X101909920Y-101568217D01*
X101842484Y-101488491D01*
X101756181Y-101393025D01*
X103794186Y-101393025D01*
X103800210Y-101429700D01*
X103843411Y-101469767D01*
X103855090Y-101468442D01*
X103892635Y-101423448D01*
X103890758Y-101409637D01*
X103843411Y-101346705D01*
X103818050Y-101342075D01*
X103794186Y-101393025D01*
X101756181Y-101393025D01*
X101736557Y-101371318D01*
X101730722Y-101365307D01*
X101666098Y-101294576D01*
X103646511Y-101294576D01*
X103652536Y-101331251D01*
X103695736Y-101371318D01*
X103707415Y-101369992D01*
X103744961Y-101324998D01*
X103743083Y-101311188D01*
X103695736Y-101248256D01*
X103670375Y-101243625D01*
X103646511Y-101294576D01*
X101666098Y-101294576D01*
X101603397Y-101225949D01*
X101430580Y-101026025D01*
X101225888Y-100782098D01*
X101002940Y-100510734D01*
X100775353Y-100228498D01*
X100556745Y-99951957D01*
X100360732Y-99697674D01*
X100307888Y-99628290D01*
X100165354Y-99443792D01*
X100036426Y-99280290D01*
X99943802Y-99166691D01*
X99865713Y-99064068D01*
X99755271Y-98889635D01*
X99657454Y-98706065D01*
X99587551Y-98542799D01*
X99560853Y-98429280D01*
X99574247Y-98339831D01*
X99618913Y-98216836D01*
X99677859Y-98115879D01*
X99733139Y-98073964D01*
X99789944Y-98088862D01*
X99927288Y-98172817D01*
X100124542Y-98331498D01*
X100382803Y-98565736D01*
X100413989Y-98595016D01*
X100626124Y-98790992D01*
X100856603Y-98999763D01*
X101060768Y-99180814D01*
X101130719Y-99242012D01*
X101280584Y-99374225D01*
X101397607Y-99478957D01*
X101461024Y-99537694D01*
X101496118Y-99569115D01*
X101547903Y-99599225D01*
X101561187Y-99605007D01*
X101631435Y-99657308D01*
X101734088Y-99746362D01*
X101757095Y-99766855D01*
X101874423Y-99847400D01*
X101943870Y-99844812D01*
X101999776Y-99803628D01*
X102054656Y-99811597D01*
X102057055Y-99894574D01*
X102049829Y-99953725D01*
X102072124Y-99993023D01*
X102082103Y-99997475D01*
X102151616Y-100052500D01*
X102271920Y-100160451D01*
X102429383Y-100308863D01*
X102610377Y-100485271D01*
X102675172Y-100548792D01*
X102853637Y-100717461D01*
X103007032Y-100853538D01*
X103120770Y-100944424D01*
X103180264Y-100977519D01*
X103212942Y-100982845D01*
X103252713Y-101026744D01*
X103260183Y-101048600D01*
X103324104Y-101075969D01*
X103367886Y-101087778D01*
X103440379Y-101156171D01*
X103475481Y-101196303D01*
X103550852Y-101214509D01*
X103559460Y-101205304D01*
X103532063Y-101139545D01*
X103435638Y-101018244D01*
X103274597Y-100847266D01*
X103194932Y-100766403D01*
X103034150Y-100601106D01*
X102896480Y-100456967D01*
X102805176Y-100358211D01*
X102775093Y-100322361D01*
X102681654Y-100197176D01*
X102596843Y-100073462D01*
X103113746Y-100073462D01*
X103154263Y-100091473D01*
X103180323Y-100087920D01*
X103187080Y-100058656D01*
X103179865Y-100052765D01*
X103121447Y-100058656D01*
X103113746Y-100073462D01*
X102596843Y-100073462D01*
X102571002Y-100035767D01*
X102455344Y-99857663D01*
X102371573Y-99722287D01*
X102563566Y-99722287D01*
X102588178Y-99746899D01*
X102612791Y-99722287D01*
X102588178Y-99697674D01*
X102563566Y-99722287D01*
X102371573Y-99722287D01*
X102346888Y-99682395D01*
X102257840Y-99529490D01*
X102200407Y-99418478D01*
X102186796Y-99368889D01*
X102224773Y-99360770D01*
X102305282Y-99395969D01*
X102381822Y-99461880D01*
X102415891Y-99531222D01*
X102419972Y-99559783D01*
X102460289Y-99588681D01*
X102516732Y-99558245D01*
X102555585Y-99480673D01*
X102552953Y-99426246D01*
X102497609Y-99337078D01*
X102495586Y-99335470D01*
X102439435Y-99251830D01*
X102408995Y-99136943D01*
X102409798Y-99030854D01*
X102447379Y-98973612D01*
X102466997Y-98975429D01*
X102536366Y-99030591D01*
X102616642Y-99137821D01*
X102678494Y-99228384D01*
X102804601Y-99390039D01*
X102941200Y-99546217D01*
X103038967Y-99656712D01*
X103089077Y-99722287D01*
X103121424Y-99764618D01*
X103153429Y-99827719D01*
X103183105Y-99888101D01*
X103263147Y-99997317D01*
X103315097Y-100058656D01*
X103375775Y-100130300D01*
X103485606Y-100259651D01*
G37*
G36*
X104126453Y-89069655D02*
G01*
X104194639Y-89114602D01*
X104237209Y-89207781D01*
X104219092Y-89270736D01*
X104126453Y-89325726D01*
X104052438Y-89339899D01*
X103978779Y-89353762D01*
X103960090Y-89349591D01*
X103949623Y-89280090D01*
X103983686Y-89132773D01*
X103989944Y-89113865D01*
X104036378Y-89054843D01*
X104126453Y-89069655D01*
G37*
G36*
X109633407Y-91639091D02*
G01*
X109643966Y-91671260D01*
X109625789Y-91758051D01*
X109611376Y-91790423D01*
X109586476Y-91819508D01*
X109566131Y-91756322D01*
X109560125Y-91687213D01*
X109584737Y-91628152D01*
X109633407Y-91639091D01*
G37*
G36*
X106607099Y-89077338D02*
G01*
X106649225Y-89114341D01*
X106618671Y-89146716D01*
X106526163Y-89163566D01*
X106445226Y-89151345D01*
X106403101Y-89114341D01*
X106433654Y-89081967D01*
X106526163Y-89065116D01*
X106607099Y-89077338D01*
G37*
G36*
X106512933Y-89510031D02*
G01*
X106550775Y-89557364D01*
X106550211Y-89568504D01*
X106529068Y-89606589D01*
X106521172Y-89604324D01*
X106476938Y-89557364D01*
X106469246Y-89538296D01*
X106498645Y-89508140D01*
X106512933Y-89510031D01*
G37*
G36*
X109705487Y-102609024D02*
G01*
X109822192Y-102650126D01*
X109883210Y-102688848D01*
X109866451Y-102738571D01*
X109780179Y-102822961D01*
X109671586Y-102902723D01*
X109575479Y-102940887D01*
X109512187Y-102937565D01*
X109501011Y-102893834D01*
X109561247Y-102810768D01*
X109592055Y-102756128D01*
X109554232Y-102676672D01*
X109538951Y-102657325D01*
X109510893Y-102589628D01*
X109566328Y-102573562D01*
X109705487Y-102609024D01*
G37*
G36*
X111620930Y-81706008D02*
G01*
X111596318Y-81730620D01*
X111571705Y-81706008D01*
X111596318Y-81681395D01*
X111620930Y-81706008D01*
G37*
G36*
X106255426Y-81902907D02*
G01*
X106230814Y-81927519D01*
X106206201Y-81902907D01*
X106230814Y-81878295D01*
X106255426Y-81902907D01*
G37*
G36*
X104510790Y-88821207D02*
G01*
X104557170Y-88868217D01*
X104566339Y-88885645D01*
X104562981Y-88917442D01*
X104554326Y-88915227D01*
X104507946Y-88868217D01*
X104498777Y-88850789D01*
X104502135Y-88818992D01*
X104510790Y-88821207D01*
G37*
G36*
X110935513Y-79385804D02*
G01*
X110971416Y-79393174D01*
X111085531Y-79424413D01*
X111123827Y-79460434D01*
X111104350Y-79515050D01*
X111052825Y-79552307D01*
X110948916Y-79556758D01*
X110846742Y-79518282D01*
X110791849Y-79446822D01*
X110788879Y-79394993D01*
X110827209Y-79371230D01*
X110935513Y-79385804D01*
G37*
G36*
X97692072Y-83642297D02*
G01*
X97644028Y-83712321D01*
X97603108Y-83727269D01*
X97605471Y-83686428D01*
X97662072Y-83612297D01*
X97713088Y-83565127D01*
X97729482Y-83564049D01*
X97692072Y-83642297D01*
G37*
G36*
X112333602Y-89369857D02*
G01*
X112359302Y-89437207D01*
X112352219Y-89472368D01*
X112310077Y-89483527D01*
X112296634Y-89473452D01*
X112260853Y-89406785D01*
X112262262Y-89395795D01*
X112310077Y-89360465D01*
X112333602Y-89369857D01*
G37*
G36*
X100619186Y-97581008D02*
G01*
X100647478Y-97620626D01*
X100715175Y-97728908D01*
X100742248Y-97795130D01*
X100743843Y-97805189D01*
X100782140Y-97884757D01*
X100855511Y-97994772D01*
X100919616Y-98087635D01*
X101023776Y-98247698D01*
X101149968Y-98447522D01*
X101283388Y-98663953D01*
X101283650Y-98664384D01*
X101411156Y-98870413D01*
X101525875Y-99049531D01*
X101615249Y-99182531D01*
X101666718Y-99250206D01*
X101719991Y-99314469D01*
X101800690Y-99427784D01*
X101883040Y-99553835D01*
X101947085Y-99661913D01*
X101972868Y-99721309D01*
X101953454Y-99742602D01*
X101878342Y-99697846D01*
X101748567Y-99577144D01*
X101566108Y-99382371D01*
X101332946Y-99115401D01*
X101176748Y-98920665D01*
X101002687Y-98672021D01*
X100865124Y-98438381D01*
X100774748Y-98238293D01*
X100742248Y-98090305D01*
X100728128Y-98017060D01*
X100666824Y-97974806D01*
X100607460Y-97944745D01*
X100553364Y-97868989D01*
X100528297Y-97786603D01*
X100551335Y-97736886D01*
X100558592Y-97733451D01*
X100594573Y-97672450D01*
X100590811Y-97656409D01*
X100545349Y-97654845D01*
X100510762Y-97639325D01*
X100496124Y-97549737D01*
X100496124Y-97414207D01*
X100619186Y-97581008D01*
G37*
G36*
X113404406Y-81387938D02*
G01*
X113442248Y-81435271D01*
X113441684Y-81446411D01*
X113420541Y-81484496D01*
X113412644Y-81482231D01*
X113368411Y-81435271D01*
X113360719Y-81416203D01*
X113390118Y-81386047D01*
X113404406Y-81387938D01*
G37*
G36*
X112803556Y-80526461D02*
G01*
X112864615Y-80568821D01*
X112891600Y-80684762D01*
X112895834Y-80779175D01*
X112870016Y-80828057D01*
X112793151Y-80827531D01*
X112750017Y-80812797D01*
X112687321Y-80741113D01*
X112669807Y-80645011D01*
X112699321Y-80560756D01*
X112777713Y-80524612D01*
X112803556Y-80526461D01*
G37*
G36*
X105872530Y-81831086D02*
G01*
X105910853Y-81872141D01*
X105910875Y-81872904D01*
X105955093Y-81911658D01*
X106058527Y-81944748D01*
X106144978Y-81981749D01*
X106202618Y-82042837D01*
X106210143Y-82099480D01*
X106153190Y-82124419D01*
X106136607Y-82128553D01*
X106056018Y-82180160D01*
X105952696Y-82271901D01*
X105866660Y-82350087D01*
X105786093Y-82388282D01*
X105710359Y-82368619D01*
X105653834Y-82328952D01*
X105615504Y-82270361D01*
X105607187Y-82248530D01*
X105541667Y-82222868D01*
X105498608Y-82204595D01*
X105467829Y-82124419D01*
X105469311Y-82104436D01*
X105513247Y-82037420D01*
X105586706Y-82033918D01*
X105646928Y-82099806D01*
X105655762Y-82114703D01*
X105727469Y-82156186D01*
X105829394Y-82173339D01*
X105920581Y-82163170D01*
X105960077Y-82122687D01*
X105938286Y-82054470D01*
X105880579Y-81950400D01*
X105837522Y-81862745D01*
X105855966Y-81829070D01*
X105872530Y-81831086D01*
G37*
G36*
X111604522Y-81796253D02*
G01*
X111612223Y-81811059D01*
X111571705Y-81829070D01*
X111545646Y-81825517D01*
X111538889Y-81796253D01*
X111546103Y-81790362D01*
X111604522Y-81796253D01*
G37*
G36*
X105615504Y-87612984D02*
G01*
X105590891Y-87637597D01*
X105566279Y-87612984D01*
X105590891Y-87588372D01*
X105615504Y-87612984D01*
G37*
G36*
X112211628Y-81853682D02*
G01*
X112187015Y-81878295D01*
X112162403Y-81853682D01*
X112187015Y-81829070D01*
X112211628Y-81853682D01*
G37*
G36*
X106698449Y-81530816D02*
G01*
X106696558Y-81545104D01*
X106649225Y-81582946D01*
X106638085Y-81582381D01*
X106600000Y-81561238D01*
X106602265Y-81553342D01*
X106649225Y-81509109D01*
X106668292Y-81501417D01*
X106698449Y-81530816D01*
G37*
G36*
X98231783Y-94627519D02*
G01*
X98254991Y-94669686D01*
X98279500Y-94750581D01*
X98270787Y-94765370D01*
X98231783Y-94725969D01*
X98208575Y-94683802D01*
X98184066Y-94602907D01*
X98192778Y-94588119D01*
X98231783Y-94627519D01*
G37*
G36*
X107691476Y-90397869D02*
G01*
X107542728Y-90469144D01*
X107412557Y-90521501D01*
X107326052Y-90541860D01*
X107280126Y-90551813D01*
X107192921Y-90613019D01*
X107155457Y-90645351D01*
X107085339Y-90677732D01*
X106968202Y-90712143D01*
X106787369Y-90753421D01*
X106526163Y-90806402D01*
X106401983Y-90822376D01*
X106175163Y-90814034D01*
X105961988Y-90764966D01*
X105783575Y-90683321D01*
X105661041Y-90577250D01*
X105615504Y-90454905D01*
X105643612Y-90410228D01*
X105750872Y-90395692D01*
X105845958Y-90400453D01*
X105973599Y-90392474D01*
X106048153Y-90352846D01*
X106053039Y-90344961D01*
X106452325Y-90344961D01*
X106452669Y-90356401D01*
X106464632Y-90390726D01*
X106491883Y-90380114D01*
X106575387Y-90344961D01*
X106621943Y-90324240D01*
X106639770Y-90304979D01*
X106563081Y-90299196D01*
X106493908Y-90307887D01*
X106452325Y-90344961D01*
X106053039Y-90344961D01*
X106098795Y-90271124D01*
X106143920Y-90198857D01*
X106223320Y-90157814D01*
X106365127Y-90147308D01*
X106422326Y-90146616D01*
X106556019Y-90132973D01*
X106648617Y-90086968D01*
X106726873Y-89989282D01*
X106817542Y-89820593D01*
X106873035Y-89718727D01*
X106972414Y-89582336D01*
X107056909Y-89527941D01*
X107119471Y-89561588D01*
X107131241Y-89574613D01*
X107215198Y-89628687D01*
X107342559Y-89687845D01*
X107383938Y-89706066D01*
X107492649Y-89775730D01*
X107535271Y-89841876D01*
X107534769Y-89852646D01*
X107489164Y-89961942D01*
X107396228Y-90058110D01*
X107293824Y-90100582D01*
X107211365Y-90118684D01*
X107093057Y-90169998D01*
X107008499Y-90204047D01*
X106889020Y-90193900D01*
X106809995Y-90182621D01*
X106739771Y-90221211D01*
X106710376Y-90284794D01*
X106722968Y-90304979D01*
X106748056Y-90345197D01*
X106784025Y-90359853D01*
X106897948Y-90379112D01*
X107042460Y-90386139D01*
X107185445Y-90381335D01*
X107294788Y-90365100D01*
X107338372Y-90337836D01*
X107348376Y-90320349D01*
X107584496Y-90320349D01*
X107609108Y-90344961D01*
X107633721Y-90320349D01*
X107609108Y-90295736D01*
X107584496Y-90320349D01*
X107348376Y-90320349D01*
X107352165Y-90313726D01*
X107423950Y-90304999D01*
X107497092Y-90295977D01*
X107596237Y-90234771D01*
X107677434Y-90184536D01*
X107804213Y-90152118D01*
X107925291Y-90152768D01*
X107999027Y-90191009D01*
X107998299Y-90201330D01*
X107944350Y-90250882D01*
X107834356Y-90320349D01*
X107833713Y-90320755D01*
X107691476Y-90397869D01*
G37*
G36*
X104040310Y-85890116D02*
G01*
X104015698Y-85914729D01*
X103991085Y-85890116D01*
X104015698Y-85865504D01*
X104040310Y-85890116D01*
G37*
G36*
X98080222Y-94943379D02*
G01*
X98076742Y-94993305D01*
X98054368Y-95007986D01*
X98044614Y-94990571D01*
X98050482Y-94913639D01*
X98068201Y-94890854D01*
X98080222Y-94943379D01*
G37*
G36*
X98274872Y-82511347D02*
G01*
X98280856Y-82584707D01*
X98233359Y-82735584D01*
X98221814Y-82761744D01*
X98151886Y-82830711D01*
X98075654Y-82812684D01*
X98019472Y-82710725D01*
X98017169Y-82700705D01*
X98035463Y-82615743D01*
X98137684Y-82540580D01*
X98211792Y-82508138D01*
X98274872Y-82511347D01*
G37*
G36*
X113245349Y-83625775D02*
G01*
X113220736Y-83650388D01*
X113196124Y-83625775D01*
X113220736Y-83601163D01*
X113245349Y-83625775D01*
G37*
G36*
X111177907Y-94406008D02*
G01*
X111153294Y-94430620D01*
X111128682Y-94406008D01*
X111153294Y-94381395D01*
X111177907Y-94406008D01*
G37*
G36*
X103851045Y-89866567D02*
G01*
X103892635Y-89926550D01*
X103887789Y-89960430D01*
X103849438Y-90000388D01*
X103816020Y-89988431D01*
X103744961Y-89926550D01*
X103731330Y-89909435D01*
X103717048Y-89863490D01*
X103788159Y-89852713D01*
X103851045Y-89866567D01*
G37*
G36*
X110045736Y-103709496D02*
G01*
X110021124Y-103734109D01*
X109996511Y-103709496D01*
X110021124Y-103684884D01*
X110045736Y-103709496D01*
G37*
G36*
X111689822Y-89610825D02*
G01*
X111719380Y-89766732D01*
X111719225Y-89795437D01*
X111707718Y-89875634D01*
X111657173Y-89899340D01*
X111538770Y-89885510D01*
X111469258Y-89870588D01*
X111334608Y-89807924D01*
X111278559Y-89724426D01*
X111306563Y-89635699D01*
X111424075Y-89557346D01*
X111466943Y-89541806D01*
X111604168Y-89534780D01*
X111689822Y-89610825D01*
G37*
G36*
X99950998Y-92925761D02*
G01*
X99979537Y-92982361D01*
X100032449Y-93111095D01*
X100041362Y-93209584D01*
X100012529Y-93317668D01*
X99973936Y-93456851D01*
X99957922Y-93595144D01*
X99965819Y-93701839D01*
X99993737Y-93760311D01*
X100037785Y-93753937D01*
X100094072Y-93666092D01*
X100099914Y-93653908D01*
X100175334Y-93564354D01*
X100256781Y-93552199D01*
X100318571Y-93622437D01*
X100329355Y-93668423D01*
X100343082Y-93799752D01*
X100348449Y-93964197D01*
X100339475Y-94101399D01*
X100277350Y-94334508D01*
X100165053Y-94514985D01*
X100013142Y-94622114D01*
X99799543Y-94655133D01*
X99550633Y-94601852D01*
X99282174Y-94461975D01*
X99001753Y-94238382D01*
X98950733Y-94188292D01*
X98762738Y-93937060D01*
X98659251Y-93666001D01*
X98646888Y-93390917D01*
X98657852Y-93299169D01*
X98657314Y-93203723D01*
X98622050Y-93159102D01*
X98539772Y-93136075D01*
X98480649Y-93117078D01*
X98409270Y-93060502D01*
X98353954Y-92976907D01*
X99167054Y-92976907D01*
X99167501Y-92985299D01*
X99196377Y-93006006D01*
X99256562Y-92959632D01*
X99328728Y-92860138D01*
X99388191Y-92744692D01*
X99409141Y-92643752D01*
X99361442Y-92609302D01*
X99350500Y-92613527D01*
X99299266Y-92674591D01*
X99238714Y-92779902D01*
X99188194Y-92892871D01*
X99167054Y-92976907D01*
X98353954Y-92976907D01*
X98336757Y-92950919D01*
X98247271Y-92768421D01*
X98245634Y-92764837D01*
X98163142Y-92568068D01*
X98095554Y-92378129D01*
X98057361Y-92235667D01*
X98039682Y-92139712D01*
X97991995Y-91915625D01*
X97932627Y-91688383D01*
X97855025Y-91436059D01*
X97752637Y-91136724D01*
X97618909Y-90768452D01*
X97596191Y-90703634D01*
X97513206Y-90347737D01*
X97500318Y-90006268D01*
X97558981Y-89705039D01*
X97561501Y-89697834D01*
X97610732Y-89588088D01*
X97677992Y-89545442D01*
X97802947Y-89543658D01*
X97818854Y-89544767D01*
X97969484Y-89568544D01*
X98084728Y-89606921D01*
X98106217Y-89620822D01*
X98152596Y-89682861D01*
X98177258Y-89788385D01*
X98180838Y-89950663D01*
X98163969Y-90182965D01*
X98127284Y-90498561D01*
X98118013Y-90574414D01*
X98099785Y-90787211D01*
X98099059Y-90987596D01*
X98116807Y-91211810D01*
X98153997Y-91496094D01*
X98205294Y-91817545D01*
X98267204Y-92113870D01*
X98335029Y-92336206D01*
X98412920Y-92497739D01*
X98505025Y-92611656D01*
X98625581Y-92724913D01*
X98625581Y-92613341D01*
X98597647Y-92500163D01*
X98527132Y-92376610D01*
X98459299Y-92253354D01*
X98428682Y-92117761D01*
X98412641Y-91978263D01*
X98372755Y-91823638D01*
X98361296Y-91786115D01*
X98342946Y-91657273D01*
X98348170Y-91482854D01*
X98377155Y-91237901D01*
X98384885Y-91182615D01*
X98414101Y-90959553D01*
X98437761Y-90757926D01*
X98451340Y-90615698D01*
X98463046Y-90506894D01*
X98493191Y-90311790D01*
X98532039Y-90111143D01*
X98563309Y-89977567D01*
X98601509Y-89866595D01*
X98646448Y-89815700D01*
X98710539Y-89803488D01*
X98805095Y-89827986D01*
X98943279Y-89914741D01*
X99076409Y-90038823D01*
X99176677Y-90173395D01*
X99216279Y-90291619D01*
X99230175Y-90395644D01*
X99308454Y-90504806D01*
X99453222Y-90541860D01*
X99526994Y-90549440D01*
X99553290Y-90593058D01*
X99536077Y-90701841D01*
X99523895Y-90775018D01*
X99509052Y-90949846D01*
X99505616Y-91138309D01*
X99505080Y-91233741D01*
X99491193Y-91457826D01*
X99464691Y-91655169D01*
X99443992Y-91847032D01*
X99473494Y-92203375D01*
X99494447Y-92310928D01*
X99535037Y-92449140D01*
X99591690Y-92536213D01*
X99680150Y-92602560D01*
X99734185Y-92643391D01*
X99734515Y-92643752D01*
X99851370Y-92771500D01*
X99950998Y-92925761D01*
G37*
G36*
X114189975Y-82868344D02*
G01*
X114229845Y-82912016D01*
X114221514Y-82934660D01*
X114156008Y-82961240D01*
X114122040Y-82955687D01*
X114082170Y-82912016D01*
X114090501Y-82889371D01*
X114156008Y-82862791D01*
X114189975Y-82868344D01*
G37*
G36*
X98356388Y-89197519D02*
G01*
X98416376Y-89249709D01*
X98401459Y-89292403D01*
X98305620Y-89311240D01*
X98219095Y-89297577D01*
X98194864Y-89249709D01*
X98219395Y-89217218D01*
X98305620Y-89188178D01*
X98356388Y-89197519D01*
G37*
G36*
X111518594Y-100456557D02*
G01*
X111515114Y-100506484D01*
X111492740Y-100521164D01*
X111482986Y-100503749D01*
X111488854Y-100426817D01*
X111506573Y-100404032D01*
X111518594Y-100456557D01*
G37*
G36*
X113286205Y-81070687D02*
G01*
X113313300Y-81090598D01*
X113365585Y-81154563D01*
X113340118Y-81218195D01*
X113301496Y-81255638D01*
X113198327Y-81281800D01*
X113095624Y-81211289D01*
X113058160Y-81136110D01*
X113103494Y-81063781D01*
X113135438Y-81035251D01*
X113196895Y-81020705D01*
X113286205Y-81070687D01*
G37*
G36*
X104457633Y-98624121D02*
G01*
X104483333Y-98691471D01*
X104476250Y-98726631D01*
X104434108Y-98737791D01*
X104420665Y-98727715D01*
X104384884Y-98661048D01*
X104386293Y-98650059D01*
X104434108Y-98614729D01*
X104457633Y-98624121D01*
G37*
G36*
X111943176Y-81357595D02*
G01*
X112005499Y-81432195D01*
X112008195Y-81461829D01*
X111962427Y-81475266D01*
X111938607Y-81463723D01*
X111876284Y-81389123D01*
X111873588Y-81359489D01*
X111919355Y-81346051D01*
X111943176Y-81357595D01*
G37*
G36*
X108890327Y-95789729D02*
G01*
X108981466Y-95831889D01*
X109131303Y-95838873D01*
X109247594Y-95833182D01*
X109390091Y-95864672D01*
X109471282Y-95884580D01*
X109637699Y-95906753D01*
X109854365Y-95924505D01*
X110094961Y-95935203D01*
X110140314Y-95936371D01*
X110427140Y-95944340D01*
X110631772Y-95953479D01*
X110768514Y-95967354D01*
X110851668Y-95989531D01*
X110895535Y-96023574D01*
X110914419Y-96073049D01*
X110922621Y-96141521D01*
X110923301Y-96149242D01*
X110904124Y-96284345D01*
X110825839Y-96344924D01*
X110697965Y-96323278D01*
X110646877Y-96306054D01*
X110520195Y-96303560D01*
X110435339Y-96357396D01*
X110377352Y-96399447D01*
X110267100Y-96441078D01*
X110218766Y-96450892D01*
X110052385Y-96464327D01*
X109841583Y-96464031D01*
X109614915Y-96451931D01*
X109400940Y-96429953D01*
X109228215Y-96400022D01*
X109125297Y-96364065D01*
X109044817Y-96327516D01*
X108864325Y-96325779D01*
X108750696Y-96335580D01*
X108642332Y-96300750D01*
X108614926Y-96282185D01*
X108543641Y-96280072D01*
X108440810Y-96345620D01*
X108433093Y-96351612D01*
X108326983Y-96420478D01*
X108250022Y-96448837D01*
X108240264Y-96448317D01*
X108146044Y-96395565D01*
X108060824Y-96276945D01*
X107997065Y-96121884D01*
X107967228Y-95959807D01*
X107983775Y-95820140D01*
X108051723Y-95732688D01*
X108166964Y-95719041D01*
X108314929Y-95789204D01*
X108375500Y-95828291D01*
X108442289Y-95840305D01*
X108514351Y-95789204D01*
X108588216Y-95737640D01*
X108727614Y-95718085D01*
X108890327Y-95789729D01*
G37*
G36*
X108322868Y-81139922D02*
G01*
X108319316Y-81165982D01*
X108290052Y-81172739D01*
X108284160Y-81165524D01*
X108290052Y-81107106D01*
X108304857Y-81099405D01*
X108322868Y-81139922D01*
G37*
G36*
X107765832Y-95973893D02*
G01*
X107830516Y-96044899D01*
X107902000Y-96132513D01*
X107922341Y-96172437D01*
X107875023Y-96205504D01*
X107782749Y-96268261D01*
X107693478Y-96326062D01*
X107648644Y-96350388D01*
X107646323Y-96349049D01*
X107612269Y-96297996D01*
X107556355Y-96195890D01*
X107529694Y-96140342D01*
X107502950Y-96026846D01*
X107533950Y-95915219D01*
X107591439Y-95789045D01*
X107765832Y-95973893D01*
G37*
G36*
X97247287Y-94455233D02*
G01*
X97222674Y-94479845D01*
X97198062Y-94455233D01*
X97222674Y-94430620D01*
X97247287Y-94455233D01*
G37*
G36*
X111082678Y-89508167D02*
G01*
X111165588Y-89527582D01*
X111160037Y-89574035D01*
X111067151Y-89634322D01*
X110978341Y-89668909D01*
X110933468Y-89658331D01*
X110948769Y-89584100D01*
X110982865Y-89541168D01*
X111077912Y-89508140D01*
X111082678Y-89508167D01*
G37*
G36*
X104614599Y-89524548D02*
G01*
X104622300Y-89539354D01*
X104581783Y-89557364D01*
X104555723Y-89553812D01*
X104548966Y-89524548D01*
X104556181Y-89518657D01*
X104614599Y-89524548D01*
G37*
G36*
X112533297Y-80261073D02*
G01*
X112658915Y-80304683D01*
X112703876Y-80382204D01*
X112686545Y-80429038D01*
X112597998Y-80446848D01*
X112436344Y-80402769D01*
X112392021Y-80383289D01*
X112319565Y-80323777D01*
X112331629Y-80274447D01*
X112429113Y-80253876D01*
X112533297Y-80261073D01*
G37*
G36*
X103351163Y-92338566D02*
G01*
X103326550Y-92363178D01*
X103301938Y-92338566D01*
X103326550Y-92313953D01*
X103351163Y-92338566D01*
G37*
G36*
X107217392Y-95964412D02*
G01*
X107255804Y-96030320D01*
X107275950Y-96125936D01*
X107264807Y-96202273D01*
X107234372Y-96237165D01*
X107163370Y-96238508D01*
X107088898Y-96147228D01*
X107087108Y-96143863D01*
X107058383Y-96054560D01*
X107099472Y-96000308D01*
X107132758Y-95981388D01*
X107199687Y-95957343D01*
X107217392Y-95964412D01*
G37*
G36*
X112368277Y-81368941D02*
G01*
X112408527Y-81438176D01*
X112407043Y-81444247D01*
X112350127Y-81472860D01*
X112236240Y-81484496D01*
X112150172Y-81478787D01*
X112074109Y-81449765D01*
X112085441Y-81407600D01*
X112189279Y-81365264D01*
X112258697Y-81353045D01*
X112368277Y-81368941D01*
G37*
G36*
X109651938Y-96744186D02*
G01*
X109648385Y-96770246D01*
X109619121Y-96777003D01*
X109613230Y-96769788D01*
X109619121Y-96711370D01*
X109633927Y-96703668D01*
X109651938Y-96744186D01*
G37*
%TD*%
%LPC*%
D10*
%TO.C,REF\u002A\u002A*%
X140000000Y-171000000D03*
%TD*%
D11*
%TO.C,J1*%
X108110000Y-55162500D03*
X113890000Y-55162500D03*
%TD*%
D10*
%TO.C,REF\u002A\u002A*%
X135000000Y-44500000D03*
%TD*%
D12*
%TO.C,H5*%
X158302944Y-113302944D03*
X161697056Y-113302944D03*
X160000000Y-117400000D03*
X157600000Y-115000000D03*
D13*
X160000000Y-115000000D03*
D12*
X160000000Y-112600000D03*
X162400000Y-115000000D03*
X161697056Y-116697056D03*
X158302944Y-116697056D03*
%TD*%
D14*
%TO.C,S1*%
X132300000Y-52300000D03*
X130300000Y-52300000D03*
X128300000Y-52300000D03*
D15*
X135150000Y-52300000D03*
X125450000Y-52300000D03*
%TD*%
D16*
%TO.C,U7*%
X150720886Y-103591773D03*
D17*
X149450886Y-105791477D03*
X148180886Y-107991182D03*
X146910886Y-110190886D03*
X145640886Y-112390591D03*
X144370886Y-114590295D03*
X143100886Y-116790000D03*
X149700000Y-120600000D03*
X150970000Y-118400295D03*
X152240000Y-116200591D03*
X153510000Y-114000886D03*
X154780000Y-111801182D03*
X156050000Y-109601477D03*
X157320000Y-107401773D03*
%TD*%
D18*
%TO.C,U8*%
X89221025Y-141951034D03*
D14*
X99998966Y-144838975D03*
X100998966Y-146571025D03*
X98111025Y-157348966D03*
X96378975Y-158348966D03*
X87488975Y-142951034D03*
%TD*%
D12*
%TO.C,H1*%
X103302944Y-161697056D03*
D13*
X105000000Y-160000000D03*
D12*
X106697056Y-161697056D03*
X103302944Y-158302944D03*
X105000000Y-162400000D03*
X102600000Y-160000000D03*
X105000000Y-157600000D03*
X106697056Y-158302944D03*
X107400000Y-160000000D03*
%TD*%
%TO.C,H2*%
X136697056Y-161697056D03*
X136697056Y-158302944D03*
X132600000Y-160000000D03*
X135000000Y-162400000D03*
X135000000Y-157600000D03*
X133302944Y-158302944D03*
X137400000Y-160000000D03*
D13*
X135000000Y-160000000D03*
D12*
X133302944Y-161697056D03*
%TD*%
D19*
%TO.C,U9*%
X152688975Y-138898966D03*
D14*
X149801034Y-128121025D03*
X150801034Y-126388975D03*
X161578975Y-123501034D03*
X163311025Y-124501034D03*
X154421025Y-139898966D03*
%TD*%
D12*
%TO.C,H3*%
X121697056Y-66697056D03*
X118302944Y-63302944D03*
X122400000Y-65000000D03*
X117600000Y-65000000D03*
X121697056Y-63302944D03*
X118302944Y-66697056D03*
X120000000Y-62600000D03*
D13*
X120000000Y-65000000D03*
D12*
X120000000Y-67400000D03*
%TD*%
D20*
%TO.C,D3*%
X125000000Y-112500000D03*
D21*
X125000000Y-115040000D03*
%TD*%
D10*
%TO.C,REF\u002A\u002A*%
X105000000Y-44500000D03*
%TD*%
D22*
%TO.C,U3*%
X96218210Y-116667947D03*
D17*
X94948210Y-114468243D03*
X93678210Y-112268538D03*
X92408210Y-110068834D03*
X91138210Y-107869129D03*
X89868210Y-105669425D03*
X88598210Y-103469720D03*
X81999096Y-107279720D03*
X83269096Y-109479425D03*
X84539096Y-111679129D03*
X85809096Y-113878834D03*
X87079096Y-116078538D03*
X88349096Y-118278243D03*
X89619096Y-120477947D03*
%TD*%
D18*
%TO.C,U5*%
X78521025Y-123401034D03*
D14*
X89298966Y-126288975D03*
X90298966Y-128021025D03*
X87411025Y-138798966D03*
X85678975Y-139798966D03*
X76788975Y-124401034D03*
%TD*%
D23*
%TO.C,J2*%
X142400000Y-96000000D03*
D24*
X142400000Y-98000000D03*
X142400000Y-100000000D03*
%TD*%
D20*
%TO.C,D4*%
X135000000Y-112500000D03*
D21*
X135000000Y-115040000D03*
%TD*%
D10*
%TO.C,REF\u002A\u002A*%
X100000000Y-171000000D03*
%TD*%
D20*
%TO.C,D2*%
X115000000Y-112500000D03*
D21*
X115000000Y-115040000D03*
%TD*%
D25*
%TO.C,A1*%
X111790000Y-122050000D03*
D26*
X111790000Y-124590000D03*
X111790000Y-127130000D03*
X111790000Y-129670000D03*
X111790000Y-132210000D03*
X111790000Y-134750000D03*
X111790000Y-137290000D03*
X111790000Y-139830000D03*
X111790000Y-142370000D03*
X111790000Y-144910000D03*
X111790000Y-147450000D03*
X111790000Y-149990000D03*
X111790000Y-152530000D03*
X111790000Y-155070000D03*
X111790000Y-157610000D03*
X127030000Y-157610000D03*
X127030000Y-155070000D03*
X127030000Y-152530000D03*
X127030000Y-149990000D03*
X127030000Y-147450000D03*
X127030000Y-144910000D03*
X127030000Y-142370000D03*
X127030000Y-139830000D03*
X127030000Y-137290000D03*
X127030000Y-134750000D03*
X127030000Y-132210000D03*
X127030000Y-129670000D03*
X127030000Y-127130000D03*
X127030000Y-124590000D03*
X127030000Y-122050000D03*
%TD*%
D16*
%TO.C,U2*%
X138810443Y-125195887D03*
D17*
X137540443Y-127395591D03*
X136270443Y-129595296D03*
X135000443Y-131795000D03*
X133730443Y-133994705D03*
X132460443Y-136194409D03*
X131190443Y-138394114D03*
X137789557Y-142204114D03*
X139059557Y-140004409D03*
X140329557Y-137804705D03*
X141599557Y-135605000D03*
X142869557Y-133405296D03*
X144139557Y-131205591D03*
X145409557Y-129005887D03*
%TD*%
D27*
%TO.C,J3*%
X101200000Y-100550000D03*
X101200000Y-96550000D03*
%TD*%
D12*
%TO.C,H4*%
X81697056Y-116697056D03*
D13*
X80000000Y-115000000D03*
D12*
X77600000Y-115000000D03*
X78302944Y-116697056D03*
X80000000Y-117400000D03*
X78302944Y-113302944D03*
X80000000Y-112600000D03*
X81697056Y-113302944D03*
X82400000Y-115000000D03*
%TD*%
D19*
%TO.C,U4*%
X141988975Y-157448966D03*
D14*
X139101034Y-146671025D03*
X140101034Y-144938975D03*
X150878975Y-142051034D03*
X152611025Y-143051034D03*
X143721025Y-158448966D03*
%TD*%
D22*
%TO.C,U6*%
X107684691Y-136594114D03*
D17*
X106414691Y-134394410D03*
X105144691Y-132194705D03*
X103874691Y-129995001D03*
X102604691Y-127795296D03*
X101334691Y-125595592D03*
X100064691Y-123395887D03*
X93465577Y-127205887D03*
X94735577Y-129405592D03*
X96005577Y-131605296D03*
X97275577Y-133805001D03*
X98545577Y-136004705D03*
X99815577Y-138204410D03*
X101085577Y-140404114D03*
%TD*%
D20*
%TO.C,D1*%
X105000000Y-112500000D03*
D21*
X105000000Y-115040000D03*
%TD*%
M02*
