%TF.GenerationSoftware,KiCad,Pcbnew,6.0.9-8da3e8f707~116~ubuntu20.04.1*%
%TF.CreationDate,2023-01-26T21:54:07-05:00*%
%TF.ProjectId,free2breathe_pcb,66726565-3262-4726-9561-7468655f7063,rev?*%
%TF.SameCoordinates,Original*%
%TF.FileFunction,Soldermask,Top*%
%TF.FilePolarity,Negative*%
%FSLAX46Y46*%
G04 Gerber Fmt 4.6, Leading zero omitted, Abs format (unit mm)*
G04 Created by KiCad (PCBNEW 6.0.9-8da3e8f707~116~ubuntu20.04.1) date 2023-01-26 21:54:07*
%MOMM*%
%LPD*%
G01*
G04 APERTURE LIST*
G04 Aperture macros list*
%AMRoundRect*
0 Rectangle with rounded corners*
0 $1 Rounding radius*
0 $2 $3 $4 $5 $6 $7 $8 $9 X,Y pos of 4 corners*
0 Add a 4 corners polygon primitive as box body*
4,1,4,$2,$3,$4,$5,$6,$7,$8,$9,$2,$3,0*
0 Add four circle primitives for the rounded corners*
1,1,$1+$1,$2,$3*
1,1,$1+$1,$4,$5*
1,1,$1+$1,$6,$7*
1,1,$1+$1,$8,$9*
0 Add four rect primitives between the rounded corners*
20,1,$1+$1,$2,$3,$4,$5,0*
20,1,$1+$1,$4,$5,$6,$7,0*
20,1,$1+$1,$6,$7,$8,$9,0*
20,1,$1+$1,$8,$9,$2,$3,0*%
%AMRotRect*
0 Rectangle, with rotation*
0 The origin of the aperture is its center*
0 $1 length*
0 $2 width*
0 $3 Rotation angle, in degrees counterclockwise*
0 Add horizontal line*
21,1,$1,$2,0,0,$3*%
G04 Aperture macros list end*
%ADD10R,1.800000X2.000000*%
%ADD11C,0.650000*%
%ADD12R,0.600000X1.150000*%
%ADD13R,0.300000X1.150000*%
%ADD14R,2.180000X2.000000*%
%ADD15RoundRect,0.200000X0.338157X-0.035705X0.138157X0.310705X-0.338157X0.035705X-0.138157X-0.310705X0*%
%ADD16RoundRect,0.200000X0.310705X0.138157X-0.035705X0.338157X-0.310705X-0.138157X0.035705X-0.338157X0*%
%ADD17C,0.800000*%
%ADD18C,6.400000*%
%ADD19RoundRect,0.250000X0.250000X0.475000X-0.250000X0.475000X-0.250000X-0.475000X0.250000X-0.475000X0*%
%ADD20RoundRect,0.225000X0.319856X0.104006X-0.069856X0.329006X-0.319856X-0.104006X0.069856X-0.329006X0*%
%ADD21C,1.308000*%
%ADD22C,2.250000*%
%ADD23RoundRect,0.200000X-0.200000X-0.275000X0.200000X-0.275000X0.200000X0.275000X-0.200000X0.275000X0*%
%ADD24RoundRect,0.200000X0.138157X-0.310705X0.338157X0.035705X-0.138157X0.310705X-0.338157X-0.035705X0*%
%ADD25RoundRect,0.225000X-0.250000X0.225000X-0.250000X-0.225000X0.250000X-0.225000X0.250000X0.225000X0*%
%ADD26RoundRect,0.218750X0.256250X-0.218750X0.256250X0.218750X-0.256250X0.218750X-0.256250X-0.218750X0*%
%ADD27RoundRect,0.200000X-0.138157X0.310705X-0.338157X-0.035705X0.138157X-0.310705X0.338157X0.035705X0*%
%ADD28RotRect,1.498600X1.498600X330.000000*%
%ADD29C,1.498600*%
%ADD30RotRect,4.000000X4.000000X30.000000*%
%ADD31RoundRect,0.225000X-0.104006X0.319856X-0.329006X-0.069856X0.104006X-0.319856X0.329006X0.069856X0*%
%ADD32RoundRect,0.225000X0.225000X0.250000X-0.225000X0.250000X-0.225000X-0.250000X0.225000X-0.250000X0*%
%ADD33RoundRect,0.200000X-0.310705X-0.138157X0.035705X-0.338157X0.310705X0.138157X-0.035705X0.338157X0*%
%ADD34RoundRect,0.225000X0.329006X-0.069856X0.104006X0.319856X-0.329006X0.069856X-0.104006X-0.319856X0*%
%ADD35RoundRect,0.200000X-0.338157X0.035705X-0.138157X-0.310705X0.338157X-0.035705X0.138157X0.310705X0*%
%ADD36RoundRect,0.225000X-0.225000X-0.250000X0.225000X-0.250000X0.225000X0.250000X-0.225000X0.250000X0*%
%ADD37R,1.800000X1.800000*%
%ADD38C,1.800000*%
%ADD39RoundRect,0.250000X0.450000X-0.262500X0.450000X0.262500X-0.450000X0.262500X-0.450000X-0.262500X0*%
%ADD40RotRect,1.308000X1.308000X210.000000*%
%ADD41RotRect,1.498600X1.498600X210.000000*%
%ADD42RoundRect,0.250000X-0.625000X0.350000X-0.625000X-0.350000X0.625000X-0.350000X0.625000X0.350000X0*%
%ADD43O,1.750000X1.200000*%
%ADD44RoundRect,0.225000X0.250000X-0.225000X0.250000X0.225000X-0.250000X0.225000X-0.250000X-0.225000X0*%
%ADD45RoundRect,0.200000X-0.275000X0.200000X-0.275000X-0.200000X0.275000X-0.200000X0.275000X0.200000X0*%
%ADD46RoundRect,0.225000X-0.069856X-0.329006X0.319856X-0.104006X0.069856X0.329006X-0.319856X0.104006X0*%
%ADD47RoundRect,0.200000X-0.035705X-0.338157X0.310705X-0.138157X0.035705X0.338157X-0.310705X0.138157X0*%
%ADD48RoundRect,0.150000X-0.587500X-0.150000X0.587500X-0.150000X0.587500X0.150000X-0.587500X0.150000X0*%
%ADD49RotRect,4.000000X4.000000X330.000000*%
%ADD50RoundRect,0.225000X0.335876X0.017678X0.017678X0.335876X-0.335876X-0.017678X-0.017678X-0.335876X0*%
%ADD51RoundRect,0.200000X0.035705X0.338157X-0.310705X0.138157X-0.035705X-0.338157X0.310705X-0.138157X0*%
%ADD52RoundRect,0.200000X0.200000X0.275000X-0.200000X0.275000X-0.200000X-0.275000X0.200000X-0.275000X0*%
%ADD53RoundRect,0.225000X-0.329006X0.069856X-0.104006X-0.319856X0.329006X-0.069856X0.104006X0.319856X0*%
%ADD54RotRect,1.308000X1.308000X330.000000*%
%ADD55RoundRect,0.062500X-0.291682X0.203293X0.203293X-0.291682X0.291682X-0.203293X-0.203293X0.291682X0*%
%ADD56RoundRect,0.062500X-0.291682X-0.203293X-0.203293X-0.291682X0.291682X0.203293X0.203293X0.291682X0*%
%ADD57RotRect,4.600000X4.600000X315.000000*%
%ADD58R,1.600000X1.600000*%
%ADD59O,1.600000X1.600000*%
%ADD60C,1.524000*%
%ADD61RoundRect,0.225000X0.104006X-0.319856X0.329006X0.069856X-0.104006X0.319856X-0.329006X-0.069856X0*%
%ADD62RoundRect,0.200000X0.275000X-0.200000X0.275000X0.200000X-0.275000X0.200000X-0.275000X-0.200000X0*%
%ADD63RoundRect,0.225000X-0.319856X-0.104006X0.069856X-0.329006X0.319856X0.104006X-0.069856X0.329006X0*%
%ADD64RoundRect,0.250000X0.475000X-0.250000X0.475000X0.250000X-0.475000X0.250000X-0.475000X-0.250000X0*%
G04 APERTURE END LIST*
D10*
%TO.C,L1*%
X101000000Y-76900000D03*
X101000000Y-81400000D03*
%TD*%
D11*
%TO.C,J1*%
X108110000Y-55162500D03*
X113890000Y-55162500D03*
D12*
X114200000Y-56237500D03*
X113400000Y-56237500D03*
D13*
X112250000Y-56237500D03*
X111250000Y-56237500D03*
X110750000Y-56237500D03*
X109750000Y-56237500D03*
D12*
X107800000Y-56237500D03*
X108600000Y-56237500D03*
D13*
X109250000Y-56237500D03*
X110250000Y-56237500D03*
X111750000Y-56237500D03*
X112750000Y-56237500D03*
D14*
X116110000Y-55662500D03*
X105890000Y-55662500D03*
X116110000Y-51732500D03*
X105890000Y-51732500D03*
%TD*%
D15*
%TO.C,R21*%
X94612500Y-102214471D03*
X93787500Y-100785529D03*
%TD*%
D16*
%TO.C,R31*%
X148714471Y-123712500D03*
X147285529Y-122887500D03*
%TD*%
D17*
%TO.C,H5*%
X158302944Y-113302944D03*
X161697056Y-113302944D03*
X160000000Y-117400000D03*
X157600000Y-115000000D03*
D18*
X160000000Y-115000000D03*
D17*
X160000000Y-112600000D03*
X162400000Y-115000000D03*
X161697056Y-116697056D03*
X158302944Y-116697056D03*
%TD*%
D19*
%TO.C,C10*%
X102875002Y-64700000D03*
X100975002Y-64700000D03*
%TD*%
D20*
%TO.C,C30*%
X131100000Y-134700000D03*
X129757660Y-133925000D03*
%TD*%
D21*
%TO.C,S1*%
X132300000Y-52300000D03*
X130300000Y-52300000D03*
X128300000Y-52300000D03*
D22*
X135150000Y-52300000D03*
X125450000Y-52300000D03*
%TD*%
D23*
%TO.C,R6*%
X124075000Y-117100000D03*
X125725000Y-117100000D03*
%TD*%
D24*
%TO.C,R29*%
X142587500Y-105814471D03*
X143412500Y-104385529D03*
%TD*%
D25*
%TO.C,C17*%
X107800000Y-85225000D03*
X107800000Y-86775000D03*
%TD*%
D15*
%TO.C,R20*%
X102512500Y-123014471D03*
X101687500Y-121585529D03*
%TD*%
D26*
%TO.C,D7*%
X122000000Y-87562500D03*
X122000000Y-85987500D03*
%TD*%
D27*
%TO.C,R35*%
X141712500Y-107485529D03*
X140887500Y-108914471D03*
%TD*%
D25*
%TO.C,C4*%
X107800000Y-81525000D03*
X107800000Y-83075000D03*
%TD*%
D17*
%TO.C,H1*%
X103302944Y-161697056D03*
D18*
X105000000Y-160000000D03*
D17*
X106697056Y-161697056D03*
X103302944Y-158302944D03*
X105000000Y-162400000D03*
X102600000Y-160000000D03*
X105000000Y-157600000D03*
X106697056Y-158302944D03*
X107400000Y-160000000D03*
%TD*%
D23*
%TO.C,R24*%
X119175000Y-105100000D03*
X120825000Y-105100000D03*
%TD*%
D17*
%TO.C,H2*%
X136697056Y-161697056D03*
X136697056Y-158302944D03*
X132600000Y-160000000D03*
X135000000Y-162400000D03*
X135000000Y-157600000D03*
X133302944Y-158302944D03*
X137400000Y-160000000D03*
D18*
X135000000Y-160000000D03*
D17*
X133302944Y-161697056D03*
%TD*%
D28*
%TO.C,U6*%
X138610443Y-126095887D03*
D29*
X137340443Y-128295591D03*
X136070443Y-130495296D03*
X134800443Y-132695000D03*
X133530443Y-134894705D03*
X132260443Y-137094409D03*
X130990443Y-139294114D03*
X137589557Y-143104114D03*
X138859557Y-140904409D03*
X140129557Y-138704705D03*
X141399557Y-136505000D03*
X142669557Y-134305296D03*
X143939557Y-132105591D03*
X145209557Y-129905887D03*
%TD*%
D26*
%TO.C,D8*%
X126000000Y-87562500D03*
X126000000Y-85987500D03*
%TD*%
D30*
%TO.C,BT1*%
X142700000Y-83303848D03*
X145700000Y-88500000D03*
%TD*%
D31*
%TO.C,C28*%
X146387500Y-106028830D03*
X145612500Y-107371170D03*
%TD*%
D32*
%TO.C,C11*%
X102675000Y-58000000D03*
X101125000Y-58000000D03*
%TD*%
D33*
%TO.C,R27*%
X154671058Y-116400000D03*
X156100000Y-117225000D03*
%TD*%
D23*
%TO.C,R25*%
X123775000Y-105100000D03*
X125425000Y-105100000D03*
%TD*%
D33*
%TO.C,R28*%
X133785529Y-126187500D03*
X135214471Y-127012500D03*
%TD*%
D34*
%TO.C,C19*%
X98087500Y-114971170D03*
X97312500Y-113628830D03*
%TD*%
D35*
%TO.C,R12*%
X104887500Y-147285529D03*
X105712500Y-148714471D03*
%TD*%
D17*
%TO.C,H3*%
X121697056Y-66697056D03*
X118302944Y-63302944D03*
X122400000Y-65000000D03*
X117600000Y-65000000D03*
X121697056Y-63302944D03*
X118302944Y-66697056D03*
X120000000Y-62600000D03*
D18*
X120000000Y-65000000D03*
D17*
X120000000Y-67400000D03*
%TD*%
D36*
%TO.C,C6*%
X114300000Y-71100000D03*
X115850000Y-71100000D03*
%TD*%
D37*
%TO.C,D3*%
X125000000Y-112500000D03*
D38*
X125000000Y-115040000D03*
%TD*%
D28*
%TO.C,U8*%
X151610443Y-103095887D03*
D29*
X150340443Y-105295591D03*
X149070443Y-107495296D03*
X147800443Y-109695000D03*
X146530443Y-111894705D03*
X145260443Y-114094409D03*
X143990443Y-116294114D03*
X150589557Y-120104114D03*
X151859557Y-117904409D03*
X153129557Y-115704705D03*
X154399557Y-113505000D03*
X155669557Y-111305296D03*
X156939557Y-109105591D03*
X158209557Y-106905887D03*
%TD*%
D25*
%TO.C,C1*%
X121637500Y-78075000D03*
X121637500Y-79625000D03*
%TD*%
D39*
%TO.C,TH1*%
X105200000Y-61412500D03*
X105200000Y-59587500D03*
%TD*%
D40*
%TO.C,U4*%
X89221025Y-142101034D03*
D21*
X99998966Y-144988975D03*
X100998966Y-146721025D03*
X98111025Y-157498966D03*
X96378975Y-158498966D03*
X87488975Y-143101034D03*
%TD*%
D24*
%TO.C,R30*%
X134387500Y-147214471D03*
X135212500Y-145785529D03*
%TD*%
D26*
%TO.C,D6*%
X118000000Y-87562500D03*
X118000000Y-85987500D03*
%TD*%
D41*
%TO.C,U3*%
X96218210Y-116667947D03*
D29*
X94948210Y-114468243D03*
X93678210Y-112268538D03*
X92408210Y-110068834D03*
X91138210Y-107869129D03*
X89868210Y-105669425D03*
X88598210Y-103469720D03*
X81999096Y-107279720D03*
X83269096Y-109479425D03*
X84539096Y-111679129D03*
X85809096Y-113878834D03*
X87079096Y-116078538D03*
X88349096Y-118278243D03*
X89619096Y-120477947D03*
%TD*%
D40*
%TO.C,U5*%
X78521025Y-123401034D03*
D21*
X89298966Y-126288975D03*
X90298966Y-128021025D03*
X87411025Y-138798966D03*
X85678975Y-139798966D03*
X76788975Y-124401034D03*
%TD*%
D42*
%TO.C,J2*%
X142400000Y-96000000D03*
D43*
X142400000Y-98000000D03*
X142400000Y-100000000D03*
%TD*%
D19*
%TO.C,C8*%
X102850000Y-62400000D03*
X100950000Y-62400000D03*
%TD*%
D44*
%TO.C,C14*%
X105600000Y-83075000D03*
X105600000Y-81525000D03*
%TD*%
D23*
%TO.C,R23*%
X114775000Y-105100000D03*
X116425000Y-105100000D03*
%TD*%
D45*
%TO.C,R3*%
X108900000Y-74400000D03*
X108900000Y-76050000D03*
%TD*%
D46*
%TO.C,C24*%
X105628830Y-127987500D03*
X106971170Y-127212500D03*
%TD*%
D47*
%TO.C,R19*%
X83900000Y-117200000D03*
X85328942Y-116375000D03*
%TD*%
D25*
%TO.C,C16*%
X105600000Y-85225000D03*
X105600000Y-86775000D03*
%TD*%
D48*
%TO.C,Q1*%
X119400000Y-73300000D03*
X119400000Y-75200000D03*
X121275000Y-74250000D03*
%TD*%
D49*
%TO.C,BT2*%
X92600000Y-91001924D03*
X89600000Y-96198076D03*
%TD*%
D50*
%TO.C,C12*%
X107748008Y-69948008D03*
X106651992Y-68851992D03*
%TD*%
D33*
%TO.C,R33*%
X130871058Y-131775000D03*
X132300000Y-132600000D03*
%TD*%
D19*
%TO.C,C9*%
X102875000Y-66900000D03*
X100975000Y-66900000D03*
%TD*%
D51*
%TO.C,R14*%
X93514471Y-122187500D03*
X92085529Y-123012500D03*
%TD*%
D52*
%TO.C,R9*%
X124825000Y-83700000D03*
X123175000Y-83700000D03*
%TD*%
D51*
%TO.C,R15*%
X108314471Y-129687500D03*
X106885529Y-130512500D03*
%TD*%
D53*
%TO.C,C23*%
X91312500Y-102228830D03*
X92087500Y-103571170D03*
%TD*%
D37*
%TO.C,D4*%
X135000000Y-112500000D03*
D38*
X135000000Y-115040000D03*
%TD*%
D37*
%TO.C,D2*%
X115000000Y-112500000D03*
D38*
X115000000Y-115040000D03*
%TD*%
D47*
%TO.C,R18*%
X93085529Y-124812500D03*
X94514471Y-123987500D03*
%TD*%
D33*
%TO.C,R26*%
X145885529Y-125187500D03*
X147314471Y-126012500D03*
%TD*%
D51*
%TO.C,R16*%
X94414471Y-105987500D03*
X92985529Y-106812500D03*
%TD*%
D19*
%TO.C,C7*%
X102850000Y-60100000D03*
X100950000Y-60100000D03*
%TD*%
D41*
%TO.C,U2*%
X108019114Y-137688227D03*
D29*
X106749114Y-135488523D03*
X105479114Y-133288818D03*
X104209114Y-131089114D03*
X102939114Y-128889409D03*
X101669114Y-126689705D03*
X100399114Y-124490000D03*
X93800000Y-128300000D03*
X95070000Y-130499705D03*
X96340000Y-132699409D03*
X97610000Y-134899114D03*
X98880000Y-137098818D03*
X100150000Y-139298523D03*
X101420000Y-141498227D03*
%TD*%
D54*
%TO.C,U9*%
X152688975Y-138898966D03*
D21*
X149801034Y-128121025D03*
X150801034Y-126388975D03*
X161578975Y-123501034D03*
X163311025Y-124501034D03*
X154421025Y-139898966D03*
%TD*%
D55*
%TO.C,U1*%
X109974346Y-61631884D03*
X109620793Y-61985437D03*
X109267239Y-62338990D03*
X108913686Y-62692544D03*
X108560133Y-63046097D03*
X108206579Y-63399651D03*
X107853026Y-63753204D03*
X107499472Y-64106757D03*
X107145919Y-64460311D03*
X106792366Y-64813864D03*
D56*
X106792366Y-65786136D03*
X107145919Y-66139689D03*
X107499472Y-66493243D03*
X107853026Y-66846796D03*
X108206579Y-67200349D03*
X108560133Y-67553903D03*
X108913686Y-67907456D03*
X109267239Y-68261010D03*
X109620793Y-68614563D03*
X109974346Y-68968116D03*
D55*
X110946618Y-68968116D03*
X111300171Y-68614563D03*
X111653725Y-68261010D03*
X112007278Y-67907456D03*
X112360831Y-67553903D03*
X112714385Y-67200349D03*
X113067938Y-66846796D03*
X113421492Y-66493243D03*
X113775045Y-66139689D03*
X114128598Y-65786136D03*
D56*
X114128598Y-64813864D03*
X113775045Y-64460311D03*
X113421492Y-64106757D03*
X113067938Y-63753204D03*
X112714385Y-63399651D03*
X112360831Y-63046097D03*
X112007278Y-62692544D03*
X111653725Y-62338990D03*
X111300171Y-61985437D03*
X110946618Y-61631884D03*
D57*
X110460482Y-65300000D03*
%TD*%
D58*
%TO.C,A1*%
X111790000Y-122050000D03*
D59*
X111790000Y-124590000D03*
X111790000Y-127130000D03*
X111790000Y-129670000D03*
X111790000Y-132210000D03*
X111790000Y-134750000D03*
X111790000Y-137290000D03*
X111790000Y-139830000D03*
X111790000Y-142370000D03*
X111790000Y-144910000D03*
X111790000Y-147450000D03*
X111790000Y-149990000D03*
X111790000Y-152530000D03*
X111790000Y-155070000D03*
X111790000Y-157610000D03*
X127030000Y-157610000D03*
X127030000Y-155070000D03*
X127030000Y-152530000D03*
X127030000Y-149990000D03*
X127030000Y-147450000D03*
X127030000Y-144910000D03*
X127030000Y-142370000D03*
X127030000Y-139830000D03*
X127030000Y-137290000D03*
X127030000Y-134750000D03*
X127030000Y-132210000D03*
X127030000Y-129670000D03*
X127030000Y-127130000D03*
X127030000Y-124590000D03*
X127030000Y-122050000D03*
%TD*%
D52*
%TO.C,R4*%
X105725000Y-117200000D03*
X104075000Y-117200000D03*
%TD*%
D39*
%TO.C,R2*%
X110700000Y-73525000D03*
X110700000Y-71700000D03*
%TD*%
D20*
%TO.C,C26*%
X133871170Y-129287500D03*
X132528830Y-128512500D03*
%TD*%
D60*
%TO.C,J3*%
X106800000Y-103150000D03*
X106800000Y-99150000D03*
%TD*%
D16*
%TO.C,R32*%
X131514471Y-148212500D03*
X130085529Y-147387500D03*
%TD*%
D20*
%TO.C,C25*%
X136571170Y-124487500D03*
X135228830Y-123712500D03*
%TD*%
D52*
%TO.C,R7*%
X116825000Y-83700000D03*
X115175000Y-83700000D03*
%TD*%
D23*
%TO.C,R10*%
X119175000Y-83700000D03*
X120825000Y-83700000D03*
%TD*%
D17*
%TO.C,H4*%
X81697056Y-116697056D03*
D18*
X80000000Y-115000000D03*
D17*
X77600000Y-115000000D03*
X78302944Y-116697056D03*
X80000000Y-117400000D03*
X78302944Y-113302944D03*
X80000000Y-112600000D03*
X81697056Y-113302944D03*
X82400000Y-115000000D03*
%TD*%
D34*
%TO.C,C18*%
X104087500Y-145871170D03*
X103312500Y-144528830D03*
%TD*%
D32*
%TO.C,C3*%
X115850000Y-69400000D03*
X114300000Y-69400000D03*
%TD*%
D61*
%TO.C,C32*%
X143812500Y-110371170D03*
X144587500Y-109028830D03*
%TD*%
D62*
%TO.C,R1*%
X116800000Y-75075000D03*
X116800000Y-73425000D03*
%TD*%
%TO.C,R11*%
X107300000Y-61000000D03*
X107300000Y-59350000D03*
%TD*%
D30*
%TO.C,BT3*%
X136500000Y-72605772D03*
X139500000Y-77801924D03*
%TD*%
D48*
%TO.C,Q2*%
X120062500Y-57750000D03*
X120062500Y-59650000D03*
X121937500Y-58700000D03*
%TD*%
D32*
%TO.C,C13*%
X121700000Y-54800000D03*
X120150000Y-54800000D03*
%TD*%
D25*
%TO.C,C15*%
X103400000Y-85225000D03*
X103400000Y-86775000D03*
%TD*%
D63*
%TO.C,C29*%
X130528830Y-144112500D03*
X131871170Y-144887500D03*
%TD*%
D45*
%TO.C,R36*%
X107300000Y-74400000D03*
X107300000Y-76050000D03*
%TD*%
D64*
%TO.C,C2*%
X116937500Y-79775000D03*
X116937500Y-77875000D03*
%TD*%
D53*
%TO.C,C22*%
X104412500Y-120228830D03*
X105187500Y-121571170D03*
%TD*%
D61*
%TO.C,C31*%
X141512500Y-114471170D03*
X142287500Y-113128830D03*
%TD*%
D53*
%TO.C,C20*%
X107712500Y-132528830D03*
X108487500Y-133871170D03*
%TD*%
D52*
%TO.C,R5*%
X115825000Y-117100000D03*
X114175000Y-117100000D03*
%TD*%
D35*
%TO.C,R17*%
X97887500Y-107385529D03*
X98712500Y-108814471D03*
%TD*%
D46*
%TO.C,C21*%
X95528830Y-111087500D03*
X96871170Y-110312500D03*
%TD*%
D26*
%TO.C,D5*%
X114000000Y-87562500D03*
X114000000Y-85987500D03*
%TD*%
D54*
%TO.C,U7*%
X141988975Y-157598966D03*
D21*
X139101034Y-146821025D03*
X140101034Y-145088975D03*
X150878975Y-142201034D03*
X152611025Y-143201034D03*
X143721025Y-158598966D03*
%TD*%
D37*
%TO.C,D1*%
X105000000Y-112500000D03*
D38*
X105000000Y-115040000D03*
%TD*%
D31*
%TO.C,C27*%
X148587500Y-102028830D03*
X147812500Y-103371170D03*
%TD*%
D47*
%TO.C,R13*%
X94185529Y-108912500D03*
X95614471Y-108087500D03*
%TD*%
D27*
%TO.C,R34*%
X139612500Y-111585529D03*
X138787500Y-113014471D03*
%TD*%
D44*
%TO.C,C5*%
X117600000Y-71050000D03*
X117600000Y-69500000D03*
%TD*%
D51*
%TO.C,R22*%
X105514471Y-124587500D03*
X104085529Y-125412500D03*
%TD*%
D23*
%TO.C,R8*%
X134275000Y-117100000D03*
X135925000Y-117100000D03*
%TD*%
M02*
