%TF.GenerationSoftware,KiCad,Pcbnew,6.0.9-8da3e8f707~116~ubuntu20.04.1*%
%TF.CreationDate,2023-02-25T13:57:50-05:00*%
%TF.ProjectId,free2breathe_pcb,66726565-3262-4726-9561-7468655f7063,rev?*%
%TF.SameCoordinates,Original*%
%TF.FileFunction,Profile,NP*%
%FSLAX46Y46*%
G04 Gerber Fmt 4.6, Leading zero omitted, Abs format (unit mm)*
G04 Created by KiCad (PCBNEW 6.0.9-8da3e8f707~116~ubuntu20.04.1) date 2023-02-25 13:57:50*
%MOMM*%
%LPD*%
G01*
G04 APERTURE LIST*
%TA.AperFunction,Profile*%
%ADD10C,0.100000*%
%TD*%
G04 APERTURE END LIST*
D10*
X154270000Y-166500000D02*
X140000000Y-166500000D01*
X130000000Y-48500000D02*
X140000000Y-48500000D01*
X110000000Y-48500000D02*
X110000000Y-50000000D01*
X140000000Y-166500000D02*
X140000000Y-165000000D01*
X85730000Y-165000000D02*
X65730000Y-130360000D01*
X140000000Y-48500000D02*
X140000000Y-40000000D01*
X101500000Y-165000000D02*
X138500000Y-165000000D01*
X111500000Y-48500000D02*
X128500000Y-48500000D01*
X111500000Y-50000000D02*
X111500000Y-48500000D01*
X85730000Y-166500000D02*
X85730000Y-175000000D01*
X154270000Y-166500000D02*
X154270000Y-175000000D01*
X85730000Y-175000000D02*
X154270000Y-175000000D01*
X128500000Y-48500000D02*
X128500000Y-50000000D01*
X100000000Y-48500000D02*
X110000000Y-48500000D01*
X100000000Y-40000000D02*
X100000000Y-48500000D01*
X138500000Y-166500000D02*
X138500000Y-165000000D01*
X140000000Y-71000000D02*
X140000000Y-50000000D01*
X140000000Y-40000000D02*
X100000000Y-40000000D01*
X140000000Y-165000000D02*
X154270000Y-165000000D01*
X128500000Y-50000000D02*
X111500000Y-50000000D01*
X100000000Y-166500000D02*
X85730000Y-166500000D01*
X140000000Y-50000000D02*
X130000000Y-50000000D01*
X100000000Y-71000000D02*
X65730000Y-130360000D01*
X100000000Y-50000000D02*
X100000000Y-71000000D01*
X100000000Y-166500000D02*
X100000000Y-165000000D01*
X174270000Y-130360000D02*
X140000000Y-71000000D01*
X110000000Y-50000000D02*
X100000000Y-50000000D01*
X130000000Y-50000000D02*
X130000000Y-48500000D01*
X85730000Y-165000000D02*
X100000000Y-165000000D01*
X174270000Y-130360000D02*
X154270000Y-165000000D01*
X138500000Y-166500000D02*
X101500000Y-166500000D01*
X101500000Y-166500000D02*
X101500000Y-165000000D01*
M02*
